G04*
G04 #@! TF.GenerationSoftware,Altium Limited,Altium Designer,23.10.1 (27)*
G04*
G04 Layer_Physical_Order=1*
G04 Layer_Color=255*
%FSLAX44Y44*%
%MOMM*%
G71*
G04*
G04 #@! TF.SameCoordinates,93BA021C-4F65-4C52-B2D2-680D5BDB3C73*
G04*
G04*
G04 #@! TF.FilePolarity,Positive*
G04*
G01*
G75*
%ADD13R,1.4500X1.6500*%
%ADD14R,1.6500X1.4500*%
%ADD17R,1.7000X1.7000*%
%ADD18C,1.7000*%
%ADD21R,1.4000X1.4000*%
%ADD23R,1.5500X1.5500*%
%ADD24C,1.5500*%
%ADD26C,0.5000*%
%ADD27O,1.4000X1.5000*%
%ADD28R,1.4000X1.5000*%
%ADD29C,3.2000*%
%ADD30C,1.2700*%
G36*
X2695000Y1185000D02*
Y15000D01*
X2685000Y5000D01*
X14000D01*
X5000Y14000D01*
Y1190000D01*
X10000Y1195000D01*
X2685000D01*
X2695000Y1185000D01*
D02*
G37*
%LPC*%
G36*
X1182830Y1125855D02*
Y1117170D01*
X1191081D01*
X1190855Y1118891D01*
X1189893Y1121211D01*
X1188364Y1123204D01*
X1186371Y1124733D01*
X1184051Y1125695D01*
X1182830Y1125855D01*
D02*
G37*
G36*
X1180290D02*
X1179070Y1125695D01*
X1176749Y1124733D01*
X1174756Y1123204D01*
X1173227Y1121211D01*
X1172266Y1118891D01*
X1172039Y1117170D01*
X1180290D01*
Y1125855D01*
D02*
G37*
G36*
X1191081Y1114630D02*
X1182830D01*
Y1105945D01*
X1184051Y1106106D01*
X1186371Y1107067D01*
X1188364Y1108596D01*
X1189893Y1110589D01*
X1190855Y1112910D01*
X1191081Y1114630D01*
D02*
G37*
G36*
X1180290D02*
X1172039D01*
X1172266Y1112910D01*
X1173227Y1110589D01*
X1174756Y1108596D01*
X1176749Y1107067D01*
X1179070Y1106106D01*
X1180290Y1105945D01*
Y1114630D01*
D02*
G37*
G36*
X2601826Y1118540D02*
X2598174D01*
X2594592Y1117828D01*
X2591218Y1116430D01*
X2588181Y1114401D01*
X2585599Y1111819D01*
X2583570Y1108782D01*
X2582173Y1105408D01*
X2581460Y1101826D01*
Y1098174D01*
X2582173Y1094592D01*
X2583570Y1091218D01*
X2585599Y1088181D01*
X2588181Y1085599D01*
X2591218Y1083570D01*
X2594592Y1082172D01*
X2598174Y1081460D01*
X2601826D01*
X2605408Y1082172D01*
X2608782Y1083570D01*
X2611819Y1085599D01*
X2614401Y1088181D01*
X2616430Y1091218D01*
X2617827Y1094592D01*
X2618540Y1098174D01*
Y1101826D01*
X2617827Y1105408D01*
X2616430Y1108782D01*
X2614401Y1111819D01*
X2611819Y1114401D01*
X2608782Y1116430D01*
X2605408Y1117828D01*
X2601826Y1118540D01*
D02*
G37*
G36*
X1901826D02*
X1898174D01*
X1894592Y1117828D01*
X1891218Y1116430D01*
X1888181Y1114401D01*
X1885599Y1111819D01*
X1883570Y1108782D01*
X1882173Y1105408D01*
X1881460Y1101826D01*
Y1098174D01*
X1882173Y1094592D01*
X1883570Y1091218D01*
X1885599Y1088181D01*
X1888181Y1085599D01*
X1891218Y1083570D01*
X1894592Y1082172D01*
X1898174Y1081460D01*
X1901826D01*
X1905408Y1082172D01*
X1908782Y1083570D01*
X1911819Y1085599D01*
X1914401Y1088181D01*
X1916430Y1091218D01*
X1917827Y1094592D01*
X1918540Y1098174D01*
Y1101826D01*
X1917827Y1105408D01*
X1916430Y1108782D01*
X1914401Y1111819D01*
X1911819Y1114401D01*
X1908782Y1116430D01*
X1905408Y1117828D01*
X1901826Y1118540D01*
D02*
G37*
G36*
X901826D02*
X898174D01*
X894592Y1117828D01*
X891218Y1116430D01*
X888181Y1114401D01*
X885599Y1111819D01*
X883570Y1108782D01*
X882172Y1105408D01*
X881460Y1101826D01*
Y1098174D01*
X882172Y1094592D01*
X883570Y1091218D01*
X885599Y1088181D01*
X888181Y1085599D01*
X891218Y1083570D01*
X894592Y1082172D01*
X898174Y1081460D01*
X901826D01*
X905408Y1082172D01*
X908782Y1083570D01*
X911819Y1085599D01*
X914401Y1088181D01*
X916430Y1091218D01*
X917828Y1094592D01*
X918540Y1098174D01*
Y1101826D01*
X917828Y1105408D01*
X916430Y1108782D01*
X914401Y1111819D01*
X911819Y1114401D01*
X908782Y1116430D01*
X905408Y1117828D01*
X901826Y1118540D01*
D02*
G37*
G36*
X101826D02*
X98174D01*
X94592Y1117828D01*
X91218Y1116430D01*
X88181Y1114401D01*
X85599Y1111819D01*
X83570Y1108782D01*
X82172Y1105408D01*
X81460Y1101826D01*
Y1098174D01*
X82172Y1094592D01*
X83570Y1091218D01*
X85599Y1088181D01*
X88181Y1085599D01*
X91218Y1083570D01*
X94592Y1082172D01*
X98174Y1081460D01*
X101826D01*
X105408Y1082172D01*
X108782Y1083570D01*
X111819Y1085599D01*
X114401Y1088181D01*
X116430Y1091218D01*
X117828Y1094592D01*
X118540Y1098174D01*
Y1101826D01*
X117828Y1105408D01*
X116430Y1108782D01*
X114401Y1111819D01*
X111819Y1114401D01*
X108782Y1116430D01*
X105408Y1117828D01*
X101826Y1118540D01*
D02*
G37*
G36*
X1333760Y1075222D02*
X1331270Y1074895D01*
X1328949Y1073933D01*
X1326956Y1072404D01*
X1325427Y1070411D01*
X1324466Y1068091D01*
X1324138Y1065600D01*
Y1064600D01*
X1324466Y1062110D01*
X1325427Y1059789D01*
X1326956Y1057796D01*
X1328949Y1056267D01*
X1331270Y1055306D01*
X1333760Y1054978D01*
X1336250Y1055306D01*
X1338571Y1056267D01*
X1340564Y1057796D01*
X1342093Y1059789D01*
X1343054Y1062110D01*
X1343382Y1064600D01*
Y1065600D01*
X1343054Y1068091D01*
X1342093Y1070411D01*
X1340564Y1072404D01*
X1338571Y1073933D01*
X1336250Y1074895D01*
X1333760Y1075222D01*
D02*
G37*
G36*
X2526454Y1073540D02*
X2523547D01*
X2520739Y1072788D01*
X2518221Y1071334D01*
X2516166Y1069279D01*
X2514713Y1066761D01*
X2513960Y1063954D01*
Y1061047D01*
X2514713Y1058239D01*
X2516166Y1055722D01*
X2518221Y1053666D01*
X2520739Y1052213D01*
X2523547Y1051460D01*
X2526454D01*
X2529261Y1052213D01*
X2531779Y1053666D01*
X2533834Y1055722D01*
X2535288Y1058239D01*
X2536040Y1061047D01*
Y1063954D01*
X2535288Y1066761D01*
X2533834Y1069279D01*
X2531779Y1071334D01*
X2529261Y1072788D01*
X2526454Y1073540D01*
D02*
G37*
G36*
X226454Y1073539D02*
X223547D01*
X220739Y1072787D01*
X218221Y1071333D01*
X216166Y1069278D01*
X214713Y1066760D01*
X213960Y1063953D01*
Y1061046D01*
X214713Y1058238D01*
X216166Y1055720D01*
X218221Y1053665D01*
X220739Y1052212D01*
X223547Y1051459D01*
X226454D01*
X229261Y1052212D01*
X231779Y1053665D01*
X233834Y1055720D01*
X235288Y1058238D01*
X236040Y1061046D01*
Y1063953D01*
X235288Y1066760D01*
X233834Y1069278D01*
X231779Y1071333D01*
X229261Y1072787D01*
X226454Y1073539D01*
D02*
G37*
G36*
X1333760Y1049822D02*
X1331270Y1049495D01*
X1328949Y1048533D01*
X1326956Y1047004D01*
X1325427Y1045011D01*
X1324466Y1042691D01*
X1324138Y1040200D01*
Y1039200D01*
X1324466Y1036710D01*
X1325427Y1034389D01*
X1326956Y1032396D01*
X1328949Y1030867D01*
X1331270Y1029906D01*
X1333760Y1029578D01*
X1336250Y1029906D01*
X1338571Y1030867D01*
X1340564Y1032396D01*
X1342093Y1034389D01*
X1343054Y1036710D01*
X1343382Y1039200D01*
Y1040200D01*
X1343054Y1042691D01*
X1342093Y1045011D01*
X1340564Y1047004D01*
X1338571Y1048533D01*
X1336250Y1049495D01*
X1333760Y1049822D01*
D02*
G37*
G36*
Y1024422D02*
X1331270Y1024095D01*
X1328949Y1023133D01*
X1326956Y1021604D01*
X1325427Y1019611D01*
X1324466Y1017291D01*
X1324138Y1014800D01*
Y1013800D01*
X1324466Y1011310D01*
X1325427Y1008989D01*
X1326956Y1006996D01*
X1328949Y1005467D01*
X1331270Y1004506D01*
X1333760Y1004178D01*
X1336250Y1004506D01*
X1338571Y1005467D01*
X1340564Y1006996D01*
X1342093Y1008989D01*
X1343054Y1011310D01*
X1343382Y1013800D01*
Y1014800D01*
X1343054Y1017291D01*
X1342093Y1019611D01*
X1340564Y1021604D01*
X1338571Y1023133D01*
X1336250Y1024095D01*
X1333760Y1024422D01*
D02*
G37*
G36*
Y999022D02*
X1331270Y998695D01*
X1328949Y997733D01*
X1326956Y996204D01*
X1325427Y994211D01*
X1324466Y991891D01*
X1324138Y989400D01*
Y988400D01*
X1324466Y985910D01*
X1325427Y983589D01*
X1326956Y981596D01*
X1328949Y980067D01*
X1331270Y979106D01*
X1333760Y978778D01*
X1336250Y979106D01*
X1338571Y980067D01*
X1340564Y981596D01*
X1342093Y983589D01*
X1343054Y985910D01*
X1343382Y988400D01*
Y989400D01*
X1343054Y991891D01*
X1342093Y994211D01*
X1340564Y996204D01*
X1338571Y997733D01*
X1336250Y998695D01*
X1333760Y999022D01*
D02*
G37*
G36*
Y973622D02*
X1331270Y973295D01*
X1328949Y972333D01*
X1326956Y970804D01*
X1325427Y968811D01*
X1324466Y966491D01*
X1324138Y964000D01*
Y963000D01*
X1324466Y960510D01*
X1325427Y958189D01*
X1326956Y956196D01*
X1328949Y954667D01*
X1331270Y953706D01*
X1333760Y953378D01*
X1336250Y953706D01*
X1338571Y954667D01*
X1340564Y956196D01*
X1342093Y958189D01*
X1343054Y960510D01*
X1343382Y963000D01*
Y964000D01*
X1343054Y966491D01*
X1342093Y968811D01*
X1340564Y970804D01*
X1338571Y972333D01*
X1336250Y973295D01*
X1333760Y973622D01*
D02*
G37*
G36*
Y948222D02*
X1331270Y947895D01*
X1328949Y946933D01*
X1326956Y945404D01*
X1325427Y943411D01*
X1324466Y941091D01*
X1324138Y938600D01*
Y937600D01*
X1324466Y935110D01*
X1325427Y932789D01*
X1326956Y930796D01*
X1328949Y929267D01*
X1331270Y928306D01*
X1333760Y927978D01*
X1336250Y928306D01*
X1338571Y929267D01*
X1340564Y930796D01*
X1342093Y932789D01*
X1343054Y935110D01*
X1343382Y937600D01*
Y938600D01*
X1343054Y941091D01*
X1342093Y943411D01*
X1340564Y945404D01*
X1338571Y946933D01*
X1336250Y947895D01*
X1333760Y948222D01*
D02*
G37*
G36*
X2486040Y948540D02*
X2463960D01*
Y926460D01*
X2486040D01*
Y948540D01*
D02*
G37*
G36*
X186040Y948539D02*
X163960D01*
Y926459D01*
X186040D01*
Y948539D01*
D02*
G37*
G36*
X1119000Y990139D02*
X748000D01*
X746033Y989748D01*
X744366Y988634D01*
X690366Y934634D01*
X689252Y932967D01*
X688861Y931000D01*
Y608628D01*
X628283Y548049D01*
X626453Y548539D01*
X623546D01*
X620739Y547787D01*
X618221Y546334D01*
X616166Y544278D01*
X614712Y541761D01*
X613960Y538953D01*
Y536046D01*
X614712Y533238D01*
X616166Y530721D01*
X618221Y528665D01*
X620739Y527212D01*
X623546Y526460D01*
X626453D01*
X629261Y527212D01*
X631779Y528665D01*
X633834Y530721D01*
X635288Y533238D01*
X636040Y536046D01*
Y538953D01*
X635550Y540782D01*
X697634Y602866D01*
X698748Y604533D01*
X699139Y606499D01*
Y928872D01*
X750128Y979861D01*
X1116871D01*
X1162266Y934466D01*
X1163933Y933353D01*
X1165900Y932961D01*
X1173156D01*
X1173227Y932789D01*
X1174756Y930796D01*
X1176749Y929267D01*
X1179070Y928306D01*
X1181560Y927978D01*
X1184051Y928306D01*
X1186371Y929267D01*
X1188364Y930796D01*
X1189893Y932789D01*
X1190591Y934474D01*
X1191861Y934221D01*
Y916579D01*
X1190591Y916326D01*
X1189893Y918011D01*
X1188364Y920004D01*
X1186371Y921533D01*
X1184051Y922495D01*
X1181560Y922822D01*
X1179070Y922495D01*
X1176749Y921533D01*
X1174756Y920004D01*
X1173227Y918011D01*
X1172266Y915691D01*
X1171938Y913200D01*
Y912200D01*
X1172266Y909710D01*
X1173227Y907389D01*
X1174756Y905396D01*
X1176749Y903867D01*
X1179070Y902906D01*
X1181560Y902578D01*
X1184051Y902906D01*
X1186371Y903867D01*
X1188364Y905396D01*
X1189893Y907389D01*
X1190591Y909074D01*
X1191861Y908821D01*
Y891179D01*
X1190591Y890926D01*
X1189893Y892611D01*
X1188364Y894604D01*
X1186371Y896133D01*
X1184051Y897095D01*
X1181560Y897422D01*
X1179070Y897095D01*
X1176749Y896133D01*
X1174756Y894604D01*
X1173227Y892611D01*
X1172266Y890291D01*
X1171938Y887800D01*
Y886800D01*
X1172266Y884310D01*
X1173227Y881989D01*
X1174756Y879996D01*
X1176749Y878467D01*
X1179070Y877506D01*
X1181560Y877178D01*
X1184051Y877506D01*
X1186371Y878467D01*
X1188364Y879996D01*
X1189893Y881989D01*
X1190591Y883674D01*
X1191861Y883421D01*
Y865779D01*
X1190591Y865526D01*
X1189893Y867211D01*
X1188364Y869204D01*
X1186371Y870733D01*
X1184051Y871695D01*
X1181560Y872022D01*
X1179070Y871695D01*
X1176749Y870733D01*
X1174756Y869204D01*
X1173227Y867211D01*
X1172266Y864891D01*
X1171938Y862400D01*
Y861400D01*
X1172266Y858910D01*
X1173227Y856589D01*
X1174756Y854596D01*
X1176749Y853067D01*
X1179070Y852106D01*
X1181560Y851778D01*
X1184051Y852106D01*
X1186371Y853067D01*
X1188364Y854596D01*
X1189893Y856589D01*
X1190591Y858274D01*
X1191861Y858021D01*
Y840379D01*
X1190591Y840126D01*
X1189893Y841811D01*
X1188364Y843804D01*
X1186371Y845333D01*
X1184051Y846295D01*
X1181560Y846622D01*
X1179070Y846295D01*
X1176749Y845333D01*
X1174756Y843804D01*
X1173227Y841811D01*
X1172266Y839491D01*
X1171938Y837000D01*
Y836000D01*
X1172266Y833510D01*
X1173227Y831189D01*
X1174756Y829196D01*
X1176749Y827667D01*
X1179070Y826706D01*
X1181560Y826378D01*
X1184051Y826706D01*
X1186371Y827667D01*
X1188364Y829196D01*
X1189893Y831189D01*
X1190591Y832874D01*
X1191861Y832621D01*
Y814979D01*
X1190591Y814726D01*
X1189893Y816411D01*
X1188364Y818404D01*
X1186371Y819933D01*
X1184051Y820895D01*
X1181560Y821222D01*
X1179070Y820895D01*
X1176749Y819933D01*
X1174756Y818404D01*
X1173227Y816411D01*
X1173156Y816239D01*
X932100D01*
X930134Y815848D01*
X928466Y814734D01*
X840766Y727034D01*
X839652Y725367D01*
X839261Y723400D01*
Y710290D01*
X834110D01*
Y689709D01*
X854690D01*
Y695582D01*
X856721D01*
X858688Y695974D01*
X860355Y697087D01*
X891787Y728519D01*
X892960Y728033D01*
Y724210D01*
X919980D01*
Y735000D01*
Y745790D01*
X892960D01*
Y740068D01*
X890929D01*
X888962Y739677D01*
X887295Y738563D01*
X855863Y707131D01*
X854690Y707617D01*
Y710290D01*
X849539D01*
Y721272D01*
X934229Y805961D01*
X1173156D01*
X1173227Y805789D01*
X1174756Y803796D01*
X1176749Y802267D01*
X1179070Y801306D01*
X1181560Y800978D01*
X1184051Y801306D01*
X1186371Y802267D01*
X1188364Y803796D01*
X1189893Y805789D01*
X1190591Y807474D01*
X1191861Y807221D01*
Y789579D01*
X1190591Y789326D01*
X1189893Y791011D01*
X1188364Y793004D01*
X1186371Y794533D01*
X1184051Y795495D01*
X1181560Y795822D01*
X1179070Y795495D01*
X1176749Y794533D01*
X1174756Y793004D01*
X1173227Y791011D01*
X1173218Y790989D01*
X1138385D01*
X1138114Y791459D01*
X1136459Y793114D01*
X1134431Y794284D01*
X1132170Y794890D01*
X1129830D01*
X1127569Y794284D01*
X1125541Y793114D01*
X1123886Y791459D01*
X1122716Y789431D01*
X1122110Y787170D01*
Y784830D01*
X1122716Y782569D01*
X1123886Y780541D01*
X1125541Y778886D01*
X1125861Y778701D01*
Y767790D01*
X1113020D01*
Y757000D01*
Y746210D01*
X1140040D01*
Y767790D01*
X1136139D01*
Y778701D01*
X1136459Y778886D01*
X1138114Y780541D01*
X1138212Y780711D01*
X1173093D01*
X1173227Y780389D01*
X1174756Y778396D01*
X1176749Y776867D01*
X1179070Y775906D01*
X1181560Y775578D01*
X1184051Y775906D01*
X1186371Y776867D01*
X1188364Y778396D01*
X1189893Y780389D01*
X1190591Y782074D01*
X1191861Y781821D01*
Y764179D01*
X1190591Y763926D01*
X1189893Y765611D01*
X1188364Y767604D01*
X1186371Y769133D01*
X1184051Y770095D01*
X1181560Y770422D01*
X1179070Y770095D01*
X1176749Y769133D01*
X1174756Y767604D01*
X1173227Y765611D01*
X1172266Y763291D01*
X1171938Y760800D01*
Y759800D01*
X1172266Y757310D01*
X1173227Y754989D01*
X1174756Y752996D01*
X1176749Y751467D01*
X1179070Y750506D01*
X1181560Y750178D01*
X1184051Y750506D01*
X1186371Y751467D01*
X1188364Y752996D01*
X1189893Y754989D01*
X1190591Y756674D01*
X1191861Y756421D01*
Y738779D01*
X1190591Y738526D01*
X1189893Y740211D01*
X1188364Y742204D01*
X1186371Y743733D01*
X1184051Y744695D01*
X1181560Y745022D01*
X1179070Y744695D01*
X1176749Y743733D01*
X1174756Y742204D01*
X1173227Y740211D01*
X1172266Y737891D01*
X1171938Y735400D01*
Y734400D01*
X1172266Y731910D01*
X1173227Y729589D01*
X1174756Y727596D01*
X1176749Y726067D01*
X1179070Y725106D01*
X1181560Y724778D01*
X1184051Y725106D01*
X1186371Y726067D01*
X1188364Y727596D01*
X1189893Y729589D01*
X1190591Y731274D01*
X1191861Y731021D01*
Y713379D01*
X1190591Y713126D01*
X1189893Y714811D01*
X1188364Y716804D01*
X1186371Y718333D01*
X1184051Y719295D01*
X1181560Y719622D01*
X1179070Y719295D01*
X1176749Y718333D01*
X1174756Y716804D01*
X1173227Y714811D01*
X1172266Y712491D01*
X1171938Y710000D01*
Y709000D01*
X1172266Y706510D01*
X1173227Y704189D01*
X1174756Y702196D01*
X1176749Y700667D01*
X1179070Y699706D01*
X1181560Y699378D01*
X1184051Y699706D01*
X1186371Y700667D01*
X1188364Y702196D01*
X1189893Y704189D01*
X1190591Y705874D01*
X1191861Y705621D01*
Y687979D01*
X1190591Y687726D01*
X1189893Y689411D01*
X1188364Y691404D01*
X1186371Y692933D01*
X1184051Y693895D01*
X1181560Y694222D01*
X1179070Y693895D01*
X1176749Y692933D01*
X1174756Y691404D01*
X1173227Y689411D01*
X1172266Y687091D01*
X1171938Y684600D01*
Y683600D01*
X1172266Y681110D01*
X1173227Y678789D01*
X1174756Y676796D01*
X1176749Y675267D01*
X1179070Y674306D01*
X1181560Y673978D01*
X1184051Y674306D01*
X1186371Y675267D01*
X1188364Y676796D01*
X1189893Y678789D01*
X1190591Y680474D01*
X1191861Y680221D01*
Y662579D01*
X1190591Y662326D01*
X1189893Y664011D01*
X1188364Y666004D01*
X1186371Y667533D01*
X1184051Y668495D01*
X1181560Y668822D01*
X1179070Y668495D01*
X1176749Y667533D01*
X1174756Y666004D01*
X1173227Y664011D01*
X1172266Y661691D01*
X1171938Y659200D01*
Y658200D01*
X1172266Y655710D01*
X1173227Y653389D01*
X1174756Y651396D01*
X1176749Y649867D01*
X1179070Y648906D01*
X1181560Y648578D01*
X1184051Y648906D01*
X1186371Y649867D01*
X1188364Y651396D01*
X1189893Y653389D01*
X1190591Y655074D01*
X1191861Y654821D01*
Y289128D01*
X1020872Y118139D01*
X850501D01*
X848534Y117748D01*
X846867Y116634D01*
X828283Y98049D01*
X826453Y98539D01*
X823547D01*
X820739Y97787D01*
X818221Y96334D01*
X816166Y94278D01*
X814712Y91761D01*
X813960Y88953D01*
Y86046D01*
X814712Y83238D01*
X816166Y80721D01*
X818221Y78665D01*
X820739Y77212D01*
X823547Y76459D01*
X826453D01*
X829261Y77212D01*
X831779Y78665D01*
X833834Y80721D01*
X835288Y83238D01*
X836040Y86046D01*
Y88953D01*
X835550Y90782D01*
X852629Y107861D01*
X1023000D01*
X1024967Y108252D01*
X1026634Y109366D01*
X1200634Y283366D01*
X1201748Y285033D01*
X1202139Y287000D01*
Y956000D01*
X1201748Y957967D01*
X1200634Y959634D01*
X1193133Y967134D01*
X1191466Y968248D01*
X1190006Y968538D01*
X1189893Y968811D01*
X1188364Y970804D01*
X1186371Y972333D01*
X1184051Y973295D01*
X1181560Y973622D01*
X1179070Y973295D01*
X1176749Y972333D01*
X1174756Y970804D01*
X1173227Y968811D01*
X1172266Y966491D01*
X1171938Y964000D01*
Y963000D01*
X1172266Y960510D01*
X1173227Y958189D01*
X1174756Y956196D01*
X1176749Y954667D01*
X1179070Y953706D01*
X1181560Y953378D01*
X1184051Y953706D01*
X1186371Y954667D01*
X1188364Y956196D01*
X1189464Y956268D01*
X1191861Y953872D01*
Y941979D01*
X1190591Y941726D01*
X1189893Y943411D01*
X1188364Y945404D01*
X1186371Y946933D01*
X1184051Y947895D01*
X1181560Y948222D01*
X1179070Y947895D01*
X1176749Y946933D01*
X1174756Y945404D01*
X1173227Y943411D01*
X1173156Y943239D01*
X1168028D01*
X1122634Y988634D01*
X1120966Y989748D01*
X1119000Y990139D01*
D02*
G37*
G36*
X1333760Y922822D02*
X1331270Y922495D01*
X1328949Y921533D01*
X1326956Y920004D01*
X1325427Y918011D01*
X1324466Y915691D01*
X1324138Y913200D01*
Y912200D01*
X1324466Y909710D01*
X1325427Y907389D01*
X1326956Y905396D01*
X1328949Y903867D01*
X1331270Y902906D01*
X1333760Y902578D01*
X1336250Y902906D01*
X1338571Y903867D01*
X1340564Y905396D01*
X1342093Y907389D01*
X1343054Y909710D01*
X1343382Y912200D01*
Y913200D01*
X1343054Y915691D01*
X1342093Y918011D01*
X1340564Y920004D01*
X1338571Y921533D01*
X1336250Y922495D01*
X1333760Y922822D01*
D02*
G37*
G36*
X2554690Y910290D02*
X2534110D01*
Y889710D01*
X2554690D01*
Y910290D01*
D02*
G37*
G36*
X2476453Y1073540D02*
X2473546D01*
X2470739Y1072788D01*
X2468221Y1071334D01*
X2466166Y1069279D01*
X2464712Y1066761D01*
X2463960Y1063954D01*
Y1061047D01*
X2464712Y1058239D01*
X2466166Y1055722D01*
X2468221Y1053666D01*
X2469861Y1052719D01*
Y992673D01*
X2424366Y947178D01*
X2423252Y945511D01*
X2422861Y943544D01*
Y909000D01*
X2423252Y907033D01*
X2424366Y905366D01*
X2433366Y896367D01*
X2435033Y895253D01*
X2437000Y894861D01*
X2446685D01*
X2447366Y893682D01*
X2449282Y891766D01*
X2451629Y890411D01*
X2454246Y889710D01*
X2456955D01*
X2459572Y890411D01*
X2461918Y891766D01*
X2463834Y893682D01*
X2465189Y896028D01*
X2465890Y898645D01*
Y901355D01*
X2465189Y903972D01*
X2463834Y906318D01*
X2461918Y908234D01*
X2459572Y909589D01*
X2456955Y910290D01*
X2454246D01*
X2451629Y909589D01*
X2449282Y908234D01*
X2447366Y906318D01*
X2446685Y905139D01*
X2439128D01*
X2433139Y911128D01*
Y941416D01*
X2478633Y986910D01*
X2479747Y988577D01*
X2480139Y990544D01*
Y1052719D01*
X2481779Y1053666D01*
X2483834Y1055722D01*
X2485287Y1058239D01*
X2486040Y1061047D01*
Y1063954D01*
X2485287Y1066761D01*
X2483834Y1069279D01*
X2481779Y1071334D01*
X2479261Y1072788D01*
X2476453Y1073540D01*
D02*
G37*
G36*
X254690Y910290D02*
X234110D01*
Y889710D01*
X254690D01*
Y910290D01*
D02*
G37*
G36*
X176453Y1073539D02*
X173546D01*
X170739Y1072787D01*
X168221Y1071333D01*
X166166Y1069278D01*
X164712Y1066760D01*
X163960Y1063953D01*
Y1061046D01*
X164712Y1058238D01*
X166166Y1055720D01*
X168221Y1053665D01*
X169861Y1052718D01*
Y992672D01*
X114366Y937177D01*
X113252Y935510D01*
X112861Y933544D01*
Y912000D01*
X113252Y910033D01*
X114366Y908366D01*
X126367Y896366D01*
X128034Y895252D01*
X130000Y894861D01*
X146685D01*
X147366Y893681D01*
X149282Y891766D01*
X151628Y890411D01*
X154245Y889710D01*
X156954D01*
X159572Y890411D01*
X161918Y891766D01*
X163834Y893681D01*
X165189Y896028D01*
X165890Y898645D01*
Y901354D01*
X165189Y903971D01*
X163834Y906318D01*
X161918Y908234D01*
X159572Y909588D01*
X156954Y910290D01*
X154245D01*
X151628Y909588D01*
X149282Y908234D01*
X147366Y906318D01*
X146685Y905138D01*
X132129D01*
X123139Y914128D01*
Y931415D01*
X178633Y986910D01*
X179747Y988577D01*
X180138Y990544D01*
Y1052718D01*
X181779Y1053665D01*
X183834Y1055720D01*
X185287Y1058238D01*
X186040Y1061046D01*
Y1063953D01*
X185287Y1066760D01*
X183834Y1069278D01*
X181779Y1071333D01*
X179261Y1072787D01*
X176453Y1073539D01*
D02*
G37*
G36*
X1333760Y897422D02*
X1331270Y897095D01*
X1328949Y896133D01*
X1326956Y894604D01*
X1325427Y892611D01*
X1324466Y890291D01*
X1324138Y887800D01*
Y886800D01*
X1324466Y884310D01*
X1325427Y881989D01*
X1326956Y879996D01*
X1328949Y878467D01*
X1331270Y877506D01*
X1333760Y877178D01*
X1336250Y877506D01*
X1338571Y878467D01*
X1340564Y879996D01*
X1342093Y881989D01*
X1343054Y884310D01*
X1343382Y886800D01*
Y887800D01*
X1343054Y890291D01*
X1342093Y892611D01*
X1340564Y894604D01*
X1338571Y896133D01*
X1336250Y897095D01*
X1333760Y897422D01*
D02*
G37*
G36*
X1181560Y1024422D02*
X1179070Y1024095D01*
X1176749Y1023133D01*
X1174756Y1021604D01*
X1173227Y1019611D01*
X1172266Y1017291D01*
X1171938Y1014800D01*
Y1013800D01*
X1172266Y1011310D01*
X1173227Y1008989D01*
X1174756Y1006996D01*
X1176749Y1005467D01*
X1179070Y1004506D01*
X1181560Y1004178D01*
X1184051Y1004506D01*
X1186371Y1005467D01*
X1188364Y1006996D01*
X1189893Y1008989D01*
X1189965Y1009161D01*
X1199571D01*
X1235861Y972871D01*
Y868507D01*
X1234591Y867981D01*
X1233459Y869114D01*
X1231431Y870284D01*
X1229170Y870890D01*
X1226830D01*
X1224569Y870284D01*
X1222541Y869114D01*
X1220886Y867459D01*
X1219716Y865431D01*
X1219110Y863170D01*
Y860830D01*
X1219716Y858569D01*
X1220886Y856541D01*
X1222541Y854886D01*
X1222861Y854702D01*
Y268129D01*
X1040767Y86034D01*
X1039653Y84367D01*
X1039261Y82400D01*
Y60289D01*
X1034110D01*
Y39709D01*
X1054690D01*
Y44861D01*
X1058999D01*
X1060966Y45252D01*
X1062633Y46366D01*
X1081128Y64861D01*
X1084960D01*
Y59210D01*
X1111980D01*
Y70000D01*
Y80790D01*
X1084960D01*
Y75139D01*
X1079000D01*
X1077033Y74748D01*
X1075366Y73634D01*
X1056871Y55138D01*
X1054690D01*
Y60289D01*
X1049539D01*
Y80272D01*
X1231634Y262366D01*
X1232748Y264034D01*
X1233139Y266000D01*
Y854702D01*
X1233459Y854886D01*
X1234591Y856019D01*
X1235861Y855493D01*
Y515000D01*
X1236252Y513033D01*
X1237366Y511366D01*
X1492861Y255872D01*
Y180909D01*
X1493252Y178943D01*
X1494366Y177276D01*
X1519861Y151781D01*
Y97281D01*
X1518221Y96334D01*
X1516166Y94279D01*
X1514713Y91761D01*
X1513960Y88953D01*
Y86046D01*
X1514713Y83239D01*
X1516166Y80721D01*
X1518221Y78666D01*
X1520739Y77212D01*
X1523547Y76460D01*
X1526454D01*
X1529261Y77212D01*
X1531779Y78666D01*
X1533834Y80721D01*
X1535288Y83239D01*
X1536040Y86046D01*
Y88953D01*
X1535288Y91761D01*
X1533834Y94279D01*
X1531779Y96334D01*
X1530139Y97281D01*
Y153909D01*
X1529748Y155876D01*
X1528634Y157543D01*
X1503139Y183038D01*
Y258000D01*
X1502748Y259967D01*
X1501634Y261634D01*
X1246139Y517128D01*
Y975000D01*
X1245748Y976966D01*
X1244634Y978634D01*
X1205333Y1017934D01*
X1203666Y1019048D01*
X1201700Y1019439D01*
X1189965D01*
X1189893Y1019611D01*
X1188364Y1021604D01*
X1186371Y1023133D01*
X1184051Y1024095D01*
X1181560Y1024422D01*
D02*
G37*
G36*
X1333760Y872022D02*
X1331270Y871695D01*
X1328949Y870733D01*
X1326956Y869204D01*
X1325427Y867211D01*
X1324466Y864891D01*
X1324138Y862400D01*
Y861400D01*
X1324466Y858910D01*
X1325427Y856589D01*
X1326956Y854596D01*
X1328949Y853067D01*
X1331270Y852106D01*
X1333760Y851778D01*
X1336250Y852106D01*
X1338571Y853067D01*
X1340564Y854596D01*
X1342093Y856589D01*
X1343054Y858910D01*
X1343382Y861400D01*
Y862400D01*
X1343054Y864891D01*
X1342093Y867211D01*
X1340564Y869204D01*
X1338571Y870733D01*
X1336250Y871695D01*
X1333760Y872022D01*
D02*
G37*
G36*
X2526454Y948540D02*
X2523547D01*
X2520739Y947788D01*
X2518221Y946334D01*
X2516166Y944279D01*
X2514713Y941761D01*
X2513960Y938954D01*
Y936047D01*
X2514713Y933239D01*
X2516166Y930722D01*
X2518221Y928666D01*
X2519861Y927719D01*
Y872281D01*
X2518221Y871334D01*
X2516166Y869279D01*
X2514713Y866761D01*
X2513960Y863953D01*
Y861047D01*
X2514713Y858239D01*
X2516166Y855721D01*
X2518221Y853666D01*
X2520739Y852212D01*
X2523547Y851460D01*
X2526454D01*
X2529261Y852212D01*
X2531779Y853666D01*
X2533834Y855721D01*
X2535288Y858239D01*
X2536040Y861047D01*
Y863953D01*
X2535288Y866761D01*
X2533834Y869279D01*
X2531779Y871334D01*
X2530139Y872281D01*
Y927719D01*
X2531779Y928666D01*
X2533834Y930722D01*
X2535288Y933239D01*
X2536040Y936047D01*
Y938954D01*
X2535288Y941761D01*
X2533834Y944279D01*
X2531779Y946334D01*
X2529261Y947788D01*
X2526454Y948540D01*
D02*
G37*
G36*
X2326454Y873540D02*
X2323547D01*
X2320739Y872788D01*
X2318221Y871334D01*
X2316166Y869279D01*
X2314712Y866761D01*
X2313960Y863953D01*
Y861047D01*
X2314712Y858239D01*
X2316166Y855721D01*
X2318221Y853666D01*
X2320739Y852212D01*
X2323547Y851460D01*
X2326454D01*
X2329261Y852212D01*
X2331779Y853666D01*
X2333834Y855721D01*
X2335288Y858239D01*
X2336040Y861047D01*
Y863953D01*
X2335288Y866761D01*
X2333834Y869279D01*
X2331779Y871334D01*
X2329261Y872788D01*
X2326454Y873540D01*
D02*
G37*
G36*
X2126453D02*
X2123546D01*
X2120739Y872788D01*
X2118221Y871334D01*
X2116166Y869279D01*
X2114712Y866761D01*
X2113960Y863953D01*
Y861047D01*
X2114712Y858239D01*
X2116166Y855721D01*
X2118221Y853666D01*
X2120739Y852212D01*
X2123546Y851460D01*
X2126453D01*
X2129261Y852212D01*
X2131779Y853666D01*
X2133834Y855721D01*
X2135288Y858239D01*
X2136040Y861047D01*
Y863953D01*
X2135288Y866761D01*
X2133834Y869279D01*
X2131779Y871334D01*
X2129261Y872788D01*
X2126453Y873540D01*
D02*
G37*
G36*
X1926453D02*
X1923546D01*
X1920739Y872788D01*
X1918221Y871334D01*
X1916166Y869279D01*
X1914712Y866761D01*
X1913960Y863953D01*
Y861047D01*
X1914712Y858239D01*
X1916166Y855721D01*
X1918221Y853666D01*
X1920739Y852212D01*
X1923546Y851460D01*
X1926453D01*
X1929261Y852212D01*
X1931779Y853666D01*
X1933834Y855721D01*
X1935287Y858239D01*
X1936040Y861047D01*
Y863953D01*
X1935287Y866761D01*
X1933834Y869279D01*
X1931779Y871334D01*
X1929261Y872788D01*
X1926453Y873540D01*
D02*
G37*
G36*
X1726454D02*
X1723547D01*
X1720739Y872788D01*
X1718221Y871334D01*
X1716166Y869279D01*
X1714713Y866761D01*
X1713960Y863953D01*
Y861047D01*
X1714713Y858239D01*
X1716166Y855721D01*
X1718221Y853666D01*
X1720739Y852212D01*
X1723547Y851460D01*
X1726454D01*
X1729261Y852212D01*
X1731779Y853666D01*
X1733835Y855721D01*
X1735288Y858239D01*
X1736040Y861047D01*
Y863953D01*
X1735288Y866761D01*
X1733835Y869279D01*
X1731779Y871334D01*
X1729261Y872788D01*
X1726454Y873540D01*
D02*
G37*
G36*
X826453Y873540D02*
X823547D01*
X820739Y872787D01*
X818221Y871334D01*
X816166Y869278D01*
X814712Y866761D01*
X813960Y863953D01*
Y861046D01*
X814712Y858238D01*
X816166Y855721D01*
X818221Y853665D01*
X820739Y852212D01*
X823547Y851460D01*
X826453D01*
X829261Y852212D01*
X831779Y853665D01*
X833834Y855721D01*
X835288Y858238D01*
X836040Y861046D01*
Y863953D01*
X835288Y866761D01*
X833834Y869278D01*
X831779Y871334D01*
X829261Y872787D01*
X826453Y873540D01*
D02*
G37*
G36*
X626453D02*
X623546D01*
X620739Y872787D01*
X618221Y871334D01*
X616166Y869278D01*
X614712Y866761D01*
X613960Y863953D01*
Y861046D01*
X614712Y858238D01*
X616166Y855721D01*
X618221Y853665D01*
X620739Y852212D01*
X623546Y851460D01*
X626453D01*
X629261Y852212D01*
X631779Y853665D01*
X633834Y855721D01*
X635288Y858238D01*
X636040Y861046D01*
Y863953D01*
X635288Y866761D01*
X633834Y869278D01*
X631779Y871334D01*
X629261Y872787D01*
X626453Y873540D01*
D02*
G37*
G36*
X426453D02*
X423546D01*
X420738Y872787D01*
X418221Y871334D01*
X416166Y869278D01*
X414712Y866761D01*
X413960Y863953D01*
Y861046D01*
X414712Y858238D01*
X416166Y855721D01*
X418221Y853665D01*
X420738Y852212D01*
X423546Y851460D01*
X426453D01*
X429261Y852212D01*
X431778Y853665D01*
X433834Y855721D01*
X435287Y858238D01*
X436040Y861046D01*
Y863953D01*
X435287Y866761D01*
X433834Y869278D01*
X431778Y871334D01*
X429261Y872787D01*
X426453Y873540D01*
D02*
G37*
G36*
X226454Y948539D02*
X223547D01*
X220739Y947787D01*
X218221Y946333D01*
X216166Y944278D01*
X214713Y941760D01*
X213960Y938953D01*
Y936046D01*
X214713Y933238D01*
X216166Y930720D01*
X218221Y928665D01*
X219862Y927718D01*
Y872281D01*
X218221Y871334D01*
X216166Y869278D01*
X214713Y866761D01*
X213960Y863953D01*
Y861046D01*
X214713Y858238D01*
X216166Y855721D01*
X218221Y853665D01*
X220739Y852212D01*
X223547Y851460D01*
X226454D01*
X229261Y852212D01*
X231779Y853665D01*
X233834Y855721D01*
X235288Y858238D01*
X236040Y861046D01*
Y863953D01*
X235288Y866761D01*
X233834Y869278D01*
X231779Y871334D01*
X230139Y872281D01*
Y927718D01*
X231779Y928665D01*
X233834Y930720D01*
X235288Y933238D01*
X236040Y936046D01*
Y938953D01*
X235288Y941760D01*
X233834Y944278D01*
X231779Y946333D01*
X229261Y947787D01*
X226454Y948539D01*
D02*
G37*
G36*
X1333760Y846622D02*
X1331270Y846295D01*
X1328949Y845333D01*
X1326956Y843804D01*
X1325427Y841811D01*
X1324466Y839491D01*
X1324138Y837000D01*
Y836000D01*
X1324466Y833510D01*
X1325427Y831189D01*
X1326956Y829196D01*
X1328949Y827667D01*
X1331270Y826706D01*
X1333760Y826378D01*
X1336250Y826706D01*
X1338571Y827667D01*
X1340564Y829196D01*
X1342093Y831189D01*
X1343054Y833510D01*
X1343382Y836000D01*
Y837000D01*
X1343054Y839491D01*
X1342093Y841811D01*
X1340564Y843804D01*
X1338571Y845333D01*
X1336250Y846295D01*
X1333760Y846622D01*
D02*
G37*
G36*
Y821222D02*
X1331270Y820895D01*
X1328949Y819933D01*
X1326956Y818404D01*
X1325427Y816411D01*
X1324466Y814091D01*
X1324138Y811600D01*
Y810600D01*
X1324466Y808110D01*
X1325427Y805789D01*
X1326956Y803796D01*
X1328949Y802267D01*
X1331270Y801306D01*
X1333760Y800978D01*
X1336250Y801306D01*
X1338571Y802267D01*
X1340564Y803796D01*
X1342093Y805789D01*
X1343054Y808110D01*
X1343382Y810600D01*
Y811600D01*
X1343054Y814091D01*
X1342093Y816411D01*
X1340564Y818404D01*
X1338571Y819933D01*
X1336250Y820895D01*
X1333760Y821222D01*
D02*
G37*
G36*
Y795822D02*
X1331270Y795495D01*
X1328949Y794533D01*
X1326956Y793004D01*
X1325427Y791011D01*
X1324466Y788691D01*
X1324138Y786200D01*
Y785200D01*
X1324466Y782710D01*
X1325427Y780389D01*
X1326956Y778396D01*
X1328949Y776867D01*
X1331270Y775906D01*
X1333760Y775578D01*
X1336250Y775906D01*
X1338571Y776867D01*
X1340564Y778396D01*
X1342093Y780389D01*
X1343054Y782710D01*
X1343382Y785200D01*
Y786200D01*
X1343054Y788691D01*
X1342093Y791011D01*
X1340564Y793004D01*
X1338571Y794533D01*
X1336250Y795495D01*
X1333760Y795822D01*
D02*
G37*
G36*
X1110480Y767790D02*
X1101960D01*
Y758270D01*
X1110480D01*
Y767790D01*
D02*
G37*
G36*
X1333760Y770422D02*
X1331270Y770095D01*
X1328949Y769133D01*
X1326956Y767604D01*
X1325427Y765611D01*
X1324466Y763291D01*
X1324138Y760800D01*
Y759800D01*
X1324466Y757310D01*
X1325427Y754989D01*
X1326956Y752996D01*
X1328949Y751467D01*
X1331270Y750506D01*
X1333760Y750178D01*
X1336250Y750506D01*
X1338571Y751467D01*
X1340564Y752996D01*
X1342093Y754989D01*
X1343054Y757310D01*
X1343382Y759800D01*
Y760800D01*
X1343054Y763291D01*
X1342093Y765611D01*
X1340564Y767604D01*
X1338571Y769133D01*
X1336250Y770095D01*
X1333760Y770422D01*
D02*
G37*
G36*
X1110480Y755730D02*
X1101960D01*
Y746210D01*
X1110480D01*
Y755730D01*
D02*
G37*
G36*
X931040Y745790D02*
X922520D01*
Y736270D01*
X931040D01*
Y745790D01*
D02*
G37*
G36*
X2486040Y748540D02*
X2463960D01*
Y726460D01*
X2486040D01*
Y748540D01*
D02*
G37*
G36*
X2286040D02*
X2263960D01*
Y726460D01*
X2286040D01*
Y748540D01*
D02*
G37*
G36*
X2086040D02*
X2063960D01*
Y726460D01*
X2086040D01*
Y748540D01*
D02*
G37*
G36*
X1886040D02*
X1863960D01*
Y726460D01*
X1886040D01*
Y748540D01*
D02*
G37*
G36*
X1686040D02*
X1663960D01*
Y726460D01*
X1686040D01*
Y748540D01*
D02*
G37*
G36*
X786040Y748540D02*
X763960D01*
Y726460D01*
X786040D01*
Y748540D01*
D02*
G37*
G36*
X586040D02*
X563960D01*
Y726460D01*
X586040D01*
Y748540D01*
D02*
G37*
G36*
X386040D02*
X363960D01*
Y726460D01*
X386040D01*
Y748540D01*
D02*
G37*
G36*
X186040D02*
X163960D01*
Y726460D01*
X186040D01*
Y748540D01*
D02*
G37*
G36*
X1333760Y745022D02*
X1331270Y744695D01*
X1328949Y743733D01*
X1326956Y742204D01*
X1325427Y740211D01*
X1324466Y737891D01*
X1324138Y735400D01*
Y734400D01*
X1324466Y731910D01*
X1325427Y729589D01*
X1326956Y727596D01*
X1328949Y726067D01*
X1331270Y725106D01*
X1333760Y724778D01*
X1336250Y725106D01*
X1338571Y726067D01*
X1340564Y727596D01*
X1342093Y729589D01*
X1343054Y731910D01*
X1343382Y734400D01*
Y735400D01*
X1343054Y737891D01*
X1342093Y740211D01*
X1340564Y742204D01*
X1338571Y743733D01*
X1336250Y744695D01*
X1333760Y745022D01*
D02*
G37*
G36*
X931040Y733730D02*
X922520D01*
Y724210D01*
X931040D01*
Y733730D01*
D02*
G37*
G36*
X1191100Y1151340D02*
X1172020D01*
Y1131260D01*
X1191100D01*
Y1136161D01*
X1244571D01*
X1308861Y1071871D01*
Y720000D01*
X1309252Y718034D01*
X1310366Y716366D01*
X1320866Y705866D01*
X1322533Y704753D01*
X1324500Y704361D01*
X1325355D01*
X1325427Y704189D01*
X1326956Y702196D01*
X1328949Y700667D01*
X1331270Y699706D01*
X1333760Y699378D01*
X1336250Y699706D01*
X1338571Y700667D01*
X1340564Y702196D01*
X1342093Y704189D01*
X1343054Y706510D01*
X1343382Y709000D01*
Y710000D01*
X1343054Y712491D01*
X1342093Y714811D01*
X1340564Y716804D01*
X1338571Y718333D01*
X1336250Y719295D01*
X1333760Y719622D01*
X1331270Y719295D01*
X1328949Y718333D01*
X1326956Y716804D01*
X1326460Y716158D01*
X1325193Y716075D01*
X1319139Y722129D01*
Y1074000D01*
X1318748Y1075966D01*
X1317634Y1077634D01*
X1250333Y1144934D01*
X1248666Y1146048D01*
X1246700Y1146439D01*
X1191100D01*
Y1151340D01*
D02*
G37*
G36*
X2554690Y710290D02*
X2534110D01*
Y689710D01*
X2554690D01*
Y710290D01*
D02*
G37*
G36*
X2476453Y873540D02*
X2473546D01*
X2470739Y872788D01*
X2468221Y871334D01*
X2466166Y869279D01*
X2464712Y866761D01*
X2463960Y863953D01*
Y861047D01*
X2464712Y858239D01*
X2466166Y855721D01*
X2468221Y853666D01*
X2469861Y852719D01*
Y792672D01*
X2419366Y742178D01*
X2418252Y740511D01*
X2417861Y738544D01*
Y716000D01*
X2418252Y714034D01*
X2419366Y712366D01*
X2435366Y696366D01*
X2437034Y695253D01*
X2439000Y694861D01*
X2446685D01*
X2447366Y693682D01*
X2449282Y691766D01*
X2451629Y690411D01*
X2454246Y689710D01*
X2456955D01*
X2459572Y690411D01*
X2461918Y691766D01*
X2463834Y693682D01*
X2465189Y696028D01*
X2465890Y698645D01*
Y701355D01*
X2465189Y703972D01*
X2463834Y706318D01*
X2461918Y708234D01*
X2459572Y709589D01*
X2456955Y710290D01*
X2454246D01*
X2451629Y709589D01*
X2449282Y708234D01*
X2447366Y706318D01*
X2446685Y705139D01*
X2441129D01*
X2428139Y718129D01*
Y736416D01*
X2478633Y786910D01*
X2479747Y788577D01*
X2480139Y790544D01*
Y852719D01*
X2481779Y853666D01*
X2483834Y855721D01*
X2485287Y858239D01*
X2486040Y861047D01*
Y863953D01*
X2485287Y866761D01*
X2483834Y869279D01*
X2481779Y871334D01*
X2479261Y872788D01*
X2476453Y873540D01*
D02*
G37*
G36*
X2354690Y710290D02*
X2334110D01*
Y689710D01*
X2354690D01*
Y710290D01*
D02*
G37*
G36*
X2276454Y873540D02*
X2273547D01*
X2270739Y872788D01*
X2268221Y871334D01*
X2266166Y869279D01*
X2264713Y866761D01*
X2263960Y863953D01*
Y861047D01*
X2264713Y858239D01*
X2266166Y855721D01*
X2268221Y853666D01*
X2269861Y852719D01*
Y792673D01*
X2222366Y745178D01*
X2221252Y743511D01*
X2220861Y741544D01*
Y715000D01*
X2221252Y713034D01*
X2222366Y711366D01*
X2237366Y696366D01*
X2239033Y695253D01*
X2241000Y694861D01*
X2246685D01*
X2247366Y693682D01*
X2249282Y691766D01*
X2251628Y690411D01*
X2254245Y689710D01*
X2256955D01*
X2259572Y690411D01*
X2261918Y691766D01*
X2263834Y693682D01*
X2265189Y696028D01*
X2265890Y698645D01*
Y701355D01*
X2265189Y703972D01*
X2263834Y706318D01*
X2261918Y708234D01*
X2259572Y709589D01*
X2256955Y710290D01*
X2254245D01*
X2251628Y709589D01*
X2249282Y708234D01*
X2247366Y706318D01*
X2246685Y705139D01*
X2243129D01*
X2231139Y717129D01*
Y739415D01*
X2278634Y786910D01*
X2279748Y788578D01*
X2280139Y790544D01*
Y852719D01*
X2281779Y853666D01*
X2283834Y855721D01*
X2285288Y858239D01*
X2286040Y861047D01*
Y863953D01*
X2285288Y866761D01*
X2283834Y869279D01*
X2281779Y871334D01*
X2279261Y872788D01*
X2276454Y873540D01*
D02*
G37*
G36*
X2154690Y710290D02*
X2134110D01*
Y689710D01*
X2154690D01*
Y710290D01*
D02*
G37*
G36*
X2076454Y873540D02*
X2073547D01*
X2070739Y872788D01*
X2068221Y871334D01*
X2066166Y869279D01*
X2064712Y866761D01*
X2063960Y863953D01*
Y861047D01*
X2064712Y858239D01*
X2066166Y855721D01*
X2068221Y853666D01*
X2069861Y852719D01*
Y813129D01*
X2011366Y754634D01*
X2010252Y752967D01*
X2009861Y751000D01*
Y719000D01*
X2010252Y717033D01*
X2011366Y715366D01*
X2030366Y696366D01*
X2032034Y695253D01*
X2034000Y694861D01*
X2046685D01*
X2047366Y693682D01*
X2049282Y691766D01*
X2051628Y690411D01*
X2054245Y689710D01*
X2056955D01*
X2059572Y690411D01*
X2061918Y691766D01*
X2063834Y693682D01*
X2065189Y696028D01*
X2065890Y698645D01*
Y701355D01*
X2065189Y703972D01*
X2063834Y706318D01*
X2061918Y708234D01*
X2059572Y709589D01*
X2056955Y710290D01*
X2054245D01*
X2051628Y709589D01*
X2049282Y708234D01*
X2047366Y706318D01*
X2046685Y705139D01*
X2036129D01*
X2020139Y721128D01*
Y748872D01*
X2078634Y807366D01*
X2079748Y809034D01*
X2080139Y811000D01*
Y852719D01*
X2081779Y853666D01*
X2083834Y855721D01*
X2085288Y858239D01*
X2086040Y861047D01*
Y863953D01*
X2085288Y866761D01*
X2083834Y869279D01*
X2081779Y871334D01*
X2079261Y872788D01*
X2076454Y873540D01*
D02*
G37*
G36*
X1954690Y710290D02*
X1934110D01*
Y689710D01*
X1954690D01*
Y710290D01*
D02*
G37*
G36*
X1876453Y873540D02*
X1873546D01*
X1870739Y872788D01*
X1868221Y871334D01*
X1866166Y869279D01*
X1864712Y866761D01*
X1863960Y863953D01*
Y861047D01*
X1864712Y858239D01*
X1866166Y855721D01*
X1868221Y853666D01*
X1869861Y852719D01*
Y802129D01*
X1817366Y749634D01*
X1816252Y747967D01*
X1815861Y746000D01*
Y717000D01*
X1816252Y715033D01*
X1817366Y713366D01*
X1834366Y696366D01*
X1836033Y695253D01*
X1838000Y694861D01*
X1846685D01*
X1847366Y693682D01*
X1849282Y691766D01*
X1851628Y690411D01*
X1854245Y689710D01*
X1856955D01*
X1859572Y690411D01*
X1861918Y691766D01*
X1863834Y693682D01*
X1865189Y696028D01*
X1865890Y698645D01*
Y701355D01*
X1865189Y703972D01*
X1863834Y706318D01*
X1861918Y708234D01*
X1859572Y709589D01*
X1856955Y710290D01*
X1854245D01*
X1851628Y709589D01*
X1849282Y708234D01*
X1847366Y706318D01*
X1846685Y705139D01*
X1840128D01*
X1826139Y719128D01*
Y743872D01*
X1878634Y796366D01*
X1879747Y798034D01*
X1880139Y800000D01*
Y852719D01*
X1881779Y853666D01*
X1883834Y855721D01*
X1885288Y858239D01*
X1886040Y861047D01*
Y863953D01*
X1885288Y866761D01*
X1883834Y869279D01*
X1881779Y871334D01*
X1879261Y872788D01*
X1876453Y873540D01*
D02*
G37*
G36*
X1754690Y710290D02*
X1734110D01*
Y689710D01*
X1754690D01*
Y710290D01*
D02*
G37*
G36*
X1676453Y873540D02*
X1673546D01*
X1670739Y872788D01*
X1668221Y871334D01*
X1666166Y869279D01*
X1664712Y866761D01*
X1663960Y863953D01*
Y861047D01*
X1664712Y858239D01*
X1666166Y855721D01*
X1668221Y853666D01*
X1669861Y852719D01*
Y792673D01*
X1619366Y742178D01*
X1618252Y740511D01*
X1617861Y738544D01*
Y719000D01*
X1618252Y717033D01*
X1619366Y715366D01*
X1638366Y696366D01*
X1640033Y695253D01*
X1642000Y694861D01*
X1646685D01*
X1647366Y693682D01*
X1649282Y691766D01*
X1651628Y690411D01*
X1654245Y689710D01*
X1656954D01*
X1659572Y690411D01*
X1661918Y691766D01*
X1663834Y693682D01*
X1665189Y696028D01*
X1665890Y698645D01*
Y701355D01*
X1665189Y703972D01*
X1663834Y706318D01*
X1661918Y708234D01*
X1659572Y709589D01*
X1656954Y710290D01*
X1654245D01*
X1651628Y709589D01*
X1649282Y708234D01*
X1647366Y706318D01*
X1646685Y705139D01*
X1644129D01*
X1628139Y721128D01*
Y736416D01*
X1678634Y786910D01*
X1679747Y788578D01*
X1680139Y790544D01*
Y852719D01*
X1681779Y853666D01*
X1683834Y855721D01*
X1685287Y858239D01*
X1686040Y861047D01*
Y863953D01*
X1685287Y866761D01*
X1683834Y869279D01*
X1681779Y871334D01*
X1679261Y872788D01*
X1676453Y873540D01*
D02*
G37*
G36*
X776454Y873540D02*
X773547D01*
X770739Y872787D01*
X768221Y871334D01*
X766166Y869278D01*
X764713Y866761D01*
X763960Y863953D01*
Y861046D01*
X764713Y858238D01*
X766166Y855721D01*
X768221Y853665D01*
X769861Y852719D01*
Y792672D01*
X723366Y746177D01*
X722252Y744510D01*
X721861Y742543D01*
Y712000D01*
X722252Y710033D01*
X723366Y708366D01*
X735367Y696366D01*
X737034Y695252D01*
X739000Y694861D01*
X746685D01*
X747366Y693681D01*
X749282Y691766D01*
X751628Y690411D01*
X754245Y689709D01*
X756955D01*
X759572Y690411D01*
X761918Y691766D01*
X763834Y693681D01*
X765189Y696028D01*
X765890Y698645D01*
Y701354D01*
X765189Y703971D01*
X763834Y706318D01*
X761918Y708234D01*
X759572Y709588D01*
X756955Y710290D01*
X754245D01*
X751628Y709588D01*
X749282Y708234D01*
X747366Y706318D01*
X746685Y705138D01*
X741129D01*
X732139Y714128D01*
Y740415D01*
X778634Y786910D01*
X779748Y788577D01*
X780139Y790544D01*
Y852719D01*
X781779Y853665D01*
X783834Y855721D01*
X785288Y858238D01*
X786040Y861046D01*
Y863953D01*
X785288Y866761D01*
X783834Y869278D01*
X781779Y871334D01*
X779261Y872787D01*
X776454Y873540D01*
D02*
G37*
G36*
X654690Y710290D02*
X634110D01*
Y689709D01*
X654690D01*
Y710290D01*
D02*
G37*
G36*
X576454Y873540D02*
X573547D01*
X570739Y872787D01*
X568221Y871334D01*
X566166Y869278D01*
X564712Y866761D01*
X563960Y863953D01*
Y861046D01*
X564712Y858238D01*
X566166Y855721D01*
X568221Y853665D01*
X569861Y852719D01*
Y792672D01*
X519366Y742177D01*
X518252Y740510D01*
X517861Y738544D01*
Y713000D01*
X518252Y711033D01*
X519366Y709366D01*
X532367Y696366D01*
X534034Y695252D01*
X536001Y694861D01*
X546685D01*
X547366Y693681D01*
X549282Y691766D01*
X551628Y690411D01*
X554245Y689709D01*
X556955D01*
X559572Y690411D01*
X561918Y691766D01*
X563834Y693681D01*
X565189Y696028D01*
X565890Y698645D01*
Y701354D01*
X565189Y703971D01*
X563834Y706318D01*
X561918Y708234D01*
X559572Y709588D01*
X556955Y710290D01*
X554245D01*
X551628Y709588D01*
X549282Y708234D01*
X547366Y706318D01*
X546685Y705138D01*
X538129D01*
X528139Y715128D01*
Y736415D01*
X578634Y786910D01*
X579748Y788577D01*
X580139Y790544D01*
Y852719D01*
X581779Y853665D01*
X583834Y855721D01*
X585288Y858238D01*
X586040Y861046D01*
Y863953D01*
X585288Y866761D01*
X583834Y869278D01*
X581779Y871334D01*
X579261Y872787D01*
X576454Y873540D01*
D02*
G37*
G36*
X454690Y710290D02*
X434110D01*
Y689709D01*
X454690D01*
Y710290D01*
D02*
G37*
G36*
X376453Y873540D02*
X373546D01*
X370739Y872787D01*
X368221Y871334D01*
X366166Y869278D01*
X364712Y866761D01*
X363960Y863953D01*
Y861046D01*
X364712Y858238D01*
X366166Y855721D01*
X368221Y853665D01*
X369861Y852719D01*
Y792672D01*
X329366Y752177D01*
X328252Y750510D01*
X327861Y748544D01*
Y710000D01*
X328252Y708034D01*
X329366Y706366D01*
X339367Y696366D01*
X341034Y695252D01*
X343000Y694861D01*
X346685D01*
X347366Y693681D01*
X349282Y691766D01*
X351628Y690411D01*
X354245Y689709D01*
X356955D01*
X359572Y690411D01*
X361918Y691766D01*
X363834Y693681D01*
X365189Y696028D01*
X365890Y698645D01*
Y701354D01*
X365189Y703971D01*
X363834Y706318D01*
X361918Y708234D01*
X359572Y709588D01*
X356955Y710290D01*
X354245D01*
X351628Y709588D01*
X349282Y708234D01*
X347366Y706318D01*
X346685Y705138D01*
X345129D01*
X338139Y712129D01*
Y746415D01*
X378633Y786910D01*
X379748Y788577D01*
X380139Y790544D01*
Y852719D01*
X381779Y853665D01*
X383834Y855721D01*
X385288Y858238D01*
X386040Y861046D01*
Y863953D01*
X385288Y866761D01*
X383834Y869278D01*
X381779Y871334D01*
X379261Y872787D01*
X376453Y873540D01*
D02*
G37*
G36*
X254690Y710290D02*
X234110D01*
Y689709D01*
X254690D01*
Y710290D01*
D02*
G37*
G36*
X176453Y873540D02*
X173546D01*
X170739Y872787D01*
X168221Y871334D01*
X166166Y869278D01*
X164712Y866761D01*
X163960Y863953D01*
Y861046D01*
X164712Y858238D01*
X166166Y855721D01*
X168221Y853665D01*
X169861Y852719D01*
Y792672D01*
X113366Y736177D01*
X112252Y734510D01*
X111861Y732544D01*
Y719000D01*
X112252Y717033D01*
X113366Y715366D01*
X131383Y697350D01*
X133050Y696236D01*
X135017Y695844D01*
X146117D01*
X147366Y693681D01*
X149282Y691766D01*
X151628Y690411D01*
X154245Y689709D01*
X156954D01*
X159572Y690411D01*
X161918Y691766D01*
X163834Y693681D01*
X165189Y696028D01*
X165890Y698645D01*
Y701354D01*
X165189Y703971D01*
X163834Y706318D01*
X161918Y708234D01*
X159572Y709588D01*
X156954Y710290D01*
X154245D01*
X151628Y709588D01*
X149282Y708234D01*
X147366Y706318D01*
X147253Y706122D01*
X137145D01*
X122139Y721128D01*
Y730415D01*
X178633Y786910D01*
X179747Y788577D01*
X180138Y790544D01*
Y852719D01*
X181779Y853665D01*
X183834Y855721D01*
X185287Y858238D01*
X186040Y861046D01*
Y863953D01*
X185287Y866761D01*
X183834Y869278D01*
X181779Y871334D01*
X179261Y872787D01*
X176453Y873540D01*
D02*
G37*
G36*
X1335030Y694055D02*
Y685370D01*
X1343281D01*
X1343054Y687091D01*
X1342093Y689411D01*
X1340564Y691404D01*
X1338571Y692933D01*
X1336250Y693895D01*
X1335030Y694055D01*
D02*
G37*
G36*
X1332490D02*
X1331270Y693895D01*
X1328949Y692933D01*
X1326956Y691404D01*
X1325427Y689411D01*
X1324466Y687091D01*
X1324239Y685370D01*
X1332490D01*
Y694055D01*
D02*
G37*
G36*
X1133790Y686040D02*
X1124270D01*
Y677520D01*
X1133790D01*
Y686040D01*
D02*
G37*
G36*
X1121730D02*
X1112210D01*
Y677520D01*
X1121730D01*
Y686040D01*
D02*
G37*
G36*
X1343281Y682830D02*
X1335030D01*
Y674145D01*
X1336250Y674306D01*
X1338571Y675267D01*
X1340564Y676796D01*
X1342093Y678789D01*
X1343054Y681110D01*
X1343281Y682830D01*
D02*
G37*
G36*
X1332490D02*
X1324239D01*
X1324466Y681110D01*
X1325427Y678789D01*
X1326956Y676796D01*
X1328949Y675267D01*
X1331270Y674306D01*
X1332490Y674145D01*
Y682830D01*
D02*
G37*
G36*
X2526454Y748540D02*
X2523547D01*
X2520739Y747788D01*
X2518221Y746334D01*
X2516166Y744279D01*
X2514713Y741761D01*
X2513960Y738953D01*
Y736047D01*
X2514713Y733239D01*
X2516166Y730721D01*
X2518221Y728666D01*
X2519861Y727719D01*
Y672281D01*
X2518221Y671334D01*
X2516166Y669279D01*
X2514713Y666761D01*
X2513960Y663953D01*
Y661047D01*
X2514713Y658239D01*
X2516166Y655721D01*
X2518221Y653666D01*
X2520739Y652212D01*
X2523547Y651460D01*
X2526454D01*
X2529261Y652212D01*
X2531779Y653666D01*
X2533834Y655721D01*
X2535288Y658239D01*
X2536040Y661047D01*
Y663953D01*
X2535288Y666761D01*
X2533834Y669279D01*
X2531779Y671334D01*
X2530139Y672281D01*
Y727719D01*
X2531779Y728666D01*
X2533834Y730721D01*
X2535288Y733239D01*
X2536040Y736047D01*
Y738953D01*
X2535288Y741761D01*
X2533834Y744279D01*
X2531779Y746334D01*
X2529261Y747788D01*
X2526454Y748540D01*
D02*
G37*
G36*
X2326454D02*
X2323547D01*
X2320739Y747788D01*
X2318221Y746334D01*
X2316166Y744279D01*
X2314712Y741761D01*
X2313960Y738953D01*
Y736047D01*
X2314712Y733239D01*
X2316166Y730721D01*
X2318221Y728666D01*
X2319861Y727719D01*
Y672281D01*
X2318221Y671334D01*
X2316166Y669279D01*
X2314712Y666761D01*
X2313960Y663953D01*
Y661047D01*
X2314712Y658239D01*
X2316166Y655721D01*
X2318221Y653666D01*
X2320739Y652212D01*
X2323547Y651460D01*
X2326454D01*
X2329261Y652212D01*
X2331779Y653666D01*
X2333834Y655721D01*
X2335288Y658239D01*
X2336040Y661047D01*
Y663953D01*
X2335288Y666761D01*
X2333834Y669279D01*
X2331779Y671334D01*
X2330139Y672281D01*
Y727719D01*
X2331779Y728666D01*
X2333834Y730721D01*
X2335288Y733239D01*
X2336040Y736047D01*
Y738953D01*
X2335288Y741761D01*
X2333834Y744279D01*
X2331779Y746334D01*
X2329261Y747788D01*
X2326454Y748540D01*
D02*
G37*
G36*
X2126453D02*
X2123546D01*
X2120739Y747788D01*
X2118221Y746334D01*
X2116166Y744279D01*
X2114712Y741761D01*
X2113960Y738953D01*
Y736047D01*
X2114712Y733239D01*
X2116166Y730721D01*
X2118221Y728666D01*
X2119861Y727719D01*
Y672281D01*
X2118221Y671334D01*
X2116166Y669279D01*
X2114712Y666761D01*
X2113960Y663953D01*
Y661047D01*
X2114712Y658239D01*
X2116166Y655721D01*
X2118221Y653666D01*
X2120739Y652212D01*
X2123546Y651460D01*
X2126453D01*
X2129261Y652212D01*
X2131779Y653666D01*
X2133834Y655721D01*
X2135288Y658239D01*
X2136040Y661047D01*
Y663953D01*
X2135288Y666761D01*
X2133834Y669279D01*
X2131779Y671334D01*
X2130139Y672281D01*
Y727719D01*
X2131779Y728666D01*
X2133834Y730721D01*
X2135288Y733239D01*
X2136040Y736047D01*
Y738953D01*
X2135288Y741761D01*
X2133834Y744279D01*
X2131779Y746334D01*
X2129261Y747788D01*
X2126453Y748540D01*
D02*
G37*
G36*
X1926453D02*
X1923546D01*
X1920739Y747788D01*
X1918221Y746334D01*
X1916166Y744279D01*
X1914712Y741761D01*
X1913960Y738953D01*
Y736047D01*
X1914712Y733239D01*
X1916166Y730721D01*
X1918221Y728666D01*
X1919861Y727719D01*
Y672281D01*
X1918221Y671334D01*
X1916166Y669279D01*
X1914712Y666761D01*
X1913960Y663953D01*
Y661047D01*
X1914712Y658239D01*
X1916166Y655721D01*
X1918221Y653666D01*
X1920739Y652212D01*
X1923546Y651460D01*
X1926453D01*
X1929261Y652212D01*
X1931779Y653666D01*
X1933834Y655721D01*
X1935287Y658239D01*
X1936040Y661047D01*
Y663953D01*
X1935287Y666761D01*
X1933834Y669279D01*
X1931779Y671334D01*
X1930139Y672281D01*
Y727719D01*
X1931779Y728666D01*
X1933834Y730721D01*
X1935287Y733239D01*
X1936040Y736047D01*
Y738953D01*
X1935287Y741761D01*
X1933834Y744279D01*
X1931779Y746334D01*
X1929261Y747788D01*
X1926453Y748540D01*
D02*
G37*
G36*
X1726454D02*
X1723547D01*
X1720739Y747788D01*
X1718221Y746334D01*
X1716166Y744279D01*
X1714713Y741761D01*
X1713960Y738953D01*
Y736047D01*
X1714713Y733239D01*
X1716166Y730721D01*
X1718221Y728666D01*
X1719861Y727719D01*
Y672281D01*
X1718221Y671334D01*
X1716166Y669279D01*
X1714713Y666761D01*
X1713960Y663953D01*
Y661047D01*
X1714713Y658239D01*
X1716166Y655721D01*
X1718221Y653666D01*
X1720739Y652212D01*
X1723547Y651460D01*
X1726454D01*
X1729261Y652212D01*
X1731779Y653666D01*
X1733835Y655721D01*
X1735288Y658239D01*
X1736040Y661047D01*
Y663953D01*
X1735288Y666761D01*
X1733835Y669279D01*
X1731779Y671334D01*
X1730139Y672281D01*
Y727719D01*
X1731779Y728666D01*
X1733835Y730721D01*
X1735288Y733239D01*
X1736040Y736047D01*
Y738953D01*
X1735288Y741761D01*
X1733835Y744279D01*
X1731779Y746334D01*
X1729261Y747788D01*
X1726454Y748540D01*
D02*
G37*
G36*
X1526454Y673540D02*
X1523547D01*
X1520739Y672788D01*
X1518221Y671334D01*
X1516166Y669279D01*
X1514713Y666761D01*
X1513960Y663953D01*
Y661047D01*
X1514713Y658239D01*
X1516166Y655721D01*
X1518221Y653666D01*
X1520739Y652212D01*
X1523547Y651460D01*
X1526454D01*
X1529261Y652212D01*
X1531779Y653666D01*
X1533834Y655721D01*
X1535288Y658239D01*
X1536040Y661047D01*
Y663953D01*
X1535288Y666761D01*
X1533834Y669279D01*
X1531779Y671334D01*
X1529261Y672788D01*
X1526454Y673540D01*
D02*
G37*
G36*
X1026454Y673539D02*
X1023547D01*
X1020739Y672787D01*
X1018221Y671334D01*
X1016166Y669278D01*
X1014713Y666761D01*
X1013960Y663953D01*
Y661046D01*
X1014713Y658238D01*
X1016166Y655721D01*
X1018221Y653665D01*
X1020739Y652212D01*
X1023547Y651460D01*
X1026454D01*
X1029261Y652212D01*
X1031779Y653665D01*
X1033834Y655721D01*
X1035288Y658238D01*
X1036040Y661046D01*
Y663953D01*
X1035288Y666761D01*
X1033834Y669278D01*
X1031779Y671334D01*
X1029261Y672787D01*
X1026454Y673539D01*
D02*
G37*
G36*
X826453Y748540D02*
X823547D01*
X820739Y747787D01*
X818221Y746334D01*
X816166Y744278D01*
X814712Y741761D01*
X813960Y738953D01*
Y736046D01*
X814712Y733238D01*
X816166Y730721D01*
X818221Y728665D01*
X819861Y727719D01*
Y672281D01*
X818221Y671334D01*
X816166Y669278D01*
X814712Y666761D01*
X813960Y663953D01*
Y661046D01*
X814712Y658238D01*
X816166Y655721D01*
X818221Y653665D01*
X820739Y652212D01*
X823547Y651460D01*
X826453D01*
X829261Y652212D01*
X831779Y653665D01*
X833834Y655721D01*
X835288Y658238D01*
X836040Y661046D01*
Y663953D01*
X835288Y666761D01*
X833834Y669278D01*
X831779Y671334D01*
X830139Y672281D01*
Y727719D01*
X831779Y728665D01*
X833834Y730721D01*
X835288Y733238D01*
X836040Y736046D01*
Y738953D01*
X835288Y741761D01*
X833834Y744278D01*
X831779Y746334D01*
X829261Y747787D01*
X826453Y748540D01*
D02*
G37*
G36*
X626453D02*
X623546D01*
X620739Y747787D01*
X618221Y746334D01*
X616166Y744278D01*
X614712Y741761D01*
X613960Y738953D01*
Y736046D01*
X614712Y733238D01*
X616166Y730721D01*
X618221Y728665D01*
X619861Y727719D01*
Y672281D01*
X618221Y671334D01*
X616166Y669278D01*
X614712Y666761D01*
X613960Y663953D01*
Y661046D01*
X614712Y658238D01*
X616166Y655721D01*
X618221Y653665D01*
X620739Y652212D01*
X623546Y651460D01*
X626453D01*
X629261Y652212D01*
X631779Y653665D01*
X633834Y655721D01*
X635288Y658238D01*
X636040Y661046D01*
Y663953D01*
X635288Y666761D01*
X633834Y669278D01*
X631779Y671334D01*
X630139Y672281D01*
Y727719D01*
X631779Y728665D01*
X633834Y730721D01*
X635288Y733238D01*
X636040Y736046D01*
Y738953D01*
X635288Y741761D01*
X633834Y744278D01*
X631779Y746334D01*
X629261Y747787D01*
X626453Y748540D01*
D02*
G37*
G36*
X426453D02*
X423546D01*
X420738Y747787D01*
X418221Y746334D01*
X416166Y744278D01*
X414712Y741761D01*
X413960Y738953D01*
Y736046D01*
X414712Y733238D01*
X416166Y730721D01*
X418221Y728665D01*
X419861Y727719D01*
Y672281D01*
X418221Y671334D01*
X416166Y669278D01*
X414712Y666761D01*
X413960Y663953D01*
Y661046D01*
X414712Y658238D01*
X416166Y655721D01*
X418221Y653665D01*
X420738Y652212D01*
X423546Y651460D01*
X426453D01*
X429261Y652212D01*
X431778Y653665D01*
X433834Y655721D01*
X435287Y658238D01*
X436040Y661046D01*
Y663953D01*
X435287Y666761D01*
X433834Y669278D01*
X431778Y671334D01*
X430139Y672281D01*
Y727719D01*
X431778Y728665D01*
X433834Y730721D01*
X435287Y733238D01*
X436040Y736046D01*
Y738953D01*
X435287Y741761D01*
X433834Y744278D01*
X431778Y746334D01*
X429261Y747787D01*
X426453Y748540D01*
D02*
G37*
G36*
X226454D02*
X223547D01*
X220739Y747787D01*
X218221Y746334D01*
X216166Y744278D01*
X214713Y741761D01*
X213960Y738953D01*
Y736046D01*
X214713Y733238D01*
X216166Y730721D01*
X218221Y728665D01*
X219862Y727719D01*
Y672281D01*
X218221Y671334D01*
X216166Y669278D01*
X214713Y666761D01*
X213960Y663953D01*
Y661046D01*
X214713Y658238D01*
X216166Y655721D01*
X218221Y653665D01*
X220739Y652212D01*
X223547Y651460D01*
X226454D01*
X229261Y652212D01*
X231779Y653665D01*
X233834Y655721D01*
X235288Y658238D01*
X236040Y661046D01*
Y663953D01*
X235288Y666761D01*
X233834Y669278D01*
X231779Y671334D01*
X230139Y672281D01*
Y727719D01*
X231779Y728665D01*
X233834Y730721D01*
X235288Y733238D01*
X236040Y736046D01*
Y738953D01*
X235288Y741761D01*
X233834Y744278D01*
X231779Y746334D01*
X229261Y747787D01*
X226454Y748540D01*
D02*
G37*
G36*
X1181560Y1100622D02*
X1179070Y1100295D01*
X1176749Y1099333D01*
X1174756Y1097804D01*
X1173227Y1095811D01*
X1172266Y1093491D01*
X1171938Y1091000D01*
Y1090000D01*
X1172266Y1087510D01*
X1173227Y1085189D01*
X1174756Y1083196D01*
X1176749Y1081667D01*
X1179070Y1080706D01*
X1181560Y1080378D01*
X1184051Y1080706D01*
X1186371Y1081667D01*
X1188364Y1083196D01*
X1189893Y1085189D01*
X1189965Y1085361D01*
X1244371D01*
X1280861Y1048871D01*
Y681000D01*
X1281252Y679034D01*
X1282366Y677366D01*
X1304666Y655067D01*
X1306333Y653953D01*
X1308300Y653561D01*
X1325355D01*
X1325427Y653389D01*
X1326956Y651396D01*
X1328949Y649867D01*
X1331270Y648906D01*
X1333760Y648578D01*
X1336250Y648906D01*
X1338571Y649867D01*
X1340564Y651396D01*
X1342093Y653389D01*
X1343054Y655710D01*
X1343382Y658200D01*
Y659200D01*
X1343054Y661691D01*
X1342093Y664011D01*
X1340564Y666004D01*
X1338571Y667533D01*
X1336250Y668495D01*
X1333760Y668822D01*
X1331270Y668495D01*
X1328949Y667533D01*
X1326956Y666004D01*
X1325427Y664011D01*
X1325355Y663839D01*
X1310428D01*
X1291139Y683129D01*
Y1051000D01*
X1290748Y1052967D01*
X1289634Y1054634D01*
X1250134Y1094134D01*
X1248466Y1095248D01*
X1246500Y1095639D01*
X1189965D01*
X1189893Y1095811D01*
X1188364Y1097804D01*
X1186371Y1099333D01*
X1184051Y1100295D01*
X1181560Y1100622D01*
D02*
G37*
G36*
X2485000Y1166139D02*
X1381000D01*
X1379034Y1165748D01*
X1377366Y1164634D01*
X1359172Y1146439D01*
X1343300D01*
Y1151340D01*
X1324220D01*
Y1131260D01*
X1343300D01*
Y1136161D01*
X1361300D01*
X1363267Y1136553D01*
X1364934Y1137666D01*
X1383129Y1155861D01*
X2482872D01*
X2624861Y1013872D01*
Y607128D01*
X2560371Y542639D01*
X2534781D01*
X2533834Y544279D01*
X2531779Y546334D01*
X2529261Y547788D01*
X2526454Y548540D01*
X2523547D01*
X2520739Y547788D01*
X2518221Y546334D01*
X2516166Y544279D01*
X2514713Y541761D01*
X2513960Y538953D01*
Y536046D01*
X2514713Y533239D01*
X2516166Y530721D01*
X2518221Y528666D01*
X2520739Y527212D01*
X2523547Y526460D01*
X2526454D01*
X2529261Y527212D01*
X2531779Y528666D01*
X2533834Y530721D01*
X2534781Y532361D01*
X2562500D01*
X2564467Y532752D01*
X2566134Y533866D01*
X2633634Y601366D01*
X2634748Y603033D01*
X2635139Y605000D01*
Y1016000D01*
X2634748Y1017967D01*
X2633634Y1019634D01*
X2488634Y1164634D01*
X2486967Y1165748D01*
X2485000Y1166139D01*
D02*
G37*
G36*
X2304000Y1152139D02*
X1388000D01*
X1386033Y1151748D01*
X1384366Y1150634D01*
X1354772Y1121039D01*
X1342165D01*
X1342093Y1121211D01*
X1340564Y1123204D01*
X1338571Y1124733D01*
X1336250Y1125695D01*
X1333760Y1126022D01*
X1331270Y1125695D01*
X1328949Y1124733D01*
X1326956Y1123204D01*
X1325427Y1121211D01*
X1324466Y1118891D01*
X1324138Y1116400D01*
Y1115400D01*
X1324466Y1112910D01*
X1325427Y1110589D01*
X1326956Y1108596D01*
X1328949Y1107067D01*
X1331270Y1106106D01*
X1333760Y1105778D01*
X1336250Y1106106D01*
X1338571Y1107067D01*
X1340564Y1108596D01*
X1342093Y1110589D01*
X1342165Y1110761D01*
X1356900D01*
X1358867Y1111153D01*
X1360534Y1112266D01*
X1390128Y1141861D01*
X2301871D01*
X2384861Y1058872D01*
Y571129D01*
X2356371Y542639D01*
X2334781D01*
X2333834Y544279D01*
X2331779Y546334D01*
X2329261Y547788D01*
X2326454Y548540D01*
X2323547D01*
X2320739Y547788D01*
X2318221Y546334D01*
X2316166Y544279D01*
X2314712Y541761D01*
X2313960Y538953D01*
Y536046D01*
X2314712Y533239D01*
X2316166Y530721D01*
X2318221Y528666D01*
X2320739Y527212D01*
X2323547Y526460D01*
X2326454D01*
X2329261Y527212D01*
X2331779Y528666D01*
X2333834Y530721D01*
X2334781Y532361D01*
X2358500D01*
X2360466Y532752D01*
X2362134Y533866D01*
X2393634Y565366D01*
X2394748Y567034D01*
X2395139Y569000D01*
Y1061000D01*
X2394748Y1062967D01*
X2393634Y1064634D01*
X2307634Y1150634D01*
X2305966Y1151748D01*
X2304000Y1152139D01*
D02*
G37*
G36*
X2067000Y1134139D02*
X1409000D01*
X1407034Y1133748D01*
X1405366Y1132634D01*
X1368372Y1095639D01*
X1342165D01*
X1342093Y1095811D01*
X1340564Y1097804D01*
X1338571Y1099333D01*
X1336250Y1100295D01*
X1333760Y1100622D01*
X1331270Y1100295D01*
X1328949Y1099333D01*
X1326956Y1097804D01*
X1325427Y1095811D01*
X1324466Y1093491D01*
X1324138Y1091000D01*
Y1090000D01*
X1324466Y1087510D01*
X1325427Y1085189D01*
X1326956Y1083196D01*
X1328949Y1081667D01*
X1331270Y1080706D01*
X1333760Y1080378D01*
X1336250Y1080706D01*
X1338571Y1081667D01*
X1340564Y1083196D01*
X1342093Y1085189D01*
X1342165Y1085361D01*
X1370500D01*
X1372467Y1085753D01*
X1374134Y1086867D01*
X1411129Y1123861D01*
X2064872D01*
X2185861Y1002871D01*
Y577128D01*
X2151371Y542639D01*
X2134781D01*
X2133834Y544279D01*
X2131779Y546334D01*
X2129261Y547788D01*
X2126453Y548540D01*
X2123546D01*
X2120739Y547788D01*
X2118221Y546334D01*
X2116166Y544279D01*
X2114712Y541761D01*
X2113960Y538953D01*
Y536046D01*
X2114712Y533239D01*
X2116166Y530721D01*
X2118221Y528666D01*
X2120739Y527212D01*
X2123546Y526460D01*
X2126453D01*
X2129261Y527212D01*
X2131779Y528666D01*
X2133834Y530721D01*
X2134781Y532361D01*
X2153500D01*
X2155466Y532752D01*
X2157134Y533866D01*
X2194634Y571366D01*
X2195748Y573033D01*
X2196139Y575000D01*
Y1005000D01*
X2195748Y1006966D01*
X2194634Y1008634D01*
X2070634Y1132634D01*
X2068967Y1133748D01*
X2067000Y1134139D01*
D02*
G37*
G36*
X557170Y955890D02*
X554830D01*
X552569Y955284D01*
X550541Y954114D01*
X548886Y952459D01*
X547716Y950431D01*
X547110Y948170D01*
Y945830D01*
X547716Y943569D01*
X548886Y941541D01*
X550541Y939886D01*
X550861Y939702D01*
Y933129D01*
X492366Y874634D01*
X491252Y872967D01*
X490861Y871000D01*
Y580129D01*
X453371Y542638D01*
X434781D01*
X433834Y544278D01*
X431778Y546334D01*
X429261Y547787D01*
X426453Y548539D01*
X423546D01*
X420738Y547787D01*
X418221Y546334D01*
X416166Y544278D01*
X414712Y541761D01*
X413960Y538953D01*
Y536046D01*
X414712Y533238D01*
X416166Y530721D01*
X418221Y528665D01*
X420738Y527212D01*
X423546Y526460D01*
X426453D01*
X429261Y527212D01*
X431778Y528665D01*
X433834Y530721D01*
X434781Y532361D01*
X455499D01*
X457466Y532752D01*
X459133Y533866D01*
X499634Y574366D01*
X500748Y576034D01*
X501139Y578000D01*
Y868872D01*
X559634Y927366D01*
X560748Y929034D01*
X561139Y931000D01*
Y939702D01*
X561459Y939886D01*
X563114Y941541D01*
X564284Y943569D01*
X564890Y945830D01*
Y948170D01*
X564284Y950431D01*
X563114Y952459D01*
X561459Y954114D01*
X559431Y955284D01*
X557170Y955890D01*
D02*
G37*
G36*
X321170Y935890D02*
X318830D01*
X316569Y935284D01*
X314541Y934114D01*
X312886Y932459D01*
X311716Y930431D01*
X311110Y928170D01*
Y925830D01*
X311716Y923569D01*
X312886Y921541D01*
X314541Y919886D01*
X314861Y919702D01*
Y915128D01*
X300366Y900634D01*
X299252Y898967D01*
X298861Y897000D01*
Y584128D01*
X257371Y542638D01*
X234781D01*
X233834Y544278D01*
X231779Y546334D01*
X229261Y547787D01*
X226454Y548539D01*
X223547D01*
X220739Y547787D01*
X218221Y546334D01*
X216166Y544278D01*
X214713Y541761D01*
X213960Y538953D01*
Y536046D01*
X214713Y533238D01*
X216166Y530721D01*
X218221Y528665D01*
X220739Y527212D01*
X223547Y526460D01*
X226454D01*
X229261Y527212D01*
X231779Y528665D01*
X233834Y530721D01*
X234781Y532361D01*
X259499D01*
X261466Y532752D01*
X263133Y533866D01*
X307634Y578366D01*
X308748Y580033D01*
X309139Y582000D01*
Y894872D01*
X323634Y909366D01*
X324748Y911033D01*
X325139Y913000D01*
Y919702D01*
X325459Y919886D01*
X327114Y921541D01*
X328284Y923569D01*
X328890Y925830D01*
Y928170D01*
X328284Y930431D01*
X327114Y932459D01*
X325459Y934114D01*
X323431Y935284D01*
X321170Y935890D01*
D02*
G37*
G36*
X2486040Y548540D02*
X2463960D01*
Y526460D01*
X2486040D01*
Y548540D01*
D02*
G37*
G36*
X2286040D02*
X2263960D01*
Y526460D01*
X2286040D01*
Y548540D01*
D02*
G37*
G36*
X2086040D02*
X2063960D01*
Y526460D01*
X2086040D01*
Y548540D01*
D02*
G37*
G36*
X1886040D02*
X1863960D01*
Y526460D01*
X1886040D01*
Y548540D01*
D02*
G37*
G36*
X1686040D02*
X1663960D01*
Y526460D01*
X1686040D01*
Y548540D01*
D02*
G37*
G36*
X1486040D02*
X1463960D01*
Y526460D01*
X1486040D01*
Y548540D01*
D02*
G37*
G36*
X986040Y548539D02*
X963960D01*
Y526460D01*
X986040D01*
Y548539D01*
D02*
G37*
G36*
X786040D02*
X763960D01*
Y526460D01*
X786040D01*
Y548539D01*
D02*
G37*
G36*
X586040D02*
X563960D01*
Y526460D01*
X586040D01*
Y548539D01*
D02*
G37*
G36*
X386040D02*
X363960D01*
Y526460D01*
X386040D01*
Y548539D01*
D02*
G37*
G36*
X186040D02*
X163960D01*
Y526460D01*
X186040D01*
Y548539D01*
D02*
G37*
G36*
X1133790Y674980D02*
X1112210D01*
Y666460D01*
Y647960D01*
X1133790D01*
Y651736D01*
X1147196D01*
X1147886Y650541D01*
X1149541Y648886D01*
X1149861Y648701D01*
Y582128D01*
X1091871Y524139D01*
X1090298D01*
X1090114Y524459D01*
X1088459Y526114D01*
X1086431Y527284D01*
X1084170Y527890D01*
X1081830D01*
X1079569Y527284D01*
X1077541Y526114D01*
X1075886Y524459D01*
X1074716Y522431D01*
X1074110Y520170D01*
Y517830D01*
X1074716Y515569D01*
X1075886Y513541D01*
X1077541Y511886D01*
X1079569Y510716D01*
X1081830Y510110D01*
X1084170D01*
X1086431Y510716D01*
X1088459Y511886D01*
X1090114Y513541D01*
X1090298Y513861D01*
X1094000D01*
X1095966Y514252D01*
X1097634Y515366D01*
X1158634Y576366D01*
X1159748Y578033D01*
X1160139Y580000D01*
Y648701D01*
X1160459Y648886D01*
X1162114Y650541D01*
X1163284Y652569D01*
X1163890Y654830D01*
Y657170D01*
X1163284Y659431D01*
X1162114Y661459D01*
X1160459Y663114D01*
X1158431Y664284D01*
X1156170Y664890D01*
X1153830D01*
X1151569Y664284D01*
X1149541Y663114D01*
X1148441Y662014D01*
X1133790D01*
Y666460D01*
Y674980D01*
D02*
G37*
G36*
X2554690Y510290D02*
X2534110D01*
Y489710D01*
X2554690D01*
Y510290D01*
D02*
G37*
G36*
X2476453Y673540D02*
X2473546D01*
X2470739Y672788D01*
X2468221Y671334D01*
X2466166Y669279D01*
X2464712Y666761D01*
X2463960Y663953D01*
Y661047D01*
X2464712Y658239D01*
X2466166Y655721D01*
X2468221Y653666D01*
X2469861Y652719D01*
Y592672D01*
X2419366Y542178D01*
X2418252Y540510D01*
X2417861Y538544D01*
Y518000D01*
X2418252Y516034D01*
X2419366Y514366D01*
X2437366Y496366D01*
X2439034Y495252D01*
X2441000Y494861D01*
X2446685D01*
X2447366Y493682D01*
X2449282Y491766D01*
X2451629Y490411D01*
X2454246Y489710D01*
X2456955D01*
X2459572Y490411D01*
X2461918Y491766D01*
X2463834Y493682D01*
X2465189Y496028D01*
X2465890Y498645D01*
Y501355D01*
X2465189Y503972D01*
X2463834Y506318D01*
X2461918Y508234D01*
X2459572Y509589D01*
X2456955Y510290D01*
X2454246D01*
X2451629Y509589D01*
X2449282Y508234D01*
X2447366Y506318D01*
X2446685Y505139D01*
X2443129D01*
X2428139Y520129D01*
Y536415D01*
X2478633Y586910D01*
X2479747Y588577D01*
X2480139Y590544D01*
Y652719D01*
X2481779Y653666D01*
X2483834Y655721D01*
X2485287Y658239D01*
X2486040Y661047D01*
Y663953D01*
X2485287Y666761D01*
X2483834Y669279D01*
X2481779Y671334D01*
X2479261Y672788D01*
X2476453Y673540D01*
D02*
G37*
G36*
X2354690Y510290D02*
X2334110D01*
Y489710D01*
X2354690D01*
Y510290D01*
D02*
G37*
G36*
X2276454Y673540D02*
X2273547D01*
X2270739Y672788D01*
X2268221Y671334D01*
X2266166Y669279D01*
X2264713Y666761D01*
X2263960Y663953D01*
Y661047D01*
X2264713Y658239D01*
X2266166Y655721D01*
X2268221Y653666D01*
X2269861Y652719D01*
Y592673D01*
X2220366Y543177D01*
X2219252Y541510D01*
X2218861Y539544D01*
Y517000D01*
X2219252Y515033D01*
X2220366Y513366D01*
X2236883Y496850D01*
X2238550Y495736D01*
X2240517Y495345D01*
X2246406D01*
X2247366Y493682D01*
X2249282Y491766D01*
X2251628Y490411D01*
X2254245Y489710D01*
X2256955D01*
X2259572Y490411D01*
X2261918Y491766D01*
X2263834Y493682D01*
X2265189Y496028D01*
X2265890Y498645D01*
Y501355D01*
X2265189Y503972D01*
X2263834Y506318D01*
X2261918Y508234D01*
X2259572Y509589D01*
X2256955Y510290D01*
X2254245D01*
X2251628Y509589D01*
X2249282Y508234D01*
X2247366Y506318D01*
X2246964Y505622D01*
X2242645D01*
X2229139Y519128D01*
Y537415D01*
X2278634Y586910D01*
X2279748Y588577D01*
X2280139Y590544D01*
Y652719D01*
X2281779Y653666D01*
X2283834Y655721D01*
X2285288Y658239D01*
X2286040Y661047D01*
Y663953D01*
X2285288Y666761D01*
X2283834Y669279D01*
X2281779Y671334D01*
X2279261Y672788D01*
X2276454Y673540D01*
D02*
G37*
G36*
X2154690Y510290D02*
X2134110D01*
Y489710D01*
X2154690D01*
Y510290D01*
D02*
G37*
G36*
X2076454Y673540D02*
X2073547D01*
X2070739Y672788D01*
X2068221Y671334D01*
X2066166Y669279D01*
X2064712Y666761D01*
X2063960Y663953D01*
Y661047D01*
X2064712Y658239D01*
X2066166Y655721D01*
X2068221Y653666D01*
X2069861Y652719D01*
Y592673D01*
X2024366Y547178D01*
X2023252Y545510D01*
X2022861Y543544D01*
Y514000D01*
X2023252Y512034D01*
X2024366Y510366D01*
X2038367Y496366D01*
X2040034Y495252D01*
X2042000Y494861D01*
X2046685D01*
X2047366Y493682D01*
X2049282Y491766D01*
X2051628Y490411D01*
X2054245Y489710D01*
X2056955D01*
X2059572Y490411D01*
X2061918Y491766D01*
X2063834Y493682D01*
X2065189Y496028D01*
X2065890Y498645D01*
Y501355D01*
X2065189Y503972D01*
X2063834Y506318D01*
X2061918Y508234D01*
X2059572Y509589D01*
X2056955Y510290D01*
X2054245D01*
X2051628Y509589D01*
X2049282Y508234D01*
X2047366Y506318D01*
X2046685Y505139D01*
X2044129D01*
X2033139Y516129D01*
Y541415D01*
X2078634Y586910D01*
X2079748Y588577D01*
X2080139Y590544D01*
Y652719D01*
X2081779Y653666D01*
X2083834Y655721D01*
X2085288Y658239D01*
X2086040Y661047D01*
Y663953D01*
X2085288Y666761D01*
X2083834Y669279D01*
X2081779Y671334D01*
X2079261Y672788D01*
X2076454Y673540D01*
D02*
G37*
G36*
X1954690Y510290D02*
X1934110D01*
Y489710D01*
X1954690D01*
Y510290D01*
D02*
G37*
G36*
X1876453Y673540D02*
X1873546D01*
X1870739Y672788D01*
X1868221Y671334D01*
X1866166Y669279D01*
X1864712Y666761D01*
X1863960Y663953D01*
Y661047D01*
X1864712Y658239D01*
X1866166Y655721D01*
X1868221Y653666D01*
X1869861Y652719D01*
Y592673D01*
X1822366Y545178D01*
X1821252Y543511D01*
X1820861Y541544D01*
Y517000D01*
X1821252Y515033D01*
X1822366Y513366D01*
X1839366Y496366D01*
X1841034Y495252D01*
X1843000Y494861D01*
X1846685D01*
X1847366Y493682D01*
X1849282Y491766D01*
X1851628Y490411D01*
X1854245Y489710D01*
X1856955D01*
X1859572Y490411D01*
X1861918Y491766D01*
X1863834Y493682D01*
X1865189Y496028D01*
X1865890Y498645D01*
Y501355D01*
X1865189Y503972D01*
X1863834Y506318D01*
X1861918Y508234D01*
X1859572Y509589D01*
X1856955Y510290D01*
X1854245D01*
X1851628Y509589D01*
X1849282Y508234D01*
X1847366Y506318D01*
X1846685Y505139D01*
X1845129D01*
X1831139Y519128D01*
Y539416D01*
X1878634Y586910D01*
X1879747Y588577D01*
X1880139Y590544D01*
Y652719D01*
X1881779Y653666D01*
X1883834Y655721D01*
X1885288Y658239D01*
X1886040Y661047D01*
Y663953D01*
X1885288Y666761D01*
X1883834Y669279D01*
X1881779Y671334D01*
X1879261Y672788D01*
X1876453Y673540D01*
D02*
G37*
G36*
X1754690Y510290D02*
X1734110D01*
Y489710D01*
X1754690D01*
Y510290D01*
D02*
G37*
G36*
X1676453Y673540D02*
X1673546D01*
X1670739Y672788D01*
X1668221Y671334D01*
X1666166Y669279D01*
X1664712Y666761D01*
X1663960Y663953D01*
Y661047D01*
X1664712Y658239D01*
X1666166Y655721D01*
X1668221Y653666D01*
X1669861Y652719D01*
Y592673D01*
X1627366Y550178D01*
X1626252Y548511D01*
X1625861Y546544D01*
Y510000D01*
X1626252Y508033D01*
X1627366Y506366D01*
X1637366Y496366D01*
X1639034Y495252D01*
X1641000Y494861D01*
X1646685D01*
X1647366Y493682D01*
X1649282Y491766D01*
X1651628Y490411D01*
X1654245Y489710D01*
X1656954D01*
X1659572Y490411D01*
X1661918Y491766D01*
X1663834Y493682D01*
X1665189Y496028D01*
X1665890Y498645D01*
Y501355D01*
X1665189Y503972D01*
X1663834Y506318D01*
X1661918Y508234D01*
X1659572Y509589D01*
X1656954Y510290D01*
X1654245D01*
X1651628Y509589D01*
X1649282Y508234D01*
X1647366Y506318D01*
X1646685Y505139D01*
X1643129D01*
X1636139Y512128D01*
Y544416D01*
X1678634Y586910D01*
X1679747Y588577D01*
X1680139Y590544D01*
Y652719D01*
X1681779Y653666D01*
X1683834Y655721D01*
X1685287Y658239D01*
X1686040Y661047D01*
Y663953D01*
X1685287Y666761D01*
X1683834Y669279D01*
X1681779Y671334D01*
X1679261Y672788D01*
X1676453Y673540D01*
D02*
G37*
G36*
X1554690Y510290D02*
X1534110D01*
Y489710D01*
X1554690D01*
Y510290D01*
D02*
G37*
G36*
X1476454Y673540D02*
X1473547D01*
X1470739Y672788D01*
X1468221Y671334D01*
X1466166Y669279D01*
X1464713Y666761D01*
X1463960Y663953D01*
Y661047D01*
X1464713Y658239D01*
X1466166Y655721D01*
X1468221Y653666D01*
X1469861Y652719D01*
Y592673D01*
X1415366Y538177D01*
X1414252Y536510D01*
X1413861Y534544D01*
Y522000D01*
X1414252Y520033D01*
X1415366Y518366D01*
X1437366Y496366D01*
X1439034Y495252D01*
X1441000Y494861D01*
X1446685D01*
X1447366Y493682D01*
X1449282Y491766D01*
X1451628Y490411D01*
X1454245Y489710D01*
X1456955D01*
X1459572Y490411D01*
X1461918Y491766D01*
X1463834Y493682D01*
X1465189Y496028D01*
X1465890Y498645D01*
Y501355D01*
X1465189Y503972D01*
X1463834Y506318D01*
X1461918Y508234D01*
X1459572Y509589D01*
X1456955Y510290D01*
X1454245D01*
X1451628Y509589D01*
X1449282Y508234D01*
X1447366Y506318D01*
X1446685Y505139D01*
X1443129D01*
X1424139Y524128D01*
Y532415D01*
X1478634Y586910D01*
X1479748Y588577D01*
X1480139Y590544D01*
Y652719D01*
X1481779Y653666D01*
X1483834Y655721D01*
X1485288Y658239D01*
X1486040Y661047D01*
Y663953D01*
X1485288Y666761D01*
X1483834Y669279D01*
X1481779Y671334D01*
X1479261Y672788D01*
X1476454Y673540D01*
D02*
G37*
G36*
X1054690Y510289D02*
X1034110D01*
Y489709D01*
X1054690D01*
Y510289D01*
D02*
G37*
G36*
X976454Y673539D02*
X973547D01*
X970739Y672787D01*
X968222Y671334D01*
X966166Y669278D01*
X964713Y666761D01*
X963960Y663953D01*
Y661046D01*
X964713Y658238D01*
X966166Y655721D01*
X968222Y653665D01*
X969862Y652718D01*
Y592672D01*
X917366Y540177D01*
X916252Y538510D01*
X915861Y536543D01*
Y521000D01*
X916252Y519034D01*
X917366Y517366D01*
X938367Y496366D01*
X940034Y495252D01*
X942001Y494861D01*
X946685D01*
X947366Y493681D01*
X949282Y491765D01*
X951628Y490411D01*
X954246Y489709D01*
X956955D01*
X959572Y490411D01*
X961918Y491765D01*
X963834Y493681D01*
X965189Y496028D01*
X965890Y498645D01*
Y501354D01*
X965189Y503971D01*
X963834Y506318D01*
X961918Y508233D01*
X959572Y509588D01*
X956955Y510289D01*
X954246D01*
X951628Y509588D01*
X949282Y508233D01*
X947366Y506318D01*
X946685Y505138D01*
X944129D01*
X926139Y523129D01*
Y534415D01*
X978634Y586910D01*
X979748Y588577D01*
X980139Y590544D01*
Y652718D01*
X981779Y653665D01*
X983834Y655721D01*
X985288Y658238D01*
X986040Y661046D01*
Y663953D01*
X985288Y666761D01*
X983834Y669278D01*
X981779Y671334D01*
X979261Y672787D01*
X976454Y673539D01*
D02*
G37*
G36*
X854690Y510289D02*
X834110D01*
Y489709D01*
X854690D01*
Y510289D01*
D02*
G37*
G36*
X776454Y673539D02*
X773547D01*
X770739Y672787D01*
X768221Y671334D01*
X766166Y669278D01*
X764713Y666761D01*
X763960Y663953D01*
Y661046D01*
X764713Y658238D01*
X766166Y655721D01*
X768221Y653665D01*
X769861Y652718D01*
Y592672D01*
X721366Y544177D01*
X720252Y542510D01*
X719861Y540543D01*
Y515000D01*
X720252Y513033D01*
X721366Y511366D01*
X736367Y496366D01*
X738034Y495252D01*
X740001Y494861D01*
X746685D01*
X747366Y493681D01*
X749282Y491765D01*
X751628Y490411D01*
X754245Y489709D01*
X756955D01*
X759572Y490411D01*
X761918Y491765D01*
X763834Y493681D01*
X765189Y496028D01*
X765890Y498645D01*
Y501354D01*
X765189Y503971D01*
X763834Y506318D01*
X761918Y508233D01*
X759572Y509588D01*
X756955Y510289D01*
X754245D01*
X751628Y509588D01*
X749282Y508233D01*
X747366Y506318D01*
X746685Y505138D01*
X742129D01*
X730139Y517128D01*
Y538415D01*
X778634Y586910D01*
X779748Y588577D01*
X780139Y590544D01*
Y652718D01*
X781779Y653665D01*
X783834Y655721D01*
X785288Y658238D01*
X786040Y661046D01*
Y663953D01*
X785288Y666761D01*
X783834Y669278D01*
X781779Y671334D01*
X779261Y672787D01*
X776454Y673539D01*
D02*
G37*
G36*
X654690Y510289D02*
X634110D01*
Y489709D01*
X654690D01*
Y510289D01*
D02*
G37*
G36*
X576454Y673539D02*
X573547D01*
X570739Y672787D01*
X568221Y671334D01*
X566166Y669278D01*
X564712Y666761D01*
X563960Y663953D01*
Y661046D01*
X564712Y658238D01*
X566166Y655721D01*
X568221Y653665D01*
X569861Y652718D01*
Y592672D01*
X524366Y547177D01*
X523252Y545510D01*
X522861Y543544D01*
Y514000D01*
X523252Y512034D01*
X524366Y510366D01*
X538367Y496366D01*
X540034Y495252D01*
X542001Y494861D01*
X546685D01*
X547366Y493681D01*
X549282Y491765D01*
X551628Y490411D01*
X554245Y489709D01*
X556955D01*
X559572Y490411D01*
X561918Y491765D01*
X563834Y493681D01*
X565189Y496028D01*
X565890Y498645D01*
Y501354D01*
X565189Y503971D01*
X563834Y506318D01*
X561918Y508233D01*
X559572Y509588D01*
X556955Y510289D01*
X554245D01*
X551628Y509588D01*
X549282Y508233D01*
X547366Y506318D01*
X546685Y505138D01*
X544129D01*
X533139Y516129D01*
Y541415D01*
X578634Y586910D01*
X579748Y588577D01*
X580139Y590544D01*
Y652718D01*
X581779Y653665D01*
X583834Y655721D01*
X585288Y658238D01*
X586040Y661046D01*
Y663953D01*
X585288Y666761D01*
X583834Y669278D01*
X581779Y671334D01*
X579261Y672787D01*
X576454Y673539D01*
D02*
G37*
G36*
X454690Y510289D02*
X434110D01*
Y489709D01*
X454690D01*
Y510289D01*
D02*
G37*
G36*
X376453Y673539D02*
X373546D01*
X370739Y672787D01*
X368221Y671334D01*
X366166Y669278D01*
X364712Y666761D01*
X363960Y663953D01*
Y661046D01*
X364712Y658238D01*
X366166Y655721D01*
X368221Y653665D01*
X369861Y652718D01*
Y592672D01*
X322366Y545177D01*
X321252Y543510D01*
X320861Y541544D01*
Y516000D01*
X321252Y514034D01*
X322366Y512366D01*
X338367Y496366D01*
X340034Y495252D01*
X342001Y494861D01*
X346685D01*
X347366Y493681D01*
X349282Y491765D01*
X351628Y490411D01*
X354245Y489709D01*
X356955D01*
X359572Y490411D01*
X361918Y491765D01*
X363834Y493681D01*
X365189Y496028D01*
X365890Y498645D01*
Y501354D01*
X365189Y503971D01*
X363834Y506318D01*
X361918Y508233D01*
X359572Y509588D01*
X356955Y510289D01*
X354245D01*
X351628Y509588D01*
X349282Y508233D01*
X347366Y506318D01*
X346685Y505138D01*
X344129D01*
X331139Y518129D01*
Y539415D01*
X378633Y586910D01*
X379748Y588577D01*
X380139Y590544D01*
Y652718D01*
X381779Y653665D01*
X383834Y655721D01*
X385288Y658238D01*
X386040Y661046D01*
Y663953D01*
X385288Y666761D01*
X383834Y669278D01*
X381779Y671334D01*
X379261Y672787D01*
X376453Y673539D01*
D02*
G37*
G36*
X254690Y510289D02*
X234110D01*
Y489709D01*
X254690D01*
Y510289D01*
D02*
G37*
G36*
X176453Y673539D02*
X173546D01*
X170739Y672787D01*
X168221Y671334D01*
X166166Y669278D01*
X164712Y666761D01*
X163960Y663953D01*
Y661046D01*
X164712Y658238D01*
X166166Y655721D01*
X168221Y653665D01*
X169861Y652718D01*
Y592672D01*
X118366Y541177D01*
X117252Y539510D01*
X116861Y537544D01*
Y521000D01*
X117252Y519034D01*
X118366Y517366D01*
X139367Y496366D01*
X141034Y495252D01*
X143001Y494861D01*
X146685D01*
X147366Y493681D01*
X149282Y491765D01*
X151628Y490411D01*
X154245Y489709D01*
X156954D01*
X159572Y490411D01*
X161918Y491765D01*
X163834Y493681D01*
X165189Y496028D01*
X165890Y498645D01*
Y501354D01*
X165189Y503971D01*
X163834Y506318D01*
X161918Y508233D01*
X159572Y509588D01*
X156954Y510289D01*
X154245D01*
X151628Y509588D01*
X149282Y508233D01*
X147366Y506318D01*
X146685Y505138D01*
X145129D01*
X127139Y523129D01*
Y535415D01*
X178633Y586910D01*
X179747Y588577D01*
X180138Y590544D01*
Y652718D01*
X181779Y653665D01*
X183834Y655721D01*
X185287Y658238D01*
X186040Y661046D01*
Y663953D01*
X185287Y666761D01*
X183834Y669278D01*
X181779Y671334D01*
X179261Y672787D01*
X176453Y673539D01*
D02*
G37*
G36*
X1526454Y548540D02*
X1523547D01*
X1520739Y547788D01*
X1518221Y546334D01*
X1516166Y544279D01*
X1514713Y541761D01*
X1513960Y538953D01*
Y536046D01*
X1514713Y533239D01*
X1516166Y530721D01*
X1518221Y528666D01*
X1519861Y527719D01*
Y479298D01*
X1519542Y479114D01*
X1517886Y477458D01*
X1516716Y475431D01*
X1516110Y473170D01*
Y470830D01*
X1516716Y468568D01*
X1517886Y466541D01*
X1519542Y464886D01*
X1521569Y463716D01*
X1523830Y463110D01*
X1526171D01*
X1528432Y463716D01*
X1530459Y464886D01*
X1532114Y466541D01*
X1533284Y468568D01*
X1533890Y470830D01*
Y473170D01*
X1533284Y475431D01*
X1532114Y477458D01*
X1530459Y479114D01*
X1530139Y479298D01*
Y527719D01*
X1531779Y528666D01*
X1533834Y530721D01*
X1535288Y533239D01*
X1536040Y536046D01*
Y538953D01*
X1535288Y541761D01*
X1533834Y544279D01*
X1531779Y546334D01*
X1529261Y547788D01*
X1526454Y548540D01*
D02*
G37*
G36*
X1726454D02*
X1723547D01*
X1720739Y547788D01*
X1718221Y546334D01*
X1716166Y544279D01*
X1714713Y541761D01*
X1713960Y538953D01*
Y536046D01*
X1714713Y533239D01*
X1716166Y530721D01*
X1718221Y528666D01*
X1719861Y527719D01*
Y475298D01*
X1719542Y475113D01*
X1717887Y473458D01*
X1716716Y471431D01*
X1716110Y469170D01*
Y466829D01*
X1716716Y464568D01*
X1717887Y462541D01*
X1719542Y460886D01*
X1721569Y459716D01*
X1723830Y459110D01*
X1726171D01*
X1728432Y459716D01*
X1730459Y460886D01*
X1732114Y462541D01*
X1733284Y464568D01*
X1733890Y466829D01*
Y469170D01*
X1733284Y471431D01*
X1732114Y473458D01*
X1730459Y475113D01*
X1730139Y475298D01*
Y527719D01*
X1731779Y528666D01*
X1733835Y530721D01*
X1735288Y533239D01*
X1736040Y536046D01*
Y538953D01*
X1735288Y541761D01*
X1733835Y544279D01*
X1731779Y546334D01*
X1729261Y547788D01*
X1726454Y548540D01*
D02*
G37*
G36*
X1026454Y548539D02*
X1023547D01*
X1020739Y547787D01*
X1018221Y546334D01*
X1016166Y544278D01*
X1014713Y541761D01*
X1013960Y538953D01*
Y536046D01*
X1014713Y533238D01*
X1016166Y530721D01*
X1018221Y528665D01*
X1019861Y527718D01*
Y474298D01*
X1019541Y474114D01*
X1017886Y472458D01*
X1016716Y470431D01*
X1016110Y468170D01*
Y465830D01*
X1016716Y463568D01*
X1017886Y461541D01*
X1019541Y459886D01*
X1021569Y458716D01*
X1023830Y458110D01*
X1026171D01*
X1028431Y458716D01*
X1030459Y459886D01*
X1032114Y461541D01*
X1033284Y463568D01*
X1033890Y465830D01*
Y468170D01*
X1033284Y470431D01*
X1032114Y472458D01*
X1030459Y474114D01*
X1030139Y474298D01*
Y527718D01*
X1031779Y528665D01*
X1033834Y530721D01*
X1035288Y533238D01*
X1036040Y536046D01*
Y538953D01*
X1035288Y541761D01*
X1033834Y544278D01*
X1031779Y546334D01*
X1029261Y547787D01*
X1026454Y548539D01*
D02*
G37*
G36*
X826453D02*
X823547D01*
X820739Y547787D01*
X818221Y546334D01*
X816166Y544278D01*
X814712Y541761D01*
X813960Y538953D01*
Y536046D01*
X814712Y533238D01*
X816166Y530721D01*
X818221Y528665D01*
X819861Y527718D01*
Y469299D01*
X819541Y469114D01*
X817886Y467459D01*
X816716Y465431D01*
X816110Y463170D01*
Y460830D01*
X816716Y458569D01*
X817886Y456541D01*
X819541Y454886D01*
X821569Y453716D01*
X823830Y453110D01*
X826170D01*
X828431Y453716D01*
X830459Y454886D01*
X832114Y456541D01*
X833284Y458569D01*
X833890Y460830D01*
Y463170D01*
X833284Y465431D01*
X832114Y467459D01*
X830459Y469114D01*
X830139Y469299D01*
Y527718D01*
X831779Y528665D01*
X833834Y530721D01*
X835288Y533238D01*
X836040Y536046D01*
Y538953D01*
X835288Y541761D01*
X833834Y544278D01*
X831779Y546334D01*
X829261Y547787D01*
X826453Y548539D01*
D02*
G37*
G36*
X1181560Y1075222D02*
X1179070Y1074895D01*
X1176749Y1073933D01*
X1174756Y1072404D01*
X1173227Y1070411D01*
X1172266Y1068091D01*
X1171938Y1065600D01*
Y1064600D01*
X1172266Y1062110D01*
X1173227Y1059789D01*
X1174756Y1057796D01*
X1176749Y1056267D01*
X1179070Y1055306D01*
X1181560Y1054978D01*
X1184051Y1055306D01*
X1186371Y1056267D01*
X1188364Y1057796D01*
X1189893Y1059789D01*
X1189965Y1059961D01*
X1203771D01*
X1266861Y996871D01*
Y543000D01*
X1267252Y541034D01*
X1268366Y539366D01*
X1522366Y285366D01*
X1524034Y284252D01*
X1526000Y283861D01*
X1737000D01*
X1738967Y284252D01*
X1740634Y285366D01*
X1928634Y473366D01*
X1929747Y475033D01*
X1930139Y477000D01*
Y527719D01*
X1931779Y528666D01*
X1933834Y530721D01*
X1935287Y533239D01*
X1936040Y536046D01*
Y538953D01*
X1935287Y541761D01*
X1933834Y544279D01*
X1931779Y546334D01*
X1929261Y547788D01*
X1926453Y548540D01*
X1923546D01*
X1920739Y547788D01*
X1918221Y546334D01*
X1916166Y544279D01*
X1914712Y541761D01*
X1913960Y538953D01*
Y536046D01*
X1914712Y533239D01*
X1916166Y530721D01*
X1918221Y528666D01*
X1919861Y527719D01*
Y479128D01*
X1734872Y294139D01*
X1528129D01*
X1277139Y545129D01*
Y999000D01*
X1276748Y1000966D01*
X1275634Y1002634D01*
X1209533Y1068734D01*
X1207866Y1069848D01*
X1205900Y1070239D01*
X1189965D01*
X1189893Y1070411D01*
X1188364Y1072404D01*
X1186371Y1073933D01*
X1184051Y1074895D01*
X1181560Y1075222D01*
D02*
G37*
G36*
X1726454Y223540D02*
X1723547D01*
X1720739Y222787D01*
X1718221Y221334D01*
X1716166Y219279D01*
X1714713Y216761D01*
X1713960Y213953D01*
Y211046D01*
X1714713Y208239D01*
X1716166Y205721D01*
X1718221Y203666D01*
X1720739Y202212D01*
X1723547Y201460D01*
X1726454D01*
X1729261Y202212D01*
X1731779Y203666D01*
X1733835Y205721D01*
X1735288Y208239D01*
X1736040Y211046D01*
Y213953D01*
X1735288Y216761D01*
X1733835Y219279D01*
X1731779Y221334D01*
X1729261Y222787D01*
X1726454Y223540D01*
D02*
G37*
G36*
X1526454D02*
X1523547D01*
X1520739Y222787D01*
X1518221Y221334D01*
X1516166Y219279D01*
X1514713Y216761D01*
X1513960Y213953D01*
Y211046D01*
X1514713Y208239D01*
X1516166Y205721D01*
X1518221Y203666D01*
X1520739Y202212D01*
X1523547Y201460D01*
X1526454D01*
X1529261Y202212D01*
X1531779Y203666D01*
X1533834Y205721D01*
X1535288Y208239D01*
X1536040Y211046D01*
Y213953D01*
X1535288Y216761D01*
X1533834Y219279D01*
X1531779Y221334D01*
X1529261Y222787D01*
X1526454Y223540D01*
D02*
G37*
G36*
X1026454Y223539D02*
X1023547D01*
X1020739Y222787D01*
X1018221Y221334D01*
X1016166Y219278D01*
X1014713Y216761D01*
X1013960Y213953D01*
Y211046D01*
X1014713Y208238D01*
X1016166Y205721D01*
X1018221Y203665D01*
X1020739Y202212D01*
X1023547Y201459D01*
X1026454D01*
X1029261Y202212D01*
X1031779Y203665D01*
X1033834Y205721D01*
X1035288Y208238D01*
X1036040Y211046D01*
Y213953D01*
X1035288Y216761D01*
X1033834Y219278D01*
X1031779Y221334D01*
X1029261Y222787D01*
X1026454Y223539D01*
D02*
G37*
G36*
X976454D02*
X973547D01*
X970739Y222787D01*
X968222Y221334D01*
X966166Y219278D01*
X964713Y216761D01*
X963960Y213953D01*
Y211046D01*
X964713Y208238D01*
X966166Y205721D01*
X968222Y203665D01*
X970739Y202212D01*
X973547Y201459D01*
X976454D01*
X979261Y202212D01*
X981779Y203665D01*
X983834Y205721D01*
X985288Y208238D01*
X986040Y211046D01*
Y213953D01*
X985288Y216761D01*
X983834Y219278D01*
X981779Y221334D01*
X979261Y222787D01*
X976454Y223539D01*
D02*
G37*
G36*
X826453D02*
X823547D01*
X820739Y222787D01*
X818221Y221334D01*
X816166Y219278D01*
X814712Y216761D01*
X813960Y213953D01*
Y211046D01*
X814712Y208238D01*
X816166Y205721D01*
X818221Y203665D01*
X820739Y202212D01*
X823547Y201459D01*
X826453D01*
X829261Y202212D01*
X831779Y203665D01*
X833834Y205721D01*
X835288Y208238D01*
X836040Y211046D01*
Y213953D01*
X835288Y216761D01*
X833834Y219278D01*
X831779Y221334D01*
X829261Y222787D01*
X826453Y223539D01*
D02*
G37*
G36*
X1181560Y999022D02*
X1179070Y998695D01*
X1176749Y997733D01*
X1174756Y996204D01*
X1173227Y994211D01*
X1172266Y991891D01*
X1171938Y989400D01*
Y988400D01*
X1172266Y985910D01*
X1173227Y983589D01*
X1174756Y981596D01*
X1176749Y980067D01*
X1179070Y979106D01*
X1181560Y978778D01*
X1184051Y979106D01*
X1186371Y980067D01*
X1188364Y981596D01*
X1189893Y983589D01*
X1189965Y983761D01*
X1194276D01*
X1206861Y971176D01*
Y276628D01*
X1028283Y98049D01*
X1026454Y98539D01*
X1023547D01*
X1020739Y97787D01*
X1018221Y96334D01*
X1016166Y94278D01*
X1014713Y91761D01*
X1013960Y88953D01*
Y86046D01*
X1014713Y83238D01*
X1016166Y80721D01*
X1018221Y78665D01*
X1020739Y77212D01*
X1023547Y76459D01*
X1026454D01*
X1029261Y77212D01*
X1031779Y78665D01*
X1033834Y80721D01*
X1035288Y83238D01*
X1036040Y86046D01*
Y88953D01*
X1035550Y90782D01*
X1215634Y270866D01*
X1216748Y272533D01*
X1217139Y274499D01*
Y973305D01*
X1216748Y975271D01*
X1215634Y976938D01*
X1200038Y992534D01*
X1198371Y993648D01*
X1196404Y994039D01*
X1189965D01*
X1189893Y994211D01*
X1188364Y996204D01*
X1186371Y997733D01*
X1184051Y998695D01*
X1181560Y999022D01*
D02*
G37*
G36*
X2601826Y118540D02*
X2598174D01*
X2594592Y117828D01*
X2591218Y116430D01*
X2588181Y114401D01*
X2585599Y111819D01*
X2583570Y108782D01*
X2582173Y105408D01*
X2581460Y101826D01*
Y98174D01*
X2582173Y94592D01*
X2583570Y91218D01*
X2585599Y88181D01*
X2588181Y85599D01*
X2591218Y83570D01*
X2594592Y82172D01*
X2598174Y81460D01*
X2601826D01*
X2605408Y82172D01*
X2608782Y83570D01*
X2611819Y85599D01*
X2614401Y88181D01*
X2616430Y91218D01*
X2617827Y94592D01*
X2618540Y98174D01*
Y101826D01*
X2617827Y105408D01*
X2616430Y108782D01*
X2614401Y111819D01*
X2611819Y114401D01*
X2608782Y116430D01*
X2605408Y117828D01*
X2601826Y118540D01*
D02*
G37*
G36*
X1901826D02*
X1898174D01*
X1894592Y117828D01*
X1891218Y116430D01*
X1888181Y114401D01*
X1885599Y111819D01*
X1883570Y108782D01*
X1882173Y105408D01*
X1881460Y101826D01*
Y98174D01*
X1882173Y94592D01*
X1883570Y91218D01*
X1885599Y88181D01*
X1888181Y85599D01*
X1891218Y83570D01*
X1894592Y82172D01*
X1898174Y81460D01*
X1901826D01*
X1905408Y82172D01*
X1908782Y83570D01*
X1911819Y85599D01*
X1914401Y88181D01*
X1916430Y91218D01*
X1917827Y94592D01*
X1918540Y98174D01*
Y101826D01*
X1917827Y105408D01*
X1916430Y108782D01*
X1914401Y111819D01*
X1911819Y114401D01*
X1908782Y116430D01*
X1905408Y117828D01*
X1901826Y118540D01*
D02*
G37*
G36*
X1251826D02*
X1248174D01*
X1244592Y117828D01*
X1241218Y116430D01*
X1238181Y114401D01*
X1235599Y111819D01*
X1233570Y108782D01*
X1232172Y105408D01*
X1231460Y101826D01*
Y98174D01*
X1232172Y94592D01*
X1233570Y91218D01*
X1235599Y88181D01*
X1238181Y85599D01*
X1241218Y83570D01*
X1244592Y82172D01*
X1248174Y81460D01*
X1251826D01*
X1255408Y82172D01*
X1258782Y83570D01*
X1261819Y85599D01*
X1264401Y88181D01*
X1266430Y91218D01*
X1267828Y94592D01*
X1268540Y98174D01*
Y101826D01*
X1267828Y105408D01*
X1266430Y108782D01*
X1264401Y111819D01*
X1261819Y114401D01*
X1258782Y116430D01*
X1255408Y117828D01*
X1251826Y118540D01*
D02*
G37*
G36*
X601826D02*
X598174D01*
X594592Y117828D01*
X591218Y116430D01*
X588181Y114401D01*
X585599Y111819D01*
X583570Y108782D01*
X582173Y105408D01*
X581460Y101826D01*
Y98174D01*
X582173Y94592D01*
X583570Y91218D01*
X585599Y88181D01*
X588181Y85599D01*
X591218Y83570D01*
X594592Y82172D01*
X598174Y81460D01*
X601826D01*
X605408Y82172D01*
X608782Y83570D01*
X611819Y85599D01*
X614401Y88181D01*
X616430Y91218D01*
X617827Y94592D01*
X618540Y98174D01*
Y101826D01*
X617827Y105408D01*
X616430Y108782D01*
X614401Y111819D01*
X611819Y114401D01*
X608782Y116430D01*
X605408Y117828D01*
X601826Y118540D01*
D02*
G37*
G36*
X101826D02*
X98174D01*
X94592Y117828D01*
X91218Y116430D01*
X88181Y114401D01*
X85599Y111819D01*
X83570Y108782D01*
X82172Y105408D01*
X81460Y101826D01*
Y98174D01*
X82172Y94592D01*
X83570Y91218D01*
X85599Y88181D01*
X88181Y85599D01*
X91218Y83570D01*
X94592Y82172D01*
X98174Y81460D01*
X101826D01*
X105408Y82172D01*
X108782Y83570D01*
X111819Y85599D01*
X114401Y88181D01*
X116430Y91218D01*
X117828Y94592D01*
X118540Y98174D01*
Y101826D01*
X117828Y105408D01*
X116430Y108782D01*
X114401Y111819D01*
X111819Y114401D01*
X108782Y116430D01*
X105408Y117828D01*
X101826Y118540D01*
D02*
G37*
G36*
X1181560Y1049822D02*
X1179070Y1049495D01*
X1176749Y1048533D01*
X1174756Y1047004D01*
X1173227Y1045011D01*
X1172266Y1042691D01*
X1171938Y1040200D01*
Y1039200D01*
X1172266Y1036710D01*
X1173227Y1034389D01*
X1174756Y1032396D01*
X1176749Y1030867D01*
X1179070Y1029906D01*
X1181560Y1029578D01*
X1184051Y1029906D01*
X1186371Y1030867D01*
X1188364Y1032396D01*
X1189893Y1034389D01*
X1189965Y1034561D01*
X1198171D01*
X1249861Y982871D01*
Y527000D01*
X1250252Y525033D01*
X1251366Y523366D01*
X1508366Y266366D01*
X1510034Y265252D01*
X1512000Y264861D01*
X1646871D01*
X1691861Y219872D01*
Y180000D01*
X1692252Y178034D01*
X1693366Y176366D01*
X1719861Y149871D01*
Y97281D01*
X1718221Y96334D01*
X1716166Y94279D01*
X1714713Y91761D01*
X1713960Y88953D01*
Y86046D01*
X1714713Y83239D01*
X1716166Y80721D01*
X1718221Y78666D01*
X1720739Y77212D01*
X1723547Y76460D01*
X1726454D01*
X1729261Y77212D01*
X1731779Y78666D01*
X1733835Y80721D01*
X1735288Y83239D01*
X1736040Y86046D01*
Y88953D01*
X1735288Y91761D01*
X1733835Y94279D01*
X1731779Y96334D01*
X1730139Y97281D01*
Y152000D01*
X1729748Y153966D01*
X1728634Y155633D01*
X1702139Y182129D01*
Y222000D01*
X1701748Y223967D01*
X1700634Y225634D01*
X1652634Y273634D01*
X1650966Y274748D01*
X1649000Y275139D01*
X1514129D01*
X1260139Y529128D01*
Y985000D01*
X1259748Y986966D01*
X1258634Y988634D01*
X1203933Y1043334D01*
X1202266Y1044448D01*
X1200300Y1044839D01*
X1189965D01*
X1189893Y1045011D01*
X1188364Y1047004D01*
X1186371Y1048533D01*
X1184051Y1049495D01*
X1181560Y1049822D01*
D02*
G37*
G36*
X1686040Y98540D02*
X1663960D01*
Y76460D01*
X1686040D01*
Y98540D01*
D02*
G37*
G36*
X1486040D02*
X1463960D01*
Y76460D01*
X1486040D01*
Y98540D01*
D02*
G37*
G36*
X986040Y98539D02*
X963960D01*
Y76459D01*
X986040D01*
Y98539D01*
D02*
G37*
G36*
X786040D02*
X763960D01*
Y76459D01*
X786040D01*
Y98539D01*
D02*
G37*
G36*
X1123040Y80790D02*
X1114520D01*
Y71270D01*
X1123040D01*
Y80790D01*
D02*
G37*
G36*
Y68730D02*
X1114520D01*
Y59210D01*
X1123040D01*
Y68730D01*
D02*
G37*
G36*
X1753940Y59540D02*
X1734860D01*
Y40460D01*
X1753940D01*
Y59540D01*
D02*
G37*
G36*
X1676453Y223540D02*
X1673546D01*
X1670739Y222787D01*
X1668221Y221334D01*
X1666166Y219279D01*
X1664712Y216761D01*
X1663960Y213953D01*
Y211046D01*
X1664712Y208239D01*
X1666166Y205721D01*
X1668221Y203666D01*
X1669861Y202719D01*
Y134128D01*
X1628366Y92634D01*
X1627252Y90967D01*
X1626861Y89000D01*
Y58000D01*
X1627252Y56034D01*
X1628366Y54366D01*
X1636367Y46366D01*
X1638034Y45252D01*
X1640000Y44861D01*
X1646685D01*
X1647366Y43682D01*
X1649282Y41766D01*
X1651628Y40411D01*
X1654245Y39710D01*
X1656954D01*
X1659572Y40411D01*
X1661918Y41766D01*
X1663834Y43682D01*
X1665189Y46028D01*
X1665890Y48645D01*
Y51354D01*
X1665189Y53972D01*
X1663834Y56318D01*
X1661918Y58234D01*
X1659572Y59589D01*
X1656954Y60290D01*
X1654245D01*
X1651628Y59589D01*
X1649282Y58234D01*
X1647366Y56318D01*
X1646685Y55139D01*
X1642129D01*
X1637139Y60128D01*
Y86872D01*
X1678634Y128366D01*
X1679747Y130033D01*
X1680139Y132000D01*
Y202719D01*
X1681779Y203666D01*
X1683834Y205721D01*
X1685287Y208239D01*
X1686040Y211046D01*
Y213953D01*
X1685287Y216761D01*
X1683834Y219279D01*
X1681779Y221334D01*
X1679261Y222787D01*
X1676453Y223540D01*
D02*
G37*
G36*
X1554690Y60290D02*
X1534110D01*
Y39710D01*
X1554690D01*
Y60290D01*
D02*
G37*
G36*
X1476454Y223540D02*
X1473547D01*
X1470739Y222787D01*
X1468221Y221334D01*
X1466166Y219279D01*
X1464713Y216761D01*
X1463960Y213953D01*
Y211046D01*
X1464713Y208239D01*
X1466166Y205721D01*
X1468221Y203666D01*
X1469861Y202719D01*
Y142129D01*
X1419366Y91634D01*
X1418252Y89966D01*
X1417861Y88000D01*
Y59929D01*
X1418252Y57962D01*
X1419366Y56295D01*
X1422295Y53366D01*
X1422509Y53223D01*
X1429367Y46366D01*
X1431034Y45252D01*
X1433000Y44861D01*
X1446685D01*
X1447366Y43682D01*
X1449282Y41766D01*
X1451628Y40411D01*
X1454245Y39710D01*
X1456955D01*
X1459572Y40411D01*
X1461918Y41766D01*
X1463834Y43682D01*
X1465189Y46028D01*
X1465890Y48645D01*
Y51354D01*
X1465189Y53972D01*
X1463834Y56318D01*
X1461918Y58234D01*
X1459572Y59589D01*
X1456955Y60290D01*
X1454245D01*
X1451628Y59589D01*
X1449282Y58234D01*
X1447366Y56318D01*
X1446685Y55139D01*
X1435129D01*
X1429634Y60634D01*
X1429420Y60777D01*
X1428139Y62057D01*
Y85871D01*
X1478634Y136367D01*
X1479748Y138034D01*
X1480139Y140000D01*
Y202719D01*
X1481779Y203666D01*
X1483834Y205721D01*
X1485288Y208239D01*
X1486040Y211046D01*
Y213953D01*
X1485288Y216761D01*
X1483834Y219279D01*
X1481779Y221334D01*
X1479261Y222787D01*
X1476454Y223540D01*
D02*
G37*
G36*
X956955Y60289D02*
X954246D01*
X951628Y59588D01*
X949282Y58233D01*
X947366Y56318D01*
X946012Y53971D01*
X945310Y51354D01*
Y48645D01*
X946012Y46027D01*
X947366Y43681D01*
X949282Y41765D01*
X951628Y40410D01*
X954246Y39709D01*
X956955D01*
X959572Y40410D01*
X961918Y41765D01*
X963834Y43681D01*
X965189Y46027D01*
X965890Y48645D01*
Y51354D01*
X965189Y53971D01*
X963834Y56318D01*
X961918Y58233D01*
X959572Y59588D01*
X956955Y60289D01*
D02*
G37*
G36*
X855300D02*
X834720D01*
Y39709D01*
X855300D01*
Y60289D01*
D02*
G37*
G36*
X776454Y223539D02*
X773547D01*
X770739Y222787D01*
X768221Y221334D01*
X766166Y219278D01*
X764713Y216761D01*
X763960Y213953D01*
Y211046D01*
X764713Y208238D01*
X766166Y205721D01*
X768221Y203665D01*
X769861Y202718D01*
Y142367D01*
X722366Y94872D01*
X721252Y93205D01*
X720861Y91238D01*
Y64000D01*
X721252Y62034D01*
X722366Y60366D01*
X736367Y46366D01*
X738034Y45252D01*
X740001Y44861D01*
X747295D01*
X747976Y43681D01*
X749892Y41765D01*
X752238Y40410D01*
X754855Y39709D01*
X757564D01*
X760182Y40410D01*
X762528Y41765D01*
X764444Y43681D01*
X765798Y46027D01*
X766500Y48645D01*
Y51354D01*
X765798Y53971D01*
X764444Y56318D01*
X762528Y58233D01*
X760182Y59588D01*
X757564Y60289D01*
X754855D01*
X752238Y59588D01*
X749892Y58233D01*
X747976Y56318D01*
X747295Y55138D01*
X742129D01*
X731139Y66129D01*
Y89110D01*
X778634Y136605D01*
X779748Y138272D01*
X780139Y140239D01*
Y202718D01*
X781779Y203665D01*
X783834Y205721D01*
X785288Y208238D01*
X786040Y211046D01*
Y213953D01*
X785288Y216761D01*
X783834Y219278D01*
X781779Y221334D01*
X779261Y222787D01*
X776454Y223539D01*
D02*
G37*
%LPD*%
D13*
X1130250Y757000D02*
D03*
X1111750D02*
D03*
X902750Y735000D02*
D03*
X921250D02*
D03*
X1094750Y70000D02*
D03*
X1113250D02*
D03*
D14*
X1123000Y657750D02*
D03*
Y676250D02*
D03*
D17*
X775000Y737500D02*
D03*
X1875000Y737500D02*
D03*
X2475000Y937500D02*
D03*
Y737500D02*
D03*
X2075000Y537500D02*
D03*
X1675000D02*
D03*
X1475000D02*
D03*
X1675000Y737500D02*
D03*
X2475000Y537500D02*
D03*
X2275000D02*
D03*
Y737500D02*
D03*
X2075000D02*
D03*
X975000Y537500D02*
D03*
X775000Y87499D02*
D03*
Y537500D02*
D03*
X575000Y737500D02*
D03*
X375000D02*
D03*
X575000Y537500D02*
D03*
X375000D02*
D03*
X175000Y937499D02*
D03*
Y737500D02*
D03*
Y537500D02*
D03*
X975000Y87499D02*
D03*
X1475000Y87500D02*
D03*
X1875000Y537500D02*
D03*
X1675000Y87500D02*
D03*
D18*
X775000Y862500D02*
D03*
X825000Y737500D02*
D03*
Y862500D02*
D03*
X2525000Y1062500D02*
D03*
Y937500D02*
D03*
X2475000Y1062500D02*
D03*
Y862500D02*
D03*
X2525000Y737500D02*
D03*
Y862500D02*
D03*
X2125000Y537500D02*
D03*
X2075000Y662500D02*
D03*
X1725000D02*
D03*
Y537500D02*
D03*
X1675000Y662500D02*
D03*
X1525000D02*
D03*
Y537500D02*
D03*
X1475000Y662500D02*
D03*
X1725000Y862500D02*
D03*
Y737500D02*
D03*
X1675000Y862500D02*
D03*
X2525000Y662500D02*
D03*
Y537500D02*
D03*
X2475000Y662500D02*
D03*
X2325000D02*
D03*
Y537500D02*
D03*
X2275000Y662500D02*
D03*
X2325000Y862500D02*
D03*
Y737500D02*
D03*
X2275000Y862500D02*
D03*
X2125000D02*
D03*
Y737500D02*
D03*
X2075000Y862500D02*
D03*
X1925000D02*
D03*
Y737500D02*
D03*
X1875000Y862500D02*
D03*
X825000Y212499D02*
D03*
Y87499D02*
D03*
X775000Y212499D02*
D03*
X825000Y662499D02*
D03*
Y537500D02*
D03*
X775000Y662499D02*
D03*
X625000Y862500D02*
D03*
Y737500D02*
D03*
X575000Y862500D02*
D03*
X425000D02*
D03*
Y737500D02*
D03*
X375000Y862500D02*
D03*
X625000Y662499D02*
D03*
Y537500D02*
D03*
X575000Y662499D02*
D03*
X425000D02*
D03*
Y537500D02*
D03*
X375000Y662499D02*
D03*
X225000Y1062499D02*
D03*
Y937499D02*
D03*
X175000Y1062499D02*
D03*
X225000Y862500D02*
D03*
Y737500D02*
D03*
X175000Y862500D02*
D03*
X225000Y662499D02*
D03*
Y537500D02*
D03*
X175000Y662499D02*
D03*
X2125000Y662500D02*
D03*
X1025000Y212499D02*
D03*
Y87499D02*
D03*
X975000Y212499D02*
D03*
X1525000Y212500D02*
D03*
Y87500D02*
D03*
X1475000Y212500D02*
D03*
X1925000Y662500D02*
D03*
Y537500D02*
D03*
X1875000Y662500D02*
D03*
X1725000Y212500D02*
D03*
Y87500D02*
D03*
X1675000Y212500D02*
D03*
X1025000Y662499D02*
D03*
Y537500D02*
D03*
X975000Y662499D02*
D03*
D21*
X1744400Y50000D02*
D03*
D23*
X2544400Y900000D02*
D03*
Y700000D02*
D03*
X2144400D02*
D03*
X2344400D02*
D03*
X2544400Y500000D02*
D03*
X2344400D02*
D03*
X1744400Y700000D02*
D03*
X2144400Y500000D02*
D03*
X244400Y699999D02*
D03*
Y900000D02*
D03*
X444400Y699999D02*
D03*
X244400Y499999D02*
D03*
X444400D02*
D03*
X644400D02*
D03*
X844400D02*
D03*
X644400Y699999D02*
D03*
X844400D02*
D03*
X1044400Y499999D02*
D03*
X1744400Y500000D02*
D03*
X1944400D02*
D03*
Y700000D02*
D03*
X1544400Y50000D02*
D03*
Y500000D02*
D03*
X1044400Y49999D02*
D03*
X845010D02*
D03*
D24*
X2455600Y900000D02*
D03*
Y700000D02*
D03*
X2055600D02*
D03*
X2255600D02*
D03*
X2455600Y500000D02*
D03*
X2255600D02*
D03*
X1655600Y700000D02*
D03*
X2055600Y500000D02*
D03*
X155600Y699999D02*
D03*
Y900000D02*
D03*
X355600Y699999D02*
D03*
X155600Y499999D02*
D03*
X355600D02*
D03*
X555600D02*
D03*
X755600D02*
D03*
X555600Y699999D02*
D03*
X755600D02*
D03*
X955600Y499999D02*
D03*
X1655600Y50000D02*
D03*
Y500000D02*
D03*
X1855600D02*
D03*
Y700000D02*
D03*
X1455600Y50000D02*
D03*
Y500000D02*
D03*
X955600Y49999D02*
D03*
X756210D02*
D03*
D26*
X1058999D02*
X1079000Y70000D01*
X1094750D01*
X1044400Y49999D02*
X1058999D01*
X1124875Y656875D02*
X1154125D01*
X1124000Y657750D02*
X1124875Y656875D01*
X1154125D02*
X1155000Y656000D01*
X844400Y699999D02*
X845122Y700721D01*
X856721D02*
X890929Y734929D01*
X902679D02*
X902750Y735000D01*
X890929Y734929D02*
X902679D01*
X845122Y700721D02*
X856721D01*
X1131000Y758750D02*
Y786000D01*
X1129250Y757000D02*
X1131000Y758750D01*
X243900Y499499D02*
X244400Y499999D01*
X2544400Y900000D02*
X2545300Y900900D01*
X2630000Y605000D02*
Y1016000D01*
X2562500Y537500D02*
X2630000Y605000D01*
X2485000Y1161000D02*
X2630000Y1016000D01*
X1632000Y58000D02*
X1640000Y50000D01*
X1632000Y58000D02*
Y89000D01*
X1675000Y132000D01*
Y212500D01*
X1640000Y50000D02*
X1655600D01*
X1423000Y59929D02*
Y88000D01*
X1433000Y50000D02*
X1455600D01*
X1426000Y57000D02*
X1433000Y50000D01*
X1423000Y59929D02*
X1425929Y57000D01*
X1426000D01*
X1423000Y88000D02*
X1475000Y140000D01*
X726000Y64000D02*
Y91238D01*
X775000Y140239D01*
X726000Y64000D02*
X740001Y49999D01*
X756210D01*
X727000Y712000D02*
Y742543D01*
X739000Y699999D02*
X755600D01*
X727000Y712000D02*
X739000Y699999D01*
X727000Y742543D02*
X775000Y790544D01*
X536001Y699999D02*
X555600D01*
X523000Y713000D02*
X536001Y699999D01*
X523000Y713000D02*
Y738544D01*
X575000Y790544D01*
X343000Y699999D02*
X355600D01*
X333000Y710000D02*
X343000Y699999D01*
X333000Y710000D02*
Y748544D01*
X375000Y790544D01*
X326000Y516000D02*
X342001Y499999D01*
X326000Y541544D02*
X375000Y590544D01*
X326000Y516000D02*
Y541544D01*
X342001Y499999D02*
X355600D01*
X528000Y543544D02*
X575000Y590544D01*
X528000Y514000D02*
X542001Y499999D01*
X528000Y514000D02*
Y543544D01*
X542001Y499999D02*
X555600D01*
X725000Y515000D02*
Y540543D01*
Y515000D02*
X740001Y499999D01*
X725000Y540543D02*
X775000Y590544D01*
X740001Y499999D02*
X755600D01*
X921000Y521000D02*
Y536543D01*
X975000Y590544D01*
X921000Y521000D02*
X942001Y499999D01*
X955600D01*
X1419000Y522000D02*
Y534544D01*
Y522000D02*
X1441000Y500000D01*
X1455600D01*
X1419000Y534544D02*
X1475000Y590544D01*
X1631000Y510000D02*
Y546544D01*
X1641000Y500000D02*
X1655600D01*
X1631000Y510000D02*
X1641000Y500000D01*
X1631000Y546544D02*
X1675000Y590544D01*
X1826000Y517000D02*
Y541544D01*
Y517000D02*
X1843000Y500000D01*
X1855600D01*
X1826000Y541544D02*
X1875000Y590544D01*
X2028000Y514000D02*
Y543544D01*
Y514000D02*
X2042000Y500000D01*
X2055600D01*
X2028000Y543544D02*
X2075000Y590544D01*
X2224000Y539544D02*
X2275000Y590544D01*
X2224000Y517000D02*
Y539544D01*
Y517000D02*
X2240517Y500483D01*
X2255117D01*
X2255600Y500000D01*
X2423000Y518000D02*
X2441000Y500000D01*
X2455600D01*
X2423000Y518000D02*
Y538544D01*
X2475000Y590544D01*
X2428000Y909000D02*
X2437000Y900000D01*
X2455600D01*
X2428000Y909000D02*
Y943544D01*
X2475000Y990544D01*
X2423000Y716000D02*
X2439000Y700000D01*
X2423000Y716000D02*
Y738544D01*
X2475000Y790544D01*
X2439000Y700000D02*
X2455600D01*
X2226000Y715000D02*
Y741544D01*
Y715000D02*
X2241000Y700000D01*
X2226000Y741544D02*
X2275000Y790544D01*
X2241000Y700000D02*
X2255600D01*
X2015000Y719000D02*
Y751000D01*
X2075000Y811000D01*
X2015000Y719000D02*
X2034000Y700000D01*
X2075000Y811000D02*
Y862500D01*
X2034000Y700000D02*
X2055600D01*
X1821000Y746000D02*
X1875000Y800000D01*
X1821000Y717000D02*
Y746000D01*
Y717000D02*
X1838000Y700000D01*
X1875000Y800000D02*
Y862500D01*
X1838000Y700000D02*
X1855600D01*
X1623000Y719000D02*
Y738544D01*
Y719000D02*
X1642000Y700000D01*
X1623000Y738544D02*
X1675000Y790544D01*
X1642000Y700000D02*
X1655600D01*
X932100Y811100D02*
X1181560D01*
X844400Y699999D02*
Y723400D01*
X932100Y811100D01*
X122000Y537544D02*
X175000Y590544D01*
X122000Y521000D02*
Y537544D01*
Y521000D02*
X143001Y499999D01*
X117000Y732544D02*
X175000Y790544D01*
X117000Y719000D02*
Y732544D01*
X135017Y700983D02*
X154616D01*
X117000Y719000D02*
X135017Y700983D01*
X130000Y900000D02*
X155600D01*
X118000Y912000D02*
Y933544D01*
Y912000D02*
X130000Y900000D01*
X118000Y933544D02*
X175000Y990544D01*
X154616Y700983D02*
X155600Y699999D01*
X143001Y499999D02*
X155600D01*
X556000Y931000D02*
Y947000D01*
X496000Y578000D02*
Y871000D01*
X556000Y931000D01*
X304000Y582000D02*
Y897000D01*
X320000Y913000D02*
Y927000D01*
X304000Y897000D02*
X320000Y913000D01*
X1189500Y963500D02*
X1197000Y956000D01*
X1023000Y113000D02*
X1197000Y287000D01*
Y956000D01*
X1196404Y988900D02*
X1212000Y973305D01*
X1025000Y87499D02*
X1212000Y274499D01*
Y973305D01*
X1228000Y266000D02*
Y862000D01*
X1044400Y82400D02*
X1228000Y266000D01*
X1300000Y703000D02*
Y1060000D01*
X1244100Y1115900D02*
X1300000Y1060000D01*
Y703000D02*
X1318900Y684100D01*
X1246700Y1141300D02*
X1314000Y1074000D01*
Y720000D02*
X1324500Y709500D01*
X1314000Y720000D02*
Y1074000D01*
X1083000Y519000D02*
X1094000D01*
X1155000Y580000D02*
Y656000D01*
X1094000Y519000D02*
X1155000Y580000D01*
X1272000Y543000D02*
X1526000Y289000D01*
X1272000Y543000D02*
Y999000D01*
X1205900Y1065100D02*
X1272000Y999000D01*
X1181560Y1090500D02*
X1246500D01*
X1286000Y1051000D01*
Y681000D02*
Y1051000D01*
X1181560Y1115900D02*
X1244100D01*
X1181560Y1141300D02*
X1246700D01*
X1286000Y681000D02*
X1308300Y658700D01*
X1333760D01*
X1318900Y684100D02*
X1333760D01*
X1255000Y527000D02*
X1512000Y270000D01*
X1324500Y709500D02*
X1333760D01*
X1475000Y590544D02*
Y662500D01*
X1526000Y289000D02*
X1737000D01*
X1131150Y785850D02*
X1181410D01*
X1131000Y786000D02*
X1131150Y785850D01*
X1181410D02*
X1181560Y785700D01*
X694000Y606499D02*
Y931000D01*
X748000Y985000D02*
X1119000D01*
X1165900Y938100D01*
X694000Y931000D02*
X748000Y985000D01*
X625000Y537500D02*
X694000Y606499D01*
X259499Y537500D02*
X304000Y582000D01*
X225000Y537500D02*
X259499D01*
X455499D02*
X496000Y578000D01*
X425000Y537500D02*
X455499D01*
X1165900Y938100D02*
X1181560D01*
Y1065100D02*
X1205900D01*
X1737000Y289000D02*
X1925000Y477000D01*
Y537500D01*
X2067000Y1129000D02*
X2191000Y1005000D01*
X2153500Y537500D02*
X2191000Y575000D01*
Y1005000D01*
X1370500Y1090500D02*
X1409000Y1129000D01*
X1333760Y1090500D02*
X1370500D01*
X1409000Y1129000D02*
X2067000D01*
X2125000Y537500D02*
X2153500D01*
X1381000Y1161000D02*
X2485000D01*
X1333760Y1141300D02*
X1361300D01*
X1381000Y1161000D01*
X1388000Y1147000D02*
X2304000D01*
X1356900Y1115900D02*
X1388000Y1147000D01*
X1333760Y1115900D02*
X1356900D01*
X2304000Y1147000D02*
X2390000Y1061000D01*
Y569000D02*
Y1061000D01*
X2358500Y537500D02*
X2390000Y569000D01*
X2325000Y537500D02*
X2358500D01*
X2525000D02*
X2562500D01*
X2525000Y662500D02*
Y737500D01*
X1255000Y527000D02*
Y985000D01*
X1200300Y1039700D02*
X1255000Y985000D01*
X1181560Y1039700D02*
X1200300D01*
X1512000Y270000D02*
X1649000D01*
X1044400Y49999D02*
Y82400D01*
X1675000Y590544D02*
Y662500D01*
X1241000Y515000D02*
Y975000D01*
X1201700Y1014300D02*
X1241000Y975000D01*
X1649000Y270000D02*
X1697000Y222000D01*
Y180000D02*
Y222000D01*
Y180000D02*
X1725000Y152000D01*
Y87500D02*
Y152000D01*
X1181560Y1014300D02*
X1201700D01*
X1241000Y515000D02*
X1498000Y258000D01*
Y180909D02*
Y258000D01*
Y180909D02*
X1525000Y153909D01*
Y87500D02*
Y153909D01*
X850501Y113000D02*
X1023000D01*
X825000Y87499D02*
X850501Y113000D01*
X1181560Y963500D02*
X1189500D01*
X1181560Y988900D02*
X1196404D01*
X1025000Y467000D02*
Y537500D01*
X825000Y462000D02*
Y537500D01*
X1525000Y472000D02*
Y537500D01*
X1725000Y468000D02*
Y537500D01*
X825000Y662499D02*
Y737500D01*
X625000Y662499D02*
Y737500D01*
X425000Y662499D02*
Y737500D01*
X775000Y140239D02*
Y212499D01*
Y790544D02*
Y862500D01*
X575000Y790544D02*
Y862500D01*
X375000Y790544D02*
Y862500D01*
Y590544D02*
Y662499D01*
X575000Y590544D02*
Y662499D01*
X775000Y590544D02*
Y662499D01*
X975000Y590544D02*
Y662499D01*
X1675000Y790544D02*
Y862500D01*
X1875000Y590544D02*
Y662500D01*
X2075000Y590544D02*
Y662500D01*
X2275000Y790544D02*
Y862500D01*
Y590544D02*
Y662500D01*
X2475000Y590544D02*
Y662500D01*
Y790544D02*
Y862500D01*
Y990544D02*
Y1062500D01*
X2525000Y862500D02*
Y937500D01*
X2325000Y662500D02*
Y737500D01*
X2125000Y662500D02*
Y737500D01*
X1925000Y662500D02*
Y737500D01*
X1725000Y662500D02*
Y737500D01*
X1475000Y140000D02*
Y212500D01*
X225000Y662499D02*
Y737500D01*
Y862500D02*
Y937499D01*
X175000Y590544D02*
Y662499D01*
Y790544D02*
Y862500D01*
Y990544D02*
Y1062499D01*
D27*
X1181560Y1090500D02*
D03*
Y1065100D02*
D03*
Y1039700D02*
D03*
Y1014300D02*
D03*
Y988900D02*
D03*
Y963500D02*
D03*
Y938100D02*
D03*
Y912700D02*
D03*
Y887300D02*
D03*
Y861900D02*
D03*
Y836500D02*
D03*
Y811100D02*
D03*
Y785700D02*
D03*
Y760300D02*
D03*
Y734900D02*
D03*
Y709500D02*
D03*
Y658700D02*
D03*
Y684100D02*
D03*
Y1115900D02*
D03*
X1333760D02*
D03*
Y1090500D02*
D03*
Y1065100D02*
D03*
Y1039700D02*
D03*
Y1014300D02*
D03*
Y988900D02*
D03*
Y963500D02*
D03*
Y938100D02*
D03*
Y912700D02*
D03*
Y887300D02*
D03*
Y861900D02*
D03*
Y836500D02*
D03*
Y811100D02*
D03*
Y785700D02*
D03*
Y760300D02*
D03*
Y734900D02*
D03*
Y709500D02*
D03*
Y684100D02*
D03*
Y658700D02*
D03*
D28*
X1181560Y1141300D02*
D03*
X1333760D02*
D03*
D29*
X1900000Y100000D02*
D03*
X1250000D02*
D03*
X600000D02*
D03*
X900000Y1100000D02*
D03*
X1900000D02*
D03*
X2600000D02*
D03*
Y100000D02*
D03*
X100000D02*
D03*
Y1100000D02*
D03*
D30*
X1228000Y862000D02*
D03*
X1131000Y786000D02*
D03*
X320000Y927000D02*
D03*
X556000Y947000D02*
D03*
X1155000Y656000D02*
D03*
X1083000Y519000D02*
D03*
X1025000Y467000D02*
D03*
X825000Y462000D02*
D03*
X1525000Y472000D02*
D03*
X1725000Y468000D02*
D03*
M02*
