G04*
G04 #@! TF.GenerationSoftware,Altium Limited,Altium Designer,23.10.1 (27)*
G04*
G04 Layer_Color=128*
%FSLAX44Y44*%
%MOMM*%
G71*
G04*
G04 #@! TF.SameCoordinates,93BA021C-4F65-4C52-B2D2-680D5BDB3C73*
G04*
G04*
G04 #@! TF.FilePolarity,Positive*
G04*
G01*
G75*
%ADD31C,0.1270*%
D31*
X770000Y737500D02*
X780000D01*
X775000Y732500D02*
Y742500D01*
X770000Y862500D02*
X780000D01*
X775000Y857500D02*
Y867500D01*
X820000Y737500D02*
X830000D01*
X825000Y732500D02*
Y742500D01*
X820000Y862500D02*
X830000D01*
X825000Y857500D02*
Y867500D01*
X1177560Y1090500D02*
X1185560D01*
X1181560Y1086500D02*
Y1094500D01*
X1177560Y1065100D02*
X1185560D01*
X1181560Y1061100D02*
Y1069100D01*
X1177560Y1039700D02*
X1185560D01*
X1181560Y1035700D02*
Y1043700D01*
X1177560Y1014300D02*
X1185560D01*
X1181560Y1010300D02*
Y1018300D01*
X1177560Y988900D02*
X1185560D01*
X1181560Y984900D02*
Y992900D01*
X1177560Y963500D02*
X1185560D01*
X1181560Y959500D02*
Y967500D01*
X1177560Y938100D02*
X1185560D01*
X1181560Y934100D02*
Y942100D01*
X1177560Y912700D02*
X1185560D01*
X1181560Y908700D02*
Y916700D01*
X1177560Y887300D02*
X1185560D01*
X1181560Y883300D02*
Y891300D01*
X1177560Y861900D02*
X1185560D01*
X1181560Y857900D02*
Y865900D01*
X1177560Y836500D02*
X1185560D01*
X1181560Y832500D02*
Y840500D01*
X1177560Y811100D02*
X1185560D01*
X1181560Y807100D02*
Y815100D01*
X1177560Y785700D02*
X1185560D01*
X1181560Y781700D02*
Y789700D01*
X1177560Y760300D02*
X1185560D01*
X1181560Y756300D02*
Y764300D01*
X1177560Y734900D02*
X1185560D01*
X1181560Y730900D02*
Y738900D01*
X1177560Y709500D02*
X1185560D01*
X1181560Y705500D02*
Y713500D01*
X1870000Y737500D02*
X1880000D01*
X1875000Y732500D02*
Y742500D01*
X2520000Y1062500D02*
X2530000D01*
X2525000Y1057500D02*
Y1067500D01*
X2520000Y937500D02*
X2530000D01*
X2525000Y932500D02*
Y942500D01*
X2470000Y1062500D02*
X2480000D01*
X2475000Y1057500D02*
Y1067500D01*
X2470000Y937500D02*
X2480000D01*
X2475000Y932500D02*
Y942500D01*
X2470000Y737500D02*
X2480000D01*
X2475000Y732500D02*
Y742500D01*
X2470000Y862500D02*
X2480000D01*
X2475000Y857500D02*
Y867500D01*
X2520000Y737500D02*
X2530000D01*
X2525000Y732500D02*
Y742500D01*
X2520000Y862500D02*
X2530000D01*
X2525000Y857500D02*
Y867500D01*
X1177560Y658700D02*
X1185560D01*
X1181560Y654700D02*
Y662700D01*
X1177560Y684100D02*
X1185560D01*
X1181560Y680100D02*
Y688100D01*
X1177560Y1115900D02*
X1185560D01*
X1181560Y1111900D02*
Y1119900D01*
X1177560Y1141300D02*
X1185560D01*
X1181560Y1137300D02*
Y1145300D01*
X2120000Y537500D02*
X2130000D01*
X2125000Y532500D02*
Y542500D01*
X2070000Y662500D02*
X2080000D01*
X2075000Y657500D02*
Y667500D01*
X2070000Y537500D02*
X2080000D01*
X2075000Y532500D02*
Y542500D01*
X1720000Y662500D02*
X1730000D01*
X1725000Y657500D02*
Y667500D01*
X1720000Y537500D02*
X1730000D01*
X1725000Y532500D02*
Y542500D01*
X1670000Y662500D02*
X1680000D01*
X1675000Y657500D02*
Y667500D01*
X1670000Y537500D02*
X1680000D01*
X1675000Y532500D02*
Y542500D01*
X1520000Y662500D02*
X1530000D01*
X1525000Y657500D02*
Y667500D01*
X1520000Y537500D02*
X1530000D01*
X1525000Y532500D02*
Y542500D01*
X1470000Y662500D02*
X1480000D01*
X1475000Y657500D02*
Y667500D01*
X1470000Y537500D02*
X1480000D01*
X1475000Y532500D02*
Y542500D01*
X1329760Y1141300D02*
X1337760D01*
X1333760Y1137300D02*
Y1145300D01*
X1329760Y1115900D02*
X1337760D01*
X1333760Y1111900D02*
Y1119900D01*
X1329760Y1090500D02*
X1337760D01*
X1333760Y1086500D02*
Y1094500D01*
X1329760Y1065100D02*
X1337760D01*
X1333760Y1061100D02*
Y1069100D01*
X1329760Y1039700D02*
X1337760D01*
X1333760Y1035700D02*
Y1043700D01*
X1329760Y1014300D02*
X1337760D01*
X1333760Y1010300D02*
Y1018300D01*
X1329760Y988900D02*
X1337760D01*
X1333760Y984900D02*
Y992900D01*
X1329760Y963500D02*
X1337760D01*
X1333760Y959500D02*
Y967500D01*
X1329760Y938100D02*
X1337760D01*
X1333760Y934100D02*
Y942100D01*
X1329760Y912700D02*
X1337760D01*
X1333760Y908700D02*
Y916700D01*
X1329760Y887300D02*
X1337760D01*
X1333760Y883300D02*
Y891300D01*
X1329760Y861900D02*
X1337760D01*
X1333760Y857900D02*
Y865900D01*
X1329760Y836500D02*
X1337760D01*
X1333760Y832500D02*
Y840500D01*
X1329760Y811100D02*
X1337760D01*
X1333760Y807100D02*
Y815100D01*
X1329760Y785700D02*
X1337760D01*
X1333760Y781700D02*
Y789700D01*
X1329760Y760300D02*
X1337760D01*
X1333760Y756300D02*
Y764300D01*
X1329760Y734900D02*
X1337760D01*
X1333760Y730900D02*
Y738900D01*
X1329760Y709500D02*
X1337760D01*
X1333760Y705500D02*
Y713500D01*
X1329760Y684100D02*
X1337760D01*
X1333760Y680100D02*
Y688100D01*
X1329760Y658700D02*
X1337760D01*
X1333760Y654700D02*
Y662700D01*
X1720000Y862500D02*
X1730000D01*
X1725000Y857500D02*
Y867500D01*
X1720000Y737500D02*
X1730000D01*
X1725000Y732500D02*
Y742500D01*
X1670000Y862500D02*
X1680000D01*
X1675000Y857500D02*
Y867500D01*
X1670000Y737500D02*
X1680000D01*
X1675000Y732500D02*
Y742500D01*
X2520000Y662500D02*
X2530000D01*
X2525000Y657500D02*
Y667500D01*
X2520000Y537500D02*
X2530000D01*
X2525000Y532500D02*
Y542500D01*
X2470000Y662500D02*
X2480000D01*
X2475000Y657500D02*
Y667500D01*
X2470000Y537500D02*
X2480000D01*
X2475000Y532500D02*
Y542500D01*
X2320000Y662500D02*
X2330000D01*
X2325000Y657500D02*
Y667500D01*
X2320000Y537500D02*
X2330000D01*
X2325000Y532500D02*
Y542500D01*
X2270000Y662500D02*
X2280000D01*
X2275000Y657500D02*
Y667500D01*
X2270000Y537500D02*
X2280000D01*
X2275000Y532500D02*
Y542500D01*
X2320000Y862500D02*
X2330000D01*
X2325000Y857500D02*
Y867500D01*
X2320000Y737500D02*
X2330000D01*
X2325000Y732500D02*
Y742500D01*
X2270000Y862500D02*
X2280000D01*
X2275000Y857500D02*
Y867500D01*
X2270000Y737500D02*
X2280000D01*
X2275000Y732500D02*
Y742500D01*
X2120000Y862500D02*
X2130000D01*
X2125000Y857500D02*
Y867500D01*
X2120000Y737500D02*
X2130000D01*
X2125000Y732500D02*
Y742500D01*
X2070000Y862500D02*
X2080000D01*
X2075000Y857500D02*
Y867500D01*
X2070000Y737500D02*
X2080000D01*
X2075000Y732500D02*
Y742500D01*
X1920000Y862500D02*
X1930000D01*
X1925000Y857500D02*
Y867500D01*
X1920000Y737500D02*
X1930000D01*
X1925000Y732500D02*
Y742500D01*
X1870000Y862500D02*
X1880000D01*
X1875000Y857500D02*
Y867500D01*
X970000Y537500D02*
X980000D01*
X975000Y532500D02*
Y542499D01*
X820000Y212499D02*
X830000D01*
X825000Y207499D02*
Y217499D01*
X820000Y87499D02*
X830000D01*
X825000Y82499D02*
Y92499D01*
X770000Y212499D02*
X780000D01*
X775000Y207499D02*
Y217499D01*
X770000Y87499D02*
X780000D01*
X775000Y82499D02*
Y92499D01*
X820000Y662499D02*
X830000D01*
X825000Y657499D02*
Y667499D01*
X820000Y537500D02*
X830000D01*
X825000Y532500D02*
Y542499D01*
X770000Y662499D02*
X780000D01*
X775000Y657499D02*
Y667499D01*
X770000Y537500D02*
X780000D01*
X775000Y532500D02*
Y542499D01*
X620000Y862500D02*
X630000D01*
X625000Y857500D02*
Y867500D01*
X620000Y737500D02*
X630000D01*
X625000Y732500D02*
Y742500D01*
X570000Y862500D02*
X580000D01*
X575000Y857500D02*
Y867500D01*
X570000Y737500D02*
X580000D01*
X575000Y732500D02*
Y742500D01*
X420000Y862500D02*
X430000D01*
X425000Y857500D02*
Y867500D01*
X420000Y737500D02*
X430000D01*
X425000Y732500D02*
Y742500D01*
X370000Y862500D02*
X380000D01*
X375000Y857500D02*
Y867500D01*
X370000Y737500D02*
X380000D01*
X375000Y732500D02*
Y742500D01*
X620000Y662499D02*
X630000D01*
X625000Y657499D02*
Y667499D01*
X620000Y537500D02*
X630000D01*
X625000Y532500D02*
Y542499D01*
X570000Y662499D02*
X580000D01*
X575000Y657499D02*
Y667499D01*
X570000Y537500D02*
X580000D01*
X575000Y532500D02*
Y542499D01*
X420000Y662499D02*
X430000D01*
X425000Y657499D02*
Y667499D01*
X420000Y537500D02*
X430000D01*
X425000Y532500D02*
Y542499D01*
X370000Y662499D02*
X380000D01*
X375000Y657499D02*
Y667499D01*
X370000Y537500D02*
X380000D01*
X375000Y532500D02*
Y542499D01*
X220000Y1062499D02*
X230000D01*
X225000Y1057499D02*
Y1067499D01*
X220000Y937499D02*
X230000D01*
X225000Y932499D02*
Y942499D01*
X170000Y1062499D02*
X180000D01*
X175000Y1057499D02*
Y1067499D01*
X170000Y937499D02*
X180000D01*
X175000Y932499D02*
Y942499D01*
X220000Y862500D02*
X230000D01*
X225000Y857500D02*
Y867500D01*
X220000Y737500D02*
X230000D01*
X225000Y732500D02*
Y742500D01*
X170000Y862500D02*
X180000D01*
X175000Y857500D02*
Y867500D01*
X170000Y737500D02*
X180000D01*
X175000Y732500D02*
Y742500D01*
X220000Y662499D02*
X230000D01*
X225000Y657499D02*
Y667499D01*
X220000Y537500D02*
X230000D01*
X225000Y532500D02*
Y542499D01*
X170000Y662499D02*
X180000D01*
X175000Y657499D02*
Y667499D01*
X170000Y537500D02*
X180000D01*
X175000Y532500D02*
Y542499D01*
X2120000Y662500D02*
X2130000D01*
X2125000Y657500D02*
Y667500D01*
X1020000Y212499D02*
X1030000D01*
X1025000Y207499D02*
Y217499D01*
X1020000Y87499D02*
X1030000D01*
X1025000Y82499D02*
Y92499D01*
X970000Y212499D02*
X980000D01*
X975000Y207499D02*
Y217499D01*
X970000Y87499D02*
X980000D01*
X975000Y82499D02*
Y92499D01*
X1520000Y212500D02*
X1530000D01*
X1525000Y207500D02*
Y217500D01*
X1520000Y87500D02*
X1530000D01*
X1525000Y82500D02*
Y92500D01*
X1470000Y212500D02*
X1480000D01*
X1475000Y207500D02*
Y217500D01*
X1470000Y87500D02*
X1480000D01*
X1475000Y82500D02*
Y92500D01*
X1920000Y662500D02*
X1930000D01*
X1925000Y657500D02*
Y667500D01*
X1920000Y537500D02*
X1930000D01*
X1925000Y532500D02*
Y542500D01*
X1870000Y662500D02*
X1880000D01*
X1875000Y657500D02*
Y667500D01*
X1870000Y537500D02*
X1880000D01*
X1875000Y532500D02*
Y542500D01*
X1739900Y50000D02*
X1748900D01*
X1744400Y45500D02*
Y54500D01*
X1720000Y212500D02*
X1730000D01*
X1725000Y207500D02*
Y217500D01*
X1720000Y87500D02*
X1730000D01*
X1725000Y82500D02*
Y92500D01*
X1670000Y212500D02*
X1680000D01*
X1675000Y207500D02*
Y217500D01*
X1670000Y87500D02*
X1680000D01*
X1675000Y82500D02*
Y92500D01*
X1020000Y662499D02*
X1030000D01*
X1025000Y657499D02*
Y667499D01*
X1020000Y537500D02*
X1030000D01*
X1025000Y532500D02*
Y542499D01*
X970000Y662499D02*
X980000D01*
X975000Y657499D02*
Y667499D01*
X1884000Y100000D02*
X1916000D01*
X1900000Y84000D02*
Y116000D01*
X1234000Y100000D02*
X1266000D01*
X1250000Y84000D02*
Y116000D01*
X584000Y100000D02*
X616000D01*
X600000Y84000D02*
Y116000D01*
X884000Y1100000D02*
X916000D01*
X900000Y1084000D02*
Y1116000D01*
X1884000Y1100000D02*
X1916000D01*
X1900000Y1084000D02*
Y1116000D01*
X2584000Y1100000D02*
X2616000D01*
X2600000Y1084000D02*
Y1116000D01*
X2584000Y100000D02*
X2616000D01*
X2600000Y84000D02*
Y116000D01*
X84000Y100000D02*
X116000D01*
X100000Y84000D02*
Y116000D01*
X84000Y1100000D02*
X116000D01*
X100000Y1084000D02*
Y1116000D01*
X2539400Y900000D02*
X2549400D01*
X2544400Y895000D02*
Y905000D01*
X2450600Y900000D02*
X2460600D01*
X2455600Y895000D02*
Y905000D01*
X2539400Y700000D02*
X2549400D01*
X2544400Y695000D02*
Y705000D01*
X2450600Y700000D02*
X2460600D01*
X2455600Y695000D02*
Y705000D01*
X2139400Y700000D02*
X2149400D01*
X2144400Y695000D02*
Y705000D01*
X2050600Y700000D02*
X2060600D01*
X2055600Y695000D02*
Y705000D01*
X2339400Y700000D02*
X2349400D01*
X2344400Y695000D02*
Y705000D01*
X2250600Y700000D02*
X2260600D01*
X2255600Y695000D02*
Y705000D01*
X2539400Y500000D02*
X2549400D01*
X2544400Y495000D02*
Y505000D01*
X2450600Y500000D02*
X2460600D01*
X2455600Y495000D02*
Y505000D01*
X2339400Y500000D02*
X2349400D01*
X2344400Y495000D02*
Y505000D01*
X2250600Y500000D02*
X2260600D01*
X2255600Y495000D02*
Y505000D01*
X1739400Y700000D02*
X1749400D01*
X1744400Y695000D02*
Y705000D01*
X1650600Y700000D02*
X1660600D01*
X1655600Y695000D02*
Y705000D01*
X2139400Y500000D02*
X2149400D01*
X2144400Y495000D02*
Y505000D01*
X2050600Y500000D02*
X2060600D01*
X2055600Y495000D02*
Y505000D01*
X239400Y699999D02*
X249400D01*
X244400Y694999D02*
Y704999D01*
X150600Y699999D02*
X160600D01*
X155600Y694999D02*
Y704999D01*
X239400Y900000D02*
X249400D01*
X244400Y895000D02*
Y905000D01*
X150600Y900000D02*
X160600D01*
X155600Y895000D02*
Y905000D01*
X439400Y699999D02*
X449400D01*
X444400Y694999D02*
Y704999D01*
X350600Y699999D02*
X360600D01*
X355600Y694999D02*
Y704999D01*
X239400Y499999D02*
X249400D01*
X244400Y494999D02*
Y504999D01*
X150600Y499999D02*
X160600D01*
X155600Y494999D02*
Y504999D01*
X439400Y499999D02*
X449400D01*
X444400Y494999D02*
Y504999D01*
X350600Y499999D02*
X360600D01*
X355600Y494999D02*
Y504999D01*
X639400Y499999D02*
X649400D01*
X644400Y494999D02*
Y504999D01*
X550600Y499999D02*
X560600D01*
X555600Y494999D02*
Y504999D01*
X839400Y499999D02*
X849400D01*
X844400Y494999D02*
Y504999D01*
X750600Y499999D02*
X760600D01*
X755600Y494999D02*
Y504999D01*
X639400Y699999D02*
X649400D01*
X644400Y694999D02*
Y704999D01*
X550600Y699999D02*
X560600D01*
X555600Y694999D02*
Y704999D01*
X839400Y699999D02*
X849400D01*
X844400Y694999D02*
Y704999D01*
X750600Y699999D02*
X760600D01*
X755600Y694999D02*
Y704999D01*
X1039400Y499999D02*
X1049400D01*
X1044400Y494999D02*
Y504999D01*
X950600Y499999D02*
X960600D01*
X955600Y494999D02*
Y504999D01*
X1650600Y50000D02*
X1660600D01*
X1655600Y45000D02*
Y55000D01*
X1739400Y500000D02*
X1749400D01*
X1744400Y495000D02*
Y505000D01*
X1650600Y500000D02*
X1660600D01*
X1655600Y495000D02*
Y505000D01*
X1939400Y500000D02*
X1949400D01*
X1944400Y495000D02*
Y505000D01*
X1850600Y500000D02*
X1860600D01*
X1855600Y495000D02*
Y505000D01*
X1939400Y700000D02*
X1949400D01*
X1944400Y695000D02*
Y705000D01*
X1850600Y700000D02*
X1860600D01*
X1855600Y695000D02*
Y705000D01*
X1539400Y50000D02*
X1549400D01*
X1544400Y45000D02*
Y55000D01*
X1450600Y50000D02*
X1460600D01*
X1455600Y45000D02*
Y55000D01*
X1539400Y500000D02*
X1549400D01*
X1544400Y495000D02*
Y505000D01*
X1450600Y500000D02*
X1460600D01*
X1455600Y495000D02*
Y505000D01*
X1039400Y49999D02*
X1049400D01*
X1044400Y44999D02*
Y54999D01*
X950600Y49999D02*
X960600D01*
X955600Y44999D02*
Y54999D01*
X840010Y49999D02*
X850010D01*
X845010Y44999D02*
Y54999D01*
X751210Y49999D02*
X761210D01*
X756210Y44999D02*
Y54999D01*
X1224444Y862000D02*
X1231556D01*
X1228000Y858444D02*
Y865556D01*
X1127444Y786000D02*
X1134556D01*
X1131000Y782444D02*
Y789556D01*
X316444Y927000D02*
X323556D01*
X320000Y923444D02*
Y930556D01*
X552444Y947000D02*
X559556D01*
X556000Y943444D02*
Y950556D01*
X1151444Y656000D02*
X1158556D01*
X1155000Y652444D02*
Y659556D01*
X1079444Y519000D02*
X1086556D01*
X1083000Y515444D02*
Y522556D01*
X1021444Y467000D02*
X1028556D01*
X1025000Y463444D02*
Y470556D01*
X821444Y462000D02*
X828556D01*
X825000Y458444D02*
Y465556D01*
X1521444Y472000D02*
X1528556D01*
X1525000Y468444D02*
Y475556D01*
X1721444Y468000D02*
X1728556D01*
X1725000Y464444D02*
Y471556D01*
M02*
