M48
;Layer_Color=9474304
;FILE_FORMAT=4:4
METRIC,LZ
;TYPE=PLATED
T01F00S00C0.7112
T02F00S00C0.8000
T03F00S00C0.9000
T04F00S00C1.0000
T05F00S00C3.2000
%
T01
X01525Y00472
X01725Y00468
X01083Y00519
X01025Y00467
X01155Y00656
X01131Y00786
X00825Y00462
X00556Y00947
X0032Y00927
X01228Y00862
T02
X0118156Y006587
Y006841
Y007095
Y007349
Y007603
Y007857
X0133376
Y007603
Y007349
Y007095
Y006841
Y006587
Y008111
Y008365
Y008619
Y008873
Y009127
Y009381
Y009635
Y009889
Y010143
Y010397
Y010651
Y010905
Y011159
Y011413
X0118156
Y011159
Y010905
Y010651
Y010397
Y010143
Y009889
Y009635
Y009381
Y009127
Y008873
Y008619
Y008365
Y008111
T03
X017444Y0005
T04
X0075621Y00049999
X00775Y00087499
X00825
X0084501Y00049999
X009556
X00975Y00087499
Y00212499
X00825
X00775
X01025
Y00087499
X010444Y00049999
X014556Y0005
X01475Y000875
X01525
X015444Y0005
X016556
X01675Y000875
X01725
Y002125
X01675
X01525
X01475
X022556Y005
X02275Y005375
X02325
X023444Y005
X024556
X02475Y005375
X02525
X025444Y005
X02525Y006625
X02475
X024556Y007
X02475Y007375
X02525
X025444Y007
X023444
X02325Y006625
X02275
X022556Y007
X02275Y007375
X02325
X02125
X02075
X020556Y007
X02075Y006625
X02125
X021444Y007
X02125Y005375
X02075
X020556Y005
X021444
X019444
X01925Y005375
X01875
X018556Y005
X01875Y006625
X01925
X019444Y007
X01925Y007375
X01875
X018556Y007
X017444
X01725Y006625
X01675
X016556Y007
X01675Y007375
X01725
Y005375
X01675
X016556Y005
X017444
X015444
X01525Y005375
X01475
X014556Y005
X01475Y006625
X01525
X01025Y00662499
Y005375
X010444Y00499999
X009556
X00975Y005375
Y00662499
X00825
X00775
X007556Y00699999
X00775Y007375
X00825
X008444Y00699999
X00825Y005375
X00775
X007556Y00499999
X008444
X006444
X00625Y005375
Y00662499
X006444Y00699999
X00625Y007375
X00575
X005556Y00699999
X00575Y00662499
Y005375
X005556Y00499999
X004444
X00425Y005375
X00375
X003556Y00499999
X002444
X00225Y005375
Y00662499
X002444Y00699999
X00225Y007375
X00375
X00425
X004444Y00699999
X00425Y00662499
X00375
X003556Y00699999
X001556
X00175Y007375
Y00662499
Y005375
X001556Y00499999
X00175Y008625
X001556Y009
X00175Y00937499
Y01062499
X00225
Y00937499
X002444Y009
X00225Y008625
X00375
X00425
X00575
X00625
X00775
X00825
X01675Y008625
X01725
X01875
X01925
X02075
X02125
X02275
X02325
X02475
X02525
X025444Y009
X02525Y009375
X02475
X024556Y009
X02475Y010625
X02525
T05
X001Y001
X006
X0125
X019
X026
X001Y011
X009
X019
X026
M30
