G04*
G04 #@! TF.GenerationSoftware,Altium Limited,Altium Designer,23.10.1 (27)*
G04*
G04 Layer_Color=32896*
%FSLAX44Y44*%
%MOMM*%
G71*
G04*
G04 #@! TF.SameCoordinates,93BA021C-4F65-4C52-B2D2-680D5BDB3C73*
G04*
G04*
G04 #@! TF.FilePolarity,Positive*
G04*
G01*
G75*
%ADD11C,0.2000*%
%ADD12C,0.2540*%
D11*
X2474000Y914000D02*
X2526000D01*
X2474000Y886000D02*
Y914000D01*
Y886000D02*
X2526000D01*
Y914000D01*
Y900000D02*
X2532650D01*
X2467350D02*
X2474000D01*
X2513000Y886700D02*
Y913300D01*
X2474000Y714000D02*
X2526000D01*
X2474000Y686000D02*
Y714000D01*
Y686000D02*
X2526000D01*
Y714000D01*
Y700000D02*
X2532650D01*
X2467350D02*
X2474000D01*
X2513000Y686700D02*
Y713300D01*
X2074000Y714000D02*
X2126000D01*
X2074000Y686000D02*
Y714000D01*
Y686000D02*
X2126000D01*
Y714000D01*
Y700000D02*
X2132650D01*
X2067350D02*
X2074000D01*
X2113000Y686700D02*
Y713300D01*
X2274000Y714000D02*
X2326000D01*
X2274000Y686000D02*
Y714000D01*
Y686000D02*
X2326000D01*
Y714000D01*
Y700000D02*
X2332650D01*
X2267350D02*
X2274000D01*
X2313000Y686700D02*
Y713300D01*
X2474000Y514000D02*
X2526000D01*
X2474000Y486000D02*
Y514000D01*
Y486000D02*
X2526000D01*
Y514000D01*
Y500000D02*
X2532650D01*
X2467350D02*
X2474000D01*
X2513000Y486700D02*
Y513300D01*
X2274000Y514000D02*
X2326000D01*
X2274000Y486000D02*
Y514000D01*
Y486000D02*
X2326000D01*
Y514000D01*
Y500000D02*
X2332650D01*
X2267350D02*
X2274000D01*
X2313000Y486700D02*
Y513300D01*
X1674000Y714000D02*
X1726000D01*
X1674000Y686000D02*
Y714000D01*
Y686000D02*
X1726000D01*
Y714000D01*
Y700000D02*
X1732650D01*
X1667350D02*
X1674000D01*
X1713000Y686700D02*
Y713300D01*
X2074000Y514000D02*
X2126000D01*
X2074000Y486000D02*
Y514000D01*
Y486000D02*
X2126000D01*
Y514000D01*
Y500000D02*
X2132650D01*
X2067350D02*
X2074000D01*
X2113000Y486700D02*
Y513300D01*
X174000Y713999D02*
X226000D01*
X174000Y686000D02*
Y713999D01*
Y686000D02*
X226000D01*
Y713999D01*
Y699999D02*
X232650D01*
X167350D02*
X174000D01*
X213000Y686700D02*
Y713299D01*
X174000Y914000D02*
X226000D01*
X174000Y886000D02*
Y914000D01*
Y886000D02*
X226000D01*
Y914000D01*
Y900000D02*
X232650D01*
X167350D02*
X174000D01*
X213000Y886699D02*
Y913300D01*
X374000Y713999D02*
X426000D01*
X374000Y686000D02*
Y713999D01*
Y686000D02*
X426000D01*
Y713999D01*
Y699999D02*
X432650D01*
X367350D02*
X374000D01*
X413000Y686700D02*
Y713299D01*
X174000Y513999D02*
X226000D01*
X174000Y485999D02*
Y513999D01*
Y485999D02*
X226000D01*
Y513999D01*
Y499999D02*
X232650D01*
X167350D02*
X174000D01*
X213000Y486699D02*
Y513299D01*
X374000Y513999D02*
X426000D01*
X374000Y485999D02*
Y513999D01*
Y485999D02*
X426000D01*
Y513999D01*
Y499999D02*
X432650D01*
X367350D02*
X374000D01*
X413000Y486699D02*
Y513299D01*
X574000Y513999D02*
X626000D01*
X574000Y485999D02*
Y513999D01*
Y485999D02*
X626000D01*
Y513999D01*
Y499999D02*
X632650D01*
X567350D02*
X574000D01*
X613000Y486699D02*
Y513299D01*
X774000Y513999D02*
X826000D01*
X774000Y485999D02*
Y513999D01*
Y485999D02*
X826000D01*
Y513999D01*
Y499999D02*
X832650D01*
X767350D02*
X774000D01*
X813000Y486699D02*
Y513299D01*
X574000Y713999D02*
X626000D01*
X574000Y686000D02*
Y713999D01*
Y686000D02*
X626000D01*
Y713999D01*
Y699999D02*
X632650D01*
X567350D02*
X574000D01*
X613000Y686700D02*
Y713299D01*
X774000Y713999D02*
X826000D01*
X774000Y686000D02*
Y713999D01*
Y686000D02*
X826000D01*
Y713999D01*
Y699999D02*
X832650D01*
X767350D02*
X774000D01*
X813000Y686700D02*
Y713299D01*
X974000Y513999D02*
X1026000D01*
X974000Y485999D02*
Y513999D01*
Y485999D02*
X1026000D01*
Y513999D01*
Y499999D02*
X1032650D01*
X967350D02*
X974000D01*
X1013000Y486699D02*
Y513299D01*
X1674000Y64000D02*
X1726000D01*
X1674000Y36000D02*
Y64000D01*
Y36000D02*
X1726000D01*
Y64000D01*
Y50000D02*
X1732650D01*
X1667350D02*
X1674000D01*
X1713000Y36700D02*
Y63300D01*
X1674000Y514000D02*
X1726000D01*
X1674000Y486000D02*
Y514000D01*
Y486000D02*
X1726000D01*
Y514000D01*
Y500000D02*
X1732650D01*
X1667350D02*
X1674000D01*
X1713000Y486700D02*
Y513300D01*
X1874000Y514000D02*
X1926000D01*
X1874000Y486000D02*
Y514000D01*
Y486000D02*
X1926000D01*
Y514000D01*
Y500000D02*
X1932650D01*
X1867350D02*
X1874000D01*
X1913000Y486700D02*
Y513300D01*
X1874000Y714000D02*
X1926000D01*
X1874000Y686000D02*
Y714000D01*
Y686000D02*
X1926000D01*
Y714000D01*
Y700000D02*
X1932650D01*
X1867350D02*
X1874000D01*
X1913000Y686700D02*
Y713300D01*
X1474000Y64000D02*
X1526000D01*
X1474000Y36000D02*
Y64000D01*
Y36000D02*
X1526000D01*
Y64000D01*
Y50000D02*
X1532650D01*
X1467350D02*
X1474000D01*
X1513000Y36700D02*
Y63300D01*
X1474000Y514000D02*
X1526000D01*
X1474000Y486000D02*
Y514000D01*
Y486000D02*
X1526000D01*
Y514000D01*
Y500000D02*
X1532650D01*
X1467350D02*
X1474000D01*
X1513000Y486700D02*
Y513300D01*
X974000Y63999D02*
X1026000D01*
X974000Y35999D02*
Y63999D01*
Y35999D02*
X1026000D01*
Y63999D01*
Y49999D02*
X1032650D01*
X967350D02*
X974000D01*
X1013000Y36699D02*
Y63299D01*
X774610Y63999D02*
X826610D01*
X774610Y35999D02*
Y63999D01*
Y35999D02*
X826610D01*
Y63999D01*
Y49999D02*
X833260D01*
X767960D02*
X774610D01*
X813610Y36699D02*
Y63299D01*
D12*
X922916Y62065D02*
X938151D01*
Y54447D01*
X935612Y51908D01*
X925455D01*
X922916Y54447D01*
Y62065D01*
X938151Y46830D02*
Y41751D01*
Y44290D01*
X922916D01*
X925455Y46830D01*
X938151Y23977D02*
Y34134D01*
X927994Y23977D01*
X925455D01*
X922916Y26516D01*
Y31595D01*
X925455Y34134D01*
X1422916Y62065D02*
X1438151D01*
Y54448D01*
X1435612Y51909D01*
X1425455D01*
X1422916Y54448D01*
Y62065D01*
X1438151Y46830D02*
Y41752D01*
Y44291D01*
X1422916D01*
X1425455Y46830D01*
X1438151Y26517D02*
X1422916D01*
X1430533Y34135D01*
Y23978D01*
X1622916Y62065D02*
X1638151D01*
Y54448D01*
X1635612Y51909D01*
X1625455D01*
X1622916Y54448D01*
Y62065D01*
X1638151Y46830D02*
Y41752D01*
Y44291D01*
X1622916D01*
X1625455Y46830D01*
X1622916Y34135D02*
Y23978D01*
X1625455D01*
X1635612Y34135D01*
X1638151D01*
X122916Y913334D02*
X138151D01*
Y905717D01*
X135612Y903178D01*
X125455D01*
X122916Y905717D01*
Y913334D01*
X138151Y898099D02*
Y893021D01*
Y895560D01*
X122916D01*
X125455Y898099D01*
X2422916Y920953D02*
X2438151D01*
Y913335D01*
X2435612Y910796D01*
X2425455D01*
X2422916Y913335D01*
Y920953D01*
X2438151Y895561D02*
Y905717D01*
X2427994Y895561D01*
X2425455D01*
X2422916Y898100D01*
Y903178D01*
X2425455Y905717D01*
X2422916Y880326D02*
X2425455Y885404D01*
X2430533Y890482D01*
X2435612D01*
X2438151Y887943D01*
Y882865D01*
X2435612Y880326D01*
X2433073D01*
X2430533Y882865D01*
Y890482D01*
X2022916Y720953D02*
X2038151D01*
Y713335D01*
X2035612Y710796D01*
X2025455D01*
X2022916Y713335D01*
Y720953D01*
X2038151Y695561D02*
Y705717D01*
X2027994Y695561D01*
X2025455D01*
X2022916Y698100D01*
Y703178D01*
X2025455Y705717D01*
Y690482D02*
X2022916Y687943D01*
Y682865D01*
X2025455Y680326D01*
X2035612D01*
X2038151Y682865D01*
Y687943D01*
X2035612Y690482D01*
X2025455D01*
X722916Y713334D02*
X738151D01*
Y705717D01*
X735612Y703178D01*
X725455D01*
X722916Y705717D01*
Y713334D01*
X725455Y698099D02*
X722916Y695560D01*
Y690482D01*
X725455Y687943D01*
X727994D01*
X730534Y690482D01*
X733073Y687943D01*
X735612D01*
X738151Y690482D01*
Y695560D01*
X735612Y698099D01*
X733073D01*
X730534Y695560D01*
X727994Y698099D01*
X725455D01*
X730534Y695560D02*
Y690482D01*
X1622916Y719683D02*
X1638151D01*
Y712065D01*
X1635612Y709526D01*
X1625455D01*
X1622916Y712065D01*
Y719683D01*
X1638151Y704448D02*
Y699370D01*
Y701909D01*
X1622916D01*
X1625455Y704448D01*
X1622916Y681595D02*
Y691752D01*
X1630533D01*
X1627994Y686674D01*
Y684134D01*
X1630533Y681595D01*
X1635612D01*
X1638151Y684134D01*
Y689213D01*
X1635612Y691752D01*
X1822916Y719683D02*
X1838151D01*
Y712065D01*
X1835612Y709526D01*
X1825455D01*
X1822916Y712065D01*
Y719683D01*
X1838151Y704448D02*
Y699370D01*
Y701909D01*
X1822916D01*
X1825455Y704448D01*
X1835612Y691752D02*
X1838151Y689213D01*
Y684134D01*
X1835612Y681595D01*
X1825455D01*
X1822916Y684134D01*
Y689213D01*
X1825455Y691752D01*
X1827994D01*
X1830533Y689213D01*
Y681595D01*
X2422916Y720953D02*
X2438151D01*
Y713335D01*
X2435612Y710796D01*
X2425455D01*
X2422916Y713335D01*
Y720953D01*
X2438151Y695561D02*
Y705717D01*
X2427994Y695561D01*
X2425455D01*
X2422916Y698100D01*
Y703178D01*
X2425455Y705717D01*
X2438151Y682865D02*
X2422916D01*
X2430533Y690482D01*
Y680326D01*
X122916Y713334D02*
X138151D01*
Y705717D01*
X135612Y703178D01*
X125455D01*
X122916Y705717D01*
Y713334D01*
X138151Y687943D02*
Y698099D01*
X127994Y687943D01*
X125455D01*
X122916Y690482D01*
Y695560D01*
X125455Y698099D01*
X522916Y713334D02*
X538151D01*
Y705717D01*
X535612Y703178D01*
X525455D01*
X522916Y705717D01*
Y713334D01*
Y687943D02*
X525455Y693021D01*
X530533Y698099D01*
X535612D01*
X538151Y695560D01*
Y690482D01*
X535612Y687943D01*
X533073D01*
X530533Y690482D01*
Y698099D01*
X2222916Y714605D02*
X2238151D01*
Y706987D01*
X2235612Y704448D01*
X2225455D01*
X2222916Y706987D01*
Y714605D01*
X2238151Y689213D02*
Y699370D01*
X2227994Y689213D01*
X2225455D01*
X2222916Y691752D01*
Y696830D01*
X2225455Y699370D01*
X2238151Y673978D02*
Y684134D01*
X2227994Y673978D01*
X2225455D01*
X2222916Y676517D01*
Y681595D01*
X2225455Y684134D01*
X322916Y709526D02*
X338151D01*
Y701908D01*
X335612Y699369D01*
X325455D01*
X322916Y701908D01*
Y709526D01*
X338151Y686673D02*
X322916D01*
X330533Y694291D01*
Y684134D01*
X2022916Y512065D02*
X2038151D01*
Y504448D01*
X2035612Y501909D01*
X2025455D01*
X2022916Y504448D01*
Y512065D01*
X2038151Y486674D02*
Y496830D01*
X2027994Y486674D01*
X2025455D01*
X2022916Y489213D01*
Y494291D01*
X2025455Y496830D01*
X2038151Y481595D02*
Y476517D01*
Y479056D01*
X2022916D01*
X2025455Y481595D01*
X722916Y506986D02*
X738151D01*
Y499369D01*
X735612Y496830D01*
X725455D01*
X722916Y499369D01*
Y506986D01*
X735612Y491751D02*
X738151Y489212D01*
Y484134D01*
X735612Y481595D01*
X725455D01*
X722916Y484134D01*
Y489212D01*
X725455Y491751D01*
X727994D01*
X730533Y489212D01*
Y481595D01*
X922916Y510795D02*
X938151D01*
Y503178D01*
X935612Y500638D01*
X925455D01*
X922916Y503178D01*
Y510795D01*
X938151Y495560D02*
Y490482D01*
Y493021D01*
X922916D01*
X925455Y495560D01*
X938151Y482864D02*
Y477786D01*
Y480325D01*
X922916D01*
X925455Y482864D01*
X1422916Y513335D02*
X1438151D01*
Y505717D01*
X1435612Y503178D01*
X1425455D01*
X1422916Y505717D01*
Y513335D01*
X1438151Y498100D02*
Y493022D01*
Y495561D01*
X1422916D01*
X1425455Y498100D01*
Y485404D02*
X1422916Y482865D01*
Y477786D01*
X1425455Y475247D01*
X1427994D01*
X1430533Y477786D01*
Y480326D01*
Y477786D01*
X1433073Y475247D01*
X1435612D01*
X1438151Y477786D01*
Y482865D01*
X1435612Y485404D01*
X1622916Y513335D02*
X1638151D01*
Y505718D01*
X1635612Y503178D01*
X1625455D01*
X1622916Y505718D01*
Y513335D01*
X1638151Y498100D02*
Y493022D01*
Y495561D01*
X1622916D01*
X1625455Y498100D01*
X1622916Y475247D02*
X1625455Y480326D01*
X1630533Y485404D01*
X1635612D01*
X1638151Y482865D01*
Y477786D01*
X1635612Y475247D01*
X1633073D01*
X1630533Y477786D01*
Y485404D01*
X1822916Y513335D02*
X1838151D01*
Y505718D01*
X1835612Y503178D01*
X1825455D01*
X1822916Y505718D01*
Y513335D01*
X1838151Y498100D02*
Y493022D01*
Y495561D01*
X1822916D01*
X1825455Y498100D01*
Y485404D02*
X1822916Y482865D01*
Y477786D01*
X1825455Y475247D01*
X1827994D01*
X1830533Y477786D01*
X1833073Y475247D01*
X1835612D01*
X1838151Y477786D01*
Y482865D01*
X1835612Y485404D01*
X1833073D01*
X1830533Y482865D01*
X1827994Y485404D01*
X1825455D01*
X1830533Y482865D02*
Y477786D01*
X2422916Y514605D02*
X2438151D01*
Y506987D01*
X2435612Y504448D01*
X2425455D01*
X2422916Y506987D01*
Y514605D01*
X2438151Y489213D02*
Y499370D01*
X2427994Y489213D01*
X2425455D01*
X2422916Y491752D01*
Y496830D01*
X2425455Y499370D01*
X2422916Y473978D02*
Y484134D01*
X2430533D01*
X2427994Y479056D01*
Y476517D01*
X2430533Y473978D01*
X2435612D01*
X2438151Y476517D01*
Y481595D01*
X2435612Y484134D01*
X122916Y506986D02*
X138151D01*
Y499369D01*
X135612Y496830D01*
X125455D01*
X122916Y499369D01*
Y506986D01*
X125455Y491751D02*
X122916Y489212D01*
Y484134D01*
X125455Y481595D01*
X127994D01*
X130534Y484134D01*
Y486673D01*
Y484134D01*
X133073Y481595D01*
X135612D01*
X138151Y484134D01*
Y489212D01*
X135612Y491751D01*
X322916Y505717D02*
X338151D01*
Y498099D01*
X335612Y495560D01*
X325455D01*
X322916Y498099D01*
Y505717D01*
Y480325D02*
Y490482D01*
X330533D01*
X327994Y485403D01*
Y482864D01*
X330533Y480325D01*
X335612D01*
X338151Y482864D01*
Y487943D01*
X335612Y490482D01*
X522916Y508256D02*
X538151D01*
Y500639D01*
X535612Y498099D01*
X525455D01*
X522916Y500639D01*
Y508256D01*
Y493021D02*
Y482864D01*
X525455D01*
X535612Y493021D01*
X538151D01*
X2222916Y513335D02*
X2238151D01*
Y505718D01*
X2235612Y503178D01*
X2225455D01*
X2222916Y505718D01*
Y513335D01*
X2238151Y487943D02*
Y498100D01*
X2227994Y487943D01*
X2225455D01*
X2222916Y490482D01*
Y495561D01*
X2225455Y498100D01*
Y482865D02*
X2222916Y480326D01*
Y475247D01*
X2225455Y472708D01*
X2227994D01*
X2230533Y475247D01*
Y477786D01*
Y475247D01*
X2233073Y472708D01*
X2235612D01*
X2238151Y475247D01*
Y480326D01*
X2235612Y482865D01*
X723526Y62065D02*
X738761D01*
Y54447D01*
X736222Y51908D01*
X726065D01*
X723526Y54447D01*
Y62065D01*
X738761Y46830D02*
Y41751D01*
Y44290D01*
X723526D01*
X726065Y46830D01*
Y34134D02*
X723526Y31595D01*
Y26516D01*
X726065Y23977D01*
X736222D01*
X738761Y26516D01*
Y31595D01*
X736222Y34134D01*
X726065D01*
M02*
