G04*
G04 #@! TF.GenerationSoftware,Altium Limited,Altium Designer,23.10.1 (27)*
G04*
G04 Layer_Color=16711935*
%FSLAX44Y44*%
%MOMM*%
G71*
G04*
G04 #@! TF.SameCoordinates,93BA021C-4F65-4C52-B2D2-680D5BDB3C73*
G04*
G04*
G04 #@! TF.FilePolarity,Negative*
G04*
G01*
G75*
%ADD17R,1.7000X1.7000*%
%ADD18C,1.7000*%
%ADD19O,1.6032X1.7032*%
%ADD20R,1.6032X1.7032*%
%ADD21R,1.4000X1.4000*%
%ADD22C,3.4032*%
%ADD23R,1.5500X1.5500*%
%ADD24C,1.5500*%
%ADD25C,1.4732*%
D17*
X775000Y737500D02*
D03*
X1875000Y737500D02*
D03*
X2475000Y937500D02*
D03*
Y737500D02*
D03*
X2075000Y537500D02*
D03*
X1675000D02*
D03*
X1475000D02*
D03*
X1675000Y737500D02*
D03*
X2475000Y537500D02*
D03*
X2275000D02*
D03*
Y737500D02*
D03*
X2075000D02*
D03*
X975000Y537500D02*
D03*
X775000Y87499D02*
D03*
Y537500D02*
D03*
X575000Y737500D02*
D03*
X375000D02*
D03*
X575000Y537500D02*
D03*
X375000D02*
D03*
X175000Y937499D02*
D03*
Y737500D02*
D03*
Y537500D02*
D03*
X975000Y87499D02*
D03*
X1475000Y87500D02*
D03*
X1875000Y537500D02*
D03*
X1675000Y87500D02*
D03*
D18*
X775000Y862500D02*
D03*
X825000Y737500D02*
D03*
Y862500D02*
D03*
X2525000Y1062500D02*
D03*
Y937500D02*
D03*
X2475000Y1062500D02*
D03*
Y862500D02*
D03*
X2525000Y737500D02*
D03*
Y862500D02*
D03*
X2125000Y537500D02*
D03*
X2075000Y662500D02*
D03*
X1725000D02*
D03*
Y537500D02*
D03*
X1675000Y662500D02*
D03*
X1525000D02*
D03*
Y537500D02*
D03*
X1475000Y662500D02*
D03*
X1725000Y862500D02*
D03*
Y737500D02*
D03*
X1675000Y862500D02*
D03*
X2525000Y662500D02*
D03*
Y537500D02*
D03*
X2475000Y662500D02*
D03*
X2325000D02*
D03*
Y537500D02*
D03*
X2275000Y662500D02*
D03*
X2325000Y862500D02*
D03*
Y737500D02*
D03*
X2275000Y862500D02*
D03*
X2125000D02*
D03*
Y737500D02*
D03*
X2075000Y862500D02*
D03*
X1925000D02*
D03*
Y737500D02*
D03*
X1875000Y862500D02*
D03*
X825000Y212499D02*
D03*
Y87499D02*
D03*
X775000Y212499D02*
D03*
X825000Y662499D02*
D03*
Y537500D02*
D03*
X775000Y662499D02*
D03*
X625000Y862500D02*
D03*
Y737500D02*
D03*
X575000Y862500D02*
D03*
X425000D02*
D03*
Y737500D02*
D03*
X375000Y862500D02*
D03*
X625000Y662499D02*
D03*
Y537500D02*
D03*
X575000Y662499D02*
D03*
X425000D02*
D03*
Y537500D02*
D03*
X375000Y662499D02*
D03*
X225000Y1062499D02*
D03*
Y937499D02*
D03*
X175000Y1062499D02*
D03*
X225000Y862500D02*
D03*
Y737500D02*
D03*
X175000Y862500D02*
D03*
X225000Y662499D02*
D03*
Y537500D02*
D03*
X175000Y662499D02*
D03*
X2125000Y662500D02*
D03*
X1025000Y212499D02*
D03*
Y87499D02*
D03*
X975000Y212499D02*
D03*
X1525000Y212500D02*
D03*
Y87500D02*
D03*
X1475000Y212500D02*
D03*
X1925000Y662500D02*
D03*
Y537500D02*
D03*
X1875000Y662500D02*
D03*
X1725000Y212500D02*
D03*
Y87500D02*
D03*
X1675000Y212500D02*
D03*
X1025000Y662499D02*
D03*
Y537500D02*
D03*
X975000Y662499D02*
D03*
D19*
X1181560Y1090500D02*
D03*
Y1065100D02*
D03*
Y1039700D02*
D03*
Y1014300D02*
D03*
Y988900D02*
D03*
Y963500D02*
D03*
Y938100D02*
D03*
Y912700D02*
D03*
Y887300D02*
D03*
Y861900D02*
D03*
Y836500D02*
D03*
Y811100D02*
D03*
Y785700D02*
D03*
Y760300D02*
D03*
Y734900D02*
D03*
Y709500D02*
D03*
Y658700D02*
D03*
Y684100D02*
D03*
Y1115900D02*
D03*
X1333760D02*
D03*
Y1090500D02*
D03*
Y1065100D02*
D03*
Y1039700D02*
D03*
Y1014300D02*
D03*
Y988900D02*
D03*
Y963500D02*
D03*
Y938100D02*
D03*
Y912700D02*
D03*
Y887300D02*
D03*
Y861900D02*
D03*
Y836500D02*
D03*
Y811100D02*
D03*
Y785700D02*
D03*
Y760300D02*
D03*
Y734900D02*
D03*
Y709500D02*
D03*
Y684100D02*
D03*
Y658700D02*
D03*
D20*
X1181560Y1141300D02*
D03*
X1333760D02*
D03*
D21*
X1744400Y50000D02*
D03*
D22*
X1900000Y100000D02*
D03*
X1250000D02*
D03*
X600000D02*
D03*
X900000Y1100000D02*
D03*
X1900000D02*
D03*
X2600000D02*
D03*
Y100000D02*
D03*
X100000D02*
D03*
Y1100000D02*
D03*
D23*
X2544400Y900000D02*
D03*
Y700000D02*
D03*
X2144400D02*
D03*
X2344400D02*
D03*
X2544400Y500000D02*
D03*
X2344400D02*
D03*
X1744400Y700000D02*
D03*
X2144400Y500000D02*
D03*
X244400Y699999D02*
D03*
Y900000D02*
D03*
X444400Y699999D02*
D03*
X244400Y499999D02*
D03*
X444400D02*
D03*
X644400D02*
D03*
X844400D02*
D03*
X644400Y699999D02*
D03*
X844400D02*
D03*
X1044400Y499999D02*
D03*
X1744400Y500000D02*
D03*
X1944400D02*
D03*
Y700000D02*
D03*
X1544400Y50000D02*
D03*
Y500000D02*
D03*
X1044400Y49999D02*
D03*
X845010D02*
D03*
D24*
X2455600Y900000D02*
D03*
Y700000D02*
D03*
X2055600D02*
D03*
X2255600D02*
D03*
X2455600Y500000D02*
D03*
X2255600D02*
D03*
X1655600Y700000D02*
D03*
X2055600Y500000D02*
D03*
X155600Y699999D02*
D03*
Y900000D02*
D03*
X355600Y699999D02*
D03*
X155600Y499999D02*
D03*
X355600D02*
D03*
X555600D02*
D03*
X755600D02*
D03*
X555600Y699999D02*
D03*
X755600D02*
D03*
X955600Y499999D02*
D03*
X1655600Y50000D02*
D03*
Y500000D02*
D03*
X1855600D02*
D03*
Y700000D02*
D03*
X1455600Y50000D02*
D03*
Y500000D02*
D03*
X955600Y49999D02*
D03*
X756210D02*
D03*
D25*
X1228000Y862000D02*
D03*
X1131000Y786000D02*
D03*
X320000Y927000D02*
D03*
X556000Y947000D02*
D03*
X1155000Y656000D02*
D03*
X1083000Y519000D02*
D03*
X1025000Y467000D02*
D03*
X825000Y462000D02*
D03*
X1525000Y472000D02*
D03*
X1725000Y468000D02*
D03*
M02*
