G04*
G04 #@! TF.GenerationSoftware,Altium Limited,Altium Designer,23.10.1 (27)*
G04*
G04 Layer_Color=65535*
%FSLAX44Y44*%
%MOMM*%
G71*
G04*
G04 #@! TF.SameCoordinates,93BA021C-4F65-4C52-B2D2-680D5BDB3C73*
G04*
G04*
G04 #@! TF.FilePolarity,Positive*
G04*
G01*
G75*
%ADD10C,0.2500*%
%ADD11C,0.2000*%
%ADD12C,0.2540*%
D10*
X776250Y720999D02*
G03*
X776250Y720999I-1250J0D01*
G01*
X376250Y520999D02*
G03*
X376250Y520999I-1250J0D01*
G01*
X2476250Y521000D02*
G03*
X2476250Y521000I-1250J0D01*
G01*
X2276250Y721000D02*
G03*
X2276250Y721000I-1250J0D01*
G01*
X2476250D02*
G03*
X2476250Y721000I-1250J0D01*
G01*
Y921000D02*
G03*
X2476250Y921000I-1250J0D01*
G01*
X1876250Y721000D02*
G03*
X1876250Y721000I-1250J0D01*
G01*
X2076250D02*
G03*
X2076250Y721000I-1250J0D01*
G01*
X2276250Y521000D02*
G03*
X2276250Y521000I-1250J0D01*
G01*
X1676250Y721000D02*
G03*
X1676250Y721000I-1250J0D01*
G01*
X1476250Y521000D02*
G03*
X1476250Y521000I-1250J0D01*
G01*
X1676250D02*
G03*
X1676250Y521000I-1250J0D01*
G01*
X2076250D02*
G03*
X2076250Y521000I-1250J0D01*
G01*
X176250Y520999D02*
G03*
X176250Y520999I-1250J0D01*
G01*
Y720999D02*
G03*
X176250Y720999I-1250J0D01*
G01*
Y920999D02*
G03*
X176250Y920999I-1250J0D01*
G01*
X576250Y520999D02*
G03*
X576250Y520999I-1250J0D01*
G01*
X376250Y720999D02*
G03*
X376250Y720999I-1250J0D01*
G01*
X576250Y720999D02*
G03*
X576250Y720999I-1250J0D01*
G01*
X776250Y520999D02*
G03*
X776250Y520999I-1250J0D01*
G01*
Y70999D02*
G03*
X776250Y70999I-1250J0D01*
G01*
X976250Y520999D02*
G03*
X976250Y520999I-1250J0D01*
G01*
X1676250Y71000D02*
G03*
X1676250Y71000I-1250J0D01*
G01*
X1876250Y521000D02*
G03*
X1876250Y521000I-1250J0D01*
G01*
X1476250Y71000D02*
G03*
X1476250Y71000I-1250J0D01*
G01*
X976250Y70999D02*
G03*
X976250Y70999I-1250J0D01*
G01*
D11*
X1182560Y1160500D02*
G03*
X1182560Y1160500I-1000J0D01*
G01*
X1334760D02*
G03*
X1334760Y1160500I-1000J0D01*
G01*
X740000Y739999D02*
X762000D01*
X788000D02*
X812000D01*
X838000D02*
X860000D01*
Y859999D01*
X740000D02*
X762000D01*
X788000D02*
X812000D01*
X838000D02*
X860000D01*
X740000Y739999D02*
Y859999D01*
X340000Y539999D02*
X362000D01*
X388000D02*
X412000D01*
X438000D02*
X460000D01*
Y660000D01*
X340000D02*
X362000D01*
X388000D02*
X412000D01*
X438000D02*
X460000D01*
X340000Y539999D02*
Y660000D01*
X2440000Y540000D02*
X2462000D01*
X2488000D02*
X2512000D01*
X2538000D02*
X2560000D01*
Y660000D01*
X2440000D02*
X2462000D01*
X2488000D02*
X2512000D01*
X2538000D02*
X2560000D01*
X2440000Y540000D02*
Y660000D01*
X2240000Y740000D02*
X2262000D01*
X2288000D02*
X2312000D01*
X2338000D02*
X2360000D01*
Y860000D01*
X2240000D02*
X2262000D01*
X2288000D02*
X2312000D01*
X2338000D02*
X2360000D01*
X2240000Y740000D02*
Y860000D01*
X1168860Y1154000D02*
X1194260D01*
X1168860Y646000D02*
X1194260D01*
Y1154000D01*
X1168860Y646000D02*
Y1154000D01*
X2440000Y740000D02*
X2462000D01*
X2488000D02*
X2512000D01*
X2538000D02*
X2560000D01*
Y860000D01*
X2440000D02*
X2462000D01*
X2488000D02*
X2512000D01*
X2538000D02*
X2560000D01*
X2440000Y740000D02*
Y860000D01*
Y940000D02*
Y1060000D01*
X2538000D02*
X2560000D01*
X2488000D02*
X2512000D01*
X2440000D02*
X2462000D01*
X2560000Y940000D02*
Y1060000D01*
X2538000Y940000D02*
X2560000D01*
X2488000D02*
X2512000D01*
X2440000D02*
X2462000D01*
X1840000Y740000D02*
Y860000D01*
X1938000D02*
X1960000D01*
X1888000D02*
X1912000D01*
X1840000D02*
X1862000D01*
X1960000Y740000D02*
Y860000D01*
X1938000Y740000D02*
X1960000D01*
X1888000D02*
X1912000D01*
X1840000D02*
X1862000D01*
X2040000D02*
Y860000D01*
X2138000D02*
X2160000D01*
X2088000D02*
X2112000D01*
X2040000D02*
X2062000D01*
X2160000Y740000D02*
Y860000D01*
X2138000Y740000D02*
X2160000D01*
X2088000D02*
X2112000D01*
X2040000D02*
X2062000D01*
X2240000Y540000D02*
Y660000D01*
X2338000D02*
X2360000D01*
X2288000D02*
X2312000D01*
X2240000D02*
X2262000D01*
X2360000Y540000D02*
Y660000D01*
X2338000Y540000D02*
X2360000D01*
X2288000D02*
X2312000D01*
X2240000D02*
X2262000D01*
X1640000Y740000D02*
Y860000D01*
X1738000D02*
X1760000D01*
X1688000D02*
X1712000D01*
X1640000D02*
X1662000D01*
X1760000Y740000D02*
Y860000D01*
X1738000Y740000D02*
X1760000D01*
X1688000D02*
X1712000D01*
X1640000D02*
X1662000D01*
X1321060Y646000D02*
Y1154000D01*
X1346460Y646000D02*
Y1154000D01*
X1321060Y646000D02*
X1346460D01*
X1321060Y1154000D02*
X1346460D01*
X1440000Y540000D02*
Y660000D01*
X1538000D02*
X1560000D01*
X1488000D02*
X1512000D01*
X1440000D02*
X1462000D01*
X1560000Y540000D02*
Y660000D01*
X1538000Y540000D02*
X1560000D01*
X1488000D02*
X1512000D01*
X1440000D02*
X1462000D01*
X1640000D02*
Y660000D01*
X1738000D02*
X1760000D01*
X1688000D02*
X1712000D01*
X1640000D02*
X1662000D01*
X1760000Y540000D02*
Y660000D01*
X1738000Y540000D02*
X1760000D01*
X1688000D02*
X1712000D01*
X1640000D02*
X1662000D01*
X2040000D02*
Y660000D01*
X2138000D02*
X2160000D01*
X2088000D02*
X2112000D01*
X2040000D02*
X2062000D01*
X2160000Y540000D02*
Y660000D01*
X2138000Y540000D02*
X2160000D01*
X2088000D02*
X2112000D01*
X2040000D02*
X2062000D01*
X140000Y539999D02*
Y660000D01*
X238000D02*
X260000D01*
X188000D02*
X212000D01*
X140000D02*
X162000D01*
X260000Y539999D02*
Y660000D01*
X238000Y539999D02*
X260000D01*
X188000D02*
X212000D01*
X140000D02*
X162000D01*
X140000Y739999D02*
Y859999D01*
X238000D02*
X260000D01*
X188000D02*
X212000D01*
X140000D02*
X162000D01*
X260000Y739999D02*
Y859999D01*
X238000Y739999D02*
X260000D01*
X188000D02*
X212000D01*
X140000D02*
X162000D01*
X140000Y939999D02*
Y1059999D01*
X238000D02*
X260000D01*
X188000D02*
X212000D01*
X140000D02*
X162000D01*
X260000Y939999D02*
Y1059999D01*
X238000Y939999D02*
X260000D01*
X188000D02*
X212000D01*
X140000D02*
X162000D01*
X540000Y539999D02*
Y660000D01*
X638000D02*
X660000D01*
X588000D02*
X612000D01*
X540000D02*
X562000D01*
X660000Y539999D02*
Y660000D01*
X638000Y539999D02*
X660000D01*
X588000D02*
X612000D01*
X540000D02*
X562000D01*
X340000Y739999D02*
Y859999D01*
X438000D02*
X460000D01*
X388000D02*
X412000D01*
X340000D02*
X362000D01*
X460000Y739999D02*
Y859999D01*
X438000Y739999D02*
X460000D01*
X388000D02*
X412000D01*
X340000D02*
X362000D01*
X540000D02*
Y859999D01*
X638000D02*
X660000D01*
X588000D02*
X612000D01*
X540000D02*
X562000D01*
X660000Y739999D02*
Y859999D01*
X638000Y739999D02*
X660000D01*
X588000D02*
X612000D01*
X540000D02*
X562000D01*
X740000Y539999D02*
Y660000D01*
X838000D02*
X860000D01*
X788000D02*
X812000D01*
X740000D02*
X762000D01*
X860000Y539999D02*
Y660000D01*
X838000Y539999D02*
X860000D01*
X788000D02*
X812000D01*
X740000D02*
X762000D01*
X740000Y89999D02*
Y210000D01*
X838000D02*
X860000D01*
X788000D02*
X812000D01*
X740000D02*
X762000D01*
X860000Y89999D02*
Y210000D01*
X838000Y89999D02*
X860000D01*
X788000D02*
X812000D01*
X740000D02*
X762000D01*
X940000Y539999D02*
Y660000D01*
X1038000D02*
X1060000D01*
X988000D02*
X1012000D01*
X940000D02*
X962000D01*
X1060000Y539999D02*
Y660000D01*
X1038000Y539999D02*
X1060000D01*
X988000D02*
X1012000D01*
X940000D02*
X962000D01*
X1640000Y90000D02*
Y210000D01*
X1738000D02*
X1760000D01*
X1688000D02*
X1712000D01*
X1640000D02*
X1662000D01*
X1760000Y90000D02*
Y210000D01*
X1738000Y90000D02*
X1760000D01*
X1688000D02*
X1712000D01*
X1640000D02*
X1662000D01*
X1840000Y540000D02*
Y660000D01*
X1938000D02*
X1960000D01*
X1888000D02*
X1912000D01*
X1840000D02*
X1862000D01*
X1960000Y540000D02*
Y660000D01*
X1938000Y540000D02*
X1960000D01*
X1888000D02*
X1912000D01*
X1840000D02*
X1862000D01*
X1440000Y90000D02*
Y210000D01*
X1538000D02*
X1560000D01*
X1488000D02*
X1512000D01*
X1440000D02*
X1462000D01*
X1560000Y90000D02*
Y210000D01*
X1538000Y90000D02*
X1560000D01*
X1488000D02*
X1512000D01*
X1440000D02*
X1462000D01*
X940000Y89999D02*
Y210000D01*
X1038000D02*
X1060000D01*
X988000D02*
X1012000D01*
X940000D02*
X962000D01*
X1060000Y89999D02*
Y210000D01*
X1038000Y89999D02*
X1060000D01*
X988000D02*
X1012000D01*
X940000D02*
X962000D01*
D12*
X1483495Y694103D02*
X1480956Y696642D01*
X1475878D01*
X1473339Y694103D01*
Y691564D01*
X1475878Y689025D01*
X1480956D01*
X1483495Y686485D01*
Y683946D01*
X1480956Y681407D01*
X1475878D01*
X1473339Y683946D01*
X1488574Y696642D02*
Y681407D01*
X1493652Y686485D01*
X1498730Y681407D01*
Y696642D01*
X1503809Y681407D02*
X1508887D01*
X1506348D01*
Y696642D01*
X1503809Y694103D01*
X1516505D02*
X1519044Y696642D01*
X1524122D01*
X1526661Y694103D01*
Y691564D01*
X1524122Y689025D01*
X1521583D01*
X1524122D01*
X1526661Y686485D01*
Y683946D01*
X1524122Y681407D01*
X1519044D01*
X1516505Y683946D01*
X1683495Y694103D02*
X1680956Y696642D01*
X1675878D01*
X1673339Y694103D01*
Y691564D01*
X1675878Y689025D01*
X1680956D01*
X1683495Y686485D01*
Y683946D01*
X1680956Y681407D01*
X1675878D01*
X1673339Y683946D01*
X1688574Y696642D02*
Y681407D01*
X1693652Y686485D01*
X1698730Y681407D01*
Y696642D01*
X1703809Y681407D02*
X1708887D01*
X1706348D01*
Y696642D01*
X1703809Y694103D01*
X1726661Y696642D02*
X1721583Y694103D01*
X1716505Y689025D01*
Y683946D01*
X1719044Y681407D01*
X1724122D01*
X1726661Y683946D01*
Y686485D01*
X1724122Y689025D01*
X1716505D01*
X921020Y700841D02*
X923559Y698302D01*
X928638D01*
X931177Y700841D01*
Y710998D01*
X928638Y713537D01*
X923559D01*
X921020Y710998D01*
X905785Y713537D02*
X915942D01*
X905785Y703380D01*
Y700841D01*
X908324Y698302D01*
X913403D01*
X915942Y700841D01*
X1111980Y791159D02*
X1109441Y793698D01*
X1104362D01*
X1101823Y791159D01*
Y781002D01*
X1104362Y778463D01*
X1109441D01*
X1111980Y781002D01*
X1117058Y778463D02*
X1122136D01*
X1119597D01*
Y793698D01*
X1117058Y791159D01*
X1329691Y638807D02*
X1324612D01*
X1327152D01*
Y626112D01*
X1324612Y623573D01*
X1322073D01*
X1319534Y626112D01*
X1344926Y623573D02*
X1334769D01*
X1344926Y633729D01*
Y636268D01*
X1342387Y638807D01*
X1337308D01*
X1334769Y636268D01*
X1179830Y636268D02*
X1174752D01*
X1177291D01*
Y623572D01*
X1174752Y621032D01*
X1172213D01*
X1169673Y623572D01*
X1184908Y621032D02*
X1189987D01*
X1187448D01*
Y636268D01*
X1184908Y633728D01*
X2482226Y1094103D02*
X2479687Y1096642D01*
X2474608D01*
X2472069Y1094103D01*
Y1091564D01*
X2474608Y1089025D01*
X2479687D01*
X2482226Y1086485D01*
Y1083946D01*
X2479687Y1081407D01*
X2474608D01*
X2472069Y1083946D01*
X2487304Y1096642D02*
Y1081407D01*
X2492383Y1086485D01*
X2497461Y1081407D01*
Y1096642D01*
X2512696Y1081407D02*
X2502539D01*
X2512696Y1091564D01*
Y1094103D01*
X2510157Y1096642D01*
X2505078D01*
X2502539Y1094103D01*
X2525392Y1081407D02*
Y1096642D01*
X2517774Y1089025D01*
X2527931D01*
X192383Y1094102D02*
X189843Y1096641D01*
X184765D01*
X182226Y1094102D01*
Y1091563D01*
X184765Y1089024D01*
X189843D01*
X192383Y1086485D01*
Y1083946D01*
X189843Y1081406D01*
X184765D01*
X182226Y1083946D01*
X197461Y1096641D02*
Y1081406D01*
X202539Y1086485D01*
X207618Y1081406D01*
Y1096641D01*
X212696Y1081406D02*
X217774D01*
X215235D01*
Y1096641D01*
X212696Y1094102D01*
X1683495Y894103D02*
X1680956Y896642D01*
X1675878D01*
X1673339Y894103D01*
Y891564D01*
X1675878Y889025D01*
X1680956D01*
X1683495Y886485D01*
Y883946D01*
X1680956Y881407D01*
X1675878D01*
X1673339Y883946D01*
X1688574Y896642D02*
Y881407D01*
X1693652Y886485D01*
X1698730Y881407D01*
Y896642D01*
X1703809Y881407D02*
X1708887D01*
X1706348D01*
Y896642D01*
X1703809Y894103D01*
X1726661Y896642D02*
X1716505D01*
Y889025D01*
X1721583Y891564D01*
X1724122D01*
X1726661Y889025D01*
Y883946D01*
X1724122Y881407D01*
X1719044D01*
X1716505Y883946D01*
X1883495Y894103D02*
X1880956Y896642D01*
X1875878D01*
X1873339Y894103D01*
Y891564D01*
X1875878Y889025D01*
X1880956D01*
X1883495Y886485D01*
Y883946D01*
X1880956Y881407D01*
X1875878D01*
X1873339Y883946D01*
X1888574Y896642D02*
Y881407D01*
X1893652Y886485D01*
X1898730Y881407D01*
Y896642D01*
X1903809Y881407D02*
X1908887D01*
X1906348D01*
Y896642D01*
X1903809Y894103D01*
X1916505D02*
X1919044Y896642D01*
X1924122D01*
X1926661Y894103D01*
Y891564D01*
X1924122Y889025D01*
X1926661Y886485D01*
Y883946D01*
X1924122Y881407D01*
X1919044D01*
X1916505Y883946D01*
Y886485D01*
X1919044Y889025D01*
X1916505Y891564D01*
Y894103D01*
X1919044Y889025D02*
X1924122D01*
X2082226Y894103D02*
X2079687Y896642D01*
X2074608D01*
X2072069Y894103D01*
Y891564D01*
X2074608Y889025D01*
X2079687D01*
X2082226Y886485D01*
Y883946D01*
X2079687Y881407D01*
X2074608D01*
X2072069Y883946D01*
X2087304Y896642D02*
Y881407D01*
X2092383Y886485D01*
X2097461Y881407D01*
Y896642D01*
X2112696Y881407D02*
X2102539D01*
X2112696Y891564D01*
Y894103D01*
X2110157Y896642D01*
X2105078D01*
X2102539Y894103D01*
X2117774D02*
X2120313Y896642D01*
X2125392D01*
X2127931Y894103D01*
Y883946D01*
X2125392Y881407D01*
X2120313D01*
X2117774Y883946D01*
Y894103D01*
X2482226D02*
X2479687Y896642D01*
X2474608D01*
X2472069Y894103D01*
Y891564D01*
X2474608Y889025D01*
X2479687D01*
X2482226Y886485D01*
Y883946D01*
X2479687Y881407D01*
X2474608D01*
X2472069Y883946D01*
X2487304Y896642D02*
Y881407D01*
X2492383Y886485D01*
X2497461Y881407D01*
Y896642D01*
X2512696Y881407D02*
X2502539D01*
X2512696Y891564D01*
Y894103D01*
X2510157Y896642D01*
X2505078D01*
X2502539Y894103D01*
X2527931Y896642D02*
X2517774D01*
Y889025D01*
X2522853Y891564D01*
X2525392D01*
X2527931Y889025D01*
Y883946D01*
X2525392Y881407D01*
X2520314D01*
X2517774Y883946D01*
X189843Y894102D02*
X187304Y896641D01*
X182226D01*
X179687Y894102D01*
Y891563D01*
X182226Y889024D01*
X187304D01*
X189843Y886485D01*
Y883946D01*
X187304Y881406D01*
X182226D01*
X179687Y883946D01*
X194922Y896641D02*
Y881406D01*
X200000Y886485D01*
X205078Y881406D01*
Y896641D01*
X220313Y881406D02*
X210157D01*
X220313Y891563D01*
Y894102D01*
X217774Y896641D01*
X212696D01*
X210157Y894102D01*
X389843D02*
X387304Y896641D01*
X382226D01*
X379687Y894102D01*
Y891563D01*
X382226Y889024D01*
X387304D01*
X389843Y886485D01*
Y883946D01*
X387304Y881406D01*
X382226D01*
X379687Y883946D01*
X394922Y896641D02*
Y881406D01*
X400000Y886485D01*
X405078Y881406D01*
Y896641D01*
X417774Y881406D02*
Y896641D01*
X410157Y889024D01*
X420313D01*
X589843Y894102D02*
X587304Y896641D01*
X582226D01*
X579687Y894102D01*
Y891563D01*
X582226Y889024D01*
X587304D01*
X589843Y886485D01*
Y883946D01*
X587304Y881406D01*
X582226D01*
X579687Y883946D01*
X594922Y896641D02*
Y881406D01*
X600000Y886485D01*
X605078Y881406D01*
Y896641D01*
X620313D02*
X615235Y894102D01*
X610157Y889024D01*
Y883946D01*
X612696Y881406D01*
X617774D01*
X620313Y883946D01*
Y886485D01*
X617774Y889024D01*
X610157D01*
X789843Y894102D02*
X787304Y896641D01*
X782226D01*
X779687Y894102D01*
Y891563D01*
X782226Y889024D01*
X787304D01*
X789843Y886485D01*
Y883945D01*
X787304Y881406D01*
X782226D01*
X779687Y883945D01*
X794922Y896641D02*
Y881406D01*
X800000Y886485D01*
X805078Y881406D01*
Y896641D01*
X810157Y894102D02*
X812696Y896641D01*
X817774D01*
X820313Y894102D01*
Y891563D01*
X817774Y889024D01*
X820313Y886485D01*
Y883945D01*
X817774Y881406D01*
X812696D01*
X810157Y883945D01*
Y886485D01*
X812696Y889024D01*
X810157Y891563D01*
Y894102D01*
X812696Y889024D02*
X817774D01*
X2282226Y894103D02*
X2279687Y896642D01*
X2274608D01*
X2272069Y894103D01*
Y891564D01*
X2274608Y889025D01*
X2279687D01*
X2282226Y886485D01*
Y883946D01*
X2279687Y881407D01*
X2274608D01*
X2272069Y883946D01*
X2287304Y896642D02*
Y881407D01*
X2292383Y886485D01*
X2297461Y881407D01*
Y896642D01*
X2312696Y881407D02*
X2302539D01*
X2312696Y891564D01*
Y894103D01*
X2310157Y896642D01*
X2305078D01*
X2302539Y894103D01*
X2327931Y881407D02*
X2317774D01*
X2327931Y891564D01*
Y894103D01*
X2325392Y896642D01*
X2320313D01*
X2317774Y894103D01*
X986035Y694102D02*
X983495Y696641D01*
X978417D01*
X975878Y694102D01*
Y691563D01*
X978417Y689024D01*
X983495D01*
X986035Y686485D01*
Y683946D01*
X983495Y681406D01*
X978417D01*
X975878Y683946D01*
X991113Y696641D02*
Y681406D01*
X996191Y686485D01*
X1001270Y681406D01*
Y696641D01*
X1006348Y681406D02*
X1011426D01*
X1008887D01*
Y696641D01*
X1006348Y694102D01*
X1019044Y681406D02*
X1024122D01*
X1021583D01*
Y696641D01*
X1019044Y694102D01*
X1883495Y694103D02*
X1880956Y696642D01*
X1875878D01*
X1873339Y694103D01*
Y691564D01*
X1875878Y689025D01*
X1880956D01*
X1883495Y686485D01*
Y683946D01*
X1880956Y681407D01*
X1875878D01*
X1873339Y683946D01*
X1888574Y696642D02*
Y681407D01*
X1893652Y686485D01*
X1898730Y681407D01*
Y696642D01*
X1903809Y681407D02*
X1908887D01*
X1906348D01*
Y696642D01*
X1903809Y694103D01*
X1916505Y683946D02*
X1919044Y681407D01*
X1924122D01*
X1926661Y683946D01*
Y694103D01*
X1924122Y696642D01*
X1919044D01*
X1916505Y694103D01*
Y691564D01*
X1919044Y689025D01*
X1926661D01*
X2084765Y694103D02*
X2082226Y696642D01*
X2077147D01*
X2074608Y694103D01*
Y691564D01*
X2077147Y689025D01*
X2082226D01*
X2084765Y686485D01*
Y683946D01*
X2082226Y681407D01*
X2077147D01*
X2074608Y683946D01*
X2089843Y696642D02*
Y681407D01*
X2094922Y686485D01*
X2100000Y681407D01*
Y696642D01*
X2115235Y681407D02*
X2105078D01*
X2115235Y691564D01*
Y694103D01*
X2112696Y696642D01*
X2107618D01*
X2105078Y694103D01*
X2120313Y681407D02*
X2125392D01*
X2122853D01*
Y696642D01*
X2120313Y694103D01*
X2482226D02*
X2479687Y696642D01*
X2474608D01*
X2472069Y694103D01*
Y691564D01*
X2474608Y689025D01*
X2479687D01*
X2482226Y686485D01*
Y683946D01*
X2479687Y681407D01*
X2474608D01*
X2472069Y683946D01*
X2487304Y696642D02*
Y681407D01*
X2492383Y686485D01*
X2497461Y681407D01*
Y696642D01*
X2512696Y681407D02*
X2502539D01*
X2512696Y691564D01*
Y694103D01*
X2510157Y696642D01*
X2505078D01*
X2502539Y694103D01*
X2527931Y696642D02*
X2522853Y694103D01*
X2517774Y689025D01*
Y683946D01*
X2520314Y681407D01*
X2525392D01*
X2527931Y683946D01*
Y686485D01*
X2525392Y689025D01*
X2517774D01*
X189843Y694102D02*
X187304Y696641D01*
X182226D01*
X179687Y694102D01*
Y691563D01*
X182226Y689024D01*
X187304D01*
X189843Y686485D01*
Y683946D01*
X187304Y681406D01*
X182226D01*
X179687Y683946D01*
X194922Y696641D02*
Y681406D01*
X200000Y686485D01*
X205078Y681406D01*
Y696641D01*
X210157Y694102D02*
X212696Y696641D01*
X217774D01*
X220313Y694102D01*
Y691563D01*
X217774Y689024D01*
X215235D01*
X217774D01*
X220313Y686485D01*
Y683946D01*
X217774Y681406D01*
X212696D01*
X210157Y683946D01*
X589843Y694102D02*
X587304Y696641D01*
X582226D01*
X579687Y694102D01*
Y691563D01*
X582226Y689024D01*
X587304D01*
X589843Y686485D01*
Y683945D01*
X587304Y681406D01*
X582226D01*
X579687Y683945D01*
X594922Y696641D02*
Y681406D01*
X600000Y686485D01*
X605078Y681406D01*
Y696641D01*
X610157D02*
X620313D01*
Y694102D01*
X610157Y683945D01*
Y681406D01*
X789843Y694102D02*
X787304Y696641D01*
X782226D01*
X779687Y694102D01*
Y691563D01*
X782226Y689024D01*
X787304D01*
X789843Y686485D01*
Y683945D01*
X787304Y681406D01*
X782226D01*
X779687Y683945D01*
X794922Y696641D02*
Y681406D01*
X800000Y686485D01*
X805078Y681406D01*
Y696641D01*
X810157Y683945D02*
X812696Y681406D01*
X817774D01*
X820313Y683945D01*
Y694102D01*
X817774Y696641D01*
X812696D01*
X810157Y694102D01*
Y691563D01*
X812696Y689024D01*
X820313D01*
X2282226Y694103D02*
X2279687Y696642D01*
X2274608D01*
X2272069Y694103D01*
Y691564D01*
X2274608Y689025D01*
X2279687D01*
X2282226Y686485D01*
Y683946D01*
X2279687Y681407D01*
X2274608D01*
X2272069Y683946D01*
X2287304Y696642D02*
Y681407D01*
X2292383Y686485D01*
X2297461Y681407D01*
Y696642D01*
X2312696Y681407D02*
X2302539D01*
X2312696Y691564D01*
Y694103D01*
X2310157Y696642D01*
X2305078D01*
X2302539Y694103D01*
X2317774D02*
X2320313Y696642D01*
X2325392D01*
X2327931Y694103D01*
Y691564D01*
X2325392Y689025D01*
X2322853D01*
X2325392D01*
X2327931Y686485D01*
Y683946D01*
X2325392Y681407D01*
X2320313D01*
X2317774Y683946D01*
X389843Y694102D02*
X387304Y696641D01*
X382226D01*
X379687Y694102D01*
Y691563D01*
X382226Y689024D01*
X387304D01*
X389843Y686485D01*
Y683945D01*
X387304Y681406D01*
X382226D01*
X379687Y683945D01*
X394922Y696641D02*
Y681406D01*
X400000Y686485D01*
X405078Y681406D01*
Y696641D01*
X420313D02*
X410157D01*
Y689024D01*
X415235Y691563D01*
X417774D01*
X420313Y689024D01*
Y683945D01*
X417774Y681406D01*
X412696D01*
X410157Y683945D01*
X983495Y244102D02*
X980956Y246642D01*
X975878D01*
X973339Y244102D01*
Y241563D01*
X975878Y239024D01*
X980956D01*
X983495Y236485D01*
Y233946D01*
X980956Y231406D01*
X975878D01*
X973339Y233946D01*
X988574Y246642D02*
Y231406D01*
X993652Y236485D01*
X998730Y231406D01*
Y246642D01*
X1003809Y231406D02*
X1008887D01*
X1006348D01*
Y246642D01*
X1003809Y244102D01*
X1026661Y231406D02*
X1016505D01*
X1026661Y241563D01*
Y244102D01*
X1024122Y246642D01*
X1019044D01*
X1016505Y244102D01*
X1483495Y244103D02*
X1480956Y246642D01*
X1475878D01*
X1473339Y244103D01*
Y241564D01*
X1475878Y239025D01*
X1480956D01*
X1483495Y236485D01*
Y233946D01*
X1480956Y231407D01*
X1475878D01*
X1473339Y233946D01*
X1488574Y246642D02*
Y231407D01*
X1493652Y236485D01*
X1498730Y231407D01*
Y246642D01*
X1503809Y231407D02*
X1508887D01*
X1506348D01*
Y246642D01*
X1503809Y244103D01*
X1524122Y231407D02*
Y246642D01*
X1516505Y239025D01*
X1526661D01*
X1683495Y244103D02*
X1680956Y246642D01*
X1675878D01*
X1673339Y244103D01*
Y241564D01*
X1675878Y239025D01*
X1680956D01*
X1683495Y236485D01*
Y233946D01*
X1680956Y231407D01*
X1675878D01*
X1673339Y233946D01*
X1688574Y246642D02*
Y231407D01*
X1693652Y236485D01*
X1698730Y231407D01*
Y246642D01*
X1703809Y231407D02*
X1708887D01*
X1706348D01*
Y246642D01*
X1703809Y244103D01*
X1716505Y246642D02*
X1726661D01*
Y244103D01*
X1716505Y233946D01*
Y231407D01*
X783495Y244102D02*
X780956Y246642D01*
X775878D01*
X773339Y244102D01*
Y241563D01*
X775878Y239024D01*
X780956D01*
X783495Y236485D01*
Y233946D01*
X780956Y231406D01*
X775878D01*
X773339Y233946D01*
X788574Y246642D02*
Y231406D01*
X793652Y236485D01*
X798730Y231406D01*
Y246642D01*
X803809Y231406D02*
X808887D01*
X806348D01*
Y246642D01*
X803809Y244102D01*
X816505D02*
X819044Y246642D01*
X824122D01*
X826661Y244102D01*
Y233946D01*
X824122Y231406D01*
X819044D01*
X816505Y233946D01*
Y244102D01*
X1113020Y35841D02*
X1115559Y33302D01*
X1120638D01*
X1123177Y35841D01*
Y45998D01*
X1120638Y48537D01*
X1115559D01*
X1113020Y45998D01*
X1100324Y48537D02*
Y33302D01*
X1107942Y40919D01*
X1097785D01*
X1157159Y676020D02*
X1159698Y678559D01*
Y683638D01*
X1157159Y686177D01*
X1147002D01*
X1144463Y683638D01*
Y678559D01*
X1147002Y676020D01*
X1157159Y670942D02*
X1159698Y668403D01*
Y663324D01*
X1157159Y660785D01*
X1154620D01*
X1152081Y663324D01*
Y665864D01*
Y663324D01*
X1149541Y660785D01*
X1147002D01*
X1144463Y663324D01*
Y668403D01*
X1147002Y670942D01*
M02*
