G04*
G04 #@! TF.GenerationSoftware,Altium Limited,Altium Designer,23.10.1 (27)*
G04*
G04 Layer_Color=2752767*
%FSLAX44Y44*%
%MOMM*%
G71*
G04*
G04 #@! TF.SameCoordinates,93BA021C-4F65-4C52-B2D2-680D5BDB3C73*
G04*
G04*
G04 #@! TF.FilePolarity,Positive*
G04*
G01*
G75*
%ADD31C,0.1270*%
%ADD32C,0.1693*%
D31*
X769920Y732420D02*
Y742580D01*
X780080D01*
Y732420D01*
X769920D01*
Y857420D02*
Y867580D01*
X780080D01*
Y857420D01*
X769920D01*
X819920Y732420D02*
Y742580D01*
X830080D01*
Y732420D01*
X819920D01*
Y857420D02*
Y867580D01*
X830080D01*
Y857420D01*
X819920D01*
X1869920Y732420D02*
Y742580D01*
X1880080D01*
Y732420D01*
X1869920D01*
X2519920Y1057420D02*
Y1067580D01*
X2530080D01*
Y1057420D01*
X2519920D01*
Y932420D02*
Y942580D01*
X2530080D01*
Y932420D01*
X2519920D01*
X2469920Y1057420D02*
Y1067580D01*
X2480080D01*
Y1057420D01*
X2469920D01*
Y932420D02*
Y942580D01*
X2480080D01*
Y932420D01*
X2469920D01*
Y732420D02*
Y742580D01*
X2480080D01*
Y732420D01*
X2469920D01*
Y857420D02*
Y867580D01*
X2480080D01*
Y857420D01*
X2469920D01*
X2519920Y732420D02*
Y742580D01*
X2530080D01*
Y732420D01*
X2519920D01*
Y857420D02*
Y867580D01*
X2530080D01*
Y857420D01*
X2519920D01*
X2119920Y532420D02*
Y542580D01*
X2130080D01*
Y532420D01*
X2119920D01*
X2069920Y657420D02*
Y667580D01*
X2080080D01*
Y657420D01*
X2069920D01*
Y532420D02*
Y542580D01*
X2080080D01*
Y532420D01*
X2069920D01*
X1719920Y657420D02*
Y667580D01*
X1730080D01*
Y657420D01*
X1719920D01*
Y532420D02*
Y542580D01*
X1730080D01*
Y532420D01*
X1719920D01*
X1669920Y657420D02*
Y667580D01*
X1680080D01*
Y657420D01*
X1669920D01*
Y532420D02*
Y542580D01*
X1680080D01*
Y532420D01*
X1669920D01*
X1519920Y657420D02*
Y667580D01*
X1530080D01*
Y657420D01*
X1519920D01*
Y532420D02*
Y542580D01*
X1530080D01*
Y532420D01*
X1519920D01*
X1469920Y657420D02*
Y667580D01*
X1480080D01*
Y657420D01*
X1469920D01*
Y532420D02*
Y542580D01*
X1480080D01*
Y532420D01*
X1469920D01*
X1719920Y857420D02*
Y867580D01*
X1730080D01*
Y857420D01*
X1719920D01*
Y732420D02*
Y742580D01*
X1730080D01*
Y732420D01*
X1719920D01*
X1669920Y857420D02*
Y867580D01*
X1680080D01*
Y857420D01*
X1669920D01*
Y732420D02*
Y742580D01*
X1680080D01*
Y732420D01*
X1669920D01*
X2519920Y657420D02*
Y667580D01*
X2530080D01*
Y657420D01*
X2519920D01*
Y532420D02*
Y542580D01*
X2530080D01*
Y532420D01*
X2519920D01*
X2469920Y657420D02*
Y667580D01*
X2480080D01*
Y657420D01*
X2469920D01*
Y532420D02*
Y542580D01*
X2480080D01*
Y532420D01*
X2469920D01*
X2319920Y657420D02*
Y667580D01*
X2330080D01*
Y657420D01*
X2319920D01*
Y532420D02*
Y542580D01*
X2330080D01*
Y532420D01*
X2319920D01*
X2269920Y657420D02*
Y667580D01*
X2280080D01*
Y657420D01*
X2269920D01*
Y532420D02*
Y542580D01*
X2280080D01*
Y532420D01*
X2269920D01*
X2319920Y857420D02*
Y867580D01*
X2330080D01*
Y857420D01*
X2319920D01*
Y732420D02*
Y742580D01*
X2330080D01*
Y732420D01*
X2319920D01*
X2269920Y857420D02*
Y867580D01*
X2280080D01*
Y857420D01*
X2269920D01*
Y732420D02*
Y742580D01*
X2280080D01*
Y732420D01*
X2269920D01*
X2119920Y857420D02*
Y867580D01*
X2130080D01*
Y857420D01*
X2119920D01*
Y732420D02*
Y742580D01*
X2130080D01*
Y732420D01*
X2119920D01*
X2069920Y857420D02*
Y867580D01*
X2080080D01*
Y857420D01*
X2069920D01*
Y732420D02*
Y742580D01*
X2080080D01*
Y732420D01*
X2069920D01*
X1919920Y857420D02*
Y867580D01*
X1930080D01*
Y857420D01*
X1919920D01*
Y732420D02*
Y742580D01*
X1930080D01*
Y732420D01*
X1919920D01*
X1869920Y857420D02*
Y867580D01*
X1880080D01*
Y857420D01*
X1869920D01*
X969920Y532420D02*
Y542579D01*
X980080D01*
Y532420D01*
X969920D01*
X819920Y207419D02*
Y217579D01*
X830080D01*
Y207419D01*
X819920D01*
Y82419D02*
Y92579D01*
X830080D01*
Y82419D01*
X819920D01*
X769920Y207419D02*
Y217579D01*
X780080D01*
Y207419D01*
X769920D01*
Y82419D02*
Y92579D01*
X780080D01*
Y82419D01*
X769920D01*
X819920Y657420D02*
Y667579D01*
X830080D01*
Y657420D01*
X819920D01*
Y532420D02*
Y542579D01*
X830080D01*
Y532420D01*
X819920D01*
X769920Y657420D02*
Y667579D01*
X780080D01*
Y657420D01*
X769920D01*
Y532420D02*
Y542579D01*
X780080D01*
Y532420D01*
X769920D01*
X619920Y857420D02*
Y867580D01*
X630080D01*
Y857420D01*
X619920D01*
Y732420D02*
Y742580D01*
X630080D01*
Y732420D01*
X619920D01*
X569920Y857420D02*
Y867580D01*
X580080D01*
Y857420D01*
X569920D01*
Y732420D02*
Y742580D01*
X580080D01*
Y732420D01*
X569920D01*
X419920Y857420D02*
Y867580D01*
X430080D01*
Y857420D01*
X419920D01*
Y732420D02*
Y742580D01*
X430080D01*
Y732420D01*
X419920D01*
X369920Y857420D02*
Y867580D01*
X380080D01*
Y857420D01*
X369920D01*
Y732420D02*
Y742580D01*
X380080D01*
Y732420D01*
X369920D01*
X619920Y657420D02*
Y667579D01*
X630080D01*
Y657420D01*
X619920D01*
Y532420D02*
Y542579D01*
X630080D01*
Y532420D01*
X619920D01*
X569920Y657420D02*
Y667579D01*
X580080D01*
Y657420D01*
X569920D01*
Y532420D02*
Y542579D01*
X580080D01*
Y532420D01*
X569920D01*
X419920Y657420D02*
Y667579D01*
X430080D01*
Y657420D01*
X419920D01*
Y532420D02*
Y542579D01*
X430080D01*
Y532420D01*
X419920D01*
X369920Y657420D02*
Y667579D01*
X380080D01*
Y657420D01*
X369920D01*
Y532420D02*
Y542579D01*
X380080D01*
Y532420D01*
X369920D01*
X219920Y1057419D02*
Y1067579D01*
X230080D01*
Y1057419D01*
X219920D01*
Y932419D02*
Y942579D01*
X230080D01*
Y932419D01*
X219920D01*
X169920Y1057419D02*
Y1067579D01*
X180080D01*
Y1057419D01*
X169920D01*
Y932419D02*
Y942579D01*
X180080D01*
Y932419D01*
X169920D01*
X219920Y857420D02*
Y867580D01*
X230080D01*
Y857420D01*
X219920D01*
Y732420D02*
Y742580D01*
X230080D01*
Y732420D01*
X219920D01*
X169920Y857420D02*
Y867580D01*
X180080D01*
Y857420D01*
X169920D01*
Y732420D02*
Y742580D01*
X180080D01*
Y732420D01*
X169920D01*
X219920Y657420D02*
Y667579D01*
X230080D01*
Y657420D01*
X219920D01*
Y532420D02*
Y542579D01*
X230080D01*
Y532420D01*
X219920D01*
X169920Y657420D02*
Y667579D01*
X180080D01*
Y657420D01*
X169920D01*
Y532420D02*
Y542579D01*
X180080D01*
Y532420D01*
X169920D01*
X2119920Y657420D02*
Y667580D01*
X2130080D01*
Y657420D01*
X2119920D01*
X1019920Y207419D02*
Y217579D01*
X1030080D01*
Y207419D01*
X1019920D01*
Y82419D02*
Y92579D01*
X1030080D01*
Y82419D01*
X1019920D01*
X969920Y207419D02*
Y217579D01*
X980080D01*
Y207419D01*
X969920D01*
Y82419D02*
Y92579D01*
X980080D01*
Y82419D01*
X969920D01*
X1519920Y207420D02*
Y217580D01*
X1530080D01*
Y207420D01*
X1519920D01*
Y82420D02*
Y92580D01*
X1530080D01*
Y82420D01*
X1519920D01*
X1469920Y207420D02*
Y217580D01*
X1480080D01*
Y207420D01*
X1469920D01*
Y82420D02*
Y92580D01*
X1480080D01*
Y82420D01*
X1469920D01*
X1919920Y657420D02*
Y667580D01*
X1930080D01*
Y657420D01*
X1919920D01*
Y532420D02*
Y542580D01*
X1930080D01*
Y532420D01*
X1919920D01*
X1869920Y657420D02*
Y667580D01*
X1880080D01*
Y657420D01*
X1869920D01*
Y532420D02*
Y542580D01*
X1880080D01*
Y532420D01*
X1869920D01*
X1744400Y44920D02*
X1739320Y55080D01*
X1749480D01*
X1744400Y44920D01*
X1719920Y207420D02*
Y217580D01*
X1730080D01*
Y207420D01*
X1719920D01*
Y82420D02*
Y92580D01*
X1730080D01*
Y82420D01*
X1719920D01*
X1669920Y207420D02*
Y217580D01*
X1680080D01*
Y207420D01*
X1669920D01*
Y82420D02*
Y92580D01*
X1680080D01*
Y82420D01*
X1669920D01*
X1019920Y657420D02*
Y667579D01*
X1030080D01*
Y657420D01*
X1019920D01*
Y532420D02*
Y542579D01*
X1030080D01*
Y532420D01*
X1019920D01*
X969920Y657420D02*
Y667579D01*
X980080D01*
Y657420D01*
X969920D01*
X1894920Y94920D02*
X1897460Y100000D01*
X1894920Y105080D01*
X1900000Y102540D01*
X1905080Y105080D01*
X1902540Y100000D01*
X1905080Y94920D01*
X1900000Y97460D01*
X1894920Y94920D01*
X1244920D02*
X1247460Y100000D01*
X1244920Y105080D01*
X1250000Y102540D01*
X1255080Y105080D01*
X1252540Y100000D01*
X1255080Y94920D01*
X1250000Y97460D01*
X1244920Y94920D01*
X594920D02*
X597460Y100000D01*
X594920Y105080D01*
X600000Y102540D01*
X605080Y105080D01*
X602540Y100000D01*
X605080Y94920D01*
X600000Y97460D01*
X594920Y94920D01*
X894920Y1094920D02*
X897460Y1100000D01*
X894920Y1105080D01*
X900000Y1102540D01*
X905080Y1105080D01*
X902540Y1100000D01*
X905080Y1094920D01*
X900000Y1097460D01*
X894920Y1094920D01*
X1894920D02*
X1897460Y1100000D01*
X1894920Y1105080D01*
X1900000Y1102540D01*
X1905080Y1105080D01*
X1902540Y1100000D01*
X1905080Y1094920D01*
X1900000Y1097460D01*
X1894920Y1094920D01*
X2594920D02*
X2597460Y1100000D01*
X2594920Y1105080D01*
X2600000Y1102540D01*
X2605080Y1105080D01*
X2602540Y1100000D01*
X2605080Y1094920D01*
X2600000Y1097460D01*
X2594920Y1094920D01*
Y94920D02*
X2597460Y100000D01*
X2594920Y105080D01*
X2600000Y102540D01*
X2605080Y105080D01*
X2602540Y100000D01*
X2605080Y94920D01*
X2600000Y97460D01*
X2594920Y94920D01*
X94920D02*
X97460Y100000D01*
X94920Y105080D01*
X100000Y102540D01*
X105080Y105080D01*
X102540Y100000D01*
X105080Y94920D01*
X100000Y97460D01*
X94920Y94920D01*
Y1094920D02*
X97460Y1100000D01*
X94920Y1105080D01*
X100000Y1102540D01*
X105080Y1105080D01*
X102540Y1100000D01*
X105080Y1094920D01*
X100000Y1097460D01*
X94920Y1094920D01*
X2539320Y894920D02*
Y905080D01*
X2549480D01*
Y894920D01*
X2539320D01*
X2450520D02*
Y905080D01*
X2460680D01*
Y894920D01*
X2450520D01*
X2539320Y694920D02*
Y705080D01*
X2549480D01*
Y694920D01*
X2539320D01*
X2450520D02*
Y705080D01*
X2460680D01*
Y694920D01*
X2450520D01*
X2139320D02*
Y705080D01*
X2149480D01*
Y694920D01*
X2139320D01*
X2050520D02*
Y705080D01*
X2060680D01*
Y694920D01*
X2050520D01*
X2339320D02*
Y705080D01*
X2349480D01*
Y694920D01*
X2339320D01*
X2250520D02*
Y705080D01*
X2260680D01*
Y694920D01*
X2250520D01*
X2539320Y494920D02*
Y505080D01*
X2549480D01*
Y494920D01*
X2539320D01*
X2450520D02*
Y505080D01*
X2460680D01*
Y494920D01*
X2450520D01*
X2339320D02*
Y505080D01*
X2349480D01*
Y494920D01*
X2339320D01*
X2250520D02*
Y505080D01*
X2260680D01*
Y494920D01*
X2250520D01*
X1739320Y694920D02*
Y705080D01*
X1749480D01*
Y694920D01*
X1739320D01*
X1650520D02*
Y705080D01*
X1660680D01*
Y694920D01*
X1650520D01*
X2139320Y494920D02*
Y505080D01*
X2149480D01*
Y494920D01*
X2139320D01*
X2050520D02*
Y505080D01*
X2060680D01*
Y494920D01*
X2050520D01*
X239320Y694920D02*
Y705079D01*
X249480D01*
Y694920D01*
X239320D01*
X150520D02*
Y705079D01*
X160680D01*
Y694920D01*
X150520D01*
X239320Y894920D02*
Y905080D01*
X249480D01*
Y894920D01*
X239320D01*
X150520D02*
Y905080D01*
X160680D01*
Y894920D01*
X150520D01*
X439320Y694920D02*
Y705079D01*
X449480D01*
Y694920D01*
X439320D01*
X350520D02*
Y705079D01*
X360680D01*
Y694920D01*
X350520D01*
X239320Y494919D02*
Y505079D01*
X249480D01*
Y494919D01*
X239320D01*
X150520D02*
Y505079D01*
X160680D01*
Y494919D01*
X150520D01*
X439320D02*
Y505079D01*
X449480D01*
Y494919D01*
X439320D01*
X350520D02*
Y505079D01*
X360680D01*
Y494919D01*
X350520D01*
X639320D02*
Y505079D01*
X649480D01*
Y494919D01*
X639320D01*
X550520D02*
Y505079D01*
X560680D01*
Y494919D01*
X550520D01*
X839320D02*
Y505079D01*
X849480D01*
Y494919D01*
X839320D01*
X750520D02*
Y505079D01*
X760680D01*
Y494919D01*
X750520D01*
X639320Y694920D02*
Y705079D01*
X649480D01*
Y694920D01*
X639320D01*
X550520D02*
Y705079D01*
X560680D01*
Y694920D01*
X550520D01*
X839320D02*
Y705079D01*
X849480D01*
Y694920D01*
X839320D01*
X750520D02*
Y705079D01*
X760680D01*
Y694920D01*
X750520D01*
X1039320Y494919D02*
Y505079D01*
X1049480D01*
Y494919D01*
X1039320D01*
X950520D02*
Y505079D01*
X960680D01*
Y494919D01*
X950520D01*
X1650520Y44920D02*
Y55080D01*
X1660680D01*
Y44920D01*
X1650520D01*
X1739320Y494920D02*
Y505080D01*
X1749480D01*
Y494920D01*
X1739320D01*
X1650520D02*
Y505080D01*
X1660680D01*
Y494920D01*
X1650520D01*
X1939320D02*
Y505080D01*
X1949480D01*
Y494920D01*
X1939320D01*
X1850520D02*
Y505080D01*
X1860680D01*
Y494920D01*
X1850520D01*
X1939320Y694920D02*
Y705080D01*
X1949480D01*
Y694920D01*
X1939320D01*
X1850520D02*
Y705080D01*
X1860680D01*
Y694920D01*
X1850520D01*
X1539320Y44920D02*
Y55080D01*
X1549480D01*
Y44920D01*
X1539320D01*
X1450520D02*
Y55080D01*
X1460680D01*
Y44920D01*
X1450520D01*
X1539320Y494920D02*
Y505080D01*
X1549480D01*
Y494920D01*
X1539320D01*
X1450520D02*
Y505080D01*
X1460680D01*
Y494920D01*
X1450520D01*
X1039320Y44919D02*
Y55079D01*
X1049480D01*
Y44919D01*
X1039320D01*
X950520D02*
Y55079D01*
X960680D01*
Y44919D01*
X950520D01*
X839930D02*
Y55079D01*
X850090D01*
Y44919D01*
X839930D01*
X751130D02*
Y55079D01*
X761290D01*
Y44919D01*
X751130D01*
X1228000Y856920D02*
X1230540Y859460D01*
X1233080D01*
X1230540Y862000D01*
X1233080Y864540D01*
X1230540D01*
X1228000Y867080D01*
X1225460Y864540D01*
X1222920D01*
X1225460Y862000D01*
X1222920Y859460D01*
X1225460D01*
X1228000Y856920D01*
X1131000Y780920D02*
X1133540Y783460D01*
X1136080D01*
X1133540Y786000D01*
X1136080Y788540D01*
X1133540D01*
X1131000Y791080D01*
X1128460Y788540D01*
X1125920D01*
X1128460Y786000D01*
X1125920Y783460D01*
X1128460D01*
X1131000Y780920D01*
X320000Y921920D02*
X322540Y924460D01*
X325080D01*
X322540Y927000D01*
X325080Y929540D01*
X322540D01*
X320000Y932080D01*
X317460Y929540D01*
X314920D01*
X317460Y927000D01*
X314920Y924460D01*
X317460D01*
X320000Y921920D01*
X556000Y941920D02*
X558540Y944460D01*
X561080D01*
X558540Y947000D01*
X561080Y949540D01*
X558540D01*
X556000Y952080D01*
X553460Y949540D01*
X550920D01*
X553460Y947000D01*
X550920Y944460D01*
X553460D01*
X556000Y941920D01*
X1155000Y650920D02*
X1157540Y653460D01*
X1160080D01*
X1157540Y656000D01*
X1160080Y658540D01*
X1157540D01*
X1155000Y661080D01*
X1152460Y658540D01*
X1149920D01*
X1152460Y656000D01*
X1149920Y653460D01*
X1152460D01*
X1155000Y650920D01*
X1083000Y513920D02*
X1085540Y516460D01*
X1088080D01*
X1085540Y519000D01*
X1088080Y521540D01*
X1085540D01*
X1083000Y524080D01*
X1080460Y521540D01*
X1077920D01*
X1080460Y519000D01*
X1077920Y516460D01*
X1080460D01*
X1083000Y513920D01*
X1025000Y461920D02*
X1027540Y464460D01*
X1030080D01*
X1027540Y467000D01*
X1030080Y469540D01*
X1027540D01*
X1025000Y472080D01*
X1022460Y469540D01*
X1019920D01*
X1022460Y467000D01*
X1019920Y464460D01*
X1022460D01*
X1025000Y461920D01*
X825000Y456920D02*
X827540Y459460D01*
X830080D01*
X827540Y462000D01*
X830080Y464540D01*
X827540D01*
X825000Y467080D01*
X822460Y464540D01*
X819920D01*
X822460Y462000D01*
X819920Y459460D01*
X822460D01*
X825000Y456920D01*
X1525000Y466920D02*
X1527540Y469460D01*
X1530080D01*
X1527540Y472000D01*
X1530080Y474540D01*
X1527540D01*
X1525000Y477080D01*
X1522460Y474540D01*
X1519920D01*
X1522460Y472000D01*
X1519920Y469460D01*
X1522460D01*
X1525000Y466920D01*
X1725000Y462920D02*
X1727540Y465460D01*
X1730080D01*
X1727540Y468000D01*
X1730080Y470540D01*
X1727540D01*
X1725000Y473080D01*
X1722460Y470540D01*
X1719920D01*
X1722460Y468000D01*
X1719920Y465460D01*
X1722460D01*
X1725000Y462920D01*
D32*
X1186640Y1090500D02*
G03*
X1186640Y1090500I-5080J0D01*
G01*
Y1065100D02*
G03*
X1186640Y1065100I-5080J0D01*
G01*
Y1039700D02*
G03*
X1186640Y1039700I-5080J0D01*
G01*
Y1014300D02*
G03*
X1186640Y1014300I-5080J0D01*
G01*
Y988900D02*
G03*
X1186640Y988900I-5080J0D01*
G01*
Y963500D02*
G03*
X1186640Y963500I-5080J0D01*
G01*
Y938100D02*
G03*
X1186640Y938100I-5080J0D01*
G01*
Y912700D02*
G03*
X1186640Y912700I-5080J0D01*
G01*
Y887300D02*
G03*
X1186640Y887300I-5080J0D01*
G01*
Y861900D02*
G03*
X1186640Y861900I-5080J0D01*
G01*
Y836500D02*
G03*
X1186640Y836500I-5080J0D01*
G01*
Y811100D02*
G03*
X1186640Y811100I-5080J0D01*
G01*
Y785700D02*
G03*
X1186640Y785700I-5080J0D01*
G01*
Y760300D02*
G03*
X1186640Y760300I-5080J0D01*
G01*
Y734900D02*
G03*
X1186640Y734900I-5080J0D01*
G01*
Y709500D02*
G03*
X1186640Y709500I-5080J0D01*
G01*
Y658700D02*
G03*
X1186640Y658700I-5080J0D01*
G01*
Y684100D02*
G03*
X1186640Y684100I-5080J0D01*
G01*
Y1115900D02*
G03*
X1186640Y1115900I-5080J0D01*
G01*
Y1141300D02*
G03*
X1186640Y1141300I-5080J0D01*
G01*
X1338840D02*
G03*
X1338840Y1141300I-5080J0D01*
G01*
Y1115900D02*
G03*
X1338840Y1115900I-5080J0D01*
G01*
Y1090500D02*
G03*
X1338840Y1090500I-5080J0D01*
G01*
Y1065100D02*
G03*
X1338840Y1065100I-5080J0D01*
G01*
Y1039700D02*
G03*
X1338840Y1039700I-5080J0D01*
G01*
Y1014300D02*
G03*
X1338840Y1014300I-5080J0D01*
G01*
Y988900D02*
G03*
X1338840Y988900I-5080J0D01*
G01*
Y963500D02*
G03*
X1338840Y963500I-5080J0D01*
G01*
Y938100D02*
G03*
X1338840Y938100I-5080J0D01*
G01*
Y912700D02*
G03*
X1338840Y912700I-5080J0D01*
G01*
Y887300D02*
G03*
X1338840Y887300I-5080J0D01*
G01*
Y861900D02*
G03*
X1338840Y861900I-5080J0D01*
G01*
Y836500D02*
G03*
X1338840Y836500I-5080J0D01*
G01*
Y811100D02*
G03*
X1338840Y811100I-5080J0D01*
G01*
Y785700D02*
G03*
X1338840Y785700I-5080J0D01*
G01*
Y760300D02*
G03*
X1338840Y760300I-5080J0D01*
G01*
Y734900D02*
G03*
X1338840Y734900I-5080J0D01*
G01*
Y709500D02*
G03*
X1338840Y709500I-5080J0D01*
G01*
Y684100D02*
G03*
X1338840Y684100I-5080J0D01*
G01*
Y658700D02*
G03*
X1338840Y658700I-5080J0D01*
G01*
M02*
