G04*
G04 #@! TF.GenerationSoftware,Altium Limited,Altium Designer,23.10.1 (27)*
G04*
G04 Layer_Physical_Order=2*
G04 Layer_Color=16711680*
%FSLAX44Y44*%
%MOMM*%
G71*
G04*
G04 #@! TF.SameCoordinates,93BA021C-4F65-4C52-B2D2-680D5BDB3C73*
G04*
G04*
G04 #@! TF.FilePolarity,Positive*
G04*
G01*
G75*
%ADD17R,1.7000X1.7000*%
%ADD18C,1.7000*%
%ADD21R,1.4000X1.4000*%
%ADD23R,1.5500X1.5500*%
%ADD24C,1.5500*%
%ADD26C,0.5000*%
%ADD27O,1.4000X1.5000*%
%ADD28R,1.4000X1.5000*%
%ADD29C,3.2000*%
%ADD30C,1.2700*%
G36*
X2695000Y1185000D02*
Y15000D01*
X2685000Y5000D01*
X14000D01*
X5000Y14000D01*
Y1190000D01*
X10000Y1195000D01*
X2685000D01*
X2695000Y1185000D01*
D02*
G37*
%LPC*%
G36*
X1343300Y1151340D02*
X1324220D01*
Y1131260D01*
X1343300D01*
Y1151340D01*
D02*
G37*
G36*
X1191100D02*
X1172020D01*
Y1131260D01*
X1191100D01*
Y1151340D01*
D02*
G37*
G36*
X1182830Y1125855D02*
Y1117170D01*
X1191081D01*
X1190855Y1118891D01*
X1189893Y1121211D01*
X1188364Y1123204D01*
X1186371Y1124733D01*
X1184051Y1125695D01*
X1182830Y1125855D01*
D02*
G37*
G36*
X1180290D02*
X1179070Y1125695D01*
X1176749Y1124733D01*
X1174756Y1123204D01*
X1173227Y1121211D01*
X1172266Y1118891D01*
X1172039Y1117170D01*
X1180290D01*
Y1125855D01*
D02*
G37*
G36*
X1191081Y1114630D02*
X1182830D01*
Y1105945D01*
X1184051Y1106106D01*
X1186371Y1107067D01*
X1188364Y1108596D01*
X1189893Y1110589D01*
X1190855Y1112910D01*
X1191081Y1114630D01*
D02*
G37*
G36*
X1180290D02*
X1172039D01*
X1172266Y1112910D01*
X1173227Y1110589D01*
X1174756Y1108596D01*
X1176749Y1107067D01*
X1179070Y1106106D01*
X1180290Y1105945D01*
Y1114630D01*
D02*
G37*
G36*
X1333760Y1126022D02*
X1331270Y1125695D01*
X1328949Y1124733D01*
X1326956Y1123204D01*
X1325427Y1121211D01*
X1324466Y1118891D01*
X1324138Y1116400D01*
Y1115400D01*
X1324466Y1112910D01*
X1325427Y1110589D01*
X1326956Y1108596D01*
X1328949Y1107067D01*
X1331270Y1106106D01*
X1333760Y1105778D01*
X1336250Y1106106D01*
X1338571Y1107067D01*
X1340564Y1108596D01*
X1342093Y1110589D01*
X1343054Y1112910D01*
X1343382Y1115400D01*
Y1116400D01*
X1343054Y1118891D01*
X1342093Y1121211D01*
X1340564Y1123204D01*
X1338571Y1124733D01*
X1336250Y1125695D01*
X1333760Y1126022D01*
D02*
G37*
G36*
X2601826Y1118540D02*
X2598174D01*
X2594592Y1117828D01*
X2591218Y1116430D01*
X2588181Y1114401D01*
X2585599Y1111819D01*
X2583570Y1108782D01*
X2582173Y1105408D01*
X2581460Y1101826D01*
Y1098174D01*
X2582173Y1094592D01*
X2583570Y1091218D01*
X2585599Y1088181D01*
X2588181Y1085599D01*
X2591218Y1083570D01*
X2594592Y1082172D01*
X2598174Y1081460D01*
X2601826D01*
X2605408Y1082172D01*
X2608782Y1083570D01*
X2611819Y1085599D01*
X2614401Y1088181D01*
X2616430Y1091218D01*
X2617827Y1094592D01*
X2618540Y1098174D01*
Y1101826D01*
X2617827Y1105408D01*
X2616430Y1108782D01*
X2614401Y1111819D01*
X2611819Y1114401D01*
X2608782Y1116430D01*
X2605408Y1117828D01*
X2601826Y1118540D01*
D02*
G37*
G36*
X1901826D02*
X1898174D01*
X1894592Y1117828D01*
X1891218Y1116430D01*
X1888181Y1114401D01*
X1885599Y1111819D01*
X1883570Y1108782D01*
X1882173Y1105408D01*
X1881460Y1101826D01*
Y1098174D01*
X1882173Y1094592D01*
X1883570Y1091218D01*
X1885599Y1088181D01*
X1888181Y1085599D01*
X1891218Y1083570D01*
X1894592Y1082172D01*
X1898174Y1081460D01*
X1901826D01*
X1905408Y1082172D01*
X1908782Y1083570D01*
X1911819Y1085599D01*
X1914401Y1088181D01*
X1916430Y1091218D01*
X1917827Y1094592D01*
X1918540Y1098174D01*
Y1101826D01*
X1917827Y1105408D01*
X1916430Y1108782D01*
X1914401Y1111819D01*
X1911819Y1114401D01*
X1908782Y1116430D01*
X1905408Y1117828D01*
X1901826Y1118540D01*
D02*
G37*
G36*
X901826D02*
X898174D01*
X894592Y1117828D01*
X891218Y1116430D01*
X888181Y1114401D01*
X885599Y1111819D01*
X883570Y1108782D01*
X882172Y1105408D01*
X881460Y1101826D01*
Y1098174D01*
X882172Y1094592D01*
X883570Y1091218D01*
X885599Y1088181D01*
X888181Y1085599D01*
X891218Y1083570D01*
X894592Y1082172D01*
X898174Y1081460D01*
X901826D01*
X905408Y1082172D01*
X908782Y1083570D01*
X911819Y1085599D01*
X914401Y1088181D01*
X916430Y1091218D01*
X917828Y1094592D01*
X918540Y1098174D01*
Y1101826D01*
X917828Y1105408D01*
X916430Y1108782D01*
X914401Y1111819D01*
X911819Y1114401D01*
X908782Y1116430D01*
X905408Y1117828D01*
X901826Y1118540D01*
D02*
G37*
G36*
X101826D02*
X98174D01*
X94592Y1117828D01*
X91218Y1116430D01*
X88181Y1114401D01*
X85599Y1111819D01*
X83570Y1108782D01*
X82172Y1105408D01*
X81460Y1101826D01*
Y1098174D01*
X82172Y1094592D01*
X83570Y1091218D01*
X85599Y1088181D01*
X88181Y1085599D01*
X91218Y1083570D01*
X94592Y1082172D01*
X98174Y1081460D01*
X101826D01*
X105408Y1082172D01*
X108782Y1083570D01*
X111819Y1085599D01*
X114401Y1088181D01*
X116430Y1091218D01*
X117828Y1094592D01*
X118540Y1098174D01*
Y1101826D01*
X117828Y1105408D01*
X116430Y1108782D01*
X114401Y1111819D01*
X111819Y1114401D01*
X108782Y1116430D01*
X105408Y1117828D01*
X101826Y1118540D01*
D02*
G37*
G36*
X1333760Y1100622D02*
X1331270Y1100295D01*
X1328949Y1099333D01*
X1326956Y1097804D01*
X1325427Y1095811D01*
X1324466Y1093491D01*
X1324138Y1091000D01*
Y1090000D01*
X1324466Y1087510D01*
X1325427Y1085189D01*
X1326956Y1083196D01*
X1328949Y1081667D01*
X1331270Y1080706D01*
X1333760Y1080378D01*
X1336250Y1080706D01*
X1338571Y1081667D01*
X1340564Y1083196D01*
X1342093Y1085189D01*
X1343054Y1087510D01*
X1343382Y1090000D01*
Y1091000D01*
X1343054Y1093491D01*
X1342093Y1095811D01*
X1340564Y1097804D01*
X1338571Y1099333D01*
X1336250Y1100295D01*
X1333760Y1100622D01*
D02*
G37*
G36*
X1181560D02*
X1179070Y1100295D01*
X1176749Y1099333D01*
X1174756Y1097804D01*
X1173227Y1095811D01*
X1172266Y1093491D01*
X1171938Y1091000D01*
Y1090000D01*
X1172266Y1087510D01*
X1173227Y1085189D01*
X1174756Y1083196D01*
X1176749Y1081667D01*
X1179070Y1080706D01*
X1181560Y1080378D01*
X1184051Y1080706D01*
X1186371Y1081667D01*
X1188364Y1083196D01*
X1189893Y1085189D01*
X1190855Y1087510D01*
X1191182Y1090000D01*
Y1091000D01*
X1190855Y1093491D01*
X1189893Y1095811D01*
X1188364Y1097804D01*
X1186371Y1099333D01*
X1184051Y1100295D01*
X1181560Y1100622D01*
D02*
G37*
G36*
X1333760Y1075222D02*
X1331270Y1074895D01*
X1328949Y1073933D01*
X1326956Y1072404D01*
X1325427Y1070411D01*
X1324466Y1068091D01*
X1324138Y1065600D01*
Y1064600D01*
X1324466Y1062110D01*
X1325427Y1059789D01*
X1326956Y1057796D01*
X1328949Y1056267D01*
X1331270Y1055306D01*
X1333760Y1054978D01*
X1336250Y1055306D01*
X1338571Y1056267D01*
X1340564Y1057796D01*
X1342093Y1059789D01*
X1343054Y1062110D01*
X1343382Y1064600D01*
Y1065600D01*
X1343054Y1068091D01*
X1342093Y1070411D01*
X1340564Y1072404D01*
X1338571Y1073933D01*
X1336250Y1074895D01*
X1333760Y1075222D01*
D02*
G37*
G36*
X1181560D02*
X1179070Y1074895D01*
X1176749Y1073933D01*
X1174756Y1072404D01*
X1173227Y1070411D01*
X1172266Y1068091D01*
X1171938Y1065600D01*
Y1064600D01*
X1172266Y1062110D01*
X1173227Y1059789D01*
X1174756Y1057796D01*
X1176749Y1056267D01*
X1179070Y1055306D01*
X1181560Y1054978D01*
X1184051Y1055306D01*
X1186371Y1056267D01*
X1188364Y1057796D01*
X1189893Y1059789D01*
X1190855Y1062110D01*
X1191182Y1064600D01*
Y1065600D01*
X1190855Y1068091D01*
X1189893Y1070411D01*
X1188364Y1072404D01*
X1186371Y1073933D01*
X1184051Y1074895D01*
X1181560Y1075222D01*
D02*
G37*
G36*
X2526454Y1073540D02*
X2523547D01*
X2520739Y1072788D01*
X2518221Y1071334D01*
X2516166Y1069279D01*
X2514713Y1066761D01*
X2513960Y1063954D01*
Y1061047D01*
X2514713Y1058239D01*
X2516166Y1055722D01*
X2518221Y1053666D01*
X2520739Y1052213D01*
X2523547Y1051460D01*
X2526454D01*
X2529261Y1052213D01*
X2531779Y1053666D01*
X2533834Y1055722D01*
X2535288Y1058239D01*
X2536040Y1061047D01*
Y1063954D01*
X2535288Y1066761D01*
X2533834Y1069279D01*
X2531779Y1071334D01*
X2529261Y1072788D01*
X2526454Y1073540D01*
D02*
G37*
G36*
X2476453D02*
X2473546D01*
X2470739Y1072788D01*
X2468221Y1071334D01*
X2466166Y1069279D01*
X2464712Y1066761D01*
X2463960Y1063954D01*
Y1061047D01*
X2464712Y1058239D01*
X2466166Y1055722D01*
X2468221Y1053666D01*
X2470739Y1052213D01*
X2473546Y1051460D01*
X2476453D01*
X2479261Y1052213D01*
X2481779Y1053666D01*
X2483834Y1055722D01*
X2485287Y1058239D01*
X2486040Y1061047D01*
Y1063954D01*
X2485287Y1066761D01*
X2483834Y1069279D01*
X2481779Y1071334D01*
X2479261Y1072788D01*
X2476453Y1073540D01*
D02*
G37*
G36*
X226454Y1073539D02*
X223547D01*
X220739Y1072787D01*
X218221Y1071333D01*
X216166Y1069278D01*
X214713Y1066760D01*
X213960Y1063953D01*
Y1061046D01*
X214713Y1058238D01*
X216166Y1055720D01*
X218221Y1053665D01*
X220739Y1052212D01*
X223547Y1051459D01*
X226454D01*
X229261Y1052212D01*
X231779Y1053665D01*
X233834Y1055720D01*
X235288Y1058238D01*
X236040Y1061046D01*
Y1063953D01*
X235288Y1066760D01*
X233834Y1069278D01*
X231779Y1071333D01*
X229261Y1072787D01*
X226454Y1073539D01*
D02*
G37*
G36*
X176453D02*
X173546D01*
X170739Y1072787D01*
X168221Y1071333D01*
X166166Y1069278D01*
X164712Y1066760D01*
X163960Y1063953D01*
Y1061046D01*
X164712Y1058238D01*
X166166Y1055720D01*
X168221Y1053665D01*
X170739Y1052212D01*
X173546Y1051459D01*
X176453D01*
X179261Y1052212D01*
X181779Y1053665D01*
X183834Y1055720D01*
X185287Y1058238D01*
X186040Y1061046D01*
Y1063953D01*
X185287Y1066760D01*
X183834Y1069278D01*
X181779Y1071333D01*
X179261Y1072787D01*
X176453Y1073539D01*
D02*
G37*
G36*
X1333760Y1049822D02*
X1331270Y1049495D01*
X1328949Y1048533D01*
X1326956Y1047004D01*
X1325427Y1045011D01*
X1324466Y1042691D01*
X1324138Y1040200D01*
Y1039200D01*
X1324466Y1036710D01*
X1325427Y1034389D01*
X1326956Y1032396D01*
X1328949Y1030867D01*
X1331270Y1029906D01*
X1333760Y1029578D01*
X1336250Y1029906D01*
X1338571Y1030867D01*
X1340564Y1032396D01*
X1342093Y1034389D01*
X1343054Y1036710D01*
X1343382Y1039200D01*
Y1040200D01*
X1343054Y1042691D01*
X1342093Y1045011D01*
X1340564Y1047004D01*
X1338571Y1048533D01*
X1336250Y1049495D01*
X1333760Y1049822D01*
D02*
G37*
G36*
X1181560D02*
X1179070Y1049495D01*
X1176749Y1048533D01*
X1174756Y1047004D01*
X1173227Y1045011D01*
X1172266Y1042691D01*
X1171938Y1040200D01*
Y1039200D01*
X1172266Y1036710D01*
X1173227Y1034389D01*
X1174756Y1032396D01*
X1176749Y1030867D01*
X1179070Y1029906D01*
X1181560Y1029578D01*
X1184051Y1029906D01*
X1186371Y1030867D01*
X1188364Y1032396D01*
X1189893Y1034389D01*
X1190855Y1036710D01*
X1191182Y1039200D01*
Y1040200D01*
X1190855Y1042691D01*
X1189893Y1045011D01*
X1188364Y1047004D01*
X1186371Y1048533D01*
X1184051Y1049495D01*
X1181560Y1049822D01*
D02*
G37*
G36*
X1333760Y1024422D02*
X1331270Y1024095D01*
X1328949Y1023133D01*
X1326956Y1021604D01*
X1325427Y1019611D01*
X1324466Y1017291D01*
X1324138Y1014800D01*
Y1013800D01*
X1324466Y1011310D01*
X1325427Y1008989D01*
X1326956Y1006996D01*
X1328949Y1005467D01*
X1331270Y1004506D01*
X1333760Y1004178D01*
X1336250Y1004506D01*
X1338571Y1005467D01*
X1340564Y1006996D01*
X1342093Y1008989D01*
X1343054Y1011310D01*
X1343382Y1013800D01*
Y1014800D01*
X1343054Y1017291D01*
X1342093Y1019611D01*
X1340564Y1021604D01*
X1338571Y1023133D01*
X1336250Y1024095D01*
X1333760Y1024422D01*
D02*
G37*
G36*
X1181560D02*
X1179070Y1024095D01*
X1176749Y1023133D01*
X1174756Y1021604D01*
X1173227Y1019611D01*
X1172266Y1017291D01*
X1171938Y1014800D01*
Y1013800D01*
X1172266Y1011310D01*
X1173227Y1008989D01*
X1174756Y1006996D01*
X1176749Y1005467D01*
X1179070Y1004506D01*
X1181560Y1004178D01*
X1184051Y1004506D01*
X1186371Y1005467D01*
X1188364Y1006996D01*
X1189893Y1008989D01*
X1190855Y1011310D01*
X1191182Y1013800D01*
Y1014800D01*
X1190855Y1017291D01*
X1189893Y1019611D01*
X1188364Y1021604D01*
X1186371Y1023133D01*
X1184051Y1024095D01*
X1181560Y1024422D01*
D02*
G37*
G36*
X1333760Y999022D02*
X1331270Y998695D01*
X1328949Y997733D01*
X1326956Y996204D01*
X1325427Y994211D01*
X1324466Y991891D01*
X1324138Y989400D01*
Y988400D01*
X1324466Y985910D01*
X1325427Y983589D01*
X1326956Y981596D01*
X1328949Y980067D01*
X1331270Y979106D01*
X1333760Y978778D01*
X1336250Y979106D01*
X1338571Y980067D01*
X1340564Y981596D01*
X1342093Y983589D01*
X1343054Y985910D01*
X1343382Y988400D01*
Y989400D01*
X1343054Y991891D01*
X1342093Y994211D01*
X1340564Y996204D01*
X1338571Y997733D01*
X1336250Y998695D01*
X1333760Y999022D01*
D02*
G37*
G36*
X1181560D02*
X1179070Y998695D01*
X1176749Y997733D01*
X1174756Y996204D01*
X1173227Y994211D01*
X1172266Y991891D01*
X1171938Y989400D01*
Y988400D01*
X1172266Y985910D01*
X1173227Y983589D01*
X1174756Y981596D01*
X1176749Y980067D01*
X1179070Y979106D01*
X1181560Y978778D01*
X1184051Y979106D01*
X1186371Y980067D01*
X1188364Y981596D01*
X1189893Y983589D01*
X1190855Y985910D01*
X1191182Y988400D01*
Y989400D01*
X1190855Y991891D01*
X1189893Y994211D01*
X1188364Y996204D01*
X1186371Y997733D01*
X1184051Y998695D01*
X1181560Y999022D01*
D02*
G37*
G36*
X1333760Y973622D02*
X1331270Y973295D01*
X1328949Y972333D01*
X1326956Y970804D01*
X1325427Y968811D01*
X1324466Y966491D01*
X1324138Y964000D01*
Y963000D01*
X1324466Y960510D01*
X1325427Y958189D01*
X1326956Y956196D01*
X1328949Y954667D01*
X1331270Y953706D01*
X1333760Y953378D01*
X1336250Y953706D01*
X1338571Y954667D01*
X1340564Y956196D01*
X1342093Y958189D01*
X1343054Y960510D01*
X1343382Y963000D01*
Y964000D01*
X1343054Y966491D01*
X1342093Y968811D01*
X1340564Y970804D01*
X1338571Y972333D01*
X1336250Y973295D01*
X1333760Y973622D01*
D02*
G37*
G36*
X1181560D02*
X1179070Y973295D01*
X1176749Y972333D01*
X1174756Y970804D01*
X1173227Y968811D01*
X1172266Y966491D01*
X1171938Y964000D01*
Y963000D01*
X1172266Y960510D01*
X1173227Y958189D01*
X1174756Y956196D01*
X1176749Y954667D01*
X1179070Y953706D01*
X1181560Y953378D01*
X1184051Y953706D01*
X1186371Y954667D01*
X1188364Y956196D01*
X1189893Y958189D01*
X1190855Y960510D01*
X1191182Y963000D01*
Y964000D01*
X1190855Y966491D01*
X1189893Y968811D01*
X1188364Y970804D01*
X1186371Y972333D01*
X1184051Y973295D01*
X1181560Y973622D01*
D02*
G37*
G36*
X1333760Y948222D02*
X1331270Y947895D01*
X1328949Y946933D01*
X1326956Y945404D01*
X1325427Y943411D01*
X1324466Y941091D01*
X1324138Y938600D01*
Y937600D01*
X1324466Y935110D01*
X1325427Y932789D01*
X1326956Y930796D01*
X1328949Y929267D01*
X1331270Y928306D01*
X1333760Y927978D01*
X1336250Y928306D01*
X1338571Y929267D01*
X1340564Y930796D01*
X1342093Y932789D01*
X1343054Y935110D01*
X1343382Y937600D01*
Y938600D01*
X1343054Y941091D01*
X1342093Y943411D01*
X1340564Y945404D01*
X1338571Y946933D01*
X1336250Y947895D01*
X1333760Y948222D01*
D02*
G37*
G36*
X1181560D02*
X1179070Y947895D01*
X1176749Y946933D01*
X1174756Y945404D01*
X1173227Y943411D01*
X1172266Y941091D01*
X1171938Y938600D01*
Y937600D01*
X1172266Y935110D01*
X1173227Y932789D01*
X1174756Y930796D01*
X1176749Y929267D01*
X1179070Y928306D01*
X1181560Y927978D01*
X1184051Y928306D01*
X1186371Y929267D01*
X1188364Y930796D01*
X1189893Y932789D01*
X1190855Y935110D01*
X1191182Y937600D01*
Y938600D01*
X1190855Y941091D01*
X1189893Y943411D01*
X1188364Y945404D01*
X1186371Y946933D01*
X1184051Y947895D01*
X1181560Y948222D01*
D02*
G37*
G36*
X2526454Y948540D02*
X2523547D01*
X2520739Y947788D01*
X2518221Y946334D01*
X2516166Y944279D01*
X2514713Y941761D01*
X2513960Y938954D01*
Y936047D01*
X2514713Y933239D01*
X2516166Y930722D01*
X2518221Y928666D01*
X2520739Y927213D01*
X2523547Y926460D01*
X2526454D01*
X2529261Y927213D01*
X2531779Y928666D01*
X2533834Y930722D01*
X2535288Y933239D01*
X2536040Y936047D01*
Y938954D01*
X2535288Y941761D01*
X2533834Y944279D01*
X2531779Y946334D01*
X2529261Y947788D01*
X2526454Y948540D01*
D02*
G37*
G36*
X2486040D02*
X2463960D01*
Y926460D01*
X2486040D01*
Y948540D01*
D02*
G37*
G36*
X226454Y948539D02*
X223547D01*
X220739Y947787D01*
X218221Y946333D01*
X216166Y944278D01*
X214713Y941760D01*
X213960Y938953D01*
Y936046D01*
X214713Y933238D01*
X216166Y930720D01*
X218221Y928665D01*
X220739Y927212D01*
X223547Y926459D01*
X226454D01*
X229261Y927212D01*
X231779Y928665D01*
X233834Y930720D01*
X235288Y933238D01*
X236040Y936046D01*
Y938953D01*
X235288Y941760D01*
X233834Y944278D01*
X231779Y946333D01*
X229261Y947787D01*
X226454Y948539D01*
D02*
G37*
G36*
X186040D02*
X163960D01*
Y926459D01*
X186040D01*
Y948539D01*
D02*
G37*
G36*
X1333760Y922822D02*
X1331270Y922495D01*
X1328949Y921533D01*
X1326956Y920004D01*
X1325427Y918011D01*
X1324466Y915691D01*
X1324138Y913200D01*
Y912200D01*
X1324466Y909710D01*
X1325427Y907389D01*
X1326956Y905396D01*
X1328949Y903867D01*
X1331270Y902906D01*
X1333760Y902578D01*
X1336250Y902906D01*
X1338571Y903867D01*
X1340564Y905396D01*
X1342093Y907389D01*
X1343054Y909710D01*
X1343382Y912200D01*
Y913200D01*
X1343054Y915691D01*
X1342093Y918011D01*
X1340564Y920004D01*
X1338571Y921533D01*
X1336250Y922495D01*
X1333760Y922822D01*
D02*
G37*
G36*
X557170Y955890D02*
X554830D01*
X552569Y955284D01*
X550541Y954114D01*
X548886Y952459D01*
X547716Y950431D01*
X547110Y948170D01*
Y945830D01*
X547716Y943569D01*
X548886Y941541D01*
X550541Y939886D01*
X552569Y938716D01*
X554830Y938110D01*
X557170D01*
X559431Y938716D01*
X561459Y939886D01*
X563114Y941541D01*
X563298Y941861D01*
X1061871D01*
X1094666Y909066D01*
X1096333Y907953D01*
X1098300Y907561D01*
X1173156D01*
X1173227Y907389D01*
X1174756Y905396D01*
X1176749Y903867D01*
X1179070Y902906D01*
X1181560Y902578D01*
X1184051Y902906D01*
X1186371Y903867D01*
X1188364Y905396D01*
X1189893Y907389D01*
X1190855Y909710D01*
X1191182Y912200D01*
Y913200D01*
X1190855Y915691D01*
X1189893Y918011D01*
X1188364Y920004D01*
X1186371Y921533D01*
X1184051Y922495D01*
X1181560Y922822D01*
X1179070Y922495D01*
X1176749Y921533D01*
X1174756Y920004D01*
X1173227Y918011D01*
X1173156Y917839D01*
X1100428D01*
X1067634Y950634D01*
X1065966Y951748D01*
X1064000Y952139D01*
X563298D01*
X563114Y952459D01*
X561459Y954114D01*
X559431Y955284D01*
X557170Y955890D01*
D02*
G37*
G36*
X2464000Y1172139D02*
X320718D01*
X318751Y1171748D01*
X317084Y1170634D01*
X269366Y1122916D01*
X268252Y1121249D01*
X267861Y1119282D01*
Y948129D01*
X240767Y921034D01*
X239653Y919367D01*
X239261Y917400D01*
Y910290D01*
X234110D01*
Y889710D01*
X254690D01*
Y894861D01*
X1032872D01*
X1125861Y801871D01*
Y793298D01*
X1125541Y793114D01*
X1123886Y791459D01*
X1122716Y789431D01*
X1122110Y787170D01*
Y784830D01*
X1122716Y782569D01*
X1123886Y780541D01*
X1125541Y778886D01*
X1127569Y777716D01*
X1129830Y777110D01*
X1132170D01*
X1134431Y777716D01*
X1136459Y778886D01*
X1138114Y780541D01*
X1139284Y782569D01*
X1139890Y784830D01*
Y787170D01*
X1139284Y789431D01*
X1138114Y791459D01*
X1136459Y793114D01*
X1136139Y793298D01*
Y804000D01*
X1135748Y805966D01*
X1134634Y807634D01*
X1038634Y903633D01*
X1036967Y904747D01*
X1035000Y905138D01*
X254690D01*
Y910290D01*
X249539D01*
Y915272D01*
X276634Y942366D01*
X277748Y944034D01*
X278139Y946000D01*
Y1117154D01*
X322846Y1161861D01*
X2461871D01*
X2539261Y1084471D01*
Y910290D01*
X2534110D01*
Y889710D01*
X2554690D01*
Y910290D01*
X2549539D01*
Y1086600D01*
X2549148Y1088566D01*
X2548034Y1090233D01*
X2467634Y1170634D01*
X2465966Y1171748D01*
X2464000Y1172139D01*
D02*
G37*
G36*
X2456955Y910290D02*
X2454246D01*
X2451629Y909589D01*
X2449282Y908234D01*
X2447366Y906318D01*
X2446012Y903972D01*
X2445310Y901355D01*
Y898645D01*
X2446012Y896028D01*
X2447366Y893682D01*
X2449282Y891766D01*
X2451629Y890411D01*
X2454246Y889710D01*
X2456955D01*
X2459572Y890411D01*
X2461918Y891766D01*
X2463834Y893682D01*
X2465189Y896028D01*
X2465890Y898645D01*
Y901355D01*
X2465189Y903972D01*
X2463834Y906318D01*
X2461918Y908234D01*
X2459572Y909589D01*
X2456955Y910290D01*
D02*
G37*
G36*
X156954Y910290D02*
X154245D01*
X151628Y909588D01*
X149282Y908234D01*
X147366Y906318D01*
X146011Y903971D01*
X145310Y901354D01*
Y898645D01*
X146011Y896028D01*
X147366Y893681D01*
X149282Y891766D01*
X151628Y890411D01*
X154245Y889710D01*
X156954D01*
X159572Y890411D01*
X161918Y891766D01*
X163834Y893681D01*
X165189Y896028D01*
X165890Y898645D01*
Y901354D01*
X165189Y903971D01*
X163834Y906318D01*
X161918Y908234D01*
X159572Y909588D01*
X156954Y910290D01*
D02*
G37*
G36*
X1333760Y897422D02*
X1331270Y897095D01*
X1328949Y896133D01*
X1326956Y894604D01*
X1325427Y892611D01*
X1324466Y890291D01*
X1324138Y887800D01*
Y886800D01*
X1324466Y884310D01*
X1325427Y881989D01*
X1326956Y879996D01*
X1328949Y878467D01*
X1331270Y877506D01*
X1333760Y877178D01*
X1336250Y877506D01*
X1338571Y878467D01*
X1340564Y879996D01*
X1342093Y881989D01*
X1343054Y884310D01*
X1343382Y886800D01*
Y887800D01*
X1343054Y890291D01*
X1342093Y892611D01*
X1340564Y894604D01*
X1338571Y896133D01*
X1336250Y897095D01*
X1333760Y897422D01*
D02*
G37*
G36*
X321170Y935890D02*
X318830D01*
X316569Y935284D01*
X314541Y934114D01*
X312886Y932459D01*
X311716Y930431D01*
X311110Y928170D01*
Y925830D01*
X311716Y923569D01*
X312886Y921541D01*
X314541Y919886D01*
X316569Y918716D01*
X318830Y918110D01*
X321170D01*
X323431Y918716D01*
X325459Y919886D01*
X327114Y921541D01*
X327299Y921861D01*
X1035872D01*
X1074066Y883667D01*
X1075733Y882553D01*
X1077700Y882161D01*
X1173156D01*
X1173227Y881989D01*
X1174756Y879996D01*
X1176749Y878467D01*
X1179070Y877506D01*
X1181560Y877178D01*
X1184051Y877506D01*
X1186371Y878467D01*
X1188364Y879996D01*
X1189893Y881989D01*
X1190855Y884310D01*
X1191182Y886800D01*
Y887800D01*
X1190855Y890291D01*
X1189893Y892611D01*
X1188364Y894604D01*
X1186371Y896133D01*
X1184051Y897095D01*
X1181560Y897422D01*
X1179070Y897095D01*
X1176749Y896133D01*
X1174756Y894604D01*
X1173227Y892611D01*
X1173156Y892439D01*
X1079828D01*
X1041634Y930634D01*
X1039967Y931748D01*
X1038000Y932139D01*
X327299D01*
X327114Y932459D01*
X325459Y934114D01*
X323431Y935284D01*
X321170Y935890D01*
D02*
G37*
G36*
X1181560Y872022D02*
X1179070Y871695D01*
X1176749Y870733D01*
X1174756Y869204D01*
X1173227Y867211D01*
X1172266Y864891D01*
X1171938Y862400D01*
Y861400D01*
X1172266Y858910D01*
X1173227Y856589D01*
X1174756Y854596D01*
X1176749Y853067D01*
X1179070Y852106D01*
X1181560Y851778D01*
X1184051Y852106D01*
X1186371Y853067D01*
X1188364Y854596D01*
X1189893Y856589D01*
X1189985Y856811D01*
X1220730D01*
X1220886Y856541D01*
X1222541Y854886D01*
X1224569Y853716D01*
X1226830Y853110D01*
X1229170D01*
X1231431Y853716D01*
X1233459Y854886D01*
X1235114Y856541D01*
X1236284Y858569D01*
X1236890Y860830D01*
Y863170D01*
X1236284Y865431D01*
X1235114Y867459D01*
X1233459Y869114D01*
X1231431Y870284D01*
X1229170Y870890D01*
X1226830D01*
X1224569Y870284D01*
X1222541Y869114D01*
X1220886Y867459D01*
X1220673Y867089D01*
X1189944D01*
X1189893Y867211D01*
X1188364Y869204D01*
X1186371Y870733D01*
X1184051Y871695D01*
X1181560Y872022D01*
D02*
G37*
G36*
X1333760D02*
X1331270Y871695D01*
X1328949Y870733D01*
X1326956Y869204D01*
X1325427Y867211D01*
X1324466Y864891D01*
X1324138Y862400D01*
Y861400D01*
X1324466Y858910D01*
X1325427Y856589D01*
X1326956Y854596D01*
X1328949Y853067D01*
X1331270Y852106D01*
X1333760Y851778D01*
X1336250Y852106D01*
X1338571Y853067D01*
X1340564Y854596D01*
X1342093Y856589D01*
X1343054Y858910D01*
X1343382Y861400D01*
Y862400D01*
X1343054Y864891D01*
X1342093Y867211D01*
X1340564Y869204D01*
X1338571Y870733D01*
X1336250Y871695D01*
X1333760Y872022D01*
D02*
G37*
G36*
X2526454Y873540D02*
X2523547D01*
X2520739Y872788D01*
X2518221Y871334D01*
X2516166Y869279D01*
X2514713Y866761D01*
X2513960Y863953D01*
Y861047D01*
X2514713Y858239D01*
X2516166Y855721D01*
X2518221Y853666D01*
X2520739Y852212D01*
X2523547Y851460D01*
X2526454D01*
X2529261Y852212D01*
X2531779Y853666D01*
X2533834Y855721D01*
X2535288Y858239D01*
X2536040Y861047D01*
Y863953D01*
X2535288Y866761D01*
X2533834Y869279D01*
X2531779Y871334D01*
X2529261Y872788D01*
X2526454Y873540D01*
D02*
G37*
G36*
X2476453D02*
X2473546D01*
X2470739Y872788D01*
X2468221Y871334D01*
X2466166Y869279D01*
X2464712Y866761D01*
X2463960Y863953D01*
Y861047D01*
X2464712Y858239D01*
X2466166Y855721D01*
X2468221Y853666D01*
X2470739Y852212D01*
X2473546Y851460D01*
X2476453D01*
X2479261Y852212D01*
X2481779Y853666D01*
X2483834Y855721D01*
X2485287Y858239D01*
X2486040Y861047D01*
Y863953D01*
X2485287Y866761D01*
X2483834Y869279D01*
X2481779Y871334D01*
X2479261Y872788D01*
X2476453Y873540D01*
D02*
G37*
G36*
X2326454D02*
X2323547D01*
X2320739Y872788D01*
X2318221Y871334D01*
X2316166Y869279D01*
X2314712Y866761D01*
X2313960Y863953D01*
Y861047D01*
X2314712Y858239D01*
X2316166Y855721D01*
X2318221Y853666D01*
X2320739Y852212D01*
X2323547Y851460D01*
X2326454D01*
X2329261Y852212D01*
X2331779Y853666D01*
X2333834Y855721D01*
X2335288Y858239D01*
X2336040Y861047D01*
Y863953D01*
X2335288Y866761D01*
X2333834Y869279D01*
X2331779Y871334D01*
X2329261Y872788D01*
X2326454Y873540D01*
D02*
G37*
G36*
X2276454D02*
X2273547D01*
X2270739Y872788D01*
X2268221Y871334D01*
X2266166Y869279D01*
X2264713Y866761D01*
X2263960Y863953D01*
Y861047D01*
X2264713Y858239D01*
X2266166Y855721D01*
X2268221Y853666D01*
X2270739Y852212D01*
X2273547Y851460D01*
X2276454D01*
X2279261Y852212D01*
X2281779Y853666D01*
X2283834Y855721D01*
X2285288Y858239D01*
X2286040Y861047D01*
Y863953D01*
X2285288Y866761D01*
X2283834Y869279D01*
X2281779Y871334D01*
X2279261Y872788D01*
X2276454Y873540D01*
D02*
G37*
G36*
X2126453D02*
X2123546D01*
X2120739Y872788D01*
X2118221Y871334D01*
X2116166Y869279D01*
X2114712Y866761D01*
X2113960Y863953D01*
Y861047D01*
X2114712Y858239D01*
X2116166Y855721D01*
X2118221Y853666D01*
X2120739Y852212D01*
X2123546Y851460D01*
X2126453D01*
X2129261Y852212D01*
X2131779Y853666D01*
X2133834Y855721D01*
X2135288Y858239D01*
X2136040Y861047D01*
Y863953D01*
X2135288Y866761D01*
X2133834Y869279D01*
X2131779Y871334D01*
X2129261Y872788D01*
X2126453Y873540D01*
D02*
G37*
G36*
X2076454D02*
X2073547D01*
X2070739Y872788D01*
X2068221Y871334D01*
X2066166Y869279D01*
X2064712Y866761D01*
X2063960Y863953D01*
Y861047D01*
X2064712Y858239D01*
X2066166Y855721D01*
X2068221Y853666D01*
X2070739Y852212D01*
X2073547Y851460D01*
X2076454D01*
X2079261Y852212D01*
X2081779Y853666D01*
X2083834Y855721D01*
X2085288Y858239D01*
X2086040Y861047D01*
Y863953D01*
X2085288Y866761D01*
X2083834Y869279D01*
X2081779Y871334D01*
X2079261Y872788D01*
X2076454Y873540D01*
D02*
G37*
G36*
X1926453D02*
X1923546D01*
X1920739Y872788D01*
X1918221Y871334D01*
X1916166Y869279D01*
X1914712Y866761D01*
X1913960Y863953D01*
Y861047D01*
X1914712Y858239D01*
X1916166Y855721D01*
X1918221Y853666D01*
X1920739Y852212D01*
X1923546Y851460D01*
X1926453D01*
X1929261Y852212D01*
X1931779Y853666D01*
X1933834Y855721D01*
X1935287Y858239D01*
X1936040Y861047D01*
Y863953D01*
X1935287Y866761D01*
X1933834Y869279D01*
X1931779Y871334D01*
X1929261Y872788D01*
X1926453Y873540D01*
D02*
G37*
G36*
X1876453D02*
X1873546D01*
X1870739Y872788D01*
X1868221Y871334D01*
X1866166Y869279D01*
X1864712Y866761D01*
X1863960Y863953D01*
Y861047D01*
X1864712Y858239D01*
X1866166Y855721D01*
X1868221Y853666D01*
X1870739Y852212D01*
X1873546Y851460D01*
X1876453D01*
X1879261Y852212D01*
X1881779Y853666D01*
X1883834Y855721D01*
X1885288Y858239D01*
X1886040Y861047D01*
Y863953D01*
X1885288Y866761D01*
X1883834Y869279D01*
X1881779Y871334D01*
X1879261Y872788D01*
X1876453Y873540D01*
D02*
G37*
G36*
X1726454D02*
X1723547D01*
X1720739Y872788D01*
X1718221Y871334D01*
X1716166Y869279D01*
X1714713Y866761D01*
X1713960Y863953D01*
Y861047D01*
X1714713Y858239D01*
X1716166Y855721D01*
X1718221Y853666D01*
X1720739Y852212D01*
X1723547Y851460D01*
X1726454D01*
X1729261Y852212D01*
X1731779Y853666D01*
X1733835Y855721D01*
X1735288Y858239D01*
X1736040Y861047D01*
Y863953D01*
X1735288Y866761D01*
X1733835Y869279D01*
X1731779Y871334D01*
X1729261Y872788D01*
X1726454Y873540D01*
D02*
G37*
G36*
X1676453D02*
X1673546D01*
X1670739Y872788D01*
X1668221Y871334D01*
X1666166Y869279D01*
X1664712Y866761D01*
X1663960Y863953D01*
Y861047D01*
X1664712Y858239D01*
X1666166Y855721D01*
X1668221Y853666D01*
X1670739Y852212D01*
X1673546Y851460D01*
X1676453D01*
X1679261Y852212D01*
X1681779Y853666D01*
X1683834Y855721D01*
X1685287Y858239D01*
X1686040Y861047D01*
Y863953D01*
X1685287Y866761D01*
X1683834Y869279D01*
X1681779Y871334D01*
X1679261Y872788D01*
X1676453Y873540D01*
D02*
G37*
G36*
X826453Y873540D02*
X823547D01*
X820739Y872787D01*
X818221Y871334D01*
X816166Y869278D01*
X814712Y866761D01*
X813960Y863953D01*
Y861046D01*
X814712Y858238D01*
X816166Y855721D01*
X818221Y853665D01*
X820739Y852212D01*
X823547Y851460D01*
X826453D01*
X829261Y852212D01*
X831779Y853665D01*
X833834Y855721D01*
X835288Y858238D01*
X836040Y861046D01*
Y863953D01*
X835288Y866761D01*
X833834Y869278D01*
X831779Y871334D01*
X829261Y872787D01*
X826453Y873540D01*
D02*
G37*
G36*
X776454D02*
X773547D01*
X770739Y872787D01*
X768221Y871334D01*
X766166Y869278D01*
X764713Y866761D01*
X763960Y863953D01*
Y861046D01*
X764713Y858238D01*
X766166Y855721D01*
X768221Y853665D01*
X770739Y852212D01*
X773547Y851460D01*
X776454D01*
X779261Y852212D01*
X781779Y853665D01*
X783834Y855721D01*
X785288Y858238D01*
X786040Y861046D01*
Y863953D01*
X785288Y866761D01*
X783834Y869278D01*
X781779Y871334D01*
X779261Y872787D01*
X776454Y873540D01*
D02*
G37*
G36*
X626453D02*
X623546D01*
X620739Y872787D01*
X618221Y871334D01*
X616166Y869278D01*
X614712Y866761D01*
X613960Y863953D01*
Y861046D01*
X614712Y858238D01*
X616166Y855721D01*
X618221Y853665D01*
X620739Y852212D01*
X623546Y851460D01*
X626453D01*
X629261Y852212D01*
X631779Y853665D01*
X633834Y855721D01*
X635288Y858238D01*
X636040Y861046D01*
Y863953D01*
X635288Y866761D01*
X633834Y869278D01*
X631779Y871334D01*
X629261Y872787D01*
X626453Y873540D01*
D02*
G37*
G36*
X576454D02*
X573547D01*
X570739Y872787D01*
X568221Y871334D01*
X566166Y869278D01*
X564712Y866761D01*
X563960Y863953D01*
Y861046D01*
X564712Y858238D01*
X566166Y855721D01*
X568221Y853665D01*
X570739Y852212D01*
X573547Y851460D01*
X576454D01*
X579261Y852212D01*
X581779Y853665D01*
X583834Y855721D01*
X585288Y858238D01*
X586040Y861046D01*
Y863953D01*
X585288Y866761D01*
X583834Y869278D01*
X581779Y871334D01*
X579261Y872787D01*
X576454Y873540D01*
D02*
G37*
G36*
X426453D02*
X423546D01*
X420738Y872787D01*
X418221Y871334D01*
X416166Y869278D01*
X414712Y866761D01*
X413960Y863953D01*
Y861046D01*
X414712Y858238D01*
X416166Y855721D01*
X418221Y853665D01*
X420738Y852212D01*
X423546Y851460D01*
X426453D01*
X429261Y852212D01*
X431778Y853665D01*
X433834Y855721D01*
X435287Y858238D01*
X436040Y861046D01*
Y863953D01*
X435287Y866761D01*
X433834Y869278D01*
X431778Y871334D01*
X429261Y872787D01*
X426453Y873540D01*
D02*
G37*
G36*
X376453D02*
X373546D01*
X370739Y872787D01*
X368221Y871334D01*
X366166Y869278D01*
X364712Y866761D01*
X363960Y863953D01*
Y861046D01*
X364712Y858238D01*
X366166Y855721D01*
X368221Y853665D01*
X370739Y852212D01*
X373546Y851460D01*
X376453D01*
X379261Y852212D01*
X381779Y853665D01*
X383834Y855721D01*
X385288Y858238D01*
X386040Y861046D01*
Y863953D01*
X385288Y866761D01*
X383834Y869278D01*
X381779Y871334D01*
X379261Y872787D01*
X376453Y873540D01*
D02*
G37*
G36*
X226454D02*
X223547D01*
X220739Y872787D01*
X218221Y871334D01*
X216166Y869278D01*
X214713Y866761D01*
X213960Y863953D01*
Y861046D01*
X214713Y858238D01*
X216166Y855721D01*
X218221Y853665D01*
X220739Y852212D01*
X223547Y851460D01*
X226454D01*
X229261Y852212D01*
X231779Y853665D01*
X233834Y855721D01*
X235288Y858238D01*
X236040Y861046D01*
Y863953D01*
X235288Y866761D01*
X233834Y869278D01*
X231779Y871334D01*
X229261Y872787D01*
X226454Y873540D01*
D02*
G37*
G36*
X176453D02*
X173546D01*
X170739Y872787D01*
X168221Y871334D01*
X166166Y869278D01*
X164712Y866761D01*
X163960Y863953D01*
Y861046D01*
X164712Y858238D01*
X166166Y855721D01*
X168221Y853665D01*
X170739Y852212D01*
X173546Y851460D01*
X176453D01*
X179261Y852212D01*
X181779Y853665D01*
X183834Y855721D01*
X185287Y858238D01*
X186040Y861046D01*
Y863953D01*
X185287Y866761D01*
X183834Y869278D01*
X181779Y871334D01*
X179261Y872787D01*
X176453Y873540D01*
D02*
G37*
G36*
X1333760Y846622D02*
X1331270Y846295D01*
X1328949Y845333D01*
X1326956Y843804D01*
X1325427Y841811D01*
X1324466Y839491D01*
X1324138Y837000D01*
Y836000D01*
X1324466Y833510D01*
X1325427Y831189D01*
X1326956Y829196D01*
X1328949Y827667D01*
X1331270Y826706D01*
X1333760Y826378D01*
X1336250Y826706D01*
X1338571Y827667D01*
X1340564Y829196D01*
X1342093Y831189D01*
X1343054Y833510D01*
X1343382Y836000D01*
Y837000D01*
X1343054Y839491D01*
X1342093Y841811D01*
X1340564Y843804D01*
X1338571Y845333D01*
X1336250Y846295D01*
X1333760Y846622D01*
D02*
G37*
G36*
X1181560D02*
X1179070Y846295D01*
X1176749Y845333D01*
X1174756Y843804D01*
X1173227Y841811D01*
X1173156Y841639D01*
X1167500D01*
X1165534Y841248D01*
X1163867Y840134D01*
X1151366Y827634D01*
X1150252Y825966D01*
X1149861Y824000D01*
Y663298D01*
X1149541Y663114D01*
X1147886Y661459D01*
X1146716Y659431D01*
X1146110Y657170D01*
Y654830D01*
X1146716Y652569D01*
X1147886Y650541D01*
X1149541Y648886D01*
X1151569Y647716D01*
X1153830Y647110D01*
X1156170D01*
X1158431Y647716D01*
X1160459Y648886D01*
X1162114Y650541D01*
X1163284Y652569D01*
X1163890Y654830D01*
Y657170D01*
X1163284Y659431D01*
X1162114Y661459D01*
X1160459Y663114D01*
X1160139Y663298D01*
Y821871D01*
X1169629Y831361D01*
X1173156D01*
X1173227Y831189D01*
X1174756Y829196D01*
X1176749Y827667D01*
X1179070Y826706D01*
X1181560Y826378D01*
X1184051Y826706D01*
X1186371Y827667D01*
X1188364Y829196D01*
X1189893Y831189D01*
X1190855Y833510D01*
X1191182Y836000D01*
Y837000D01*
X1190855Y839491D01*
X1189893Y841811D01*
X1188364Y843804D01*
X1186371Y845333D01*
X1184051Y846295D01*
X1181560Y846622D01*
D02*
G37*
G36*
X1333760Y821222D02*
X1331270Y820895D01*
X1328949Y819933D01*
X1326956Y818404D01*
X1325427Y816411D01*
X1324466Y814091D01*
X1324138Y811600D01*
Y810600D01*
X1324466Y808110D01*
X1325427Y805789D01*
X1326956Y803796D01*
X1328949Y802267D01*
X1331270Y801306D01*
X1333760Y800978D01*
X1336250Y801306D01*
X1338571Y802267D01*
X1340564Y803796D01*
X1342093Y805789D01*
X1343054Y808110D01*
X1343382Y810600D01*
Y811600D01*
X1343054Y814091D01*
X1342093Y816411D01*
X1340564Y818404D01*
X1338571Y819933D01*
X1336250Y820895D01*
X1333760Y821222D01*
D02*
G37*
G36*
X1181560D02*
X1179070Y820895D01*
X1176749Y819933D01*
X1174756Y818404D01*
X1173227Y816411D01*
X1172266Y814091D01*
X1171938Y811600D01*
Y810600D01*
X1172266Y808110D01*
X1173227Y805789D01*
X1174756Y803796D01*
X1176749Y802267D01*
X1179070Y801306D01*
X1181560Y800978D01*
X1184051Y801306D01*
X1186371Y802267D01*
X1188364Y803796D01*
X1189893Y805789D01*
X1190855Y808110D01*
X1191182Y810600D01*
Y811600D01*
X1190855Y814091D01*
X1189893Y816411D01*
X1188364Y818404D01*
X1186371Y819933D01*
X1184051Y820895D01*
X1181560Y821222D01*
D02*
G37*
G36*
X1333760Y795822D02*
X1331270Y795495D01*
X1328949Y794533D01*
X1326956Y793004D01*
X1325427Y791011D01*
X1324466Y788691D01*
X1324138Y786200D01*
Y785200D01*
X1324466Y782710D01*
X1325427Y780389D01*
X1326956Y778396D01*
X1328949Y776867D01*
X1331270Y775906D01*
X1333760Y775578D01*
X1336250Y775906D01*
X1338571Y776867D01*
X1340564Y778396D01*
X1342093Y780389D01*
X1343054Y782710D01*
X1343382Y785200D01*
Y786200D01*
X1343054Y788691D01*
X1342093Y791011D01*
X1340564Y793004D01*
X1338571Y794533D01*
X1336250Y795495D01*
X1333760Y795822D01*
D02*
G37*
G36*
X1181560D02*
X1179070Y795495D01*
X1176749Y794533D01*
X1174756Y793004D01*
X1173227Y791011D01*
X1172266Y788691D01*
X1171938Y786200D01*
Y785200D01*
X1172266Y782710D01*
X1173227Y780389D01*
X1174756Y778396D01*
X1176749Y776867D01*
X1179070Y775906D01*
X1181560Y775578D01*
X1184051Y775906D01*
X1186371Y776867D01*
X1188364Y778396D01*
X1189893Y780389D01*
X1190855Y782710D01*
X1191182Y785200D01*
Y786200D01*
X1190855Y788691D01*
X1189893Y791011D01*
X1188364Y793004D01*
X1186371Y794533D01*
X1184051Y795495D01*
X1181560Y795822D01*
D02*
G37*
G36*
X1333760Y770422D02*
X1331270Y770095D01*
X1328949Y769133D01*
X1326956Y767604D01*
X1325427Y765611D01*
X1324466Y763291D01*
X1324138Y760800D01*
Y759800D01*
X1324466Y757310D01*
X1325427Y754989D01*
X1326956Y752996D01*
X1328949Y751467D01*
X1331270Y750506D01*
X1333760Y750178D01*
X1336250Y750506D01*
X1338571Y751467D01*
X1340564Y752996D01*
X1342093Y754989D01*
X1343054Y757310D01*
X1343382Y759800D01*
Y760800D01*
X1343054Y763291D01*
X1342093Y765611D01*
X1340564Y767604D01*
X1338571Y769133D01*
X1336250Y770095D01*
X1333760Y770422D01*
D02*
G37*
G36*
X1181560D02*
X1179070Y770095D01*
X1176749Y769133D01*
X1174756Y767604D01*
X1173227Y765611D01*
X1172266Y763291D01*
X1171938Y760800D01*
Y759800D01*
X1172266Y757310D01*
X1173227Y754989D01*
X1174756Y752996D01*
X1176749Y751467D01*
X1179070Y750506D01*
X1181560Y750178D01*
X1184051Y750506D01*
X1186371Y751467D01*
X1188364Y752996D01*
X1189893Y754989D01*
X1190855Y757310D01*
X1191182Y759800D01*
Y760800D01*
X1190855Y763291D01*
X1189893Y765611D01*
X1188364Y767604D01*
X1186371Y769133D01*
X1184051Y770095D01*
X1181560Y770422D01*
D02*
G37*
G36*
X2526454Y748540D02*
X2523547D01*
X2520739Y747788D01*
X2518221Y746334D01*
X2516166Y744279D01*
X2514713Y741761D01*
X2513960Y738953D01*
Y736047D01*
X2514713Y733239D01*
X2516166Y730721D01*
X2518221Y728666D01*
X2520739Y727212D01*
X2523547Y726460D01*
X2526454D01*
X2529261Y727212D01*
X2531779Y728666D01*
X2533834Y730721D01*
X2535288Y733239D01*
X2536040Y736047D01*
Y738953D01*
X2535288Y741761D01*
X2533834Y744279D01*
X2531779Y746334D01*
X2529261Y747788D01*
X2526454Y748540D01*
D02*
G37*
G36*
X2486040D02*
X2463960D01*
Y726460D01*
X2486040D01*
Y748540D01*
D02*
G37*
G36*
X2326454D02*
X2323547D01*
X2320739Y747788D01*
X2318221Y746334D01*
X2316166Y744279D01*
X2314712Y741761D01*
X2313960Y738953D01*
Y736047D01*
X2314712Y733239D01*
X2316166Y730721D01*
X2318221Y728666D01*
X2320739Y727212D01*
X2323547Y726460D01*
X2326454D01*
X2329261Y727212D01*
X2331779Y728666D01*
X2333834Y730721D01*
X2335288Y733239D01*
X2336040Y736047D01*
Y738953D01*
X2335288Y741761D01*
X2333834Y744279D01*
X2331779Y746334D01*
X2329261Y747788D01*
X2326454Y748540D01*
D02*
G37*
G36*
X2286040D02*
X2263960D01*
Y726460D01*
X2286040D01*
Y748540D01*
D02*
G37*
G36*
X2126453D02*
X2123546D01*
X2120739Y747788D01*
X2118221Y746334D01*
X2116166Y744279D01*
X2114712Y741761D01*
X2113960Y738953D01*
Y736047D01*
X2114712Y733239D01*
X2116166Y730721D01*
X2118221Y728666D01*
X2120739Y727212D01*
X2123546Y726460D01*
X2126453D01*
X2129261Y727212D01*
X2131779Y728666D01*
X2133834Y730721D01*
X2135288Y733239D01*
X2136040Y736047D01*
Y738953D01*
X2135288Y741761D01*
X2133834Y744279D01*
X2131779Y746334D01*
X2129261Y747788D01*
X2126453Y748540D01*
D02*
G37*
G36*
X2086040D02*
X2063960D01*
Y726460D01*
X2086040D01*
Y748540D01*
D02*
G37*
G36*
X1926453D02*
X1923546D01*
X1920739Y747788D01*
X1918221Y746334D01*
X1916166Y744279D01*
X1914712Y741761D01*
X1913960Y738953D01*
Y736047D01*
X1914712Y733239D01*
X1916166Y730721D01*
X1918221Y728666D01*
X1920739Y727212D01*
X1923546Y726460D01*
X1926453D01*
X1929261Y727212D01*
X1931779Y728666D01*
X1933834Y730721D01*
X1935287Y733239D01*
X1936040Y736047D01*
Y738953D01*
X1935287Y741761D01*
X1933834Y744279D01*
X1931779Y746334D01*
X1929261Y747788D01*
X1926453Y748540D01*
D02*
G37*
G36*
X1886040D02*
X1863960D01*
Y726460D01*
X1886040D01*
Y748540D01*
D02*
G37*
G36*
X1726454D02*
X1723547D01*
X1720739Y747788D01*
X1718221Y746334D01*
X1716166Y744279D01*
X1714713Y741761D01*
X1713960Y738953D01*
Y736047D01*
X1714713Y733239D01*
X1716166Y730721D01*
X1718221Y728666D01*
X1720739Y727212D01*
X1723547Y726460D01*
X1726454D01*
X1729261Y727212D01*
X1731779Y728666D01*
X1733835Y730721D01*
X1735288Y733239D01*
X1736040Y736047D01*
Y738953D01*
X1735288Y741761D01*
X1733835Y744279D01*
X1731779Y746334D01*
X1729261Y747788D01*
X1726454Y748540D01*
D02*
G37*
G36*
X1686040D02*
X1663960D01*
Y726460D01*
X1686040D01*
Y748540D01*
D02*
G37*
G36*
X826453Y748540D02*
X823547D01*
X820739Y747787D01*
X818221Y746334D01*
X816166Y744278D01*
X814712Y741761D01*
X813960Y738953D01*
Y736046D01*
X814712Y733238D01*
X816166Y730721D01*
X818221Y728665D01*
X820739Y727212D01*
X823547Y726460D01*
X826453D01*
X829261Y727212D01*
X831779Y728665D01*
X833834Y730721D01*
X835288Y733238D01*
X836040Y736046D01*
Y738953D01*
X835288Y741761D01*
X833834Y744278D01*
X831779Y746334D01*
X829261Y747787D01*
X826453Y748540D01*
D02*
G37*
G36*
X786040D02*
X763960D01*
Y726460D01*
X786040D01*
Y748540D01*
D02*
G37*
G36*
X626453D02*
X623546D01*
X620739Y747787D01*
X618221Y746334D01*
X616166Y744278D01*
X614712Y741761D01*
X613960Y738953D01*
Y736046D01*
X614712Y733238D01*
X616166Y730721D01*
X618221Y728665D01*
X620739Y727212D01*
X623546Y726460D01*
X626453D01*
X629261Y727212D01*
X631779Y728665D01*
X633834Y730721D01*
X635288Y733238D01*
X636040Y736046D01*
Y738953D01*
X635288Y741761D01*
X633834Y744278D01*
X631779Y746334D01*
X629261Y747787D01*
X626453Y748540D01*
D02*
G37*
G36*
X586040D02*
X563960D01*
Y726460D01*
X586040D01*
Y748540D01*
D02*
G37*
G36*
X426453D02*
X423546D01*
X420738Y747787D01*
X418221Y746334D01*
X416166Y744278D01*
X414712Y741761D01*
X413960Y738953D01*
Y736046D01*
X414712Y733238D01*
X416166Y730721D01*
X418221Y728665D01*
X420738Y727212D01*
X423546Y726460D01*
X426453D01*
X429261Y727212D01*
X431778Y728665D01*
X433834Y730721D01*
X435287Y733238D01*
X436040Y736046D01*
Y738953D01*
X435287Y741761D01*
X433834Y744278D01*
X431778Y746334D01*
X429261Y747787D01*
X426453Y748540D01*
D02*
G37*
G36*
X386040D02*
X363960D01*
Y726460D01*
X386040D01*
Y748540D01*
D02*
G37*
G36*
X226454D02*
X223547D01*
X220739Y747787D01*
X218221Y746334D01*
X216166Y744278D01*
X214713Y741761D01*
X213960Y738953D01*
Y736046D01*
X214713Y733238D01*
X216166Y730721D01*
X218221Y728665D01*
X220739Y727212D01*
X223547Y726460D01*
X226454D01*
X229261Y727212D01*
X231779Y728665D01*
X233834Y730721D01*
X235288Y733238D01*
X236040Y736046D01*
Y738953D01*
X235288Y741761D01*
X233834Y744278D01*
X231779Y746334D01*
X229261Y747787D01*
X226454Y748540D01*
D02*
G37*
G36*
X186040D02*
X163960D01*
Y726460D01*
X186040D01*
Y748540D01*
D02*
G37*
G36*
X1333760Y745022D02*
X1331270Y744695D01*
X1328949Y743733D01*
X1326956Y742204D01*
X1325427Y740211D01*
X1324466Y737891D01*
X1324138Y735400D01*
Y734400D01*
X1324466Y731910D01*
X1325427Y729589D01*
X1326956Y727596D01*
X1328949Y726067D01*
X1331270Y725106D01*
X1333760Y724778D01*
X1336250Y725106D01*
X1338571Y726067D01*
X1340564Y727596D01*
X1342093Y729589D01*
X1343054Y731910D01*
X1343382Y734400D01*
Y735400D01*
X1343054Y737891D01*
X1342093Y740211D01*
X1340564Y742204D01*
X1338571Y743733D01*
X1336250Y744695D01*
X1333760Y745022D01*
D02*
G37*
G36*
X1181560D02*
X1179070Y744695D01*
X1176749Y743733D01*
X1174756Y742204D01*
X1173227Y740211D01*
X1172266Y737891D01*
X1171938Y735400D01*
Y734400D01*
X1172266Y731910D01*
X1173227Y729589D01*
X1174756Y727596D01*
X1176749Y726067D01*
X1179070Y725106D01*
X1181560Y724778D01*
X1184051Y725106D01*
X1186371Y726067D01*
X1188364Y727596D01*
X1189893Y729589D01*
X1190855Y731910D01*
X1191182Y734400D01*
Y735400D01*
X1190855Y737891D01*
X1189893Y740211D01*
X1188364Y742204D01*
X1186371Y743733D01*
X1184051Y744695D01*
X1181560Y745022D01*
D02*
G37*
G36*
X1333760Y719622D02*
X1331270Y719295D01*
X1328949Y718333D01*
X1326956Y716804D01*
X1325427Y714811D01*
X1324466Y712491D01*
X1324138Y710000D01*
Y709000D01*
X1324466Y706510D01*
X1325427Y704189D01*
X1326956Y702196D01*
X1328949Y700667D01*
X1331270Y699706D01*
X1333760Y699378D01*
X1336250Y699706D01*
X1338571Y700667D01*
X1340564Y702196D01*
X1342093Y704189D01*
X1343054Y706510D01*
X1343382Y709000D01*
Y710000D01*
X1343054Y712491D01*
X1342093Y714811D01*
X1340564Y716804D01*
X1338571Y718333D01*
X1336250Y719295D01*
X1333760Y719622D01*
D02*
G37*
G36*
X1181560D02*
X1179070Y719295D01*
X1176749Y718333D01*
X1174756Y716804D01*
X1173227Y714811D01*
X1172266Y712491D01*
X1171938Y710000D01*
Y709000D01*
X1172266Y706510D01*
X1173227Y704189D01*
X1174756Y702196D01*
X1176749Y700667D01*
X1179070Y699706D01*
X1181560Y699378D01*
X1184051Y699706D01*
X1186371Y700667D01*
X1188364Y702196D01*
X1189893Y704189D01*
X1190855Y706510D01*
X1191182Y709000D01*
Y710000D01*
X1190855Y712491D01*
X1189893Y714811D01*
X1188364Y716804D01*
X1186371Y718333D01*
X1184051Y719295D01*
X1181560Y719622D01*
D02*
G37*
G36*
X2456955Y710290D02*
X2454246D01*
X2451629Y709589D01*
X2449282Y708234D01*
X2447366Y706318D01*
X2446012Y703972D01*
X2445310Y701355D01*
Y698645D01*
X2446012Y696028D01*
X2447366Y693682D01*
X2449282Y691766D01*
X2451629Y690411D01*
X2454246Y689710D01*
X2456955D01*
X2459572Y690411D01*
X2461918Y691766D01*
X2463834Y693682D01*
X2465189Y696028D01*
X2465890Y698645D01*
Y701355D01*
X2465189Y703972D01*
X2463834Y706318D01*
X2461918Y708234D01*
X2459572Y709589D01*
X2456955Y710290D01*
D02*
G37*
G36*
X2256955D02*
X2254245D01*
X2251628Y709589D01*
X2249282Y708234D01*
X2247366Y706318D01*
X2246011Y703972D01*
X2245310Y701355D01*
Y698645D01*
X2246011Y696028D01*
X2247366Y693682D01*
X2249282Y691766D01*
X2251628Y690411D01*
X2254245Y689710D01*
X2256955D01*
X2259572Y690411D01*
X2261918Y691766D01*
X2263834Y693682D01*
X2265189Y696028D01*
X2265890Y698645D01*
Y701355D01*
X2265189Y703972D01*
X2263834Y706318D01*
X2261918Y708234D01*
X2259572Y709589D01*
X2256955Y710290D01*
D02*
G37*
G36*
X2056955D02*
X2054245D01*
X2051628Y709589D01*
X2049282Y708234D01*
X2047366Y706318D01*
X2046011Y703972D01*
X2045310Y701355D01*
Y698645D01*
X2046011Y696028D01*
X2047366Y693682D01*
X2049282Y691766D01*
X2051628Y690411D01*
X2054245Y689710D01*
X2056955D01*
X2059572Y690411D01*
X2061918Y691766D01*
X2063834Y693682D01*
X2065189Y696028D01*
X2065890Y698645D01*
Y701355D01*
X2065189Y703972D01*
X2063834Y706318D01*
X2061918Y708234D01*
X2059572Y709589D01*
X2056955Y710290D01*
D02*
G37*
G36*
X1856955D02*
X1854245D01*
X1851628Y709589D01*
X1849282Y708234D01*
X1847366Y706318D01*
X1846011Y703972D01*
X1845310Y701355D01*
Y698645D01*
X1846011Y696028D01*
X1847366Y693682D01*
X1849282Y691766D01*
X1851628Y690411D01*
X1854245Y689710D01*
X1856955D01*
X1859572Y690411D01*
X1861918Y691766D01*
X1863834Y693682D01*
X1865189Y696028D01*
X1865890Y698645D01*
Y701355D01*
X1865189Y703972D01*
X1863834Y706318D01*
X1861918Y708234D01*
X1859572Y709589D01*
X1856955Y710290D01*
D02*
G37*
G36*
X1656954D02*
X1654245D01*
X1651628Y709589D01*
X1649282Y708234D01*
X1647366Y706318D01*
X1646011Y703972D01*
X1645310Y701355D01*
Y698645D01*
X1646011Y696028D01*
X1647366Y693682D01*
X1649282Y691766D01*
X1651628Y690411D01*
X1654245Y689710D01*
X1656954D01*
X1659572Y690411D01*
X1661918Y691766D01*
X1663834Y693682D01*
X1665189Y696028D01*
X1665890Y698645D01*
Y701355D01*
X1665189Y703972D01*
X1663834Y706318D01*
X1661918Y708234D01*
X1659572Y709589D01*
X1656954Y710290D01*
D02*
G37*
G36*
X156954Y710290D02*
X154245D01*
X151628Y709588D01*
X149282Y708234D01*
X147366Y706318D01*
X146011Y703971D01*
X145310Y701354D01*
Y698645D01*
X146011Y696028D01*
X147366Y693681D01*
X149282Y691766D01*
X151628Y690411D01*
X154245Y689709D01*
X156954D01*
X159572Y690411D01*
X161918Y691766D01*
X163834Y693681D01*
X165189Y696028D01*
X165890Y698645D01*
Y701354D01*
X165189Y703971D01*
X163834Y706318D01*
X161918Y708234D01*
X159572Y709588D01*
X156954Y710290D01*
D02*
G37*
G36*
X2554690Y710290D02*
X2534110D01*
Y705139D01*
X2527000D01*
X2525034Y704748D01*
X2523366Y703634D01*
X2506871Y687139D01*
X2382128D01*
X2365634Y703634D01*
X2363967Y704748D01*
X2362000Y705139D01*
X2354690D01*
Y710290D01*
X2334110D01*
Y705139D01*
X2322000D01*
X2320034Y704748D01*
X2318366Y703634D01*
X2301871Y687139D01*
X2183129D01*
X2166634Y703634D01*
X2164966Y704748D01*
X2163000Y705139D01*
X2154690D01*
Y710290D01*
X2134110D01*
Y705139D01*
X2128000D01*
X2126033Y704748D01*
X2124366Y703634D01*
X2105871Y685139D01*
X1990128D01*
X1971634Y703634D01*
X1969966Y704748D01*
X1968000Y705139D01*
X1954690D01*
Y710290D01*
X1934110D01*
Y705139D01*
X1926000D01*
X1924034Y704748D01*
X1922366Y703634D01*
X1905871Y687139D01*
X1781129D01*
X1764634Y703634D01*
X1762966Y704748D01*
X1761000Y705139D01*
X1754690D01*
Y710290D01*
X1734110D01*
Y705139D01*
X1713000D01*
X1711033Y704748D01*
X1709366Y703634D01*
X1691871Y686139D01*
X1428000D01*
X1426033Y685748D01*
X1424366Y684634D01*
X1379872Y640139D01*
X1119128D01*
X1055634Y703633D01*
X1053967Y704747D01*
X1052001Y705138D01*
X854690D01*
Y710290D01*
X834110D01*
Y705138D01*
X831000D01*
X829033Y704747D01*
X827366Y703633D01*
X813872Y690139D01*
X761641D01*
X761300Y691409D01*
X761918Y691766D01*
X763834Y693681D01*
X765189Y696028D01*
X765890Y698645D01*
Y701354D01*
X765189Y703971D01*
X763834Y706318D01*
X761918Y708234D01*
X759572Y709588D01*
X756955Y710290D01*
X754245D01*
X751628Y709588D01*
X749282Y708234D01*
X747366Y706318D01*
X746011Y703971D01*
X745310Y701354D01*
Y698645D01*
X746011Y696028D01*
X747366Y693681D01*
X749282Y691766D01*
X749900Y691409D01*
X749559Y690139D01*
X672129D01*
X658634Y703633D01*
X656967Y704747D01*
X655001Y705138D01*
X654690D01*
Y710290D01*
X634110D01*
Y705138D01*
X632999D01*
X631033Y704747D01*
X629366Y703633D01*
X617872Y692139D01*
X563951D01*
X563465Y693312D01*
X563834Y693681D01*
X565189Y696028D01*
X565890Y698645D01*
Y701354D01*
X565189Y703971D01*
X563834Y706318D01*
X561918Y708234D01*
X559572Y709588D01*
X556955Y710290D01*
X554245D01*
X551628Y709588D01*
X549282Y708234D01*
X547366Y706318D01*
X546011Y703971D01*
X545310Y701354D01*
Y698645D01*
X546011Y696028D01*
X547366Y693681D01*
X547735Y693312D01*
X547249Y692139D01*
X470129D01*
X458634Y703633D01*
X456967Y704747D01*
X455000Y705138D01*
X454690D01*
Y710290D01*
X434110D01*
Y705138D01*
X433999D01*
X432033Y704747D01*
X430366Y703633D01*
X416871Y690139D01*
X361641D01*
X361300Y691409D01*
X361918Y691766D01*
X363834Y693681D01*
X365189Y696028D01*
X365890Y698645D01*
Y701354D01*
X365189Y703971D01*
X363834Y706318D01*
X361918Y708234D01*
X359572Y709588D01*
X356955Y710290D01*
X354245D01*
X351628Y709588D01*
X349282Y708234D01*
X347366Y706318D01*
X346011Y703971D01*
X345310Y701354D01*
Y698645D01*
X346011Y696028D01*
X347366Y693681D01*
X349282Y691766D01*
X349900Y691409D01*
X349559Y690139D01*
X271129D01*
X258106Y703161D01*
X256439Y704275D01*
X254690Y704623D01*
Y710290D01*
X234110D01*
Y689709D01*
X254690D01*
Y690383D01*
X255863Y690869D01*
X265366Y681366D01*
X267034Y680252D01*
X269000Y679861D01*
X419000D01*
X420966Y680252D01*
X422634Y681366D01*
X432937Y691669D01*
X434110Y691183D01*
Y689709D01*
X454690D01*
Y691384D01*
X455863Y691870D01*
X464366Y683366D01*
X466034Y682252D01*
X468000Y681861D01*
X620000D01*
X621967Y682252D01*
X623634Y683366D01*
X632937Y692669D01*
X634110Y692183D01*
Y689709D01*
X654690D01*
Y691384D01*
X655863Y691870D01*
X666366Y681366D01*
X668034Y680252D01*
X670000Y679861D01*
X816000D01*
X817967Y680252D01*
X819634Y681366D01*
X832840Y694573D01*
X834110Y694165D01*
Y689709D01*
X854690D01*
Y694861D01*
X1049872D01*
X1113366Y631366D01*
X1115033Y630252D01*
X1117000Y629861D01*
X1382000D01*
X1383967Y630252D01*
X1385634Y631366D01*
X1430128Y675861D01*
X1694000D01*
X1695966Y676252D01*
X1697633Y677366D01*
X1715128Y694861D01*
X1734110D01*
Y689710D01*
X1754690D01*
Y694861D01*
X1758871D01*
X1775366Y678366D01*
X1777034Y677252D01*
X1779000Y676861D01*
X1908000D01*
X1909966Y677252D01*
X1911634Y678366D01*
X1928129Y694861D01*
X1934110D01*
Y689710D01*
X1954690D01*
Y694861D01*
X1965871D01*
X1984366Y676366D01*
X1986033Y675252D01*
X1988000Y674861D01*
X2108000D01*
X2109966Y675252D01*
X2111634Y676366D01*
X2130128Y694861D01*
X2134110D01*
Y689710D01*
X2154690D01*
Y694861D01*
X2160871D01*
X2177366Y678366D01*
X2179034Y677252D01*
X2181000Y676861D01*
X2304000D01*
X2305966Y677252D01*
X2307634Y678366D01*
X2324129Y694861D01*
X2334110D01*
Y689710D01*
X2354690D01*
Y694861D01*
X2359872D01*
X2376366Y678366D01*
X2378033Y677252D01*
X2380000Y676861D01*
X2509000D01*
X2510966Y677252D01*
X2512634Y678366D01*
X2529129Y694861D01*
X2534110D01*
Y689710D01*
X2554690D01*
Y710290D01*
D02*
G37*
G36*
X1335030Y694055D02*
Y685370D01*
X1343281D01*
X1343054Y687091D01*
X1342093Y689411D01*
X1340564Y691404D01*
X1338571Y692933D01*
X1336250Y693895D01*
X1335030Y694055D01*
D02*
G37*
G36*
X1332490D02*
X1331270Y693895D01*
X1328949Y692933D01*
X1326956Y691404D01*
X1325427Y689411D01*
X1324466Y687091D01*
X1324239Y685370D01*
X1332490D01*
Y694055D01*
D02*
G37*
G36*
X1343281Y682830D02*
X1335030D01*
Y674145D01*
X1336250Y674306D01*
X1338571Y675267D01*
X1340564Y676796D01*
X1342093Y678789D01*
X1343054Y681110D01*
X1343281Y682830D01*
D02*
G37*
G36*
X1332490D02*
X1324239D01*
X1324466Y681110D01*
X1325427Y678789D01*
X1326956Y676796D01*
X1328949Y675267D01*
X1331270Y674306D01*
X1332490Y674145D01*
Y682830D01*
D02*
G37*
G36*
X1181560Y694222D02*
X1179070Y693895D01*
X1176749Y692933D01*
X1174756Y691404D01*
X1173227Y689411D01*
X1172266Y687091D01*
X1171938Y684600D01*
Y683600D01*
X1172266Y681110D01*
X1173227Y678789D01*
X1174756Y676796D01*
X1176749Y675267D01*
X1179070Y674306D01*
X1181560Y673978D01*
X1184051Y674306D01*
X1186371Y675267D01*
X1188364Y676796D01*
X1189893Y678789D01*
X1190855Y681110D01*
X1191182Y683600D01*
Y684600D01*
X1190855Y687091D01*
X1189893Y689411D01*
X1188364Y691404D01*
X1186371Y692933D01*
X1184051Y693895D01*
X1181560Y694222D01*
D02*
G37*
G36*
X2526454Y673540D02*
X2523547D01*
X2520739Y672788D01*
X2518221Y671334D01*
X2516166Y669279D01*
X2514713Y666761D01*
X2513960Y663953D01*
Y661047D01*
X2514713Y658239D01*
X2516166Y655721D01*
X2518221Y653666D01*
X2520739Y652212D01*
X2523547Y651460D01*
X2526454D01*
X2529261Y652212D01*
X2531779Y653666D01*
X2533834Y655721D01*
X2535288Y658239D01*
X2536040Y661047D01*
Y663953D01*
X2535288Y666761D01*
X2533834Y669279D01*
X2531779Y671334D01*
X2529261Y672788D01*
X2526454Y673540D01*
D02*
G37*
G36*
X2476453D02*
X2473546D01*
X2470739Y672788D01*
X2468221Y671334D01*
X2466166Y669279D01*
X2464712Y666761D01*
X2463960Y663953D01*
Y661047D01*
X2464712Y658239D01*
X2466166Y655721D01*
X2468221Y653666D01*
X2470739Y652212D01*
X2473546Y651460D01*
X2476453D01*
X2479261Y652212D01*
X2481779Y653666D01*
X2483834Y655721D01*
X2485287Y658239D01*
X2486040Y661047D01*
Y663953D01*
X2485287Y666761D01*
X2483834Y669279D01*
X2481779Y671334D01*
X2479261Y672788D01*
X2476453Y673540D01*
D02*
G37*
G36*
X2326454D02*
X2323547D01*
X2320739Y672788D01*
X2318221Y671334D01*
X2316166Y669279D01*
X2314712Y666761D01*
X2313960Y663953D01*
Y661047D01*
X2314712Y658239D01*
X2316166Y655721D01*
X2318221Y653666D01*
X2320739Y652212D01*
X2323547Y651460D01*
X2326454D01*
X2329261Y652212D01*
X2331779Y653666D01*
X2333834Y655721D01*
X2335288Y658239D01*
X2336040Y661047D01*
Y663953D01*
X2335288Y666761D01*
X2333834Y669279D01*
X2331779Y671334D01*
X2329261Y672788D01*
X2326454Y673540D01*
D02*
G37*
G36*
X2276454D02*
X2273547D01*
X2270739Y672788D01*
X2268221Y671334D01*
X2266166Y669279D01*
X2264713Y666761D01*
X2263960Y663953D01*
Y661047D01*
X2264713Y658239D01*
X2266166Y655721D01*
X2268221Y653666D01*
X2270739Y652212D01*
X2273547Y651460D01*
X2276454D01*
X2279261Y652212D01*
X2281779Y653666D01*
X2283834Y655721D01*
X2285288Y658239D01*
X2286040Y661047D01*
Y663953D01*
X2285288Y666761D01*
X2283834Y669279D01*
X2281779Y671334D01*
X2279261Y672788D01*
X2276454Y673540D01*
D02*
G37*
G36*
X2126453D02*
X2123546D01*
X2120739Y672788D01*
X2118221Y671334D01*
X2116166Y669279D01*
X2114712Y666761D01*
X2113960Y663953D01*
Y661047D01*
X2114712Y658239D01*
X2116166Y655721D01*
X2118221Y653666D01*
X2120739Y652212D01*
X2123546Y651460D01*
X2126453D01*
X2129261Y652212D01*
X2131779Y653666D01*
X2133834Y655721D01*
X2135288Y658239D01*
X2136040Y661047D01*
Y663953D01*
X2135288Y666761D01*
X2133834Y669279D01*
X2131779Y671334D01*
X2129261Y672788D01*
X2126453Y673540D01*
D02*
G37*
G36*
X2076454D02*
X2073547D01*
X2070739Y672788D01*
X2068221Y671334D01*
X2066166Y669279D01*
X2064712Y666761D01*
X2063960Y663953D01*
Y661047D01*
X2064712Y658239D01*
X2066166Y655721D01*
X2068221Y653666D01*
X2070739Y652212D01*
X2073547Y651460D01*
X2076454D01*
X2079261Y652212D01*
X2081779Y653666D01*
X2083834Y655721D01*
X2085288Y658239D01*
X2086040Y661047D01*
Y663953D01*
X2085288Y666761D01*
X2083834Y669279D01*
X2081779Y671334D01*
X2079261Y672788D01*
X2076454Y673540D01*
D02*
G37*
G36*
X1926453D02*
X1923546D01*
X1920739Y672788D01*
X1918221Y671334D01*
X1916166Y669279D01*
X1914712Y666761D01*
X1913960Y663953D01*
Y661047D01*
X1914712Y658239D01*
X1916166Y655721D01*
X1918221Y653666D01*
X1920739Y652212D01*
X1923546Y651460D01*
X1926453D01*
X1929261Y652212D01*
X1931779Y653666D01*
X1933834Y655721D01*
X1935287Y658239D01*
X1936040Y661047D01*
Y663953D01*
X1935287Y666761D01*
X1933834Y669279D01*
X1931779Y671334D01*
X1929261Y672788D01*
X1926453Y673540D01*
D02*
G37*
G36*
X1876453D02*
X1873546D01*
X1870739Y672788D01*
X1868221Y671334D01*
X1866166Y669279D01*
X1864712Y666761D01*
X1863960Y663953D01*
Y661047D01*
X1864712Y658239D01*
X1866166Y655721D01*
X1868221Y653666D01*
X1870739Y652212D01*
X1873546Y651460D01*
X1876453D01*
X1879261Y652212D01*
X1881779Y653666D01*
X1883834Y655721D01*
X1885288Y658239D01*
X1886040Y661047D01*
Y663953D01*
X1885288Y666761D01*
X1883834Y669279D01*
X1881779Y671334D01*
X1879261Y672788D01*
X1876453Y673540D01*
D02*
G37*
G36*
X1726454D02*
X1723547D01*
X1720739Y672788D01*
X1718221Y671334D01*
X1716166Y669279D01*
X1714713Y666761D01*
X1713960Y663953D01*
Y661047D01*
X1714713Y658239D01*
X1716166Y655721D01*
X1718221Y653666D01*
X1720739Y652212D01*
X1723547Y651460D01*
X1726454D01*
X1729261Y652212D01*
X1731779Y653666D01*
X1733835Y655721D01*
X1735288Y658239D01*
X1736040Y661047D01*
Y663953D01*
X1735288Y666761D01*
X1733835Y669279D01*
X1731779Y671334D01*
X1729261Y672788D01*
X1726454Y673540D01*
D02*
G37*
G36*
X1676453D02*
X1673546D01*
X1670739Y672788D01*
X1668221Y671334D01*
X1666166Y669279D01*
X1664712Y666761D01*
X1663960Y663953D01*
Y661047D01*
X1664712Y658239D01*
X1666166Y655721D01*
X1668221Y653666D01*
X1670739Y652212D01*
X1673546Y651460D01*
X1676453D01*
X1679261Y652212D01*
X1681779Y653666D01*
X1683834Y655721D01*
X1685287Y658239D01*
X1686040Y661047D01*
Y663953D01*
X1685287Y666761D01*
X1683834Y669279D01*
X1681779Y671334D01*
X1679261Y672788D01*
X1676453Y673540D01*
D02*
G37*
G36*
X1526454D02*
X1523547D01*
X1520739Y672788D01*
X1518221Y671334D01*
X1516166Y669279D01*
X1514713Y666761D01*
X1513960Y663953D01*
Y661047D01*
X1514713Y658239D01*
X1516166Y655721D01*
X1518221Y653666D01*
X1520739Y652212D01*
X1523547Y651460D01*
X1526454D01*
X1529261Y652212D01*
X1531779Y653666D01*
X1533834Y655721D01*
X1535288Y658239D01*
X1536040Y661047D01*
Y663953D01*
X1535288Y666761D01*
X1533834Y669279D01*
X1531779Y671334D01*
X1529261Y672788D01*
X1526454Y673540D01*
D02*
G37*
G36*
X1476454D02*
X1473547D01*
X1470739Y672788D01*
X1468221Y671334D01*
X1466166Y669279D01*
X1464713Y666761D01*
X1463960Y663953D01*
Y661047D01*
X1464713Y658239D01*
X1466166Y655721D01*
X1468221Y653666D01*
X1470739Y652212D01*
X1473547Y651460D01*
X1476454D01*
X1479261Y652212D01*
X1481779Y653666D01*
X1483834Y655721D01*
X1485288Y658239D01*
X1486040Y661047D01*
Y663953D01*
X1485288Y666761D01*
X1483834Y669279D01*
X1481779Y671334D01*
X1479261Y672788D01*
X1476454Y673540D01*
D02*
G37*
G36*
X1026454Y673539D02*
X1023547D01*
X1020739Y672787D01*
X1018221Y671334D01*
X1016166Y669278D01*
X1014713Y666761D01*
X1013960Y663953D01*
Y661046D01*
X1014713Y658238D01*
X1016166Y655721D01*
X1018221Y653665D01*
X1020739Y652212D01*
X1023547Y651460D01*
X1026454D01*
X1029261Y652212D01*
X1031779Y653665D01*
X1033834Y655721D01*
X1035288Y658238D01*
X1036040Y661046D01*
Y663953D01*
X1035288Y666761D01*
X1033834Y669278D01*
X1031779Y671334D01*
X1029261Y672787D01*
X1026454Y673539D01*
D02*
G37*
G36*
X976454D02*
X973547D01*
X970739Y672787D01*
X968222Y671334D01*
X966166Y669278D01*
X964713Y666761D01*
X963960Y663953D01*
Y661046D01*
X964713Y658238D01*
X966166Y655721D01*
X968222Y653665D01*
X970739Y652212D01*
X973547Y651460D01*
X976454D01*
X979261Y652212D01*
X981779Y653665D01*
X983834Y655721D01*
X985288Y658238D01*
X986040Y661046D01*
Y663953D01*
X985288Y666761D01*
X983834Y669278D01*
X981779Y671334D01*
X979261Y672787D01*
X976454Y673539D01*
D02*
G37*
G36*
X826453D02*
X823547D01*
X820739Y672787D01*
X818221Y671334D01*
X816166Y669278D01*
X814712Y666761D01*
X813960Y663953D01*
Y661046D01*
X814712Y658238D01*
X816166Y655721D01*
X818221Y653665D01*
X820739Y652212D01*
X823547Y651460D01*
X826453D01*
X829261Y652212D01*
X831779Y653665D01*
X833834Y655721D01*
X835288Y658238D01*
X836040Y661046D01*
Y663953D01*
X835288Y666761D01*
X833834Y669278D01*
X831779Y671334D01*
X829261Y672787D01*
X826453Y673539D01*
D02*
G37*
G36*
X776454D02*
X773547D01*
X770739Y672787D01*
X768221Y671334D01*
X766166Y669278D01*
X764713Y666761D01*
X763960Y663953D01*
Y661046D01*
X764713Y658238D01*
X766166Y655721D01*
X768221Y653665D01*
X770739Y652212D01*
X773547Y651460D01*
X776454D01*
X779261Y652212D01*
X781779Y653665D01*
X783834Y655721D01*
X785288Y658238D01*
X786040Y661046D01*
Y663953D01*
X785288Y666761D01*
X783834Y669278D01*
X781779Y671334D01*
X779261Y672787D01*
X776454Y673539D01*
D02*
G37*
G36*
X626453D02*
X623546D01*
X620739Y672787D01*
X618221Y671334D01*
X616166Y669278D01*
X614712Y666761D01*
X613960Y663953D01*
Y661046D01*
X614712Y658238D01*
X616166Y655721D01*
X618221Y653665D01*
X620739Y652212D01*
X623546Y651460D01*
X626453D01*
X629261Y652212D01*
X631779Y653665D01*
X633834Y655721D01*
X635288Y658238D01*
X636040Y661046D01*
Y663953D01*
X635288Y666761D01*
X633834Y669278D01*
X631779Y671334D01*
X629261Y672787D01*
X626453Y673539D01*
D02*
G37*
G36*
X576454D02*
X573547D01*
X570739Y672787D01*
X568221Y671334D01*
X566166Y669278D01*
X564712Y666761D01*
X563960Y663953D01*
Y661046D01*
X564712Y658238D01*
X566166Y655721D01*
X568221Y653665D01*
X570739Y652212D01*
X573547Y651460D01*
X576454D01*
X579261Y652212D01*
X581779Y653665D01*
X583834Y655721D01*
X585288Y658238D01*
X586040Y661046D01*
Y663953D01*
X585288Y666761D01*
X583834Y669278D01*
X581779Y671334D01*
X579261Y672787D01*
X576454Y673539D01*
D02*
G37*
G36*
X426453D02*
X423546D01*
X420738Y672787D01*
X418221Y671334D01*
X416166Y669278D01*
X414712Y666761D01*
X413960Y663953D01*
Y661046D01*
X414712Y658238D01*
X416166Y655721D01*
X418221Y653665D01*
X420738Y652212D01*
X423546Y651460D01*
X426453D01*
X429261Y652212D01*
X431778Y653665D01*
X433834Y655721D01*
X435287Y658238D01*
X436040Y661046D01*
Y663953D01*
X435287Y666761D01*
X433834Y669278D01*
X431778Y671334D01*
X429261Y672787D01*
X426453Y673539D01*
D02*
G37*
G36*
X376453D02*
X373546D01*
X370739Y672787D01*
X368221Y671334D01*
X366166Y669278D01*
X364712Y666761D01*
X363960Y663953D01*
Y661046D01*
X364712Y658238D01*
X366166Y655721D01*
X368221Y653665D01*
X370739Y652212D01*
X373546Y651460D01*
X376453D01*
X379261Y652212D01*
X381779Y653665D01*
X383834Y655721D01*
X385288Y658238D01*
X386040Y661046D01*
Y663953D01*
X385288Y666761D01*
X383834Y669278D01*
X381779Y671334D01*
X379261Y672787D01*
X376453Y673539D01*
D02*
G37*
G36*
X226454D02*
X223547D01*
X220739Y672787D01*
X218221Y671334D01*
X216166Y669278D01*
X214713Y666761D01*
X213960Y663953D01*
Y661046D01*
X214713Y658238D01*
X216166Y655721D01*
X218221Y653665D01*
X220739Y652212D01*
X223547Y651460D01*
X226454D01*
X229261Y652212D01*
X231779Y653665D01*
X233834Y655721D01*
X235288Y658238D01*
X236040Y661046D01*
Y663953D01*
X235288Y666761D01*
X233834Y669278D01*
X231779Y671334D01*
X229261Y672787D01*
X226454Y673539D01*
D02*
G37*
G36*
X176453D02*
X173546D01*
X170739Y672787D01*
X168221Y671334D01*
X166166Y669278D01*
X164712Y666761D01*
X163960Y663953D01*
Y661046D01*
X164712Y658238D01*
X166166Y655721D01*
X168221Y653665D01*
X170739Y652212D01*
X173546Y651460D01*
X176453D01*
X179261Y652212D01*
X181779Y653665D01*
X183834Y655721D01*
X185287Y658238D01*
X186040Y661046D01*
Y663953D01*
X185287Y666761D01*
X183834Y669278D01*
X181779Y671334D01*
X179261Y672787D01*
X176453Y673539D01*
D02*
G37*
G36*
X1333760Y668822D02*
X1331270Y668495D01*
X1328949Y667533D01*
X1326956Y666004D01*
X1325427Y664011D01*
X1324466Y661691D01*
X1324138Y659200D01*
Y658200D01*
X1324466Y655710D01*
X1325427Y653389D01*
X1326956Y651396D01*
X1328949Y649867D01*
X1331270Y648906D01*
X1333760Y648578D01*
X1336250Y648906D01*
X1338571Y649867D01*
X1340564Y651396D01*
X1342093Y653389D01*
X1343054Y655710D01*
X1343382Y658200D01*
Y659200D01*
X1343054Y661691D01*
X1342093Y664011D01*
X1340564Y666004D01*
X1338571Y667533D01*
X1336250Y668495D01*
X1333760Y668822D01*
D02*
G37*
G36*
X1181560D02*
X1179070Y668495D01*
X1176749Y667533D01*
X1174756Y666004D01*
X1173227Y664011D01*
X1172266Y661691D01*
X1171938Y659200D01*
Y658200D01*
X1172266Y655710D01*
X1173227Y653389D01*
X1174756Y651396D01*
X1176749Y649867D01*
X1179070Y648906D01*
X1181560Y648578D01*
X1184051Y648906D01*
X1186371Y649867D01*
X1188364Y651396D01*
X1189893Y653389D01*
X1190855Y655710D01*
X1191182Y658200D01*
Y659200D01*
X1190855Y661691D01*
X1189893Y664011D01*
X1188364Y666004D01*
X1186371Y667533D01*
X1184051Y668495D01*
X1181560Y668822D01*
D02*
G37*
G36*
X2526454Y548540D02*
X2523547D01*
X2520739Y547788D01*
X2518221Y546334D01*
X2516166Y544279D01*
X2514713Y541761D01*
X2513960Y538953D01*
Y536046D01*
X2514713Y533239D01*
X2516166Y530721D01*
X2518221Y528666D01*
X2520739Y527212D01*
X2523547Y526460D01*
X2526454D01*
X2529261Y527212D01*
X2531779Y528666D01*
X2533834Y530721D01*
X2535288Y533239D01*
X2536040Y536046D01*
Y538953D01*
X2535288Y541761D01*
X2533834Y544279D01*
X2531779Y546334D01*
X2529261Y547788D01*
X2526454Y548540D01*
D02*
G37*
G36*
X2486040D02*
X2463960D01*
Y526460D01*
X2486040D01*
Y548540D01*
D02*
G37*
G36*
X2326454D02*
X2323547D01*
X2320739Y547788D01*
X2318221Y546334D01*
X2316166Y544279D01*
X2314712Y541761D01*
X2313960Y538953D01*
Y536046D01*
X2314712Y533239D01*
X2316166Y530721D01*
X2318221Y528666D01*
X2320739Y527212D01*
X2323547Y526460D01*
X2326454D01*
X2329261Y527212D01*
X2331779Y528666D01*
X2333834Y530721D01*
X2335288Y533239D01*
X2336040Y536046D01*
Y538953D01*
X2335288Y541761D01*
X2333834Y544279D01*
X2331779Y546334D01*
X2329261Y547788D01*
X2326454Y548540D01*
D02*
G37*
G36*
X2286040D02*
X2263960D01*
Y526460D01*
X2286040D01*
Y548540D01*
D02*
G37*
G36*
X2126453D02*
X2123546D01*
X2120739Y547788D01*
X2118221Y546334D01*
X2116166Y544279D01*
X2114712Y541761D01*
X2113960Y538953D01*
Y536046D01*
X2114712Y533239D01*
X2116166Y530721D01*
X2118221Y528666D01*
X2120739Y527212D01*
X2123546Y526460D01*
X2126453D01*
X2129261Y527212D01*
X2131779Y528666D01*
X2133834Y530721D01*
X2135288Y533239D01*
X2136040Y536046D01*
Y538953D01*
X2135288Y541761D01*
X2133834Y544279D01*
X2131779Y546334D01*
X2129261Y547788D01*
X2126453Y548540D01*
D02*
G37*
G36*
X2086040D02*
X2063960D01*
Y526460D01*
X2086040D01*
Y548540D01*
D02*
G37*
G36*
X1926453D02*
X1923546D01*
X1920739Y547788D01*
X1918221Y546334D01*
X1916166Y544279D01*
X1914712Y541761D01*
X1913960Y538953D01*
Y536046D01*
X1914712Y533239D01*
X1916166Y530721D01*
X1918221Y528666D01*
X1920739Y527212D01*
X1923546Y526460D01*
X1926453D01*
X1929261Y527212D01*
X1931779Y528666D01*
X1933834Y530721D01*
X1935287Y533239D01*
X1936040Y536046D01*
Y538953D01*
X1935287Y541761D01*
X1933834Y544279D01*
X1931779Y546334D01*
X1929261Y547788D01*
X1926453Y548540D01*
D02*
G37*
G36*
X1886040D02*
X1863960D01*
Y526460D01*
X1886040D01*
Y548540D01*
D02*
G37*
G36*
X1726454D02*
X1723547D01*
X1720739Y547788D01*
X1718221Y546334D01*
X1716166Y544279D01*
X1714713Y541761D01*
X1713960Y538953D01*
Y536046D01*
X1714713Y533239D01*
X1716166Y530721D01*
X1718221Y528666D01*
X1720739Y527212D01*
X1723547Y526460D01*
X1726454D01*
X1729261Y527212D01*
X1731779Y528666D01*
X1733835Y530721D01*
X1735288Y533239D01*
X1736040Y536046D01*
Y538953D01*
X1735288Y541761D01*
X1733835Y544279D01*
X1731779Y546334D01*
X1729261Y547788D01*
X1726454Y548540D01*
D02*
G37*
G36*
X1686040D02*
X1663960D01*
Y526460D01*
X1686040D01*
Y548540D01*
D02*
G37*
G36*
X1526454D02*
X1523547D01*
X1520739Y547788D01*
X1518221Y546334D01*
X1516166Y544279D01*
X1514713Y541761D01*
X1513960Y538953D01*
Y536046D01*
X1514713Y533239D01*
X1516166Y530721D01*
X1518221Y528666D01*
X1520739Y527212D01*
X1523547Y526460D01*
X1526454D01*
X1529261Y527212D01*
X1531779Y528666D01*
X1533834Y530721D01*
X1535288Y533239D01*
X1536040Y536046D01*
Y538953D01*
X1535288Y541761D01*
X1533834Y544279D01*
X1531779Y546334D01*
X1529261Y547788D01*
X1526454Y548540D01*
D02*
G37*
G36*
X1486040D02*
X1463960D01*
Y526460D01*
X1486040D01*
Y548540D01*
D02*
G37*
G36*
X1026454Y548539D02*
X1023547D01*
X1020739Y547787D01*
X1018221Y546334D01*
X1016166Y544278D01*
X1014713Y541761D01*
X1013960Y538953D01*
Y536046D01*
X1014713Y533238D01*
X1016166Y530721D01*
X1018221Y528665D01*
X1020739Y527212D01*
X1023547Y526460D01*
X1026454D01*
X1029261Y527212D01*
X1031779Y528665D01*
X1033834Y530721D01*
X1035288Y533238D01*
X1036040Y536046D01*
Y538953D01*
X1035288Y541761D01*
X1033834Y544278D01*
X1031779Y546334D01*
X1029261Y547787D01*
X1026454Y548539D01*
D02*
G37*
G36*
X986040D02*
X963960D01*
Y526460D01*
X986040D01*
Y548539D01*
D02*
G37*
G36*
X826453D02*
X823547D01*
X820739Y547787D01*
X818221Y546334D01*
X816166Y544278D01*
X814712Y541761D01*
X813960Y538953D01*
Y536046D01*
X814712Y533238D01*
X816166Y530721D01*
X818221Y528665D01*
X820739Y527212D01*
X823547Y526460D01*
X826453D01*
X829261Y527212D01*
X831779Y528665D01*
X833834Y530721D01*
X835288Y533238D01*
X836040Y536046D01*
Y538953D01*
X835288Y541761D01*
X833834Y544278D01*
X831779Y546334D01*
X829261Y547787D01*
X826453Y548539D01*
D02*
G37*
G36*
X786040D02*
X763960D01*
Y526460D01*
X786040D01*
Y548539D01*
D02*
G37*
G36*
X626453D02*
X623546D01*
X620739Y547787D01*
X618221Y546334D01*
X616166Y544278D01*
X614712Y541761D01*
X613960Y538953D01*
Y536046D01*
X614712Y533238D01*
X616166Y530721D01*
X618221Y528665D01*
X620739Y527212D01*
X623546Y526460D01*
X626453D01*
X629261Y527212D01*
X631779Y528665D01*
X633834Y530721D01*
X635288Y533238D01*
X636040Y536046D01*
Y538953D01*
X635288Y541761D01*
X633834Y544278D01*
X631779Y546334D01*
X629261Y547787D01*
X626453Y548539D01*
D02*
G37*
G36*
X586040D02*
X563960D01*
Y526460D01*
X586040D01*
Y548539D01*
D02*
G37*
G36*
X426453D02*
X423546D01*
X420738Y547787D01*
X418221Y546334D01*
X416166Y544278D01*
X414712Y541761D01*
X413960Y538953D01*
Y536046D01*
X414712Y533238D01*
X416166Y530721D01*
X418221Y528665D01*
X420738Y527212D01*
X423546Y526460D01*
X426453D01*
X429261Y527212D01*
X431778Y528665D01*
X433834Y530721D01*
X435287Y533238D01*
X436040Y536046D01*
Y538953D01*
X435287Y541761D01*
X433834Y544278D01*
X431778Y546334D01*
X429261Y547787D01*
X426453Y548539D01*
D02*
G37*
G36*
X386040D02*
X363960D01*
Y526460D01*
X386040D01*
Y548539D01*
D02*
G37*
G36*
X226454D02*
X223547D01*
X220739Y547787D01*
X218221Y546334D01*
X216166Y544278D01*
X214713Y541761D01*
X213960Y538953D01*
Y536046D01*
X214713Y533238D01*
X216166Y530721D01*
X218221Y528665D01*
X220739Y527212D01*
X223547Y526460D01*
X226454D01*
X229261Y527212D01*
X231779Y528665D01*
X233834Y530721D01*
X235288Y533238D01*
X236040Y536046D01*
Y538953D01*
X235288Y541761D01*
X233834Y544278D01*
X231779Y546334D01*
X229261Y547787D01*
X226454Y548539D01*
D02*
G37*
G36*
X186040D02*
X163960D01*
Y526460D01*
X186040D01*
Y548539D01*
D02*
G37*
G36*
X1084170Y527890D02*
X1081830D01*
X1079569Y527284D01*
X1077541Y526114D01*
X1075886Y524459D01*
X1075702Y524139D01*
X263401D01*
X261434Y523748D01*
X259767Y522634D01*
X247423Y510289D01*
X234110D01*
Y489709D01*
X254690D01*
Y490383D01*
X255863Y490869D01*
X272366Y474366D01*
X274034Y473252D01*
X276000Y472861D01*
X408000D01*
X409967Y473252D01*
X411634Y474366D01*
X432128Y494861D01*
X434110D01*
Y489709D01*
X454690D01*
Y491384D01*
X455863Y491870D01*
X472366Y475366D01*
X474034Y474252D01*
X476000Y473861D01*
X607000D01*
X608966Y474252D01*
X610634Y475366D01*
X630128Y494861D01*
X634110D01*
Y489709D01*
X654690D01*
Y494861D01*
X656872D01*
X676366Y475366D01*
X678034Y474252D01*
X680000Y473861D01*
X808000D01*
X809967Y474252D01*
X811634Y475366D01*
X831128Y494861D01*
X834110D01*
Y489709D01*
X854690D01*
Y492383D01*
X855863Y492869D01*
X872366Y476366D01*
X874034Y475252D01*
X876000Y474861D01*
X1012000D01*
X1013967Y475252D01*
X1015634Y476366D01*
X1032937Y493670D01*
X1034110Y493184D01*
Y489709D01*
X1054690D01*
Y494861D01*
X1057871D01*
X1076365Y476366D01*
X1078032Y475252D01*
X1079999Y474861D01*
X1500000D01*
X1501967Y475252D01*
X1503634Y476366D01*
X1522128Y494861D01*
X1534110D01*
Y489710D01*
X1554690D01*
Y494861D01*
X1562872D01*
X1588366Y469366D01*
X1590034Y468252D01*
X1592000Y467861D01*
X1696000D01*
X1697966Y468252D01*
X1699634Y469366D01*
X1725128Y494861D01*
X1734110D01*
Y489710D01*
X1754690D01*
Y494861D01*
X1761872D01*
X1790366Y466366D01*
X1792034Y465252D01*
X1794000Y464861D01*
X1908000D01*
X1909966Y465252D01*
X1911634Y466366D01*
X1933648Y488381D01*
X1937920D01*
X1939886Y488772D01*
X1941290Y489710D01*
X1954690D01*
Y494861D01*
X1961872D01*
X1986366Y470366D01*
X1988033Y469252D01*
X1990000Y468861D01*
X2098000D01*
X2099966Y469252D01*
X2101634Y470366D01*
X2126128Y494861D01*
X2134110D01*
Y489710D01*
X2154690D01*
Y494861D01*
X2157872D01*
X2182366Y470366D01*
X2184034Y469252D01*
X2186000Y468861D01*
X2305000D01*
X2306967Y469252D01*
X2308634Y470366D01*
X2332840Y494573D01*
X2334110Y494165D01*
Y489710D01*
X2354690D01*
Y494861D01*
X2361872D01*
X2387366Y469366D01*
X2389034Y468252D01*
X2391000Y467861D01*
X2508000D01*
X2509966Y468252D01*
X2511634Y469366D01*
X2530648Y488381D01*
X2537920D01*
X2539887Y488772D01*
X2541290Y489710D01*
X2554690D01*
Y510290D01*
X2534110D01*
Y498659D01*
X2528520D01*
X2526553Y498268D01*
X2524886Y497154D01*
X2505871Y478139D01*
X2393129D01*
X2367634Y503633D01*
X2365967Y504748D01*
X2364000Y505139D01*
X2354690D01*
Y510290D01*
X2334110D01*
Y505139D01*
X2331000D01*
X2329033Y504748D01*
X2327366Y503633D01*
X2302872Y479139D01*
X2188129D01*
X2163634Y503633D01*
X2161967Y504748D01*
X2160000Y505139D01*
X2154690D01*
Y510290D01*
X2134110D01*
Y505139D01*
X2124000D01*
X2122033Y504748D01*
X2120366Y503633D01*
X2095871Y479139D01*
X1992128D01*
X1967634Y503633D01*
X1965967Y504748D01*
X1964000Y505139D01*
X1954690D01*
Y510290D01*
X1934110D01*
Y498659D01*
X1931520D01*
X1929553Y498268D01*
X1927886Y497154D01*
X1905871Y475139D01*
X1796129D01*
X1767634Y503633D01*
X1765967Y504748D01*
X1764000Y505139D01*
X1754690D01*
Y510290D01*
X1734110D01*
Y505139D01*
X1723000D01*
X1721033Y504748D01*
X1719366Y503633D01*
X1693871Y478139D01*
X1594129D01*
X1568634Y503633D01*
X1566967Y504748D01*
X1565000Y505139D01*
X1554690D01*
Y510290D01*
X1534110D01*
Y505139D01*
X1520000D01*
X1518033Y504748D01*
X1516366Y503633D01*
X1497872Y485139D01*
X1082127D01*
X1063633Y503633D01*
X1061966Y504747D01*
X1059999Y505138D01*
X1054690D01*
Y510289D01*
X1034110D01*
Y505138D01*
X1031999D01*
X1030033Y504747D01*
X1028366Y503633D01*
X1009872Y485139D01*
X878129D01*
X859634Y503633D01*
X857967Y504747D01*
X856001Y505138D01*
X854690D01*
Y510289D01*
X834110D01*
Y505138D01*
X828999D01*
X827033Y504747D01*
X825366Y503633D01*
X805872Y484139D01*
X682129D01*
X662634Y503633D01*
X660967Y504747D01*
X659001Y505138D01*
X654690D01*
Y510289D01*
X634110D01*
Y505138D01*
X627999D01*
X626033Y504747D01*
X624366Y503633D01*
X604871Y484139D01*
X478129D01*
X458634Y503633D01*
X456967Y504747D01*
X455001Y505138D01*
X454690D01*
Y510289D01*
X434110D01*
Y505138D01*
X429999D01*
X428033Y504747D01*
X426366Y503633D01*
X405872Y483139D01*
X278129D01*
X258106Y503161D01*
X257218Y503754D01*
X257023Y505355D01*
X265529Y513861D01*
X1075702D01*
X1075886Y513541D01*
X1077541Y511886D01*
X1079569Y510716D01*
X1081830Y510110D01*
X1084170D01*
X1086431Y510716D01*
X1088459Y511886D01*
X1090114Y513541D01*
X1091284Y515569D01*
X1091890Y517830D01*
Y520170D01*
X1091284Y522431D01*
X1090114Y524459D01*
X1088459Y526114D01*
X1086431Y527284D01*
X1084170Y527890D01*
D02*
G37*
G36*
X2456955Y510290D02*
X2454246D01*
X2451629Y509589D01*
X2449282Y508234D01*
X2447366Y506318D01*
X2446012Y503972D01*
X2445310Y501355D01*
Y498645D01*
X2446012Y496028D01*
X2447366Y493682D01*
X2449282Y491766D01*
X2451629Y490411D01*
X2454246Y489710D01*
X2456955D01*
X2459572Y490411D01*
X2461918Y491766D01*
X2463834Y493682D01*
X2465189Y496028D01*
X2465890Y498645D01*
Y501355D01*
X2465189Y503972D01*
X2463834Y506318D01*
X2461918Y508234D01*
X2459572Y509589D01*
X2456955Y510290D01*
D02*
G37*
G36*
X2256955D02*
X2254245D01*
X2251628Y509589D01*
X2249282Y508234D01*
X2247366Y506318D01*
X2246011Y503972D01*
X2245310Y501355D01*
Y498645D01*
X2246011Y496028D01*
X2247366Y493682D01*
X2249282Y491766D01*
X2251628Y490411D01*
X2254245Y489710D01*
X2256955D01*
X2259572Y490411D01*
X2261918Y491766D01*
X2263834Y493682D01*
X2265189Y496028D01*
X2265890Y498645D01*
Y501355D01*
X2265189Y503972D01*
X2263834Y506318D01*
X2261918Y508234D01*
X2259572Y509589D01*
X2256955Y510290D01*
D02*
G37*
G36*
X2056955D02*
X2054245D01*
X2051628Y509589D01*
X2049282Y508234D01*
X2047366Y506318D01*
X2046011Y503972D01*
X2045310Y501355D01*
Y498645D01*
X2046011Y496028D01*
X2047366Y493682D01*
X2049282Y491766D01*
X2051628Y490411D01*
X2054245Y489710D01*
X2056955D01*
X2059572Y490411D01*
X2061918Y491766D01*
X2063834Y493682D01*
X2065189Y496028D01*
X2065890Y498645D01*
Y501355D01*
X2065189Y503972D01*
X2063834Y506318D01*
X2061918Y508234D01*
X2059572Y509589D01*
X2056955Y510290D01*
D02*
G37*
G36*
X1856955D02*
X1854245D01*
X1851628Y509589D01*
X1849282Y508234D01*
X1847366Y506318D01*
X1846011Y503972D01*
X1845310Y501355D01*
Y498645D01*
X1846011Y496028D01*
X1847366Y493682D01*
X1849282Y491766D01*
X1851628Y490411D01*
X1854245Y489710D01*
X1856955D01*
X1859572Y490411D01*
X1861918Y491766D01*
X1863834Y493682D01*
X1865189Y496028D01*
X1865890Y498645D01*
Y501355D01*
X1865189Y503972D01*
X1863834Y506318D01*
X1861918Y508234D01*
X1859572Y509589D01*
X1856955Y510290D01*
D02*
G37*
G36*
X1656954D02*
X1654245D01*
X1651628Y509589D01*
X1649282Y508234D01*
X1647366Y506318D01*
X1646011Y503972D01*
X1645310Y501355D01*
Y498645D01*
X1646011Y496028D01*
X1647366Y493682D01*
X1649282Y491766D01*
X1651628Y490411D01*
X1654245Y489710D01*
X1656954D01*
X1659572Y490411D01*
X1661918Y491766D01*
X1663834Y493682D01*
X1665189Y496028D01*
X1665890Y498645D01*
Y501355D01*
X1665189Y503972D01*
X1663834Y506318D01*
X1661918Y508234D01*
X1659572Y509589D01*
X1656954Y510290D01*
D02*
G37*
G36*
X1456955D02*
X1454245D01*
X1451628Y509589D01*
X1449282Y508234D01*
X1447366Y506318D01*
X1446012Y503972D01*
X1445310Y501355D01*
Y498645D01*
X1446012Y496028D01*
X1447366Y493682D01*
X1449282Y491766D01*
X1451628Y490411D01*
X1454245Y489710D01*
X1456955D01*
X1459572Y490411D01*
X1461918Y491766D01*
X1463834Y493682D01*
X1465189Y496028D01*
X1465890Y498645D01*
Y501355D01*
X1465189Y503972D01*
X1463834Y506318D01*
X1461918Y508234D01*
X1459572Y509589D01*
X1456955Y510290D01*
D02*
G37*
G36*
X956955Y510289D02*
X954246D01*
X951628Y509588D01*
X949282Y508233D01*
X947366Y506318D01*
X946012Y503971D01*
X945310Y501354D01*
Y498645D01*
X946012Y496028D01*
X947366Y493681D01*
X949282Y491765D01*
X951628Y490411D01*
X954246Y489709D01*
X956955D01*
X959572Y490411D01*
X961918Y491765D01*
X963834Y493681D01*
X965189Y496028D01*
X965890Y498645D01*
Y501354D01*
X965189Y503971D01*
X963834Y506318D01*
X961918Y508233D01*
X959572Y509588D01*
X956955Y510289D01*
D02*
G37*
G36*
X756955D02*
X754245D01*
X751628Y509588D01*
X749282Y508233D01*
X747366Y506318D01*
X746011Y503971D01*
X745310Y501354D01*
Y498645D01*
X746011Y496028D01*
X747366Y493681D01*
X749282Y491765D01*
X751628Y490411D01*
X754245Y489709D01*
X756955D01*
X759572Y490411D01*
X761918Y491765D01*
X763834Y493681D01*
X765189Y496028D01*
X765890Y498645D01*
Y501354D01*
X765189Y503971D01*
X763834Y506318D01*
X761918Y508233D01*
X759572Y509588D01*
X756955Y510289D01*
D02*
G37*
G36*
X556955D02*
X554245D01*
X551628Y509588D01*
X549282Y508233D01*
X547366Y506318D01*
X546011Y503971D01*
X545310Y501354D01*
Y498645D01*
X546011Y496028D01*
X547366Y493681D01*
X549282Y491765D01*
X551628Y490411D01*
X554245Y489709D01*
X556955D01*
X559572Y490411D01*
X561918Y491765D01*
X563834Y493681D01*
X565189Y496028D01*
X565890Y498645D01*
Y501354D01*
X565189Y503971D01*
X563834Y506318D01*
X561918Y508233D01*
X559572Y509588D01*
X556955Y510289D01*
D02*
G37*
G36*
X356955D02*
X354245D01*
X351628Y509588D01*
X349282Y508233D01*
X347366Y506318D01*
X346011Y503971D01*
X345310Y501354D01*
Y498645D01*
X346011Y496028D01*
X347366Y493681D01*
X349282Y491765D01*
X351628Y490411D01*
X354245Y489709D01*
X356955D01*
X359572Y490411D01*
X361918Y491765D01*
X363834Y493681D01*
X365189Y496028D01*
X365890Y498645D01*
Y501354D01*
X365189Y503971D01*
X363834Y506318D01*
X361918Y508233D01*
X359572Y509588D01*
X356955Y510289D01*
D02*
G37*
G36*
X156954D02*
X154245D01*
X151628Y509588D01*
X149282Y508233D01*
X147366Y506318D01*
X146011Y503971D01*
X145310Y501354D01*
Y498645D01*
X146011Y496028D01*
X147366Y493681D01*
X149282Y491765D01*
X151628Y490411D01*
X154245Y489709D01*
X156954D01*
X159572Y490411D01*
X161918Y491765D01*
X163834Y493681D01*
X165189Y496028D01*
X165890Y498645D01*
Y501354D01*
X165189Y503971D01*
X163834Y506318D01*
X161918Y508233D01*
X159572Y509588D01*
X156954Y510289D01*
D02*
G37*
G36*
X1726171Y476890D02*
X1723830D01*
X1721569Y476284D01*
X1719542Y475113D01*
X1717887Y473458D01*
X1716716Y471431D01*
X1716110Y469170D01*
Y466829D01*
X1716716Y464568D01*
X1717887Y462541D01*
X1719542Y460886D01*
X1719861Y460701D01*
Y222281D01*
X1718221Y221334D01*
X1716166Y219279D01*
X1714713Y216761D01*
X1713960Y213953D01*
Y211046D01*
X1714713Y208239D01*
X1716166Y205721D01*
X1718221Y203666D01*
X1720739Y202212D01*
X1723547Y201460D01*
X1726454D01*
X1729261Y202212D01*
X1731779Y203666D01*
X1733835Y205721D01*
X1735288Y208239D01*
X1736040Y211046D01*
Y213953D01*
X1735288Y216761D01*
X1733835Y219279D01*
X1731779Y221334D01*
X1730139Y222281D01*
Y460701D01*
X1730459Y460886D01*
X1732114Y462541D01*
X1733284Y464568D01*
X1733890Y466829D01*
Y469170D01*
X1733284Y471431D01*
X1732114Y473458D01*
X1730459Y475113D01*
X1728432Y476284D01*
X1726171Y476890D01*
D02*
G37*
G36*
X1676453Y223540D02*
X1673546D01*
X1670739Y222787D01*
X1668221Y221334D01*
X1666166Y219279D01*
X1664712Y216761D01*
X1663960Y213953D01*
Y211046D01*
X1664712Y208239D01*
X1666166Y205721D01*
X1668221Y203666D01*
X1670739Y202212D01*
X1673546Y201460D01*
X1676453D01*
X1679261Y202212D01*
X1681779Y203666D01*
X1683834Y205721D01*
X1685287Y208239D01*
X1686040Y211046D01*
Y213953D01*
X1685287Y216761D01*
X1683834Y219279D01*
X1681779Y221334D01*
X1679261Y222787D01*
X1676453Y223540D01*
D02*
G37*
G36*
X1526171Y480890D02*
X1523830D01*
X1521569Y480284D01*
X1519542Y479114D01*
X1517886Y477458D01*
X1516716Y475431D01*
X1516110Y473170D01*
Y470830D01*
X1516716Y468568D01*
X1517886Y466541D01*
X1519542Y464886D01*
X1519861Y464701D01*
Y222281D01*
X1518221Y221334D01*
X1516166Y219279D01*
X1514713Y216761D01*
X1513960Y213953D01*
Y211046D01*
X1514713Y208239D01*
X1516166Y205721D01*
X1518221Y203666D01*
X1520739Y202212D01*
X1523547Y201460D01*
X1526454D01*
X1529261Y202212D01*
X1531779Y203666D01*
X1533834Y205721D01*
X1535288Y208239D01*
X1536040Y211046D01*
Y213953D01*
X1535288Y216761D01*
X1533834Y219279D01*
X1531779Y221334D01*
X1530139Y222281D01*
Y464701D01*
X1530459Y464886D01*
X1532114Y466541D01*
X1533284Y468568D01*
X1533890Y470830D01*
Y473170D01*
X1533284Y475431D01*
X1532114Y477458D01*
X1530459Y479114D01*
X1528432Y480284D01*
X1526171Y480890D01*
D02*
G37*
G36*
X1476454Y223540D02*
X1473547D01*
X1470739Y222787D01*
X1468221Y221334D01*
X1466166Y219279D01*
X1464713Y216761D01*
X1463960Y213953D01*
Y211046D01*
X1464713Y208239D01*
X1466166Y205721D01*
X1468221Y203666D01*
X1470739Y202212D01*
X1473547Y201460D01*
X1476454D01*
X1479261Y202212D01*
X1481779Y203666D01*
X1483834Y205721D01*
X1485288Y208239D01*
X1486040Y211046D01*
Y213953D01*
X1485288Y216761D01*
X1483834Y219279D01*
X1481779Y221334D01*
X1479261Y222787D01*
X1476454Y223540D01*
D02*
G37*
G36*
X1026171Y475890D02*
X1023830D01*
X1021569Y475284D01*
X1019541Y474114D01*
X1017886Y472458D01*
X1016716Y470431D01*
X1016110Y468170D01*
Y465830D01*
X1016716Y463568D01*
X1017886Y461541D01*
X1019541Y459886D01*
X1019861Y459701D01*
Y222280D01*
X1018221Y221334D01*
X1016166Y219278D01*
X1014713Y216761D01*
X1013960Y213953D01*
Y211046D01*
X1014713Y208238D01*
X1016166Y205721D01*
X1018221Y203665D01*
X1020739Y202212D01*
X1023547Y201459D01*
X1026454D01*
X1029261Y202212D01*
X1031779Y203665D01*
X1033834Y205721D01*
X1035288Y208238D01*
X1036040Y211046D01*
Y213953D01*
X1035288Y216761D01*
X1033834Y219278D01*
X1031779Y221334D01*
X1030139Y222280D01*
Y459701D01*
X1030459Y459886D01*
X1032114Y461541D01*
X1033284Y463568D01*
X1033890Y465830D01*
Y468170D01*
X1033284Y470431D01*
X1032114Y472458D01*
X1030459Y474114D01*
X1028431Y475284D01*
X1026171Y475890D01*
D02*
G37*
G36*
X826170Y470890D02*
X823830D01*
X821569Y470284D01*
X819541Y469114D01*
X817886Y467459D01*
X816716Y465431D01*
X816110Y463170D01*
Y460830D01*
X816716Y458569D01*
X817886Y456541D01*
X819541Y454886D01*
X819861Y454702D01*
Y222280D01*
X818221Y221334D01*
X816166Y219278D01*
X814712Y216761D01*
X813960Y213953D01*
Y211046D01*
X814712Y208238D01*
X816166Y205721D01*
X818221Y203665D01*
X820739Y202212D01*
X823547Y201459D01*
X826453D01*
X829261Y202212D01*
X831779Y203665D01*
X833834Y205721D01*
X835288Y208238D01*
X836040Y211046D01*
Y213953D01*
X835288Y216761D01*
X833834Y219278D01*
X831779Y221334D01*
X830139Y222280D01*
Y454702D01*
X830459Y454886D01*
X832114Y456541D01*
X833284Y458569D01*
X833890Y460830D01*
Y463170D01*
X833284Y465431D01*
X832114Y467459D01*
X830459Y469114D01*
X828431Y470284D01*
X826170Y470890D01*
D02*
G37*
G36*
X776454Y223539D02*
X773547D01*
X770739Y222787D01*
X768221Y221334D01*
X766166Y219278D01*
X764713Y216761D01*
X763960Y213953D01*
Y211046D01*
X764713Y208238D01*
X766166Y205721D01*
X768221Y203665D01*
X770739Y202212D01*
X773547Y201459D01*
X776454D01*
X779261Y202212D01*
X781779Y203665D01*
X783834Y205721D01*
X785288Y208238D01*
X786040Y211046D01*
Y213953D01*
X785288Y216761D01*
X783834Y219278D01*
X781779Y221334D01*
X779261Y222787D01*
X776454Y223539D01*
D02*
G37*
G36*
X2601826Y118540D02*
X2598174D01*
X2594592Y117828D01*
X2591218Y116430D01*
X2588181Y114401D01*
X2585599Y111819D01*
X2583570Y108782D01*
X2582173Y105408D01*
X2581460Y101826D01*
Y98174D01*
X2582173Y94592D01*
X2583570Y91218D01*
X2585599Y88181D01*
X2588181Y85599D01*
X2591218Y83570D01*
X2594592Y82172D01*
X2598174Y81460D01*
X2601826D01*
X2605408Y82172D01*
X2608782Y83570D01*
X2611819Y85599D01*
X2614401Y88181D01*
X2616430Y91218D01*
X2617827Y94592D01*
X2618540Y98174D01*
Y101826D01*
X2617827Y105408D01*
X2616430Y108782D01*
X2614401Y111819D01*
X2611819Y114401D01*
X2608782Y116430D01*
X2605408Y117828D01*
X2601826Y118540D01*
D02*
G37*
G36*
X1901826D02*
X1898174D01*
X1894592Y117828D01*
X1891218Y116430D01*
X1888181Y114401D01*
X1885599Y111819D01*
X1883570Y108782D01*
X1882173Y105408D01*
X1881460Y101826D01*
Y98174D01*
X1882173Y94592D01*
X1883570Y91218D01*
X1885599Y88181D01*
X1888181Y85599D01*
X1891218Y83570D01*
X1894592Y82172D01*
X1898174Y81460D01*
X1901826D01*
X1905408Y82172D01*
X1908782Y83570D01*
X1911819Y85599D01*
X1914401Y88181D01*
X1916430Y91218D01*
X1917827Y94592D01*
X1918540Y98174D01*
Y101826D01*
X1917827Y105408D01*
X1916430Y108782D01*
X1914401Y111819D01*
X1911819Y114401D01*
X1908782Y116430D01*
X1905408Y117828D01*
X1901826Y118540D01*
D02*
G37*
G36*
X1251826D02*
X1248174D01*
X1244592Y117828D01*
X1241218Y116430D01*
X1238181Y114401D01*
X1235599Y111819D01*
X1233570Y108782D01*
X1232172Y105408D01*
X1231460Y101826D01*
Y98174D01*
X1232172Y94592D01*
X1233570Y91218D01*
X1235599Y88181D01*
X1238181Y85599D01*
X1241218Y83570D01*
X1244592Y82172D01*
X1248174Y81460D01*
X1251826D01*
X1255408Y82172D01*
X1258782Y83570D01*
X1261819Y85599D01*
X1264401Y88181D01*
X1266430Y91218D01*
X1267828Y94592D01*
X1268540Y98174D01*
Y101826D01*
X1267828Y105408D01*
X1266430Y108782D01*
X1264401Y111819D01*
X1261819Y114401D01*
X1258782Y116430D01*
X1255408Y117828D01*
X1251826Y118540D01*
D02*
G37*
G36*
X601826D02*
X598174D01*
X594592Y117828D01*
X591218Y116430D01*
X588181Y114401D01*
X585599Y111819D01*
X583570Y108782D01*
X582173Y105408D01*
X581460Y101826D01*
Y98174D01*
X582173Y94592D01*
X583570Y91218D01*
X585599Y88181D01*
X588181Y85599D01*
X591218Y83570D01*
X594592Y82172D01*
X598174Y81460D01*
X601826D01*
X605408Y82172D01*
X608782Y83570D01*
X611819Y85599D01*
X614401Y88181D01*
X616430Y91218D01*
X617827Y94592D01*
X618540Y98174D01*
Y101826D01*
X617827Y105408D01*
X616430Y108782D01*
X614401Y111819D01*
X611819Y114401D01*
X608782Y116430D01*
X605408Y117828D01*
X601826Y118540D01*
D02*
G37*
G36*
X101826D02*
X98174D01*
X94592Y117828D01*
X91218Y116430D01*
X88181Y114401D01*
X85599Y111819D01*
X83570Y108782D01*
X82172Y105408D01*
X81460Y101826D01*
Y98174D01*
X82172Y94592D01*
X83570Y91218D01*
X85599Y88181D01*
X88181Y85599D01*
X91218Y83570D01*
X94592Y82172D01*
X98174Y81460D01*
X101826D01*
X105408Y82172D01*
X108782Y83570D01*
X111819Y85599D01*
X114401Y88181D01*
X116430Y91218D01*
X117828Y94592D01*
X118540Y98174D01*
Y101826D01*
X117828Y105408D01*
X116430Y108782D01*
X114401Y111819D01*
X111819Y114401D01*
X108782Y116430D01*
X105408Y117828D01*
X101826Y118540D01*
D02*
G37*
G36*
X1726454Y98540D02*
X1723547D01*
X1720739Y97788D01*
X1718221Y96334D01*
X1716166Y94279D01*
X1714713Y91761D01*
X1713960Y88953D01*
Y86046D01*
X1714713Y83239D01*
X1716166Y80721D01*
X1718221Y78666D01*
X1720739Y77212D01*
X1723547Y76460D01*
X1726454D01*
X1729261Y77212D01*
X1731779Y78666D01*
X1733835Y80721D01*
X1735288Y83239D01*
X1736040Y86046D01*
Y88953D01*
X1735288Y91761D01*
X1733835Y94279D01*
X1731779Y96334D01*
X1729261Y97788D01*
X1726454Y98540D01*
D02*
G37*
G36*
X1686040D02*
X1663960D01*
Y76460D01*
X1686040D01*
Y98540D01*
D02*
G37*
G36*
X1526454D02*
X1523547D01*
X1520739Y97788D01*
X1518221Y96334D01*
X1516166Y94279D01*
X1514713Y91761D01*
X1513960Y88953D01*
Y86046D01*
X1514713Y83239D01*
X1516166Y80721D01*
X1518221Y78666D01*
X1520739Y77212D01*
X1523547Y76460D01*
X1526454D01*
X1529261Y77212D01*
X1531779Y78666D01*
X1533834Y80721D01*
X1535288Y83239D01*
X1536040Y86046D01*
Y88953D01*
X1535288Y91761D01*
X1533834Y94279D01*
X1531779Y96334D01*
X1529261Y97788D01*
X1526454Y98540D01*
D02*
G37*
G36*
X1486040D02*
X1463960D01*
Y76460D01*
X1486040D01*
Y98540D01*
D02*
G37*
G36*
X1026454Y98539D02*
X1023547D01*
X1020739Y97787D01*
X1018221Y96334D01*
X1016166Y94278D01*
X1014713Y91761D01*
X1013960Y88953D01*
Y86046D01*
X1014713Y83238D01*
X1016166Y80721D01*
X1018221Y78665D01*
X1020739Y77212D01*
X1023547Y76459D01*
X1026454D01*
X1029261Y77212D01*
X1031779Y78665D01*
X1033834Y80721D01*
X1035288Y83238D01*
X1036040Y86046D01*
Y88953D01*
X1035288Y91761D01*
X1033834Y94278D01*
X1031779Y96334D01*
X1029261Y97787D01*
X1026454Y98539D01*
D02*
G37*
G36*
X986040D02*
X963960D01*
Y76459D01*
X986040D01*
Y98539D01*
D02*
G37*
G36*
X826453D02*
X823547D01*
X820739Y97787D01*
X818221Y96334D01*
X816166Y94278D01*
X814712Y91761D01*
X813960Y88953D01*
Y86046D01*
X814712Y83238D01*
X816166Y80721D01*
X818221Y78665D01*
X820739Y77212D01*
X823547Y76459D01*
X826453D01*
X829261Y77212D01*
X831779Y78665D01*
X833834Y80721D01*
X835288Y83238D01*
X836040Y86046D01*
Y88953D01*
X835288Y91761D01*
X833834Y94278D01*
X831779Y96334D01*
X829261Y97787D01*
X826453Y98539D01*
D02*
G37*
G36*
X786040D02*
X763960D01*
Y76459D01*
X786040D01*
Y98539D01*
D02*
G37*
G36*
X1656954Y60290D02*
X1654245D01*
X1651628Y59589D01*
X1649282Y58234D01*
X1647366Y56318D01*
X1646011Y53972D01*
X1645310Y51354D01*
Y48645D01*
X1646011Y46028D01*
X1647366Y43682D01*
X1648639Y42409D01*
X1648113Y41139D01*
X1585129D01*
X1572634Y53633D01*
X1570967Y54747D01*
X1569000Y55139D01*
X1554690D01*
Y60290D01*
X1534110D01*
Y55139D01*
X1519000D01*
X1517033Y54747D01*
X1515366Y53633D01*
X1499872Y38139D01*
X1085127D01*
X1069633Y53633D01*
X1067966Y54747D01*
X1065999Y55138D01*
X1054690D01*
Y60289D01*
X1034110D01*
Y55138D01*
X1022999D01*
X1021033Y54747D01*
X1019366Y53633D01*
X1001871Y36139D01*
X881127D01*
X863633Y53633D01*
X861966Y54747D01*
X859999Y55138D01*
X855300D01*
Y60289D01*
X834720D01*
Y39709D01*
X855300D01*
Y44861D01*
X857871D01*
X875365Y27366D01*
X877032Y26252D01*
X878999Y25861D01*
X1004000D01*
X1005966Y26252D01*
X1007634Y27366D01*
X1025128Y44861D01*
X1034110D01*
Y39709D01*
X1054690D01*
Y44861D01*
X1063871D01*
X1079365Y29366D01*
X1081032Y28252D01*
X1082999Y27861D01*
X1502000D01*
X1503967Y28252D01*
X1505634Y29366D01*
X1521128Y44861D01*
X1534110D01*
Y39710D01*
X1554690D01*
Y44861D01*
X1566872D01*
X1579367Y32366D01*
X1581034Y31252D01*
X1583000Y30861D01*
X1704000D01*
X1705966Y31252D01*
X1707633Y32366D01*
X1720128Y44861D01*
X1734860D01*
Y40460D01*
X1753940D01*
Y59540D01*
X1734860D01*
Y55139D01*
X1718000D01*
X1716033Y54747D01*
X1714366Y53633D01*
X1701871Y41139D01*
X1663087D01*
X1662561Y42409D01*
X1663834Y43682D01*
X1665189Y46028D01*
X1665890Y48645D01*
Y51354D01*
X1665189Y53972D01*
X1663834Y56318D01*
X1661918Y58234D01*
X1659572Y59589D01*
X1656954Y60290D01*
D02*
G37*
G36*
X1456955D02*
X1454245D01*
X1451628Y59589D01*
X1449282Y58234D01*
X1447366Y56318D01*
X1446012Y53972D01*
X1445310Y51354D01*
Y48645D01*
X1446012Y46028D01*
X1447366Y43682D01*
X1449282Y41766D01*
X1451628Y40411D01*
X1454245Y39710D01*
X1456955D01*
X1459572Y40411D01*
X1461918Y41766D01*
X1463834Y43682D01*
X1465189Y46028D01*
X1465890Y48645D01*
Y51354D01*
X1465189Y53972D01*
X1463834Y56318D01*
X1461918Y58234D01*
X1459572Y59589D01*
X1456955Y60290D01*
D02*
G37*
G36*
X976454Y223539D02*
X973547D01*
X970739Y222787D01*
X968222Y221334D01*
X966166Y219278D01*
X964713Y216761D01*
X963960Y213953D01*
Y211046D01*
X964713Y208238D01*
X966166Y205721D01*
X968222Y203665D01*
X969862Y202718D01*
Y143129D01*
X951967Y125234D01*
X950853Y123567D01*
X950462Y121600D01*
Y58914D01*
X949282Y58233D01*
X947366Y56318D01*
X946012Y53971D01*
X945310Y51354D01*
Y48645D01*
X946012Y46027D01*
X947366Y43681D01*
X949282Y41765D01*
X951628Y40410D01*
X954246Y39709D01*
X956955D01*
X959572Y40410D01*
X961918Y41765D01*
X963834Y43681D01*
X965189Y46027D01*
X965890Y48645D01*
Y51354D01*
X965189Y53971D01*
X963834Y56318D01*
X961918Y58233D01*
X960739Y58914D01*
Y119472D01*
X978634Y137367D01*
X979748Y139034D01*
X980139Y141000D01*
Y202718D01*
X981779Y203665D01*
X983834Y205721D01*
X985288Y208238D01*
X986040Y211046D01*
Y213953D01*
X985288Y216761D01*
X983834Y219278D01*
X981779Y221334D01*
X979261Y222787D01*
X976454Y223539D01*
D02*
G37*
G36*
X757564Y60289D02*
X754855D01*
X752238Y59588D01*
X749892Y58233D01*
X747976Y56318D01*
X746621Y53971D01*
X745920Y51354D01*
Y48645D01*
X746621Y46027D01*
X747976Y43681D01*
X749892Y41765D01*
X752238Y40410D01*
X754855Y39709D01*
X757564D01*
X760182Y40410D01*
X762528Y41765D01*
X764444Y43681D01*
X765798Y46027D01*
X766500Y48645D01*
Y51354D01*
X765798Y53971D01*
X764444Y56318D01*
X762528Y58233D01*
X760182Y59588D01*
X757564Y60289D01*
D02*
G37*
%LPD*%
D17*
X775000Y737500D02*
D03*
X1875000Y737500D02*
D03*
X2475000Y937500D02*
D03*
Y737500D02*
D03*
X2075000Y537500D02*
D03*
X1675000D02*
D03*
X1475000D02*
D03*
X1675000Y737500D02*
D03*
X2475000Y537500D02*
D03*
X2275000D02*
D03*
Y737500D02*
D03*
X2075000D02*
D03*
X975000Y537500D02*
D03*
X775000Y87499D02*
D03*
Y537500D02*
D03*
X575000Y737500D02*
D03*
X375000D02*
D03*
X575000Y537500D02*
D03*
X375000D02*
D03*
X175000Y937499D02*
D03*
Y737500D02*
D03*
Y537500D02*
D03*
X975000Y87499D02*
D03*
X1475000Y87500D02*
D03*
X1875000Y537500D02*
D03*
X1675000Y87500D02*
D03*
D18*
X775000Y862500D02*
D03*
X825000Y737500D02*
D03*
Y862500D02*
D03*
X2525000Y1062500D02*
D03*
Y937500D02*
D03*
X2475000Y1062500D02*
D03*
Y862500D02*
D03*
X2525000Y737500D02*
D03*
Y862500D02*
D03*
X2125000Y537500D02*
D03*
X2075000Y662500D02*
D03*
X1725000D02*
D03*
Y537500D02*
D03*
X1675000Y662500D02*
D03*
X1525000D02*
D03*
Y537500D02*
D03*
X1475000Y662500D02*
D03*
X1725000Y862500D02*
D03*
Y737500D02*
D03*
X1675000Y862500D02*
D03*
X2525000Y662500D02*
D03*
Y537500D02*
D03*
X2475000Y662500D02*
D03*
X2325000D02*
D03*
Y537500D02*
D03*
X2275000Y662500D02*
D03*
X2325000Y862500D02*
D03*
Y737500D02*
D03*
X2275000Y862500D02*
D03*
X2125000D02*
D03*
Y737500D02*
D03*
X2075000Y862500D02*
D03*
X1925000D02*
D03*
Y737500D02*
D03*
X1875000Y862500D02*
D03*
X825000Y212499D02*
D03*
Y87499D02*
D03*
X775000Y212499D02*
D03*
X825000Y662499D02*
D03*
Y537500D02*
D03*
X775000Y662499D02*
D03*
X625000Y862500D02*
D03*
Y737500D02*
D03*
X575000Y862500D02*
D03*
X425000D02*
D03*
Y737500D02*
D03*
X375000Y862500D02*
D03*
X625000Y662499D02*
D03*
Y537500D02*
D03*
X575000Y662499D02*
D03*
X425000D02*
D03*
Y537500D02*
D03*
X375000Y662499D02*
D03*
X225000Y1062499D02*
D03*
Y937499D02*
D03*
X175000Y1062499D02*
D03*
X225000Y862500D02*
D03*
Y737500D02*
D03*
X175000Y862500D02*
D03*
X225000Y662499D02*
D03*
Y537500D02*
D03*
X175000Y662499D02*
D03*
X2125000Y662500D02*
D03*
X1025000Y212499D02*
D03*
Y87499D02*
D03*
X975000Y212499D02*
D03*
X1525000Y212500D02*
D03*
Y87500D02*
D03*
X1475000Y212500D02*
D03*
X1925000Y662500D02*
D03*
Y537500D02*
D03*
X1875000Y662500D02*
D03*
X1725000Y212500D02*
D03*
Y87500D02*
D03*
X1675000Y212500D02*
D03*
X1025000Y662499D02*
D03*
Y537500D02*
D03*
X975000Y662499D02*
D03*
D21*
X1744400Y50000D02*
D03*
D23*
X2544400Y900000D02*
D03*
Y700000D02*
D03*
X2144400D02*
D03*
X2344400D02*
D03*
X2544400Y500000D02*
D03*
X2344400D02*
D03*
X1744400Y700000D02*
D03*
X2144400Y500000D02*
D03*
X244400Y699999D02*
D03*
Y900000D02*
D03*
X444400Y699999D02*
D03*
X244400Y499999D02*
D03*
X444400D02*
D03*
X644400D02*
D03*
X844400D02*
D03*
X644400Y699999D02*
D03*
X844400D02*
D03*
X1044400Y499999D02*
D03*
X1744400Y500000D02*
D03*
X1944400D02*
D03*
Y700000D02*
D03*
X1544400Y50000D02*
D03*
Y500000D02*
D03*
X1044400Y49999D02*
D03*
X845010D02*
D03*
D24*
X2455600Y900000D02*
D03*
Y700000D02*
D03*
X2055600D02*
D03*
X2255600D02*
D03*
X2455600Y500000D02*
D03*
X2255600D02*
D03*
X1655600Y700000D02*
D03*
X2055600Y500000D02*
D03*
X155600Y699999D02*
D03*
Y900000D02*
D03*
X355600Y699999D02*
D03*
X155600Y499999D02*
D03*
X355600D02*
D03*
X555600D02*
D03*
X755600D02*
D03*
X555600Y699999D02*
D03*
X755600D02*
D03*
X955600Y499999D02*
D03*
X1655600Y50000D02*
D03*
Y500000D02*
D03*
X1855600D02*
D03*
Y700000D02*
D03*
X1455600Y50000D02*
D03*
Y500000D02*
D03*
X955600Y49999D02*
D03*
X756210D02*
D03*
D26*
X1035000Y900000D02*
X1131000Y804000D01*
X244400Y900000D02*
X1035000D01*
X244400D02*
Y917400D01*
X1181610Y861950D02*
X1227950D01*
X1228000Y862000D01*
X1131000Y786000D02*
Y804000D01*
X320000Y927000D02*
X1038000D01*
X1077700Y887300D01*
X1181560D01*
X556000Y947000D02*
X1064000D01*
X1098300Y912700D01*
X1181560D01*
X320718Y1167000D02*
X2464000D01*
X273000Y1119282D02*
X320718Y1167000D01*
X2464000D02*
X2544400Y1086600D01*
X1167500Y836500D02*
X1181560D01*
X1155000Y824000D02*
X1167500Y836500D01*
X1155000Y656000D02*
Y824000D01*
X1117000Y635000D02*
X1382000D01*
X1052001Y699999D02*
X1117000Y635000D01*
X1694000Y681000D02*
X1713000Y700000D01*
X844400Y699999D02*
X1052001D01*
X1428000Y681000D02*
X1694000D01*
X1382000Y635000D02*
X1428000Y681000D01*
X263401Y519000D02*
X1083000D01*
X244400Y499999D02*
X263401Y519000D01*
X975000Y141000D02*
Y212499D01*
X955600Y121600D02*
X975000Y141000D01*
X955600Y49999D02*
Y121600D01*
X1181560Y861900D02*
X1181610Y861950D01*
X1025000Y212499D02*
Y467000D01*
X825000Y212499D02*
Y462000D01*
X1525000Y212500D02*
Y472000D01*
X1725000Y212500D02*
Y468000D01*
X808000Y479000D02*
X828999Y499999D01*
X844400D01*
X680000Y479000D02*
X808000D01*
X659001Y499999D02*
X680000Y479000D01*
X1713000Y700000D02*
X1744400D01*
X273000Y946000D02*
Y1119282D01*
X244400Y917400D02*
X273000Y946000D01*
X2544400Y900000D02*
Y1086600D01*
X1544400Y50000D02*
X1569000D01*
X1502000Y33000D02*
X1519000Y50000D01*
X1004000Y31000D02*
X1022999Y49999D01*
X1704000Y36000D02*
X1718000Y50000D01*
X1569000D02*
X1583000Y36000D01*
X845010Y49999D02*
X859999D01*
X1718000Y50000D02*
X1744400D01*
X859999Y49999D02*
X878999Y31000D01*
X1044400Y49999D02*
X1065999D01*
X1082999Y33000D02*
X1502000D01*
X878999Y31000D02*
X1004000D01*
X1519000Y50000D02*
X1544400D01*
X1022999Y49999D02*
X1044400D01*
X1065999D02*
X1082999Y33000D01*
X1583000Y36000D02*
X1704000D01*
X1500000Y480000D02*
X1520000Y500000D01*
X1059999Y499999D02*
X1079999Y480000D01*
X1500000D01*
X1520000Y500000D02*
X1544400D01*
X1044400Y499999D02*
X1059999D01*
X620000Y687000D02*
X632999Y699999D01*
X269000Y685000D02*
X419000D01*
X468000Y687000D02*
X620000D01*
X816000Y685000D02*
X831000Y699999D01*
X455000D02*
X468000Y687000D01*
X244872Y699528D02*
X254472D01*
X269000Y685000D01*
X433999Y699999D02*
X455000D01*
X831000D02*
X844400D01*
X670000Y685000D02*
X816000D01*
X419000D02*
X433999Y699999D01*
X632999D02*
X655001D01*
X244400D02*
X244872Y699528D01*
X655001Y699999D02*
X670000Y685000D01*
X254472Y499528D02*
X276000Y478000D01*
X444400Y499999D02*
X455001D01*
X644400D02*
X659001D01*
X455001D02*
X476000Y479000D01*
X607000D01*
X408000Y478000D02*
X429999Y499999D01*
X1031999D02*
X1044400D01*
X856001D02*
X876000Y480000D01*
X844400Y499999D02*
X856001D01*
X244400D02*
X244872Y499528D01*
X254472D01*
X429999Y499999D02*
X444400D01*
X627999D02*
X644400D01*
X876000Y480000D02*
X1012000D01*
X276000Y478000D02*
X408000D01*
X607000Y479000D02*
X627999Y499999D01*
X1012000Y480000D02*
X1031999Y499999D01*
X1565000Y500000D02*
X1592000Y473000D01*
X1544400Y500000D02*
X1565000D01*
X1592000Y473000D02*
X1696000D01*
X1723000Y500000D01*
X1744400D01*
X1764000D01*
X1794000Y470000D01*
X1908000D01*
X1931520Y493520D01*
X1937920D02*
X1944400Y500000D01*
X1931520Y493520D02*
X1937920D01*
X1964000Y500000D02*
X1990000Y474000D01*
X1944400Y500000D02*
X1964000D01*
X1990000Y474000D02*
X2098000D01*
X2124000Y500000D01*
X2144400D01*
X2160000D01*
X2186000Y474000D01*
X2305000D01*
X2331000Y500000D01*
X2344400D01*
X2364000D02*
X2391000Y473000D01*
X2344400Y500000D02*
X2364000D01*
X2391000Y473000D02*
X2508000D01*
X2528520Y493520D01*
X2537920D02*
X2544400Y500000D01*
X2528520Y493520D02*
X2537920D01*
X1761000Y700000D02*
X1779000Y682000D01*
X1744400Y700000D02*
X1761000D01*
X1779000Y682000D02*
X1908000D01*
X1926000Y700000D01*
X1944400D01*
X1968000D01*
X1988000Y680000D01*
X2108000D01*
X2128000Y700000D01*
X2144400D01*
X2163000D02*
X2181000Y682000D01*
X2144400Y700000D02*
X2163000D01*
X2181000Y682000D02*
X2304000D01*
X2322000Y700000D01*
X2344400D01*
X2362000D01*
X2380000Y682000D01*
X2509000D01*
X2527000Y700000D01*
X2544400D01*
D27*
X1181560Y1090500D02*
D03*
Y1065100D02*
D03*
Y1039700D02*
D03*
Y1014300D02*
D03*
Y988900D02*
D03*
Y963500D02*
D03*
Y938100D02*
D03*
Y912700D02*
D03*
Y887300D02*
D03*
Y861900D02*
D03*
Y836500D02*
D03*
Y811100D02*
D03*
Y785700D02*
D03*
Y760300D02*
D03*
Y734900D02*
D03*
Y709500D02*
D03*
Y658700D02*
D03*
Y684100D02*
D03*
Y1115900D02*
D03*
X1333760D02*
D03*
Y1090500D02*
D03*
Y1065100D02*
D03*
Y1039700D02*
D03*
Y1014300D02*
D03*
Y988900D02*
D03*
Y963500D02*
D03*
Y938100D02*
D03*
Y912700D02*
D03*
Y887300D02*
D03*
Y861900D02*
D03*
Y836500D02*
D03*
Y811100D02*
D03*
Y785700D02*
D03*
Y760300D02*
D03*
Y734900D02*
D03*
Y709500D02*
D03*
Y684100D02*
D03*
Y658700D02*
D03*
D28*
X1181560Y1141300D02*
D03*
X1333760D02*
D03*
D29*
X1900000Y100000D02*
D03*
X1250000D02*
D03*
X600000D02*
D03*
X900000Y1100000D02*
D03*
X1900000D02*
D03*
X2600000D02*
D03*
Y100000D02*
D03*
X100000D02*
D03*
Y1100000D02*
D03*
D30*
X1228000Y862000D02*
D03*
X1131000Y786000D02*
D03*
X320000Y927000D02*
D03*
X556000Y947000D02*
D03*
X1155000Y656000D02*
D03*
X1083000Y519000D02*
D03*
X1025000Y467000D02*
D03*
X825000Y462000D02*
D03*
X1525000Y472000D02*
D03*
X1725000Y468000D02*
D03*
M02*
